<?xml version="1.0" standalone="no"?>
<!DOCTYPE svg PUBLIC "-//W3C//DTD SVG 1.1//EN" "http://www.w3.org/Graphics/SVG/1.1/DTD/svg11.dtd" >
<svg xmlns="http://www.w3.org/2000/svg" xmlns:xlink="http://www.w3.org/1999/xlink" version="1.1">
<metadata></metadata>
<defs>
<font id="sukhumvit_setmedium" horiz-adv-x="0" >
<font-face units-per-em="2048" ascent="1638" descent="-410" />
<missing-glyph horiz-adv-x="512" />
<glyph unicode="&#xe2f;&#xe2f;" horiz-adv-x="1523" d="M82 1073v74h172v-76q0 -133 50 -200.5t161 -67.5q59 0 118.5 27.5t107.5 71.5t78 100.5t30 113.5v31h168v-342q45 20 87 54t74.5 77t51 89t18.5 91v31h168v-1147h-176v856q-29 -61 -88.5 -108.5t-134.5 -79.5v-668h-176v856q-20 -43 -58.5 -79t-86.5 -61.5t-104.5 -38.5 t-115.5 -13q-94 0 -159.5 30.5t-106.5 85t-59.5 129t-18.5 164.5z" />
<glyph unicode="&#xe4f;&#x22;" horiz-adv-x="1118" d="M123 492q0 90 33.5 169.5t93 139t139.5 93.5t170 34t170 -34t139.5 -93.5t93 -139t33.5 -169.5t-33.5 -170t-93 -139.5t-139.5 -94.5t-170 -35t-170 35t-139.5 94.5t-93 139t-33.5 170.5zM190 492q0 -78 29 -144.5t79 -117t117.5 -79t143.5 -28.5t143.5 28.5t117.5 79 t79 117t29 144.5q0 76 -29 143t-79 117.5t-117.5 79t-143.5 28.5t-143.5 -28.5t-117.5 -79t-79 -118t-29 -142.5zM305 489q0 53 20.5 100.5t54.5 81.5t80 53t97 19q53 0 99 -19t81 -54t54.5 -81t19.5 -97q0 -53 -20.5 -99.5t-54.5 -80t-80 -53t-97 -19.5q-53 0 -99 19.5 t-81 53t-54.5 79.5t-19.5 97zM360 1405h138l-21 -416h-96zM412 489q0 -59 43 -102t104 -43q59 0 101 42t42 106q0 59 -42 101t-103 42q-59 0 -102 -43t-43 -103zM621 1405h137l-21 -416h-96z" />
<glyph unicode="&#xe24;&#xe32;" horiz-adv-x="1949" d="M98 823q16 66 62.5 128.5t115 110.5t155.5 76.5t185 28.5q123 0 212.5 -34.5t148.5 -100.5q70 53 162 94t215 41q106 0 188 -32.5t138.5 -92t86 -140.5t29.5 -179v-1133h-176v1133q0 147 -73.5 220t-203.5 73q-94 0 -166.5 -32t-119.5 -81q31 -80 30 -180v-1133h-176 v1133q0 147 -76.5 220t-218.5 73q-117 0 -208 -50.5t-123 -131.5l155 -144q-55 -29 -81.5 -70.5t-26.5 -107.5v-311q0 -25 9 -39.5t38 -14.5h110v-147h-157q-84 0 -130 52t-46 132v303q0 59 28.5 112.5t81.5 80.5z" />
<glyph unicode="&#xe26;&#xe32;" horiz-adv-x="1959" d="M61 0v147h89q29 0 38 14.5t9 39.5v272q0 59 28.5 112.5t81.5 80.5l-188 157q16 66 62 128.5t113.5 110.5t155 76.5t185.5 28.5q121 0 209 -34.5t147 -96.5q70 53 161 92t212 39q106 0 188 -32.5t138.5 -92t86 -140.5t29.5 -179v-1133h-176v1133q0 147 -73.5 220 t-202.5 73q-92 0 -164 -31t-119 -78q33 -80 33 -184v-1133h-176v1133q0 147 -76 220t-217 73q-117 0 -207 -50.5t-123 -131.5l176 -158q-55 -29 -81.5 -71t-26.5 -107v-314q0 -80 -46 -133t-130 -51h-136z" />
<glyph unicode="fi" horiz-adv-x="1120" d="M37 850v139h151v33q0 174 92.5 276.5t280.5 102.5q78 0 143.5 -17.5t108.5 -40.5l-39 -124q-41 23 -94 33t-111 10q-117 0 -165 -64.5t-48 -177.5v-31h605v-989h-173v850h-432v-850h-168v850h-151z" />
<glyph unicode="fl" horiz-adv-x="1181" d="M37 850v139h151v33q0 80 29 149.5t79 120.5t118.5 80t146.5 29q104 0 173 -34t116 -79l20 92h152v-1380h-172v1165q-41 39 -103.5 68t-136.5 29q-117 0 -185.5 -64.5t-68.5 -177.5v-31h285v-139h-285v-850h-168v850h-151z" />
<glyph unicode=" "  horiz-adv-x="512" />
<glyph unicode="&#x09;" horiz-adv-x="512" />
<glyph unicode="&#xa0;" horiz-adv-x="512" />
<glyph unicode="!" horiz-adv-x="520" d="M135 102q0 51 33 87t92 36t92 -35.5t33 -87.5q0 -51 -33 -86.5t-92 -35.5t-92 35.5t-33 86.5zM170 1065v315h180v-315l-22 -680h-135z" />
<glyph unicode="&#x22;" horiz-adv-x="692" d="M115 1409h159l-24 -483h-111zM418 1409h160l-25 -483h-111z" />
<glyph unicode="#" horiz-adv-x="1171" d="M57 410v122h215l58 267h-189v123h215l88 409h144l-88 -409h282l88 409h144l-88 -409h188v-123h-215l-57 -267h188v-122h-215l-88 -410h-143l88 410h-283l-88 -410h-143l88 410h-189zM414 530h286l58 271h-287z" />
<glyph unicode="$" horiz-adv-x="1171" d="M152 55l43 142q55 -27 137 -45.5t190 -18.5v479q-61 20 -126.5 47t-120 70t-89 106.5t-34.5 157.5q0 141 88 237.5t282 117.5v188h115v-184q88 -4 162.5 -22.5t138.5 -49.5l-41 -141q-55 23 -121.5 39t-138.5 20v-455q66 -23 132.5 -52t120.5 -73.5t88 -109t34 -156.5 q0 -166 -102.5 -254t-272.5 -110v-193h-115v185q-133 0 -219 21.5t-151 53.5zM307 997q0 -45 16.5 -77.5t46 -57t68.5 -43t84 -35.5v408q-111 -14 -163 -65.5t-52 -129.5zM637 143q96 16 156.5 68.5t60.5 144.5q0 45 -17.5 79t-46 59.5t-68.5 45t-85 35.5v-432z" />
<glyph unicode="%" horiz-adv-x="1589" d="M86 991q0 74 18.5 139.5t55.5 114.5t91 78t126 29q70 0 124 -29t91 -78t56.5 -114.5t19.5 -139.5t-19.5 -139.5t-56.5 -114.5t-91.5 -77.5t-123.5 -28.5q-72 0 -126 28.5t-91 77.5t-55.5 114.5t-18.5 139.5zM225 991q0 -47 8.5 -92t27 -80t47 -55.5t69.5 -20.5t69.5 21.5 t47 55.5t26.5 78t8 91t-8 92t-26.5 80t-47 56.5t-69.5 21.5t-69.5 -21.5t-47 -56.5t-27 -80t-8.5 -90zM348 0l750 1352h143l-749 -1352h-144zM922 340q0 74 18 139.5t55 114.5t91.5 77.5t125.5 28.5q70 0 124.5 -28.5t91 -77.5t56 -114.5t19.5 -139.5t-19.5 -139.5 t-56 -114.5t-91 -77.5t-124.5 -28.5q-72 0 -126 28.5t-91 77.5t-55 114.5t-18 139.5zM1061 340q0 -47 8 -92t26.5 -80t47 -55.5t69.5 -20.5t70 21.5t47.5 55.5t26.5 78t8 91t-8 92t-26.5 80t-47.5 56.5t-70 21.5t-69.5 -21.5t-47 -56.5t-26.5 -80t-8 -90z" />
<glyph unicode="&#x26;" horiz-adv-x="1298" d="M131 377q0 70 21.5 128t58.5 105t85 87t99 75l-16 21q-63 76 -101 145.5t-38 148.5q0 145 86 229.5t252 84.5q88 0 150.5 -23.5t102 -64.5t58 -96.5t18.5 -118.5q0 -61 -24.5 -111.5t-66.5 -93.5t-94 -80t-108 -74l344 -411q72 119 72 280v109h172v-109 q0 -123 -34.5 -227.5t-98.5 -183.5l164 -197h-193l-77 92q-76 -53 -168.5 -82.5t-198.5 -29.5q-121 0 -209 30.5t-144.5 85t-84 126t-27.5 155.5zM315 383q0 -115 74 -177.5t211 -62.5q156 0 256 76l-362 434q-76 -55 -127.5 -119.5t-51.5 -150.5zM406 1098 q0 -57 24.5 -113.5t77.5 -116.5l12 -16q45 27 85 55.5t70 58t47 63.5t17 73q0 70 -37.5 112.5t-126.5 42.5q-78 0 -123.5 -39.5t-45.5 -119.5z" />
<glyph unicode="'" horiz-adv-x="389" d="M115 1409h159l-24 -483h-111z" />
<glyph unicode="(" horiz-adv-x="612" d="M143 580q0 168 33 303t88 240.5t129 181t158 125.5l41 -76q-74 -49 -128 -129t-91 -181.5t-55.5 -220t-18.5 -243.5q0 -127 18.5 -245t55.5 -219.5t91 -181t128 -129.5l-41 -75q-84 49 -158 124.5t-129 181t-88 241t-33 303.5z" />
<glyph unicode=")" horiz-adv-x="612" d="M20 -195q74 49 128.5 129t91 181.5t55 219.5t18.5 245q0 125 -18.5 243.5t-55 220t-91 181.5t-128.5 129l41 76q84 -49 158 -125t129 -181.5t88 -240.5t33 -303t-33 -303.5t-88 -241t-129 -181t-158 -124.5z" />
<glyph unicode="*" horiz-adv-x="1040" d="M123 752l285 192v17l-285 188l115 111l223 -220l14 4l-39 336h168l-37 -336l15 -4l223 220l113 -111l-285 -188v-17l285 -192l-113 -109l-223 221l-15 -2l37 -334h-168l39 334l-14 2l-223 -221z" />
<glyph unicode="+" horiz-adv-x="1171" d="M152 512v139h356v365h156v-365h356v-139h-356v-365h-156v365h-356z" />
<glyph unicode="," horiz-adv-x="495" d="M106 -256l62 473h201l-156 -473h-107z" />
<glyph unicode="-" horiz-adv-x="663" d="M61 481v140h541v-140h-541z" />
<glyph unicode="." horiz-adv-x="495" d="M123 102q0 51 32.5 87t92.5 36q59 0 92 -35.5t33 -87.5q0 -51 -33 -86.5t-92 -35.5t-92 35.5t-33 86.5z" />
<glyph unicode="/" horiz-adv-x="759" d="M20 -82l582 1462h137l-581 -1462h-138z" />
<glyph unicode="0" horiz-adv-x="1171" d="M98 666q0 326 128 506t360 180q231 0 359 -180.5t128 -505.5q0 -326 -128 -506t-359 -180t-359.5 180t-128.5 506zM274 666q0 -274 80 -406.5t232 -132.5t231.5 132t79.5 407q0 274 -80 406t-231 132q-152 0 -232 -132t-80 -406z" />
<glyph unicode="1" horiz-adv-x="1171" d="M197 0v160h325v1007l-282 -90v144l311 110h147v-1171h314v-160h-815z" />
<glyph unicode="2" horiz-adv-x="1171" d="M127 0v133l332 336q84 86 148.5 154.5t107.5 129t65.5 118t22.5 120.5q0 102 -70.5 151.5t-187.5 49.5q-86 0 -169 -21.5t-149 -52.5l-45 148q66 33 160 59.5t205 26.5q223 0 327.5 -98.5t104.5 -262.5q0 -84 -32 -162.5t-85 -155.5t-125.5 -153t-152.5 -151l-215 -205 h655v-164h-897z" />
<glyph unicode="3" horiz-adv-x="1171" d="M127 61l45 144q59 -29 146.5 -49.5t191.5 -20.5q158 0 233.5 66.5t75.5 175.5q0 119 -77.5 176t-209.5 57h-194v148h194q109 0 178.5 60.5t69.5 176.5q0 94 -68.5 147.5t-230.5 53.5q-96 0 -172 -18.5t-135 -47.5l-45 144q66 33 160 55.5t203 22.5q123 0 209.5 -28 t143 -76t82 -112.5t25.5 -138.5q0 -127 -56 -196.5t-142 -108.5q104 -29 170.5 -108.5t66.5 -208.5q0 -180 -124 -287.5t-355 -107.5q-123 0 -220 23.5t-165 57.5z" />
<glyph unicode="4" horiz-adv-x="1171" d="M94 254v121l682 956h146v-930h155v-147h-155v-254h-172v254h-656zM293 401h461v652z" />
<glyph unicode="5" horiz-adv-x="1171" d="M123 61l45 144q59 -29 144 -49.5t198 -20.5q84 0 146.5 21.5t104.5 58.5t62.5 87t20.5 108q0 129 -75 200.5t-251 71.5h-336v121l51 528h705v-164h-553l-31 -325h166q246 0 373 -115t127 -315q0 -201 -135 -316.5t-373 -115.5q-127 0 -224.5 23.5t-164.5 57.5z" />
<glyph unicode="6" horiz-adv-x="1171" d="M123 651q0 170 39 300t109.5 219.5t169 135.5t218.5 46q98 0 169 -21.5t135 -56.5l-43 -135q-113 65 -256 65q-166 0 -263.5 -123t-101.5 -352q23 25 57.5 52.5t80.5 50t103.5 37t127.5 14.5q86 0 159.5 -30t128 -86t84 -137t29.5 -184q0 -98 -31.5 -184t-90 -148.5 t-141.5 -98t-185 -35.5q-236 0 -367 168.5t-131 502.5zM301 592q0 -111 25.5 -197t68.5 -146.5t101.5 -91t124.5 -30.5q123 0 197.5 85t74.5 239q0 57 -12.5 108t-41 90t-76.5 61.5t-120 22.5q-113 0 -200 -42t-142 -99z" />
<glyph unicode="7" horiz-adv-x="1171" d="M147 1171v160h889v-117l-571 -1214h-184l553 1171h-687z" />
<glyph unicode="8" horiz-adv-x="1171" d="M119 360q0 66 20.5 122.5t54 100.5t78.5 71.5t97 37.5q-90 29 -150.5 105.5t-60.5 197.5q0 164 111.5 260.5t316.5 96.5t316.5 -96.5t111.5 -260.5q0 -121 -60.5 -197.5t-150.5 -105.5q51 -10 96 -37.5t79 -71.5t54.5 -100.5t20.5 -122.5q0 -176 -124 -278t-343 -102 t-343 102t-124 278zM291 365q0 -111 78 -176.5t217 -65.5t217 65.5t78 176.5q0 123 -71 184t-224 61q-154 0 -224.5 -61.5t-70.5 -183.5zM330 987q0 -115 67.5 -174t188.5 -59t188.5 59t67.5 174q0 109 -68.5 165t-187.5 56t-187.5 -56t-68.5 -165z" />
<glyph unicode="9" horiz-adv-x="1171" d="M102 885q0 98 32 184t90.5 148.5t141.5 98.5t185 36q236 0 367 -169t131 -503q0 -348 -140.5 -524t-412.5 -176q-98 0 -177 20t-145 53l43 135q59 -31 132 -46t143 -15q197 0 286.5 124t93.5 351q-23 -25 -57.5 -52.5t-80.5 -50t-103.5 -36.5t-126.5 -14q-86 0 -160 29.5 t-128 86t-84 137t-30 183.5zM279 881q0 -57 12 -108.5t40.5 -90.5t76.5 -61.5t120 -22.5q113 0 200 42t142 99q0 111 -25.5 197t-68.5 146.5t-101.5 91t-123.5 30.5q-123 0 -197.5 -85t-74.5 -238z" />
<glyph unicode=":" horiz-adv-x="536" d="M143 102q0 51 33 87t92 36t92 -35.5t33 -87.5q0 -51 -32.5 -86.5t-92.5 -35.5q-59 0 -92 35.5t-33 86.5zM143 856q0 51 33 87t92 36t92 -36t33 -87t-32.5 -87t-92.5 -36q-59 0 -92 36t-33 87z" />
<glyph unicode=";" horiz-adv-x="536" d="M117 -256l61 473h201l-156 -473h-106zM143 856q0 51 33 87t92 36t92 -36t33 -87t-32.5 -87t-92.5 -36q-59 0 -92 36t-33 87z" />
<glyph unicode="&#x3c;" horiz-adv-x="1171" d="M135 524v115l873 473v-164l-699 -366l699 -367v-164z" />
<glyph unicode="=" horiz-adv-x="1171" d="M172 328v139h827v-139h-827zM172 696v140h827v-140h-827z" />
<glyph unicode="&#x3e;" horiz-adv-x="1171" d="M164 51v164l698 367l-698 366v164l872 -473v-115z" />
<glyph unicode="?" horiz-adv-x="1011" d="M98 1315q66 33 161 59.5t206 26.5q217 0 320.5 -93.5t103.5 -246.5q0 -80 -26.5 -142.5t-67.5 -113.5t-87 -95t-87 -86t-68 -86t-27 -98q0 -68 19 -112h-142q-14 23 -21 54.5t-7 63.5q0 66 24.5 118t62.5 97.5t82 86t82 85t62.5 95.5t24.5 116q0 39 -14.5 75t-45 62.5 t-77.5 43t-113 16.5q-86 0 -170 -21.5t-150 -52.5zM348 102q0 51 33 87t92 36t92 -35.5t33 -87.5q0 -51 -33 -86.5t-92 -35.5t-92 35.5t-33 86.5z" />
<glyph unicode="@" horiz-adv-x="1679" d="M123 670q0 145 50 277t145.5 233.5t232.5 161t311 59.5q160 0 289 -50.5t219 -139.5t138 -213t48 -271q0 -121 -22.5 -208t-60 -144.5t-89 -84t-106.5 -26.5q-78 0 -128 54.5t-54 132.5q-16 -31 -46 -64t-71 -58.5t-90 -43t-103 -17.5q-147 0 -232 108.5t-85 297.5 q0 82 19.5 158.5t66.5 135t125 94.5t194 36q88 0 168 -20.5t150 -57.5v-492q0 -33 5 -61.5t16.5 -51t31 -35.5t47.5 -13q27 0 55.5 18t52 61t39 116t15.5 183q0 104 -35 205t-106.5 179.5t-183 128t-265.5 49.5q-152 0 -272.5 -50.5t-203.5 -137.5t-127 -202.5t-44 -246.5 q0 -150 48 -261.5t131 -186.5t193.5 -111.5t235.5 -36.5q84 0 167 21.5t149 62.5l43 -84q-66 -43 -157 -68.5t-206 -25.5q-147 0 -274 43t-221.5 129t-148.5 215t-54 303zM606 680q0 -76 16.5 -130t45 -89t65.5 -51.5t80 -16.5q100 0 165.5 83t65.5 220v242 q-29 16 -73.5 25.5t-98.5 9.5q-141 0 -203.5 -77t-62.5 -216z" />
<glyph unicode="A" horiz-adv-x="1282" d="M41 0l510 1380h180l510 -1380h-182l-135 371h-568l-133 -371h-182zM416 530h450l-139 379l-84 271h-4l-84 -271z" />
<glyph unicode="B" horiz-adv-x="1261" d="M164 0v1380h512q109 0 190.5 -27.5t137 -76.5t83 -117.5t27.5 -148.5q0 -59 -20.5 -106.5t-51 -83.5t-66.5 -59.5t-69 -35.5q47 -8 94.5 -32.5t85 -64.5t61 -96.5t23.5 -130.5q0 -88 -29.5 -161.5t-91 -127t-154.5 -83t-218 -29.5h-514zM336 158h340q154 0 238.5 63.5 t84.5 179.5q0 66 -23.5 110t-66.5 71.5t-102 40t-133 12.5h-338v-477zM336 791h342q55 0 103 14t84 43t56.5 72t20.5 98q0 100 -71.5 152.5t-194.5 52.5h-340v-432z" />
<glyph unicode="C" horiz-adv-x="1171" d="M90 690q0 156 43 287t126 225t206 146.5t280 52.5q109 0 187 -16.5t149 -49.5l-45 -147q-114 53 -288 53q-225 0 -353.5 -143.5t-128.5 -407.5q0 -260 125 -405.5t359 -145.5q78 0 154.5 15.5t144.5 48.5l45 -150q-76 -37 -161 -55t-188 -18q-170 0 -292.5 51t-203.5 144 t-120 224t-39 291z" />
<glyph unicode="D" horiz-adv-x="1339" d="M164 0v1380h401q338 0 509 -174t171 -514t-171 -516t-509 -176h-401zM340 164h225q244 0 374 122.5t130 405.5t-130 404t-374 121h-225v-1053z" />
<glyph unicode="E" horiz-adv-x="1118" d="M164 0v1380h844v-161h-668v-424h627v-162h-627v-471h680v-162h-856z" />
<glyph unicode="F" horiz-adv-x="1077" d="M164 0v1380h827v-161h-651v-445h610v-162h-610v-612h-176z" />
<glyph unicode="G" horiz-adv-x="1318" d="M90 694q0 166 45 297t133 222.5t215 139.5t291 48q109 0 189.5 -18.5t152.5 -51.5l-45 -147q-59 29 -137 43t-158 14q-236 0 -373 -136t-137 -411q0 -125 31 -227t84 -175t128 -113t165 -40q145 0 237.5 79t92.5 255v141h-277v160h449v-774h-144l-28 162 q-41 -76 -123 -129t-215 -53q-135 0 -243 50t-181.5 144t-112.5 225t-39 295z" />
<glyph unicode="H" horiz-adv-x="1351" d="M164 0v1380h176v-585h672v585h176v-1380h-176v631h-672v-631h-176z" />
<glyph unicode="I" horiz-adv-x="512" d="M168 0v1380h176v-1380h-176z" />
<glyph unicode="J" horiz-adv-x="782" d="M20 37l46 149q31 -18 81 -30.5t115 -12.5q82 0 133 58.5t51 197.5v981h177v-981q0 -215 -88.5 -315t-270.5 -100q-82 0 -142.5 15t-101.5 38z" />
<glyph unicode="K" horiz-adv-x="1236" d="M164 0v1380h176v-1380h-176zM432 688v84l553 608h209l-588 -645l611 -735h-218z" />
<glyph unicode="L" horiz-adv-x="1052" d="M164 0v1380h176v-1216h651v-164h-827z" />
<glyph unicode="M" horiz-adv-x="1622" d="M164 0v1380h213l325 -735q41 -88 66 -152.5t41 -105.5h4q16 41 41 105.5t66 152.5l325 735h213v-1380h-176v840q0 43 3 120.5t13 169.5h-4q-23 -76 -46 -133t-48 -112l-295 -662h-188l-295 662q-25 55 -48.5 112.5t-45.5 132.5h-4q10 -92 13 -169.5t3 -120.5v-840h-176z " />
<glyph unicode="N" horiz-adv-x="1363" d="M164 0v1380h188l549 -891q41 -66 77 -134t58 -115h4q-10 72 -13 144.5t-3 158.5v837h176v-1380h-188l-549 891q-41 66 -77 134.5t-58 115.5h-4q10 -72 13 -144.5t3 -158.5v-838h-176z" />
<glyph unicode="O" horiz-adv-x="1417" d="M90 690q0 152 36 282t111.5 225t192.5 149.5t279 54.5t278.5 -54.5t192 -149.5t111.5 -225t36 -282t-36 -281.5t-111.5 -225t-192 -149.5t-278.5 -54t-279 54t-192.5 149.5t-111.5 225.5t-36 281zM266 690q0 -270 110 -416.5t333 -146.5t332.5 146.5t109.5 416.5 t-109.5 416.5t-332.5 146.5t-333 -146t-110 -417z" />
<glyph unicode="P" horiz-adv-x="1159" d="M164 0v1380h452q109 0 194 -33.5t143.5 -92t89 -136.5t30.5 -168q0 -92 -32.5 -172t-93 -140t-147.5 -94t-196 -34h-264v-510h-176zM340 674h264q137 0 215 73.5t78 202.5q0 123 -71.5 195t-209.5 72h-276v-543z" />
<glyph unicode="Q" horiz-adv-x="1417" d="M90 690q0 152 36 282t111.5 225t192.5 149.5t279 54.5t278.5 -54.5t192 -149.5t111.5 -225t36 -282q0 -137 -29.5 -257t-91 -212t-156 -153.5t-225.5 -79.5q-16 -41 -48 -85t-79 -67h400v-151h-690v151h26q92 0 148.5 43t79.5 103q-150 8 -257.5 64t-177 150.5 t-103.5 220.5t-34 273zM266 690q0 -270 110 -416.5t333 -146.5t332.5 146.5t109.5 416.5t-109.5 416.5t-332.5 146.5t-333 -146t-110 -417z" />
<glyph unicode="R" horiz-adv-x="1208" d="M164 0v1380h493q109 0 194 -32.5t143.5 -88t89 -131t30.5 -161.5q0 -72 -21.5 -136.5t-62.5 -118t-99.5 -92t-131.5 -59.5l327 -561h-192l-316 543h-278v-543h-176zM340 707h305q137 0 215 70.5t78 189.5q0 115 -71.5 182.5t-209.5 67.5h-317v-510z" />
<glyph unicode="S" horiz-adv-x="1085" d="M102 57l45 146q57 -29 141.5 -47.5t188.5 -18.5q74 0 135.5 13.5t105.5 41t69.5 71.5t25.5 106q0 61 -26.5 102t-70.5 70.5t-103.5 51t-123.5 42.5q-61 20 -129.5 48t-126 72t-94.5 110.5t-37 164.5q0 80 27 147.5t84 118t146.5 78t211.5 27.5q102 0 184.5 -19.5 t153.5 -54.5l-45 -145q-59 29 -134 45t-159 16q-160 0 -229.5 -58.5t-69.5 -150.5q0 -57 25 -96t67 -67.5t97 -49t117 -41.5q70 -25 142.5 -55.5t130.5 -77.5t95 -115.5t37 -166.5t-37 -171t-103.5 -121t-159.5 -70.5t-206 -22.5q-131 0 -219 21.5t-156 55.5z" />
<glyph unicode="T" horiz-adv-x="1052" d="M20 1217v163h1012v-163l-418 2v-1219h-176v1219z" />
<glyph unicode="U" horiz-adv-x="1368" d="M160 553v827h176v-829q0 -205 90 -306.5t258 -101.5t258 101.5t90 306.5v829h176v-827q0 -293 -141 -433t-383 -140t-383 140t-141 433z" />
<glyph unicode="V" horiz-adv-x="1257" d="M37 1380h182l299 -835l109 -355h4l108 355l299 835h183l-502 -1380h-180z" />
<glyph unicode="W" horiz-adv-x="1804" d="M61 1380h179l174 -768q27 -115 40 -215t23 -198h4q16 102 37 195t55 204l242 782h174l242 -782q35 -111 55.5 -204t36.5 -195h4q10 98 23.5 198.5t40.5 214.5l174 768h178l-322 -1380h-172l-276 899q-20 66 -40 146.5t-30 144.5h-4q-10 -63 -29.5 -144t-40.5 -147 l-274 -899h-172z" />
<glyph unicode="X" horiz-adv-x="1269" d="M57 0l478 719l-439 661h197l340 -536h4l340 536h197l-439 -661l477 -719h-196l-379 594h-4l-379 -594h-197z" />
<glyph unicode="Y" horiz-adv-x="1163" d="M33 1380h186l361 -641h4l360 641h186l-460 -792v-588h-176v588z" />
<glyph unicode="Z" horiz-adv-x="1122" d="M82 0v123l704 1096h-655v161h885v-123l-705 -1095h717v-162h-946z" />
<glyph unicode="[" horiz-adv-x="581" d="M164 -242v1643h377v-131h-226v-1381h226v-131h-377z" />
<glyph unicode="\" horiz-adv-x="759" d="M20 1380h138l581 -1462h-137z" />
<glyph unicode="]" horiz-adv-x="581" d="M41 -111h225v1381h-225v131h377v-1643h-377v131z" />
<glyph unicode="^" horiz-adv-x="1069" d="M82 565l377 815h151l377 -815h-180l-272 633l-273 -633h-180z" />
<glyph unicode="_" horiz-adv-x="888" d="M0 -137h889v-139h-889v139z" />
<glyph unicode="`" horiz-adv-x="614" d="M-25 1313l95 129l303 -256l-54 -76z" />
<glyph unicode="a" horiz-adv-x="1032" d="M82 279q0 170 115.5 252.5t318.5 82.5h205v33q0 117 -62.5 170t-164.5 53q-88 0 -165 -18t-143 -49l-39 121q55 33 147.5 59.5t205.5 26.5q197 0 290 -99.5t93 -265.5v-645h-129l-33 168q-23 -37 -48.5 -71t-64.5 -59.5t-92 -41.5t-129 -16q-63 0 -118.5 19t-97.5 57 t-65.5 93.5t-23.5 129.5zM250 279q0 -76 47 -120t121 -44q68 0 123 25.5t95 67.5t62.5 94t22.5 106v79h-207q-129 0 -196.5 -55t-67.5 -153z" />
<glyph unicode="b" horiz-adv-x="1146" d="M156 0v1380h172v-538q18 27 51 56.5t76 54t96 41t115 16.5q100 0 173.5 -43t121 -114t70 -160t22.5 -181q0 -258 -113 -395t-297 -137q-53 0 -102 15t-91 40.5t-73 60.5t-49 72l-33 -168h-139zM328 485q0 -80 24.5 -144.5t64.5 -110.5t92 -70.5t107 -24.5 q53 0 102.5 19.5t86.5 64.5t58.5 117t21.5 176q0 170 -68.5 256t-183.5 86q-90 0 -171 -46t-134 -116v-207z" />
<glyph unicode="c" horiz-adv-x="942" d="M86 496q0 109 28.5 203t89 162.5t151.5 108.5t216 40q168 0 289 -64l-39 -129q-113 53 -252 53q-80 0 -139 -28.5t-98 -78.5t-57.5 -119t-18.5 -148q0 -80 18.5 -150t58.5 -120t100.5 -78.5t144.5 -28.5q63 0 127.5 13t123.5 42l39 -127q-66 -35 -138.5 -51t-168.5 -16 q-121 0 -210 39.5t-148.5 109.5t-88 164t-28.5 203z" />
<glyph unicode="d" horiz-adv-x="1146" d="M94 494q0 106 28 199t83 164t135 112t184 41q55 0 101.5 -14.5t83 -37t64.5 -51t46 -57.5v530h172v-1380h-139l-33 168q-18 -37 -49 -72t-73 -60.5t-91 -40.5t-102 -15q-90 0 -166 34.5t-130 100t-84 161t-30 218.5zM262 496q0 -98 22.5 -167t60.5 -112t86 -62.5 t99 -19.5q55 0 107.5 24.5t92.5 70.5t64.5 111t24.5 144v215q-49 72 -119.5 113t-146.5 41q-129 0 -210 -88t-81 -270z" />
<glyph unicode="e" horiz-adv-x="1028" d="M86 496q0 109 24.5 203t79 162.5t139.5 108.5t208 40q203 0 300 -114t97 -304q0 -53 -5 -94t-16 -80h-657q16 -145 96 -222t230 -77q63 0 132.5 12t129.5 41l39 -127q-127 -65 -312 -65h-6q-242 0 -360.5 139t-118.5 377zM252 545h522v47q0 135 -54 211t-183 76 q-74 0 -125.5 -26t-85 -70t-52 -105.5t-22.5 -132.5z" />
<glyph unicode="f" horiz-adv-x="690" d="M37 850v139h151v53q0 82 17.5 147.5t55.5 113t98.5 73t148.5 25.5q66 0 113 -13.5t90 -35.5l-39 -125q-41 23 -78 29t-78 6q-51 0 -82 -15.5t-48 -43t-23.5 -69.5t-6.5 -94v-51h285v-139h-285v-850h-168v850h-151z" />
<glyph unicode="g" horiz-adv-x="1144" d="M94 504q0 102 28 194.5t83 161t135 109.5t184 41q55 0 101.5 -16.5t83 -41t64.5 -54.5t46 -56l29 147h143v-905q0 -135 -33.5 -229.5t-95 -153.5t-146.5 -86t-186 -27q-109 0 -208 29t-156 66l43 137q59 -35 135 -56.5t162 -21.5q70 0 127 14.5t98 53t64.5 105.5 t23.5 171v102q-18 -37 -49 -71.5t-73 -60t-91 -41t-102 -15.5q-90 0 -166 35t-130 99.5t-84 157.5t-30 212zM262 506q0 -94 22.5 -160.5t60.5 -108.5t86 -61.5t99 -19.5q61 0 114.5 24.5t92.5 70.5t60.5 110.5t21.5 144.5v182q-41 72 -115.5 119t-150.5 47q-129 0 -210 -87 t-81 -261z" />
<glyph unicode="h" horiz-adv-x="1157" d="M156 0v1380h172v-530q18 25 51 52.5t76 52t97 40t116 15.5q160 0 250 -105.5t90 -288.5v-616h-168v616q0 111 -53.5 174.5t-149.5 63.5q-98 0 -177 -42t-132 -112v-700h-172z" />
<glyph unicode="i" horiz-adv-x="491" d="M131 1290q0 47 29.5 80t85.5 33q55 0 84.5 -33t29.5 -80t-29.5 -79.5t-84.5 -32.5t-85 32.5t-30 79.5zM160 0v989h172v-989h-172z" />
<glyph unicode="j" horiz-adv-x="491" d="M-115 -377l43 135q49 -20 105 -20q78 0 102.5 51t24.5 162v1038h172v-1036q0 -86 -13.5 -153.5t-47 -116t-90 -73t-144.5 -24.5q-47 0 -85 10.5t-67 26.5zM131 1290q0 47 29.5 80t85.5 33q55 0 84.5 -33t29.5 -80t-29.5 -79.5t-84.5 -32.5t-85 32.5t-30 79.5z" />
<glyph unicode="k" horiz-adv-x="1038" d="M156 0v1380h172v-1380h-172zM399 524v58l385 407h205l-414 -436l435 -553h-203q-113 145 -203 260q-39 49 -75.5 96t-65.5 84t-47 60z" />
<glyph unicode="l" horiz-adv-x="491" d="M160 0v1380h172v-1380h-172z" />
<glyph unicode="m" horiz-adv-x="1638" d="M154 0v989h143l29 -147q18 27 44.5 56.5t63.5 54t85 41t110 16.5q98 0 161.5 -51.5t92.5 -139.5q47 78 130 134.5t189 56.5q147 0 217 -100.5t70 -260.5v-649h-168v649q0 94 -37 151.5t-119 57.5q-45 0 -84 -15.5t-71.5 -42t-58 -59t-44.5 -67.5v-674h-168v649 q0 94 -36.5 151.5t-116.5 57.5q-90 0 -157 -48t-103 -118v-692h-172z" />
<glyph unicode="n" horiz-adv-x="1155" d="M154 0v989h143l29 -147q18 27 51 56.5t76 54t97 41t116 16.5q160 0 250 -105.5t90 -288.5v-616h-168v616q0 111 -53.5 174.5t-149.5 63.5q-98 0 -177 -45t-132 -117v-692h-172z" />
<glyph unicode="o" horiz-adv-x="1105" d="M86 496q0 109 27.5 203t85 162.5t145.5 108.5t209 40t209 -40t145.5 -108.5t85 -163t27.5 -202.5q0 -109 -27.5 -203t-85 -164t-145.5 -109.5t-209 -39.5t-209 39.5t-145.5 109.5t-85 164t-27.5 203zM256 496q0 -80 17.5 -150t53 -120t92 -78.5t134.5 -28.5t134 28.5 t92 78.5t53.5 120t17.5 150t-17.5 148.5t-53.5 118.5t-92 78.5t-134 28.5t-134.5 -28.5t-92 -78.5t-53 -118.5t-17.5 -148.5z" />
<glyph unicode="p" horiz-adv-x="1144" d="M154 -391v1380h143l29 -147q18 27 51 56.5t76 54t96 41t115 16.5q100 0 173.5 -43t121 -114t70 -160t22.5 -181q0 -258 -113 -395t-297 -137q-53 0 -102.5 15t-91 40.5t-72.5 60.5t-49 72v-559h-172zM326 485q0 -80 24.5 -144.5t64.5 -110.5t92 -70.5t107 -24.5 q53 0 102.5 19.5t86.5 64.5t58.5 117t21.5 176q0 170 -69 256t-183 86q-90 0 -171 -46t-134 -116v-207z" />
<glyph unicode="q" horiz-adv-x="1144" d="M94 494q0 106 28 199t83 164t135 112t184 41q55 0 101.5 -15.5t83 -40t64.5 -54.5t46 -58l29 147h143v-1380h-172v559q-18 -37 -49 -72t-73 -60.5t-91 -40.5t-102 -15q-90 0 -166 34.5t-130 100t-84 161t-30 218.5zM262 496q0 -98 22.5 -167t60.5 -112t86 -62.5t99 -19.5 q55 0 107.5 24.5t92.5 70.5t64.5 111t24.5 144v203q-47 78 -114.5 122t-151.5 44q-129 0 -210 -88t-81 -270z" />
<glyph unicode="r" horiz-adv-x="761" d="M154 0v989h139l33 -168q18 33 43.5 66t59.5 59.5t76 44t95 19.5q35 2 59.5 -3.5t40.5 -11.5q20 -8 33 -18l-51 -172q-41 41 -113 41q-168 0 -243 -166v-680h-172z" />
<glyph unicode="s" horiz-adv-x="886" d="M94 43l39 129q55 -27 124.5 -42t145.5 -15q121 0 172.5 44t51.5 103q0 39 -18.5 66.5t-49.5 49t-72 37t-88 29.5q-68 20 -123 45t-95 60t-61.5 83t-21.5 113q0 125 95.5 195t265.5 70q84 0 162.5 -15.5t140.5 -48.5l-39 -129q-55 27 -116.5 42t-133.5 15 q-111 0 -160 -36.5t-49 -92.5q0 -66 51.5 -98.5t139.5 -60.5q84 -27 147.5 -56.5t105.5 -67.5t63.5 -87t21.5 -115q0 -127 -91.5 -203.5t-289.5 -76.5q-98 0 -179 15t-139 48z" />
<glyph unicode="t" horiz-adv-x="724" d="M37 850v139h153l41 283h125v-283h303v-139h-303v-574q0 -74 22.5 -115.5t98.5 -41.5q45 0 85 10t71 27l39 -125q-43 -27 -94.5 -39t-128.5 -12q-133 0 -197 70.5t-64 223.5v576h-151z" />
<glyph unicode="u" horiz-adv-x="1142" d="M150 373v616h167v-616q0 -115 50.5 -178.5t132.5 -63.5q111 0 187.5 57.5t129.5 133.5v667h172v-989h-139l-33 168q-18 -31 -49 -64.5t-74 -61.5t-99 -45t-126 -17q-72 0 -130 21.5t-100 69.5t-65.5 122.5t-23.5 179.5z" />
<glyph unicode="v" horiz-adv-x="960" d="M33 989h178l172 -483l94 -330h4l94 330l175 483h178l-359 -989h-178z" />
<glyph unicode="w" horiz-adv-x="1400" d="M53 989h170l115 -500q14 -59 24.5 -148t18.5 -181h4q16 88 30.5 154.5t35.5 134.5l167 540h164l168 -540q20 -68 34.5 -134.5t31.5 -154.5h4q8 92 18.5 181t24.5 148l115 500h170l-236 -989h-170l-160 502q-29 86 -46 164.5t-34 171.5h-4q-16 -92 -33.5 -171t-46.5 -165 l-159 -502h-170z" />
<glyph unicode="x" horiz-adv-x="997" d="M49 0l357 514l-328 475h180l238 -360h4l239 360h181l-330 -475l358 -514h-180l-268 399h-4l-267 -399h-180z" />
<glyph unicode="y" horiz-adv-x="1136" d="M150 393v596h167v-596q0 -115 49.5 -178t131.5 -63q111 0 186.5 57t126.5 133v647h172v-905q0 -252 -122 -374t-339 -122q-94 0 -186 27t-150 63l43 138q59 -35 130 -54.5t151 -19.5q72 0 128 16.5t94 56.5t58.5 106.5t20.5 164.5v102q-18 -31 -49 -64.5t-73 -61t-97 -45 t-125 -17.5q-72 0 -130 21.5t-99 69.5t-64.5 123t-23.5 179z" />
<glyph unicode="z" horiz-adv-x="925" d="M86 0v98l522 752h-483v139h692v-98l-522 -752h541v-139h-750z" />
<glyph unicode="{" horiz-adv-x="651" d="M106 524v111q94 0 130 41t36 119q0 33 -5 75.5t-10 88t-10 89.5t-5 80q0 139 79.5 206t227.5 67h41v-105h-37q-88 0 -124 -49t-36 -143q0 -70 14.5 -148.5t14.5 -152.5q0 -92 -35 -145.5t-113 -75.5v-4q78 -23 113 -76t35 -146q0 -74 -14.5 -152.5t-14.5 -148.5 q0 -94 36 -143t124 -49h37v-105h-41q-147 0 -227 66.5t-80 206.5q0 37 5 81t10 89t10 87t5 77q0 78 -35.5 118.5t-130.5 40.5z" />
<glyph unicode="|" horiz-adv-x="524" d="M184 -410v1995h156v-1995h-156z" />
<glyph unicode="}" horiz-adv-x="651" d="M61 -137h37q88 0 124 49t36 143q0 70 -14.5 149t-14.5 152q0 92 35 145.5t113 76.5v4q-78 23 -113 76t-35 145q0 74 14.5 152.5t14.5 148.5q0 94 -36 143t-124 49h-37v105h41q147 0 227.5 -66.5t80.5 -206.5q0 -37 -5.5 -80.5t-10.5 -89t-10 -88.5t-5 -75q0 -78 36 -119 t130 -41v-111q-94 0 -130 -41t-36 -118q0 -35 5 -77t10 -87t10.5 -89t5.5 -81q0 -139 -80 -206t-228 -67h-41v105z" />
<glyph unicode="~" horiz-adv-x="1130" d="M82 616q16 35 43 71t61.5 65.5t78.5 48t97 18.5q76 0 128.5 -25.5t96.5 -57t85 -57.5t94 -26q70 0 117 43t82 97l84 -88q-41 -84 -113 -144.5t-166 -60.5q-76 0 -129 26.5t-98 57t-86 57.5t-90 27q-78 0 -122 -43t-79 -99z" />
<glyph horiz-adv-x="1024" />
<glyph unicode="&#xa0;" />
<glyph unicode="&#xa1;" horiz-adv-x="520" d="M135 887q0 51 33 87t92 36t92 -36t33 -87t-33 -87t-92 -36t-92 36t-33 87zM170 -76l23 680h135l22 -680v-315h-180v315z" />
<glyph unicode="&#xa2;" horiz-adv-x="1171" d="M199 496q0 100 26.5 189t80.5 156.5t135 110.5t190 54v188h114v-186q143 -6 248 -62l-39 -129q-47 23 -99 35t-110 16v-749q53 4 110.5 18.5t107.5 36.5l38 -127q-106 -55 -256 -65v-187h-114v189q-109 8 -190 51t-134 111.5t-80.5 157.5t-27.5 192zM369 496 q0 -72 16 -134.5t49 -111.5t82 -81t115 -44v739q-131 -20 -196.5 -121.5t-65.5 -246.5z" />
<glyph unicode="&#xa3;" horiz-adv-x="1171" d="M135 0v176h68q45 18 85 48t68.5 66t45 73.5t16.5 72.5q0 47 -11.5 88t-27.5 80h-234v129h166q-31 57 -54.5 117.5t-23.5 134.5q0 84 34 151.5t92.5 115.5t136 74t166.5 26q106 0 175.5 -20.5t141.5 -57.5l-45 -148q-59 31 -117.5 48.5t-136.5 17.5q-72 0 -119 -20.5 t-74.5 -54.5t-40 -75t-12.5 -79q0 -66 21.5 -121.5t50.5 -108.5h317v-129h-252q14 -35 22.5 -70.5t8.5 -76.5q0 -92 -52 -164t-144 -117h663v-176h-934z" />
<glyph unicode="&#xa4;" horiz-adv-x="1171" d="M168 1010l82 84l117 -117q94 74 219 74q61 0 115.5 -19.5t105.5 -54.5l115 115l79 -84l-110 -113q37 -53 54.5 -105.5t17.5 -117.5q0 -59 -18.5 -114.5t-53.5 -102.5l113 -115l-82 -90l-115 119q-53 -35 -105.5 -52.5t-113.5 -17.5q-66 0 -119 17.5t-102 52.5l-115 -119 q-18 23 -41 46t-41 44l113 115q-72 92 -72 217q0 63 18.5 116.5t53.5 106.5zM328 672q0 -53 20.5 -99.5t55 -81t81.5 -55t101 -20.5q51 0 99 20.5t84 55t57.5 81t21.5 99.5q0 55 -21.5 102t-57.5 82t-84 55.5t-99 20.5q-53 0 -100.5 -20.5t-82 -55.5t-55 -82t-20.5 -102z " />
<glyph unicode="&#xa5;" horiz-adv-x="1171" d="M98 1331h187l299 -592h4l299 592h186l-334 -620h252v-101h-305l-12 -22v-127h317v-101h-317v-360h-176v360h-318v101h318v127l-13 22h-305v101h252z" />
<glyph unicode="&#xa6;" horiz-adv-x="512" d="M184 -358v718h144v-718h-144zM184 662v718h144v-718h-144z" />
<glyph unicode="&#xa7;" horiz-adv-x="1171" d="M180 688q0 78 36 126t95 71q-47 41 -66.5 97t-19.5 114q0 135 106.5 220t291.5 85q84 0 162.5 -20.5t140.5 -51.5l-39 -129q-53 29 -115.5 47.5t-134.5 18.5q-127 0 -185.5 -49.5t-58.5 -120.5q0 -37 19.5 -64.5t51.5 -49t74 -38t87 -31.5q59 -20 126.5 -45.5t124 -62.5 t94.5 -90t38 -129t-36 -125t-95 -70q49 -49 69.5 -107.5t20.5 -115.5q0 -68 -33 -122t-92.5 -93t-142.5 -59.5t-185 -20.5q-86 0 -174 19.5t-150 52.5l39 129q55 -27 125 -46.5t146 -19.5q63 0 117.5 11.5t94.5 33t63.5 51t23.5 64.5q0 43 -19.5 72.5t-52.5 52t-75 39 t-87 30.5q-51 14 -117.5 37t-126 61t-100.5 93t-41 135zM356 709q0 -45 26 -78t65.5 -55.5t87 -39t90.5 -28.5q47 -14 80.5 -23.5t70.5 -29.5q14 10 27 26q10 14 18 35t8 49q0 74 -71.5 120t-192.5 81q-51 16 -85 25.5t-68 29.5q-16 -12 -29 -28q-10 -14 -18.5 -35t-8.5 -49 z" />
<glyph unicode="&#xa8;" horiz-adv-x="614" d="M6 1251q0 41 26.5 72t78.5 31q51 0 77.5 -31t26.5 -72t-26.5 -71.5t-77.5 -30.5t-78 30.5t-27 71.5zM399 1251q0 41 27 72t78 31t77.5 -31t26.5 -72t-26.5 -71.5t-77.5 -30.5t-78 30.5t-27 71.5z" />
<glyph unicode="&#xa9;" horiz-adv-x="1413" d="M82 690q0 133 50 250t135 204t199 137t241 50t240.5 -50t198.5 -137t135 -204t50 -250t-50 -249.5t-135 -203.5t-198.5 -137.5t-240.5 -50.5t-241 50.5t-199 137.5t-135 203.5t-50 249.5zM186 690q0 -115 40 -214t110 -174t165 -118t206 -43t206 43t164.5 118t109.5 174 t40 214q0 113 -40 213.5t-109.5 175t-165 117.5t-205.5 43q-111 0 -206 -43t-165 -117.5t-110 -175t-40 -213.5zM389 688q0 -78 20.5 -144.5t62.5 -115.5t105.5 -77.5t149.5 -28.5q68 0 119 12t98 35l-26 92q-86 -41 -179 -41q-61 0 -104 20.5t-70.5 56t-41 85t-13.5 106.5 q0 117 53 192.5t170 75.5q96 0 178 -38l29 92q-88 45 -207 45q-88 0 -152.5 -29t-107.5 -78t-63.5 -115.5t-20.5 -144.5z" />
<glyph unicode="&#xaa;" horiz-adv-x="712" d="M29 821q0 127 87 186.5t236 59.5h133v16q0 78 -42 115t-107 37q-59 0 -116.5 -14.5t-110.5 -40.5l-35 104q43 23 112.5 45.5t155.5 22.5q145 0 215 -74t70 -197v-467h-117l-18 93q-31 -41 -81.5 -74t-150.5 -33q-96 0 -163.5 56.5t-67.5 164.5zM176 821q0 -49 30 -78.5 t77 -29.5q45 0 82.5 17.5t64.5 46t41 65.5t14 73v50h-133q-86 0 -131 -38t-45 -106z" />
<glyph unicode="&#xab;" horiz-adv-x="935" d="M82 496l264 368h139l-264 -368l264 -369h-139zM453 496l264 368h137l-264 -368l264 -369h-137z" />
<glyph unicode="&#xac;" horiz-adv-x="1026" d="M82 606v146h842v-506h-154v360h-688z" />
<glyph unicode="&#xad;" horiz-adv-x="614" d="M20 444v134h574v-134h-574z" />
<glyph unicode="&#xae;" horiz-adv-x="1085" d="M82 940q0 96 34 180t94 146.5t145 98.5t188 36q102 0 187 -36t145.5 -98.5t94.5 -146.5t34 -180t-34 -180t-94.5 -146.5t-145.5 -98.5t-187 -36t-187.5 36t-145.5 98.5t-94 146.5t-34 180zM168 940q0 -80 27.5 -149.5t77 -122t118 -83t152.5 -30.5t152.5 30.5t117.5 83 t77 122t28 149.5t-28 149.5t-77 122t-117.5 83t-152.5 30.5t-152.5 -30.5t-118 -83t-77 -122t-27.5 -149.5zM379 676h86v198h84l119 -198h92l-123 207q53 16 86 59t33 96q0 66 -42 110t-141 44h-194v-516zM465 952v162h106q53 0 76 -19.5t23 -56.5q0 -86 -101 -86h-104z" />
<glyph unicode="&#xaf;" horiz-adv-x="614" d="M20 1174v118h574v-118h-574z" />
<glyph unicode="&#xb0;" horiz-adv-x="729" d="M82 1128q0 55 21.5 105.5t60.5 87.5t90 58.5t111 21.5q59 0 110 -21.5t90 -58.5t60.5 -87t21.5 -106q0 -55 -21.5 -105t-60.5 -87t-90 -58.5t-110 -21.5t-110.5 21.5t-90.5 58.5t-60.5 87t-21.5 105zM180 1128q0 -37 14.5 -70.5t39 -59t58.5 -40t73 -14.5t73.5 14.5 t61 40t41 59.5t14.5 70q0 76 -55.5 128.5t-134.5 52.5q-39 0 -73 -14.5t-58.5 -39t-39 -57.5t-14.5 -70z" />
<glyph unicode="&#xb1;" horiz-adv-x="1171" d="M143 0v119h869v-119h-869zM143 532v140h357v344h155v-344h357v-140h-357v-344h-155v344h-357z" />
<glyph unicode="&#xb2;" horiz-adv-x="634" d="M53 614v91l183 184q78 78 124 138t46 122q0 43 -31 65.5t-84 22.5q-35 0 -84 -13.5t-92 -35.5l-35 108q43 20 98 38t115 18q129 0 190.5 -55.5t61.5 -147.5q0 -47 -22.5 -92t-57.5 -88t-75 -83l-73 -73l-79 -80h327v-119h-512z" />
<glyph unicode="&#xb3;" horiz-adv-x="624" d="M53 657l37 107q39 -20 88 -33.5t98 -13.5q72 0 106 32.5t34 79.5q0 53 -34 79t-93 26h-121v110h121q47 0 76.5 26t29.5 81q0 39 -29.5 63.5t-105.5 24.5q-43 0 -86 -12.5t-84 -32.5l-37 106q45 23 100.5 37.5t112.5 14.5q141 0 202.5 -58.5t61.5 -142.5q0 -59 -27.5 -96 t-74.5 -58q61 -16 92 -62t31 -106q0 -104 -69.5 -164.5t-202.5 -60.5q-72 0 -127.5 15.5t-98.5 37.5z" />
<glyph unicode="&#xb4;" horiz-adv-x="614" d="M242 1186l303 256l94 -129l-344 -203z" />
<glyph unicode="&#xb5;" horiz-adv-x="1146" d="M154 -410v1399h168v-616q0 -115 51 -178.5t143 -63.5q102 0 177 57.5t128 133.5v667h172v-989h-139l-33 168q-18 -31 -49 -64.5t-69.5 -61.5t-86 -45t-100.5 -17q-76 0 -122 18t-72 53v-461h-168z" />
<glyph unicode="&#xb6;" horiz-adv-x="919" d="M82 1018q0 86 29.5 153.5t80 113.5t116 70.5t138.5 24.5h412v-104h-80q-82 0 -108.5 -33t-26.5 -100v-1241h-156v762h-51q-66 0 -129 22.5t-113.5 66.5t-81 110.5t-30.5 154.5z" />
<glyph unicode="&#xb7;" horiz-adv-x="495" d="M123 563q0 51 32.5 87t92.5 36q59 0 92 -36t33 -87t-33 -87t-92 -36t-92 36t-33 87z" />
<glyph unicode="&#xb8;" horiz-adv-x="614" d="M102 -342l170 264h113l-96 -264h-187z" />
<glyph unicode="&#xb9;" horiz-adv-x="591" d="M70 614v117h170v483l-148 -47v111l178 63h105v-610h164v-117h-469z" />
<glyph unicode="&#xba;" horiz-adv-x="815" d="M61 977q0 78 20.5 146.5t63.5 118.5t107.5 80t155.5 30q88 0 153.5 -30t108.5 -80t63.5 -118.5t20.5 -146.5q0 -80 -20.5 -148.5t-63.5 -119t-108.5 -80t-153.5 -29.5q-90 0 -155 29.5t-108 80t-63.5 119t-20.5 148.5zM209 977q0 -111 47 -186.5t152 -75.5 q104 0 152 75.5t48 186.5t-48 184.5t-152 73.5t-151.5 -73.5t-47.5 -184.5z" />
<glyph unicode="&#xbb;" horiz-adv-x="935" d="M82 127l264 369l-264 368h137l264 -368l-264 -369h-137zM451 127l264 369l-264 368h139l264 -368l-264 -369h-139z" />
<glyph unicode="&#xbc;" horiz-adv-x="1589" d="M111 614v117h170v483l-148 -47v111l178 63h105v-610h164v-117h-469zM348 0l750 1352h143l-749 -1352h-144zM860 133v94l357 500h108v-475h82v-119h-82v-133h-129v133h-336zM1008 252h190v260z" />
<glyph unicode="&#xbd;" horiz-adv-x="1589" d="M111 614v117h170v483l-148 -47v111l178 63h105v-610h164v-117h-469zM348 0l750 1352h143l-749 -1352h-144zM967 0v90l182 184q78 78 124 138.5t46 122.5q0 43 -31 65.5t-84 22.5q-35 0 -84 -13.5t-92 -36.5l-35 109q43 20 98.5 37.5t114.5 17.5q129 0 190.5 -55 t61.5 -147q0 -47 -22.5 -92.5t-57.5 -88.5t-74.5 -83t-72.5 -72l-80 -80h328v-119h-512z" />
<glyph unicode="&#xbe;" horiz-adv-x="1589" d="M94 657l37 107q39 -20 88 -33.5t98 -13.5q72 0 106 32.5t34 79.5q0 53 -34 79t-93 26h-121v110h121q47 0 76.5 26t29.5 81q0 39 -29.5 63.5t-105.5 24.5q-43 0 -86 -12.5t-84 -32.5l-37 106q45 23 100.5 37.5t112.5 14.5q141 0 202.5 -58.5t61.5 -142.5q0 -59 -27.5 -96 t-74.5 -58q61 -16 92 -62t31 -106q0 -104 -69.5 -164.5t-203.5 -60.5q-72 0 -127 15.5t-98 37.5zM348 0l750 1352h143l-749 -1352h-144zM860 133v94l357 500h108v-475h82v-119h-82v-133h-129v133h-336zM1008 252h190v260z" />
<glyph unicode="&#xbf;" horiz-adv-x="1011" d="M123 -72q0 80 26.5 142.5t67.5 114t87 95.5t87 86t67.5 86t26.5 97q0 66 -18 113h141q14 -23 21.5 -55t7.5 -64q0 -68 -24.5 -119t-62.5 -96t-82 -86t-82 -85t-62.5 -95.5t-24.5 -116.5q0 -39 14.5 -75t45 -62.5t77.5 -43t113 -16.5q86 0 170 21.5t149 52.5l45 -148 q-66 -33 -161 -59.5t-205 -26.5q-217 0 -320.5 93.5t-103.5 246.5zM414 887q0 51 32.5 87t92.5 36q59 0 92 -36t33 -87t-33 -87t-92 -36t-92 36t-33 87z" />
<glyph unicode="&#xc0;" horiz-adv-x="1282" d="M41 0l510 1380h180l510 -1380h-182l-135 371h-568l-133 -371h-182zM416 530h450l-139 379l-84 271h-4l-84 -271zM442 1714l95 129l303 -256l-54 -76z" />
<glyph unicode="&#xc1;" horiz-adv-x="1282" d="M41 0l510 1380h180l510 -1380h-182l-135 371h-568l-133 -371h-182zM416 530h450l-139 379l-84 271h-4l-84 -271zM443 1587l303 256l94 -129l-344 -203z" />
<glyph unicode="&#xc2;" horiz-adv-x="1282" d="M41 0l510 1380h180l510 -1380h-182l-135 371h-568l-133 -371h-182zM344 1517l238 289h119l237 -289h-170l-127 174l-127 -174h-170zM416 530h450l-139 379l-84 271h-4l-84 -271z" />
<glyph unicode="&#xc3;" horiz-adv-x="1282" d="M41 0l510 1380h180l510 -1380h-182l-135 371h-568l-133 -371h-182zM330 1546q0 217 182 217q43 0 78 -15.5t64.5 -35t55 -34.5t50.5 -15q41 0 54.5 26.5t13.5 67.5h124q0 -111 -46 -164t-132 -53q-45 0 -79.5 15t-63.5 34.5t-54.5 35t-54.5 15.5q-41 0 -55 -29.5 t-14 -64.5h-123zM416 530h450l-139 379l-84 271h-4l-84 -271z" />
<glyph unicode="&#xc4;" horiz-adv-x="1282" d="M41 0l510 1380h180l510 -1380h-182l-135 371h-568l-133 -371h-182zM340 1652q0 41 26.5 72t78.5 31q51 0 77.5 -31t26.5 -72t-26.5 -71.5t-77.5 -30.5t-78 30.5t-27 71.5zM416 530h450l-139 379l-84 271h-4l-84 -271zM733 1652q0 41 27 72t78 31t77.5 -31t26.5 -72 t-26.5 -71.5t-77.5 -30.5t-78 30.5t-27 71.5z" />
<glyph unicode="&#xc5;" horiz-adv-x="1282" d="M41 0l510 1380h180l510 -1380h-182l-135 371h-568l-133 -371h-182zM416 530h450l-139 379l-84 271h-4l-84 -271zM445 1699q0 82 57 139.5t139 57.5t139.5 -57.5t57.5 -139.5t-57.5 -138t-139.5 -56t-139 56t-57 138zM545 1701q0 -47 27.5 -74.5t68.5 -27.5t70 27.5 t29 74.5t-29 75t-70 28t-68.5 -28t-27.5 -75z" />
<glyph unicode="&#xc6;" horiz-adv-x="1669" d="M41 0l608 1380h910v-161h-682l127 -424h514v-162h-467l139 -471h381v-162h-514l-109 371h-567l-160 -371h-180zM453 530h450l-112 379l-64 271h-4l-105 -271z" />
<glyph unicode="&#xc7;" horiz-adv-x="1171" d="M90 690q0 156 43 287t126 225t206 146.5t280 52.5q109 0 187 -16.5t149 -49.5l-45 -147q-114 53 -288 53q-225 0 -353.5 -143.5t-128.5 -407.5q0 -260 125 -405.5t359 -145.5q78 0 154.5 15.5t144.5 48.5l45 -150q-76 -37 -161 -55t-188 -18q-170 0 -292.5 51t-203.5 144 t-120 224t-39 291zM485 -342l170 264h113l-96 -264h-187z" />
<glyph unicode="&#xc8;" horiz-adv-x="1118" d="M164 0v1380h844v-161h-668v-424h627v-162h-627v-471h680v-162h-856zM381 1714l95 129l303 -256l-54 -76z" />
<glyph unicode="&#xc9;" horiz-adv-x="1118" d="M164 0v1380h844v-161h-668v-424h627v-162h-627v-471h680v-162h-856zM422 1587l303 256l94 -129l-344 -203z" />
<glyph unicode="&#xca;" horiz-adv-x="1118" d="M164 0v1380h844v-161h-668v-424h627v-162h-627v-471h680v-162h-856zM291 1517l238 289h119l237 -289h-170l-127 174l-127 -174h-170z" />
<glyph unicode="&#xcb;" horiz-adv-x="1118" d="M164 0v1380h844v-161h-668v-424h627v-162h-627v-471h680v-162h-856zM287 1652q0 41 26.5 72t78.5 31q51 0 77.5 -31t26.5 -72t-26.5 -71.5t-77.5 -30.5t-78 30.5t-27 71.5zM680 1652q0 41 27 72t78 31t77.5 -31t26.5 -72t-26.5 -71.5t-77.5 -30.5t-78 30.5t-27 71.5z" />
<glyph unicode="&#xcc;" horiz-adv-x="512" d="M57 1714l95 129l303 -256l-54 -76zM168 0v1380h176v-1380h-176z" />
<glyph unicode="&#xcd;" horiz-adv-x="512" d="M60 1587l303 256l94 -129l-344 -203zM168 0v1380h176v-1380h-176z" />
<glyph unicode="&#xce;" horiz-adv-x="512" d="M-39 1517l238 289h119l237 -289h-170l-127 174l-127 -174h-170zM168 0v1380h176v-1380h-176z" />
<glyph unicode="&#xcf;" horiz-adv-x="512" d="M-43 1652q0 41 26.5 72t78.5 31q51 0 77.5 -31t26.5 -72t-26.5 -71.5t-77.5 -30.5t-78 30.5t-27 71.5zM168 0v1380h176v-1380h-176zM350 1652q0 41 27 72t78 31t77.5 -31t26.5 -72t-26.5 -71.5t-77.5 -30.5t-78 30.5t-27 71.5z" />
<glyph unicode="&#xd0;" horiz-adv-x="1339" d="M23 614v140h141v626h401q338 0 509 -174t171 -514t-171 -516t-509 -176h-401v614h-141zM340 164h225q244 0 374 122.5t130 405.5t-130 404t-374 121h-225v-463h367v-140h-367v-450z" />
<glyph unicode="&#xd1;" horiz-adv-x="1363" d="M164 0v1380h188l549 -891q41 -66 77 -134t58 -115h4q-10 72 -13 144.5t-3 158.5v837h176v-1380h-188l-549 891q-41 66 -77 134.5t-58 115.5h-4q10 -72 13 -144.5t3 -158.5v-838h-176zM371 1546q0 217 182 217q43 0 78 -15.5t64.5 -35t55 -34.5t50.5 -15q41 0 54.5 26.5 t13.5 67.5h124q0 -111 -46 -164t-132 -53q-45 0 -79.5 15t-63.5 34.5t-54.5 35t-54.5 15.5q-41 0 -55 -29.5t-14 -64.5h-123z" />
<glyph unicode="&#xd2;" horiz-adv-x="1417" d="M90 690q0 152 36 282t111.5 225t192.5 149.5t279 54.5t278.5 -54.5t192 -149.5t111.5 -225t36 -282t-36 -281.5t-111.5 -225t-192 -149.5t-278.5 -54t-279 54t-192.5 149.5t-111.5 225.5t-36 281zM266 690q0 -270 110 -416.5t333 -146.5t332.5 146.5t109.5 416.5 t-109.5 416.5t-332.5 146.5t-333 -146t-110 -417zM510 1714l95 129l303 -256l-54 -76z" />
<glyph unicode="&#xd3;" horiz-adv-x="1417" d="M90 690q0 152 36 282t111.5 225t192.5 149.5t279 54.5t278.5 -54.5t192 -149.5t111.5 -225t36 -282t-36 -281.5t-111.5 -225t-192 -149.5t-278.5 -54t-279 54t-192.5 149.5t-111.5 225.5t-36 281zM266 690q0 -270 110 -416.5t333 -146.5t332.5 146.5t109.5 416.5 t-109.5 416.5t-332.5 146.5t-333 -146t-110 -417zM510 1587l303 256l94 -129l-344 -203z" />
<glyph unicode="&#xd4;" horiz-adv-x="1417" d="M90 690q0 152 36 282t111.5 225t192.5 149.5t279 54.5t278.5 -54.5t192 -149.5t111.5 -225t36 -282t-36 -281.5t-111.5 -225t-192 -149.5t-278.5 -54t-279 54t-192.5 149.5t-111.5 225.5t-36 281zM266 690q0 -270 110 -416.5t333 -146.5t332.5 146.5t109.5 416.5 t-109.5 416.5t-332.5 146.5t-333 -146t-110 -417zM411 1517l238 289h119l237 -289h-170l-127 174l-127 -174h-170z" />
<glyph unicode="&#xd5;" horiz-adv-x="1417" d="M90 690q0 152 36 282t111.5 225t192.5 149.5t279 54.5t278.5 -54.5t192 -149.5t111.5 -225t36 -282t-36 -281.5t-111.5 -225t-192 -149.5t-278.5 -54t-279 54t-192.5 149.5t-111.5 225.5t-36 281zM266 690q0 -270 110 -416.5t333 -146.5t332.5 146.5t109.5 416.5 t-109.5 416.5t-332.5 146.5t-333 -146t-110 -417zM397 1546q0 217 182 217q43 0 78 -15.5t64.5 -35t55 -34.5t50.5 -15q41 0 54.5 26.5t13.5 67.5h124q0 -111 -46 -164t-132 -53q-45 0 -79.5 15t-63.5 34.5t-54.5 35t-54.5 15.5q-41 0 -55 -29.5t-14 -64.5h-123z" />
<glyph unicode="&#xd6;" horiz-adv-x="1417" d="M90 690q0 152 36 282t111.5 225t192.5 149.5t279 54.5t278.5 -54.5t192 -149.5t111.5 -225t36 -282t-36 -281.5t-111.5 -225t-192 -149.5t-278.5 -54t-279 54t-192.5 149.5t-111.5 225.5t-36 281zM266 690q0 -270 110 -416.5t333 -146.5t332.5 146.5t109.5 416.5 t-109.5 416.5t-332.5 146.5t-333 -146t-110 -417zM407 1652q0 41 26.5 72t78.5 31q51 0 77.5 -31t26.5 -72t-26.5 -71.5t-77.5 -30.5t-78 30.5t-27 71.5zM800 1652q0 41 27 72t78 31t77.5 -31t26.5 -72t-26.5 -71.5t-77.5 -30.5t-78 30.5t-27 71.5z" />
<glyph unicode="&#xd7;" horiz-adv-x="1171" d="M178 283l299 299l-299 299l109 108l299 -299l299 299l108 -108l-299 -299l299 -299l-108 -109l-299 299l-299 -299z" />
<glyph unicode="&#xd8;" horiz-adv-x="1417" d="M90 690q0 152 36 282t111.5 225t192.5 149.5t279 54.5q98 0 177 -20.5t144 -57.5l86 139h137l-127 -207q104 -98 152.5 -242.5t48.5 -322.5q0 -152 -36 -281.5t-111.5 -225t-192.5 -149.5t-278 -54q-188 0 -322 75l-84 -137h-137l127 205q-104 98 -153.5 242.5 t-49.5 324.5zM266 690q0 -139 28 -245.5t87 -178.5l567 924q-98 63 -239 63q-223 0 -333 -146.5t-110 -416.5zM469 188q95 -61 240 -61q223 0 332.5 146.5t109.5 416.5q0 274 -115 420z" />
<glyph unicode="&#xd9;" horiz-adv-x="1368" d="M160 553v827h176v-829q0 -205 90 -306.5t258 -101.5t258 101.5t90 306.5v829h176v-827q0 -293 -141 -433t-383 -140t-383 140t-141 433zM485 1714l95 129l303 -256l-54 -76z" />
<glyph unicode="&#xda;" horiz-adv-x="1368" d="M160 553v827h176v-829q0 -205 90 -306.5t258 -101.5t258 101.5t90 306.5v829h176v-827q0 -293 -141 -433t-383 -140t-383 140t-141 433zM486 1587l303 256l94 -129l-344 -203z" />
<glyph unicode="&#xdb;" horiz-adv-x="1368" d="M160 553v827h176v-829q0 -205 90 -306.5t258 -101.5t258 101.5t90 306.5v829h176v-827q0 -293 -141 -433t-383 -140t-383 140t-141 433zM387 1517l238 289h119l237 -289h-170l-127 174l-127 -174h-170z" />
<glyph unicode="&#xdc;" horiz-adv-x="1368" d="M160 553v827h176v-829q0 -205 90 -306.5t258 -101.5t258 101.5t90 306.5v829h176v-827q0 -293 -141 -433t-383 -140t-383 140t-141 433zM383 1652q0 41 26.5 72t78.5 31q51 0 77.5 -31t26.5 -72t-26.5 -71.5t-77.5 -30.5t-78 30.5t-27 71.5zM776 1652q0 41 27 72t78 31 t77.5 -31t26.5 -72t-26.5 -71.5t-77.5 -30.5t-78 30.5t-27 71.5z" />
<glyph unicode="&#xdd;" horiz-adv-x="1163" d="M33 1380h186l361 -641h4l360 641h186l-460 -792v-588h-176v588zM383 1587l303 256l94 -129l-344 -203z" />
<glyph unicode="&#xde;" horiz-adv-x="1167" d="M164 0v1380h176v-260h276q109 0 194 -31.5t143.5 -89t89 -134.5t30.5 -167q0 -92 -32.5 -170.5t-93 -137t-147.5 -91.5t-196 -33h-264v-266h-176zM340 430h264q137 0 215 69.5t78 198.5q0 123 -71.5 190.5t-209.5 67.5h-276v-526z" />
<glyph unicode="&#xdf;" horiz-adv-x="1226" d="M152 0v874q0 113 32.5 209.5t96 167t157.5 110.5t219 40q86 0 161 -24.5t130.5 -69.5t87 -111t31.5 -147q0 -57 -21.5 -102.5t-55.5 -78t-76 -54t-80 -30.5q57 -10 111 -38.5t95 -76.5t67 -117t26 -161q0 -109 -32 -185.5t-87.5 -127.5t-130 -74.5t-160.5 -23.5 q-184 0 -297 63l39 129q55 -27 116.5 -42t133.5 -15q111 0 178.5 69.5t67.5 221.5q0 143 -96.5 225t-282.5 82h-43v141h141q94 0 156.5 43t62.5 131q0 61 -21.5 103.5t-55.5 68t-77 37.5t-83 12q-172 0 -255 -101t-83 -274v-874h-172z" />
<glyph unicode="&#xe0;" horiz-adv-x="1032" d="M82 279q0 170 115.5 252.5t318.5 82.5h205v33q0 117 -62.5 170t-164.5 53q-88 0 -165 -18t-143 -49l-39 121q55 33 147.5 59.5t205.5 26.5q197 0 290 -99.5t93 -265.5v-645h-129l-33 168q-23 -37 -48.5 -71t-64.5 -59.5t-92 -41.5t-129 -16q-63 0 -118.5 19t-97.5 57 t-65.5 93.5t-23.5 129.5zM250 279q0 -76 47 -120t121 -44q68 0 123 25.5t95 67.5t62.5 94t22.5 106v79h-207q-129 0 -196.5 -55t-67.5 -153zM317 1313l95 129l303 -256l-54 -76z" />
<glyph unicode="&#xe1;" horiz-adv-x="1032" d="M82 279q0 170 115.5 252.5t318.5 82.5h205v33q0 117 -62.5 170t-164.5 53q-88 0 -165 -18t-143 -49l-39 121q55 33 147.5 59.5t205.5 26.5q197 0 290 -99.5t93 -265.5v-645h-129l-33 168q-23 -37 -48.5 -71t-64.5 -59.5t-92 -41.5t-129 -16q-63 0 -118.5 19t-97.5 57 t-65.5 93.5t-23.5 129.5zM250 279q0 -76 47 -120t121 -44q68 0 123 25.5t95 67.5t62.5 94t22.5 106v79h-207q-129 0 -196.5 -55t-67.5 -153zM318 1186l303 256l94 -129l-344 -203z" />
<glyph unicode="&#xe2;" horiz-adv-x="1032" d="M82 279q0 170 115.5 252.5t318.5 82.5h205v33q0 117 -62.5 170t-164.5 53q-88 0 -165 -18t-143 -49l-39 121q55 33 147.5 59.5t205.5 26.5q197 0 290 -99.5t93 -265.5v-645h-129l-33 168q-23 -37 -48.5 -71t-64.5 -59.5t-92 -41.5t-129 -16q-63 0 -118.5 19t-97.5 57 t-65.5 93.5t-23.5 129.5zM219 1116l238 289h119l237 -289h-170l-127 174l-127 -174h-170zM250 279q0 -76 47 -120t121 -44q68 0 123 25.5t95 67.5t62.5 94t22.5 106v79h-207q-129 0 -196.5 -55t-67.5 -153z" />
<glyph unicode="&#xe3;" horiz-adv-x="1032" d="M82 279q0 170 115.5 252.5t318.5 82.5h205v33q0 117 -62.5 170t-164.5 53q-88 0 -165 -18t-143 -49l-39 121q55 33 147.5 59.5t205.5 26.5q197 0 290 -99.5t93 -265.5v-645h-129l-33 168q-23 -37 -48.5 -71t-64.5 -59.5t-92 -41.5t-129 -16q-63 0 -118.5 19t-97.5 57 t-65.5 93.5t-23.5 129.5zM205 1145q0 217 182 217q43 0 78 -15.5t64.5 -35t55 -34.5t50.5 -15q41 0 54.5 26.5t13.5 67.5h124q0 -111 -46 -164t-132 -53q-45 0 -79.5 15t-63.5 34.5t-54.5 35t-54.5 15.5q-41 0 -55 -29.5t-14 -64.5h-123zM250 279q0 -76 47 -120t121 -44 q68 0 123 25.5t95 67.5t62.5 94t22.5 106v79h-207q-129 0 -196.5 -55t-67.5 -153z" />
<glyph unicode="&#xe4;" horiz-adv-x="1032" d="M82 279q0 170 115.5 252.5t318.5 82.5h205v33q0 117 -62.5 170t-164.5 53q-88 0 -165 -18t-143 -49l-39 121q55 33 147.5 59.5t205.5 26.5q197 0 290 -99.5t93 -265.5v-645h-129l-33 168q-23 -37 -48.5 -71t-64.5 -59.5t-92 -41.5t-129 -16q-63 0 -118.5 19t-97.5 57 t-65.5 93.5t-23.5 129.5zM215 1251q0 41 26.5 72t78.5 31q51 0 77.5 -31t26.5 -72t-26.5 -71.5t-77.5 -30.5t-78 30.5t-27 71.5zM250 279q0 -76 47 -120t121 -44q68 0 123 25.5t95 67.5t62.5 94t22.5 106v79h-207q-129 0 -196.5 -55t-67.5 -153zM608 1251q0 41 27 72t78 31 t77.5 -31t26.5 -72t-26.5 -71.5t-77.5 -30.5t-78 30.5t-27 71.5z" />
<glyph unicode="&#xe5;" horiz-adv-x="1032" d="M82 279q0 170 115.5 252.5t318.5 82.5h205v33q0 117 -62.5 170t-164.5 53q-88 0 -165 -18t-143 -49l-39 121q55 33 147.5 59.5t205.5 26.5q197 0 290 -99.5t93 -265.5v-645h-129l-33 168q-23 -37 -48.5 -71t-64.5 -59.5t-92 -41.5t-129 -16q-63 0 -118.5 19t-97.5 57 t-65.5 93.5t-23.5 129.5zM250 279q0 -76 47 -120t121 -44q68 0 123 25.5t95 67.5t62.5 94t22.5 106v79h-207q-129 0 -196.5 -55t-67.5 -153zM320 1298q0 82 57 139.5t139 57.5t139.5 -57.5t57.5 -139.5t-57.5 -138t-139.5 -56t-139 56t-57 138zM420 1300q0 -47 27.5 -74.5 t68.5 -27.5t70 27.5t29 74.5t-29 75t-70 28t-68.5 -28t-27.5 -75z" />
<glyph unicode="&#xe6;" horiz-adv-x="1626" d="M82 279q0 170 115.5 252.5t318.5 82.5h205v33q0 117 -62.5 170t-164.5 53q-88 0 -165 -18t-143 -49l-39 121q55 33 147.5 59.5t205.5 26.5q123 0 197.5 -40t119.5 -112q49 72 134 112t200 40q193 0 287 -114t94 -304q0 -53 -5 -94t-16 -80h-628q16 -145 90 -222t223 -77 q63 0 124.5 12t121.5 41l39 -127q-66 -35 -135.5 -50t-165.5 -15q-162 0 -246 63t-129 178q-25 -47 -61.5 -90t-88 -77t-118 -54t-150.5 -20q-63 0 -118.5 19t-97.5 57t-65.5 93.5t-23.5 129.5zM250 279q0 -76 47 -120t121 -44q68 0 123 23.5t95 64.5t62.5 93t22.5 112v79 h-207q-129 0 -196.5 -55t-67.5 -153zM883 545h493v47q0 135 -48 211t-177 76q-74 0 -123 -26t-79.5 -70t-46 -105.5t-19.5 -132.5z" />
<glyph unicode="&#xe7;" horiz-adv-x="942" d="M86 496q0 109 28.5 203t89 162.5t151.5 108.5t216 40q168 0 289 -64l-39 -129q-113 53 -252 53q-80 0 -139 -28.5t-98 -78.5t-57.5 -119t-18.5 -148q0 -80 18.5 -150t58.5 -120t100.5 -78.5t144.5 -28.5q63 0 127.5 13t123.5 42l39 -127q-66 -35 -138.5 -51t-168.5 -16 q-121 0 -210 39.5t-148.5 109.5t-88 164t-28.5 203zM342 -342l170 264h113l-96 -264h-187z" />
<glyph unicode="&#xe8;" horiz-adv-x="1028" d="M86 496q0 109 24.5 203t79 162.5t139.5 108.5t208 40q203 0 300 -114t97 -304q0 -53 -5 -94t-16 -80h-657q16 -145 96 -222t230 -77q63 0 132.5 12t129.5 41l39 -127q-129 -66 -318 -65q-242 0 -360.5 139t-118.5 377zM252 545h522v47q0 135 -54 211t-183 76 q-74 0 -125.5 -26t-85 -70t-52 -105.5t-22.5 -132.5zM315 1313l95 129l303 -256l-54 -76z" />
<glyph unicode="&#xe9;" horiz-adv-x="1028" d="M86 496q0 109 24.5 203t79 162.5t139.5 108.5t208 40q203 0 300 -114t97 -304q0 -53 -5 -94t-16 -80h-657q16 -145 96 -222t230 -77q63 0 132.5 12t129.5 41l39 -127q-129 -66 -318 -65q-242 0 -360.5 139t-118.5 377zM252 545h522v47q0 135 -54 211t-183 76 q-74 0 -125.5 -26t-85 -70t-52 -105.5t-22.5 -132.5zM316 1186l303 256l94 -129l-344 -203z" />
<glyph unicode="&#xea;" horiz-adv-x="1028" d="M86 496q0 109 24.5 203t79 162.5t139.5 108.5t208 40q203 0 300 -114t97 -304q0 -53 -5 -94t-16 -80h-657q16 -145 96 -222t230 -77q63 0 132.5 12t129.5 41l39 -127q-129 -66 -318 -65q-242 0 -360.5 139t-118.5 377zM217 1116l238 289h119l237 -289h-170l-127 174 l-127 -174h-170zM252 545h522v47q0 135 -54 211t-183 76q-74 0 -125.5 -26t-85 -70t-52 -105.5t-22.5 -132.5z" />
<glyph unicode="&#xeb;" horiz-adv-x="1028" d="M86 496q0 109 24.5 203t79 162.5t139.5 108.5t208 40q203 0 300 -114t97 -304q0 -53 -5 -94t-16 -80h-657q16 -145 96 -222t230 -77q63 0 132.5 12t129.5 41l39 -127q-129 -66 -318 -65q-242 0 -360.5 139t-118.5 377zM213 1251q0 41 26.5 72t78.5 31q51 0 77.5 -31 t26.5 -72t-26.5 -71.5t-77.5 -30.5t-78 30.5t-27 71.5zM252 545h522v47q0 135 -54 211t-183 76q-74 0 -125.5 -26t-85 -70t-52 -105.5t-22.5 -132.5zM606 1251q0 41 27 72t78 31t77.5 -31t26.5 -72t-26.5 -71.5t-77.5 -30.5t-78 30.5t-27 71.5z" />
<glyph unicode="&#xec;" horiz-adv-x="491" d="M47 1313l95 129l303 -256l-54 -76zM160 0v989h172v-989h-172z" />
<glyph unicode="&#xed;" horiz-adv-x="491" d="M49 1186l303 256l94 -129l-344 -203zM160 0v989h172v-989h-172z" />
<glyph unicode="&#xee;" horiz-adv-x="491" d="M-49 1116l238 289h119l237 -289h-170l-127 174l-127 -174h-170zM160 0v989h172v-989h-172z" />
<glyph unicode="&#xef;" horiz-adv-x="491" d="M-53 1251q0 41 26.5 72t78.5 31q51 0 77.5 -31t26.5 -72t-26.5 -71.5t-77.5 -30.5t-78 30.5t-27 71.5zM160 0v989h172v-989h-172zM340 1251q0 41 27 72t78 31t77.5 -31t26.5 -72t-26.5 -71.5t-77.5 -30.5t-78 30.5t-27 71.5z" />
<glyph unicode="&#xf0;" horiz-adv-x="1124" d="M82 483q0 106 35 201.5t95 167.5t144 115t183 43q176 0 274 -105h6q-23 66 -78 134.5t-133 129.5l-250 -116l-39 88l201 94q-102 68 -217 106l59 111q160 -53 291 -154l238 113l45 -88l-201 -94q135 -129 217 -309.5t82 -403.5q0 -111 -32.5 -209t-95 -171t-151.5 -114.5 t-202 -41.5q-109 0 -196 39.5t-148.5 108.5t-94 161t-32.5 194zM250 487q0 -74 20.5 -140t60.5 -116.5t95 -80t127 -29.5q76 0 134 34.5t98 90t60.5 122.5t20.5 128q0 74 -18.5 142.5t-56 121.5t-96 85t-138.5 32q-76 0 -133 -32t-96 -85t-58.5 -124t-19.5 -149z" />
<glyph unicode="&#xf1;" horiz-adv-x="1155" d="M154 0v989h143l29 -147q18 27 51 56.5t76 54t97 41t116 16.5q160 0 250 -105.5t90 -288.5v-616h-168v616q0 111 -53.5 174.5t-149.5 63.5q-98 0 -177 -45t-132 -117v-692h-172zM266 1145q0 217 182 217q43 0 78 -15.5t64.5 -35t55 -34.5t50.5 -15q41 0 54.5 26.5 t13.5 67.5h124q0 -111 -46 -164t-132 -53q-45 0 -79.5 15t-63.5 34.5t-54.5 35t-54.5 15.5q-41 0 -55 -29.5t-14 -64.5h-123z" />
<glyph unicode="&#xf2;" horiz-adv-x="1105" d="M86 496q0 109 27.5 203t85 162.5t145.5 108.5t209 40t209 -40t145.5 -108.5t85 -163t27.5 -202.5q0 -109 -27.5 -203t-85 -164t-145.5 -109.5t-209 -39.5t-209 39.5t-145.5 109.5t-85 164t-27.5 203zM256 496q0 -80 17.5 -150t53 -120t92 -78.5t134.5 -28.5t134 28.5 t92 78.5t53.5 120t17.5 150t-17.5 148.5t-53.5 118.5t-92 78.5t-134 28.5t-134.5 -28.5t-92 -78.5t-53 -118.5t-17.5 -148.5zM354 1313l95 129l303 -256l-54 -76z" />
<glyph unicode="&#xf3;" horiz-adv-x="1105" d="M86 496q0 109 27.5 203t85 162.5t145.5 108.5t209 40t209 -40t145.5 -108.5t85 -163t27.5 -202.5q0 -109 -27.5 -203t-85 -164t-145.5 -109.5t-209 -39.5t-209 39.5t-145.5 109.5t-85 164t-27.5 203zM256 496q0 -80 17.5 -150t53 -120t92 -78.5t134.5 -28.5t134 28.5 t92 78.5t53.5 120t17.5 150t-17.5 148.5t-53.5 118.5t-92 78.5t-134 28.5t-134.5 -28.5t-92 -78.5t-53 -118.5t-17.5 -148.5zM355 1186l303 256l94 -129l-344 -203z" />
<glyph unicode="&#xf4;" horiz-adv-x="1105" d="M86 496q0 109 27.5 203t85 162.5t145.5 108.5t209 40t209 -40t145.5 -108.5t85 -163t27.5 -202.5q0 -109 -27.5 -203t-85 -164t-145.5 -109.5t-209 -39.5t-209 39.5t-145.5 109.5t-85 164t-27.5 203zM256 496q0 -80 17.5 -150t53 -120t92 -78.5t134.5 -28.5t134 28.5 t92 78.5t53.5 120t17.5 150t-17.5 148.5t-53.5 118.5t-92 78.5t-134 28.5t-134.5 -28.5t-92 -78.5t-53 -118.5t-17.5 -148.5zM256 1116l238 289h119l237 -289h-170l-127 174l-127 -174h-170z" />
<glyph unicode="&#xf5;" horiz-adv-x="1105" d="M86 496q0 109 27.5 203t85 162.5t145.5 108.5t209 40t209 -40t145.5 -108.5t85 -163t27.5 -202.5q0 -109 -27.5 -203t-85 -164t-145.5 -109.5t-209 -39.5t-209 39.5t-145.5 109.5t-85 164t-27.5 203zM242 1145q0 217 182 217q43 0 78 -15.5t64.5 -35t55 -34.5t50.5 -15 q41 0 54.5 26.5t13.5 67.5h124q0 -111 -46 -164t-132 -53q-45 0 -79.5 15t-63.5 34.5t-54.5 35t-54.5 15.5q-41 0 -55 -29.5t-14 -64.5h-123zM256 496q0 -80 17.5 -150t53 -120t92 -78.5t134.5 -28.5t134 28.5t92 78.5t53.5 120t17.5 150t-17.5 148.5t-53.5 118.5t-92 78.5 t-134 28.5t-134.5 -28.5t-92 -78.5t-53 -118.5t-17.5 -148.5z" />
<glyph unicode="&#xf6;" horiz-adv-x="1105" d="M86 496q0 109 27.5 203t85 162.5t145.5 108.5t209 40t209 -40t145.5 -108.5t85 -163t27.5 -202.5q0 -109 -27.5 -203t-85 -164t-145.5 -109.5t-209 -39.5t-209 39.5t-145.5 109.5t-85 164t-27.5 203zM252 1251q0 41 26.5 72t78.5 31q51 0 77.5 -31t26.5 -72t-26.5 -71.5 t-77.5 -30.5t-78 30.5t-27 71.5zM256 496q0 -80 17.5 -150t53 -120t92 -78.5t134.5 -28.5t134 28.5t92 78.5t53.5 120t17.5 150t-17.5 148.5t-53.5 118.5t-92 78.5t-134 28.5t-134.5 -28.5t-92 -78.5t-53 -118.5t-17.5 -148.5zM645 1251q0 41 27 72t78 31t77.5 -31t26.5 -72 t-26.5 -71.5t-77.5 -30.5t-78 30.5t-27 71.5z" />
<glyph unicode="&#xf7;" horiz-adv-x="1171" d="M162 512v139h848v-139h-848zM453 272q0 51 32.5 87t92.5 36q59 0 91.5 -35.5t32.5 -87.5q0 -51 -32.5 -86.5t-91.5 -35.5t-92 35.5t-33 86.5zM453 887q0 51 32.5 87t92.5 36q59 0 91.5 -36t32.5 -87t-32.5 -87t-91.5 -36t-92 36t-33 87z" />
<glyph unicode="&#xf8;" horiz-adv-x="1105" d="M86 496q0 109 27.5 203t85 162.5t145.5 108.5t209 40q106 0 192 -35l76 137h117l-102 -184q94 -70 139 -182.5t45 -249.5q0 -109 -27.5 -203t-85 -164t-145.5 -109.5t-209 -39.5t-213 40l-55 -102h-117l86 156q-86 72 -127 180t-41 242zM256 496q0 -86 18.5 -156 t57.5 -121l344 627q-53 25 -123 24q-78 0 -134.5 -28.5t-92 -78.5t-53 -118.5t-17.5 -148.5zM412 152q61 -33 141 -33q78 0 134 28.5t92 78.5t53.5 120t17.5 150q0 92 -21.5 165.5t-68.5 124.5z" />
<glyph unicode="&#xf9;" horiz-adv-x="1142" d="M150 373v616h167v-616q0 -115 50.5 -178.5t132.5 -63.5q111 0 187.5 57.5t129.5 133.5v667h172v-989h-139l-33 168q-18 -31 -49 -64.5t-74 -61.5t-99 -45t-126 -17q-72 0 -130 21.5t-100 69.5t-65.5 122.5t-23.5 179.5zM372 1313l95 129l303 -256l-54 -76z" />
<glyph unicode="&#xfa;" horiz-adv-x="1142" d="M150 373v616h167v-616q0 -115 50.5 -178.5t132.5 -63.5q111 0 187.5 57.5t129.5 133.5v667h172v-989h-139l-33 168q-18 -31 -49 -64.5t-74 -61.5t-99 -45t-126 -17q-72 0 -130 21.5t-100 69.5t-65.5 122.5t-23.5 179.5zM373 1186l303 256l94 -129l-344 -203z" />
<glyph unicode="&#xfb;" horiz-adv-x="1142" d="M150 373v616h167v-616q0 -115 50.5 -178.5t132.5 -63.5q111 0 187.5 57.5t129.5 133.5v667h172v-989h-139l-33 168q-18 -31 -49 -64.5t-74 -61.5t-99 -45t-126 -17q-72 0 -130 21.5t-100 69.5t-65.5 122.5t-23.5 179.5zM274 1116l238 289h119l237 -289h-170l-127 174 l-127 -174h-170z" />
<glyph unicode="&#xfc;" horiz-adv-x="1142" d="M150 373v616h167v-616q0 -115 50.5 -178.5t132.5 -63.5q111 0 187.5 57.5t129.5 133.5v667h172v-989h-139l-33 168q-18 -31 -49 -64.5t-74 -61.5t-99 -45t-126 -17q-72 0 -130 21.5t-100 69.5t-65.5 122.5t-23.5 179.5zM270 1251q0 41 26.5 72t78.5 31q51 0 77.5 -31 t26.5 -72t-26.5 -71.5t-77.5 -30.5t-78 30.5t-27 71.5zM663 1251q0 41 27 72t78 31t77.5 -31t26.5 -72t-26.5 -71.5t-77.5 -30.5t-78 30.5t-27 71.5z" />
<glyph unicode="&#xfd;" horiz-adv-x="1136" d="M150 393v596h167v-596q0 -115 49.5 -178t131.5 -63q111 0 186.5 57t126.5 133v647h172v-905q0 -252 -122 -374t-339 -122q-94 0 -186 27t-150 63l43 138q59 -35 130 -54.5t151 -19.5q72 0 128 16.5t94 56.5t58.5 106.5t20.5 164.5v102q-18 -31 -49 -64.5t-73 -61t-97 -45 t-125 -17.5q-72 0 -130 21.5t-99 69.5t-64.5 123t-23.5 179zM369 1186l303 256l94 -129l-344 -203z" />
<glyph unicode="&#xfe;" horiz-adv-x="1146" d="M156 -391v1771h172v-538q18 27 51 56.5t76 54t96 41t115 16.5q100 0 173.5 -43t121 -114t70 -160t22.5 -181q0 -258 -113 -395t-297 -137q-53 0 -102 15t-91 40.5t-73 60.5t-49 72v-559h-172zM328 485q0 -80 24.5 -144.5t64.5 -110.5t92 -70.5t107 -24.5q53 0 102.5 19.5 t86.5 64.5t58.5 117t21.5 176q0 170 -68.5 256t-183.5 86q-90 0 -171 -46t-134 -116v-207z" />
<glyph unicode="&#xff;" horiz-adv-x="1136" d="M150 393v596h167v-596q0 -115 49.5 -178t131.5 -63q111 0 186.5 57t126.5 133v647h172v-905q0 -252 -122 -374t-339 -122q-94 0 -186 27t-150 63l43 138q59 -35 130 -54.5t151 -19.5q72 0 128 16.5t94 56.5t58.5 106.5t20.5 164.5v102q-18 -31 -49 -64.5t-73 -61t-97 -45 t-125 -17.5q-72 0 -130 21.5t-99 69.5t-64.5 123t-23.5 179zM266 1251q0 41 26.5 72t78.5 31q51 0 77.5 -31t26.5 -72t-26.5 -71.5t-77.5 -30.5t-78 30.5t-27 71.5zM659 1251q0 41 27 72t78 31t77.5 -31t26.5 -72t-26.5 -71.5t-77.5 -30.5t-78 30.5t-27 71.5z" />
<glyph unicode="&#x131;" horiz-adv-x="491" d="M160 0v989h172v-989h-172z" />
<glyph unicode="&#x141;" horiz-adv-x="1052" d="M43 520v164l121 51v645h176v-567l299 131v-164l-299 -131v-485h651v-164h-827v571z" />
<glyph unicode="&#x142;" horiz-adv-x="491" d="M51 520v164l109 47v649h172v-573l108 47v-164l-108 -47v-643h-172v567z" />
<glyph unicode="&#x152;" horiz-adv-x="1996" d="M90 690q0 152 36 282t109.5 225t186.5 149.5t266 54.5q70 0 126 -13.5t99 -36t75 -51t54 -59.5v139h844v-161h-667v-424h626v-162h-626v-471h679v-162h-856v139q-47 -61 -129 -110t-217 -49q-158 0 -271.5 54t-188 149.5t-110.5 225.5t-36 281zM266 690 q0 -270 110 -416.5t333 -146.5q125 0 205.5 46t127.5 138v740q-47 92 -127.5 147t-205.5 55q-223 0 -333 -146t-110 -417z" />
<glyph unicode="&#x153;" horiz-adv-x="1724" d="M86 496q0 109 27.5 203t85 162.5t145.5 108.5t209 40q127 0 205 -48.5t119 -113.5q53 76 140 119t216 43q203 0 300 -114t97 -304q0 -53 -5 -94t-15 -80h-658q16 -145 96 -222t230 -77q63 0 133 12t129 41l39 -127q-129 -66 -317 -65q-133 0 -228.5 43t-154.5 122 q-27 -37 -56.5 -67.5t-68.5 -52t-88.5 -33.5t-112.5 -12q-121 0 -209 39.5t-145.5 109.5t-85 164t-27.5 203zM256 496q0 -80 17.5 -150t53 -120t92 -78.5t134.5 -28.5q193 0 262 155q-16 47 -24.5 104.5t-8.5 117.5q0 57 6.5 111.5t20.5 101.5q-35 74 -96.5 117.5 t-159.5 43.5q-78 0 -134.5 -28.5t-92 -78.5t-53 -118.5t-17.5 -148.5zM948 545h522v47q0 135 -54 211t-183 76q-74 0 -125 -26t-85 -70t-52.5 -105.5t-22.5 -132.5z" />
<glyph unicode="&#x160;" horiz-adv-x="1085" d="M102 57l45 146q57 -29 141.5 -47.5t188.5 -18.5q74 0 135.5 13.5t105.5 41t69.5 71.5t25.5 106q0 61 -26.5 102t-70.5 70.5t-103.5 51t-123.5 42.5q-61 20 -129.5 48t-126 72t-94.5 110.5t-37 164.5q0 80 27 147.5t84 118t146.5 78t211.5 27.5q102 0 184.5 -19.5 t153.5 -54.5l-45 -145q-59 29 -134 45t-159 16q-160 0 -229.5 -58.5t-69.5 -150.5q0 -57 25 -96t67 -67.5t97 -49t117 -41.5q70 -25 142.5 -55.5t130.5 -77.5t95 -115.5t37 -166.5t-37 -171t-103.5 -121t-159.5 -70.5t-206 -22.5q-131 0 -219 21.5t-156 55.5zM246 1802h170 l127 -174l127 174h170l-237 -289h-119z" />
<glyph unicode="&#x161;" horiz-adv-x="886" d="M94 43l39 129q55 -27 124.5 -42t145.5 -15q121 0 172.5 44t51.5 103q0 39 -18.5 66.5t-49.5 49t-72 37t-88 29.5q-68 20 -123 45t-95 60t-61.5 83t-21.5 113q0 125 95.5 195t265.5 70q84 0 162.5 -15.5t140.5 -48.5l-39 -129q-55 27 -116.5 42t-133.5 15 q-111 0 -160 -36.5t-49 -92.5q0 -66 51.5 -98.5t139.5 -60.5q84 -27 147.5 -56.5t105.5 -67.5t63.5 -87t21.5 -115q0 -127 -91.5 -203.5t-289.5 -76.5q-98 0 -179 15t-139 48zM145 1401h170l127 -174l127 174h170l-237 -289h-119z" />
<glyph unicode="&#x178;" horiz-adv-x="1163" d="M33 1380h186l361 -641h4l360 641h186l-460 -792v-588h-176v588zM280 1652q0 41 26.5 72t78.5 31q51 0 77.5 -31t26.5 -72t-26.5 -71.5t-77.5 -30.5t-78 30.5t-27 71.5zM673 1652q0 41 27 72t78 31t77.5 -31t26.5 -72t-26.5 -71.5t-77.5 -30.5t-78 30.5t-27 71.5z" />
<glyph unicode="&#x17d;" horiz-adv-x="1122" d="M82 0v123l704 1096h-655v161h885v-123l-705 -1095h717v-162h-946zM284 1802h170l127 -174l127 174h170l-237 -289h-119z" />
<glyph unicode="&#x17e;" horiz-adv-x="925" d="M86 0v98l522 752h-483v139h692v-98l-522 -752h541v-139h-750zM166 1401h170l127 -174l127 174h170l-237 -289h-119z" />
<glyph unicode="&#x192;" horiz-adv-x="1171" d="M102 -123l60 135q47 -20 102 -20q78 0 111 61.5t49 171.5l65 488h-188v100h203l20 152q12 86 36 157.5t64 121.5t100 79t148 29q47 0 83 -10.5t65 -26.5l-62 -135q-47 20 -102 20q-78 0 -110.5 -61.5t-49.5 -171.5l-22 -154h241v-100h-253l-66 -486q-12 -86 -35.5 -157.5 t-63.5 -121.5t-100.5 -79t-148.5 -29q-47 0 -83 10.5t-63 26.5z" />
<glyph unicode="&#x2c6;" horiz-adv-x="614" d="M10 1116l238 289h119l237 -289h-170l-127 174l-127 -174h-170z" />
<glyph unicode="&#x2c7;" horiz-adv-x="614" d="M10 1401h170l127 -174l127 174h170l-237 -289h-119z" />
<glyph unicode="&#x2d8;" horiz-adv-x="614" d="M10 1430h127q10 -66 55.5 -107t118.5 -41q72 0 117 41t55 107h121q-6 -57 -26.5 -107.5t-57.5 -87.5t-90 -58.5t-121 -21.5q-70 0 -123 21.5t-90 58.5t-58.5 87t-27.5 108z" />
<glyph unicode="&#x2d9;" horiz-adv-x="614" d="M193 1257q0 47 29.5 80t84.5 33t85 -32.5t30 -80.5q0 -47 -30 -79.5t-85 -32.5t-84.5 32.5t-29.5 79.5z" />
<glyph unicode="&#x2da;" horiz-adv-x="614" d="M111 1298q0 82 57 139.5t139 57.5t139.5 -57.5t57.5 -139.5t-57.5 -138t-139.5 -56t-139 56t-57 138zM211 1300q0 -47 27.5 -74.5t68.5 -27.5t70 27.5t29 74.5t-29 75t-70 28t-68.5 -28t-27.5 -75z" />
<glyph unicode="&#x2db;" horiz-adv-x="614" d="M246 4h112l170 -264h-186z" />
<glyph unicode="&#x2dc;" horiz-adv-x="614" d="M-4 1145q0 217 182 217q43 0 78 -15.5t64.5 -35t55 -34.5t50.5 -15q41 0 54.5 26.5t13.5 67.5h124q0 -111 -46 -164t-132 -53q-45 0 -79.5 15t-63.5 34.5t-54.5 35t-54.5 15.5q-41 0 -55 -29.5t-14 -64.5h-123z" />
<glyph unicode="&#x2dd;" horiz-adv-x="614" d="M70 1128l178 287h190l-237 -287h-131zM399 1128l179 287h190l-236 -287h-133z" />
<glyph unicode="&#x3a9;" horiz-adv-x="1540" d="M143 782q0 141 44 255t125 195t197 125t261 44q143 0 260 -44t198 -125t125 -194.5t44 -255.5q0 -117 -34 -215t-83 -177t-104.5 -138t-100.5 -98h246v-154h-449v113q49 39 109.5 101t114 145t89.5 182.5t36 210.5q0 231 -120 358t-327 127q-213 0 -334 -127t-121 -358 q0 -111 36 -210.5t89.5 -182.5t113.5 -145t110 -101v-113h-449v154h246q-45 39 -100.5 98t-104.5 138t-83 177.5t-34 214.5z" />
<glyph unicode="&#x3c0;" horiz-adv-x="1226" d="M66 934q18 12 46.5 22.5t62.5 17.5t70 12t70 5h824v-137h-242v-598q0 -61 27.5 -99t81.5 -38q41 0 61 4t41 12l37 -117q-29 -16 -71 -25t-89 -9q-74 0 -123 22.5t-78.5 62.5t-41 91t-11.5 110v584h-250v-442q0 -49 -5 -110.5t-14 -120t-22.5 -107.5t-29.5 -74h-168 q18 31 32.5 83t22.5 112.5t12 118t4 98.5v442q-72 -2 -125 -16.5t-96 -36.5z" />
<glyph unicode="&#xe00;" horiz-adv-x="399" />
<glyph unicode="&#xe01;" horiz-adv-x="1236" d="M98 823q16 66 62.5 128.5t114 110.5t154.5 76.5t185 28.5q117 0 205 -32.5t146.5 -92t88 -140.5t29.5 -179v-723h-176v723q0 147 -75.5 220t-217.5 73q-117 0 -207 -50.5t-122 -131.5l155 -144q-55 -29 -81.5 -70.5t-26.5 -107.5v-512h-176v487q0 59 28.5 112.5 t81.5 80.5z" />
<glyph unicode="&#xe02;" horiz-adv-x="1138" d="M133 371v157q0 59 32 110.5t70.5 96.5t70.5 85t32 77v49q0 23 -11.5 36t-39.5 13h-142v152h162q111 0 155 -50t44 -136v-62q0 -55 -32 -104.5t-68.5 -93.5t-68.5 -87t-32 -86v-157q0 -111 58.5 -176.5t197.5 -65.5q127 0 187.5 56.5t60.5 207.5v754h176v-752 q0 -201 -99.5 -308t-324.5 -107q-113 0 -193.5 29.5t-133 82.5t-77 124t-24.5 155z" />
<glyph unicode="&#xe03;" horiz-adv-x="1146" d="M70 1012v155l143 -73q20 31 59 48t80 17q90 0 132 -54t42 -147v-40q0 -68 -33.5 -120.5t-73.5 -97.5t-73 -86t-33 -86v-157q0 -111 58.5 -176.5t197.5 -65.5q127 0 187.5 56.5t60.5 207.5v754h176v-752q0 -201 -99 -308t-325 -107q-113 0 -193.5 29.5t-133 82.5t-77 124 t-24.5 155v157q0 59 34 108.5t75 95.5t74.5 90t33.5 96v38q0 23 -11 37.5t-40 14.5q-53 0 -76 -68z" />
<glyph unicode="&#xe04;" horiz-adv-x="1269" d="M154 0v727q0 94 31.5 174t93 139.5t150.5 93t206 33.5t206 -33.5t150.5 -93t93 -139.5t31.5 -174v-727h-176v729q0 129 -76 208t-229 79q-154 0 -229.5 -79t-75.5 -208v-250q27 59 84 100.5t143 41.5h145v-154h-145q-82 0 -141.5 -46t-85.5 -138v-283h-176z" />
<glyph unicode="&#xe05;" horiz-adv-x="1290" d="M156 0v791q0 152 72.5 250t209.5 126l207 -137l207 137q137 -29 210 -127t73 -249v-791h-177v803q0 78 -30.5 127t-85.5 71l-197 -112l-196 112q-55 -23 -86 -71.5t-31 -126.5v-324q27 59 86 100.5t145 41.5h146v-154h-146q-82 0 -143.5 -46t-87.5 -138v-283h-176z" />
<glyph unicode="&#xe06;" horiz-adv-x="1241" d="M66 1012v155l143 -73q20 31 59 48t80 17q90 0 132 -54t42 -147v-40q0 -72 -29.5 -128.5t-64.5 -103.5t-64.5 -90t-29.5 -88v-143q20 -47 56 -89.5t81 -75t95 -51t102 -18.5q129 0 186 77t57 222v717h176v-719q0 -207 -98 -327.5t-301 -120.5q-123 0 -209 51t-145 137 l-10 -168h-166v508q0 59 30.5 110.5t67.5 99.5t67.5 96t30.5 104v38q0 23 -11 37.5t-40 14.5q-53 0 -76 -68z" />
<glyph unicode="&#xe07;" horiz-adv-x="1153" d="M29 1147h180l303 -995h25q68 0 128 29.5t107 86t74.5 140.5t27.5 192q0 113 -19 192.5t-53 129t-80 72t-97 22.5q-35 0 -68 -5t-57 -16l-27 142q33 16 79 23t81 7q92 0 169 -37.5t132 -110.5t86 -178.5t31 -240.5q0 -139 -40 -249.5t-110 -188.5t-164 -120t-205 -42h-157 z" />
<glyph unicode="&#xe08;" horiz-adv-x="1110" d="M29 1006q86 72 202.5 116.5t245.5 44.5q266 0 398.5 -147.5t132.5 -409.5q0 -135 -37 -246.5t-104.5 -192.5t-161 -126t-205.5 -45h-144l-110 461q-6 27 -18.5 36t-34.5 9h-78v151h92q86 0 133 -32.5t70 -128.5l79 -344h27q61 0 117.5 30.5t100.5 89t70.5 144.5t26.5 196 q0 215 -92 309.5t-260 94.5q-117 0 -219 -42t-176 -106z" />
<glyph unicode="&#xe09;" horiz-adv-x="1208" d="M70 1008q98 70 220 114.5t273 44.5q246 0 369 -130t123 -351v-686h-166l-10 168q-25 -37 -53.5 -71t-68.5 -59.5t-95.5 -41.5t-129.5 -16q-170 0 -257 88t-87 260v133q0 45 -38 45h-66v151h119q72 0 114.5 -37.5t42.5 -130.5v-155q0 -104 49.5 -153.5t159.5 -49.5 q51 0 98.5 18.5t87.5 51t70.5 74.5t53.5 90v321q0 160 -79 245t-235 85q-129 0 -239.5 -43t-192.5 -103z" />
<glyph unicode="&#xe0a;" horiz-adv-x="1138" d="M133 371v157q0 59 32 110.5t70.5 96.5t70.5 85t32 77v49q0 23 -11.5 36t-39.5 13h-142v152h162q111 0 155 -50t44 -136v-62q0 -55 -32 -104.5t-68.5 -93.5t-68.5 -87t-32 -86v-157q0 -111 58.5 -176.5t197.5 -65.5q127 0 187.5 56.5t60.5 207.5v207q0 86 -36 123t-95 37 h-39l-25 74l217 313h193l-231 -301q82 -16 137 -81t55 -163v-207q0 -201 -99.5 -308t-324.5 -107q-113 0 -193.5 29.5t-133 82.5t-77 124t-24.5 155z" />
<glyph unicode="&#xe0b;" horiz-adv-x="1146" d="M70 1012v155l143 -73q20 31 59 48t80 17q90 0 132 -54t42 -147v-40q0 -68 -33.5 -120.5t-73.5 -97.5t-73 -86t-33 -86v-157q0 -111 58.5 -176.5t197.5 -65.5q127 0 187.5 56.5t60.5 207.5v207q0 86 -36 123t-95 37h-39l-24 74l217 313h192l-231 -301q82 -16 137 -81 t55 -163v-207q0 -201 -99 -308t-325 -107q-113 0 -193.5 29.5t-133 82.5t-77 124t-24.5 155v157q0 59 34 108.5t75 95.5t74.5 90t33.5 96v38q0 23 -11 37.5t-40 14.5q-53 0 -76 -68z" />
<glyph unicode="&#xe0c;" horiz-adv-x="1888" d="M98 823q16 66 60.5 128.5t109 110.5t147.5 76.5t177 28.5q113 0 196.5 -32.5t139 -92t83 -140.5t27.5 -179v-358q20 -47 55 -89.5t76 -75t86 -51t88 -18.5q113 0 164.5 77t51.5 222v717h176v-719q0 -209 -91.5 -328.5t-279.5 -119.5q-109 0 -187.5 51t-138.5 137 l-10 -168h-166v723q0 147 -70.5 220t-199.5 73q-104 0 -189.5 -50.5t-117.5 -131.5l155 -144q-55 -29 -81.5 -70.5t-26.5 -107.5v-311q0 -25 9 -39.5t38 -14.5h110v-147h-157q-84 0 -130 52t-46 132v303q0 59 28.5 112.5t81.5 80.5z" />
<glyph unicode="&#xe0d;" horiz-adv-x="1888" d="M98 823q16 66 60.5 128.5t109 110.5t147.5 76.5t177 28.5q113 0 196.5 -32.5t139 -92t83 -140.5t27.5 -179v-330q0 -115 55.5 -178t161.5 -63q111 0 186 58t118 132v805h176v-1022q0 -121 -34 -208t-94.5 -142.5t-145.5 -82t-187 -26.5q-119 0 -214 26.5t-153 63.5 l43 138q59 -35 138 -54.5t159 -19.5q72 0 129.5 11t98.5 44t62.5 93.5t21.5 158.5v61q-16 -31 -44 -64.5t-69 -61t-96.5 -45t-124.5 -17.5q-72 0 -136.5 21.5t-115.5 69.5t-81 123t-30 179v330q0 147 -70.5 220t-199.5 73q-104 0 -189.5 -50.5t-117.5 -131.5l155 -144 q-55 -29 -81.5 -70.5t-26.5 -107.5v-311q0 -25 9 -39.5t38 -14.5h110v-147h-157q-84 0 -130 52t-46 132v303q0 59 28.5 112.5t81.5 80.5z" />
<glyph unicode="&#xe0e;" horiz-adv-x="1257" d="M61 0v147h89q29 0 38 14.5t9 39.5v272q0 59 28.5 112.5t81.5 80.5l-188 157q16 66 62 128.5t113.5 110.5t155 76.5t185.5 28.5q117 0 205 -32.5t146 -92t88 -140.5t30 -179v-1133h-219q-51 47 -117 80t-150 33q-102 0 -170.5 -29.5t-136.5 -83.5l-47 136q59 53 143.5 90 t188.5 37q98 0 188 -43t144 -99v1012q0 147 -76 220t-217 73q-117 0 -207 -50.5t-123 -131.5l176 -158q-55 -29 -81.5 -71t-26.5 -107v-314q0 -80 -46 -133t-130 -51h-136z" />
<glyph unicode="&#xe0f;" horiz-adv-x="1257" d="M61 0v147h89q29 0 38 14.5t9 39.5v272q0 59 28.5 112.5t81.5 80.5l-188 157q16 66 62 128.5t113.5 110.5t155 76.5t185.5 28.5q117 0 205 -32.5t146 -92t88 -140.5t30 -179v-1133h-168l-244 146q-33 -72 -104.5 -115t-151.5 -43q-74 0 -142.5 17.5t-111.5 46.5l45 149 q43 -29 98.5 -51.5t100.5 -22.5q86 0 150.5 58.5t80.5 144.5l271 -162v965q0 147 -76 220t-217 73q-117 0 -207 -50.5t-123 -131.5l176 -158q-55 -29 -81.5 -71t-26.5 -107v-314q0 -80 -46 -133t-130 -51h-136z" />
<glyph unicode="&#xe10;" horiz-adv-x="1110" d="M29 1006q86 72 202.5 116.5t245.5 44.5q152 0 264 -59l103 119h200l-178 -213q141 -152 142 -404q0 -135 -37 -246.5t-104.5 -192.5t-161 -126t-205.5 -45h-144l-110 461q-6 27 -18.5 36t-34.5 9h-78v151h92q86 0 133 -32.5t70 -128.5l79 -344h27q61 0 117.5 30.5 t100.5 89t70.5 144.5t26.5 196q0 211 -91 307.5t-261 96.5q-117 0 -219 -42t-176 -106zM129 -254h145q66 0 114 27.5t89 72.5q41 -45 82 -72.5t111 -27.5h108v119h168v-275h-268q-72 0 -122 30t-79 69q-27 -41 -84 -70t-129 -29h-135v156z" />
<glyph unicode="&#xe11;" horiz-adv-x="1247" d="M86 1012v155l123 -73q20 31 59 48t80 17q70 0 109 -44t41 -103q41 61 113.5 108t176.5 47q133 0 218.5 -96t85.5 -285v-786h-177v786q0 123 -38.5 176.5t-120.5 53.5q-74 0 -150 -56.5t-136 -141.5t-98 -184t-38 -188v-446h-176v446q0 74 18.5 138.5t48 120t64.5 101.5 t65 83v67q0 23 -11 37.5t-40 14.5q-53 0 -76 -68z" />
<glyph unicode="&#xe12;" horiz-adv-x="2021" d="M102 580q0 119 30 218t84 176t131 126t169 67l164 -129l168 129q137 -29 209.5 -127t72.5 -249v-426q20 -47 56.5 -89.5t79.5 -75t92 -51t98 -18.5q125 0 180.5 77t55.5 222v717h176v-719q0 -209 -95.5 -328.5t-295.5 -119.5q-121 0 -204 51t-143 137l-10 -168h-166v803 q0 78 -30.5 127t-85.5 71l-158 -104l-154 104q-109 -23 -178 -129t-69 -292q0 -125 26.5 -210t68.5 -136.5t94 -73t105 -21.5q43 0 75 6.5t65 18.5l32 -139q-35 -16 -82 -26.5t-98 -10.5q-98 0 -182 32.5t-146.5 104.5t-98.5 183.5t-36 271.5z" />
<glyph unicode="&#xe13;" horiz-adv-x="1888" d="M98 823q16 66 60.5 128.5t109 110.5t147.5 76.5t177 28.5q113 0 196.5 -32.5t139 -92t83 -140.5t27.5 -179v-354q0 -111 47.5 -174.5t137.5 -63.5q55 0 105 18.5t93 51t77 74.5t56 90v782h177v-1147h-166l-11 168q-59 -86 -138 -137t-202 -51q-174 0 -263 104t-89 283 v356q0 147 -70.5 220t-199.5 73q-104 0 -189.5 -50.5t-117.5 -131.5l155 -144q-55 -29 -81.5 -70.5t-26.5 -107.5v-311q0 -25 9 -39.5t38 -14.5h110v-147h-157q-84 0 -130 52t-46 132v303q0 59 28.5 112.5t81.5 80.5z" />
<glyph unicode="&#xe14;" horiz-adv-x="1280" d="M102 561q0 129 34 239.5t101.5 191.5t170 128t239.5 47q125 0 215 -38.5t148.5 -106.5t87 -156t28.5 -186v-680h-176v682q0 72 -17.5 133.5t-54 105.5t-93 69.5t-134.5 25.5q-182 0 -277 -120t-95 -335q0 -119 27.5 -199.5t71.5 -130t97 -71t107 -21.5q43 0 74.5 6.5 t64.5 18.5l33 -139q-35 -16 -82 -26.5t-99 -10.5q-92 0 -178 34.5t-150.5 105.5t-103.5 178.5t-39 254.5z" />
<glyph unicode="&#xe15;" horiz-adv-x="1308" d="M102 571q0 121 31 223.5t87 179.5t134 126t170 67l172 -129l176 129q137 -29 210 -127t73 -249v-791h-176v803q0 78 -30.5 127t-86.5 71l-166 -104l-161 104q-109 -23 -182.5 -131t-73.5 -299q0 -123 27.5 -204.5t71.5 -133t97 -73t107 -21.5q43 0 74.5 6.5t64.5 18.5 l33 -139q-35 -16 -82 -26.5t-99 -10.5q-98 0 -183 32.5t-149.5 103.5t-101.5 181.5t-37 265.5z" />
<glyph unicode="&#xe16;" horiz-adv-x="1241" d="M98 823q16 66 62.5 128.5t115 110.5t155.5 76.5t185 28.5q117 0 205 -32.5t147.5 -92t89 -140.5t29.5 -179v-723h-176v723q0 147 -76.5 220t-218.5 73q-117 0 -208 -50.5t-123 -131.5l155 -144q-55 -29 -81.5 -70.5t-26.5 -107.5v-311q0 -25 9 -39.5t38 -14.5h110v-147 h-157q-84 0 -130 52t-46 132v303q0 59 28.5 112.5t81.5 80.5z" />
<glyph unicode="&#xe17;" horiz-adv-x="1257" d="M158 0v1147h166l10 -168q31 35 73 68.5t93 60.5t110.5 43t124.5 16q90 0 159 -30.5t116 -88t70.5 -136t23.5 -177.5v-735h-176v735q0 147 -55.5 214t-145.5 67q-66 0 -124 -19.5t-109.5 -51.5t-92.5 -75t-67 -88v-782h-176z" />
<glyph unicode="&#xe18;" horiz-adv-x="1138" d="M94 864q0 135 123 219t346 84q246 0 420 -90l-35 -141q-78 41 -176 63.5t-205 22.5q-154 0 -228.5 -45t-74.5 -113q0 -57 32 -82.5t79 -33.5l399 -58q125 -18 193.5 -82.5t68.5 -189.5v-99q0 -100 -26.5 -165.5t-83 -103.5t-145.5 -53t-212 -15q-125 0 -213 18t-144 59 t-83 110t-27 169v129h170v-129q0 -63 16.5 -104t51.5 -65t92 -33t137 -9q82 0 139.5 7t92.5 28.5t50 58.5t15 98v101q0 55 -28.5 81.5t-81.5 35.5l-400 55q-117 16 -189.5 80.5t-72.5 191.5z" />
<glyph unicode="&#xe19;" horiz-adv-x="1241" d="M154 408v739h176v-737q0 -145 57 -212t186 -67q51 0 101.5 18.5t95.5 51t80 74.5t57 90v782h176v-1147h-165l-11 168q-59 -86 -147 -137t-228 -51q-188 0 -283 109.5t-95 318.5z" />
<glyph unicode="&#xe1a;" horiz-adv-x="1236" d="M154 422v725h176v-725q0 -135 70.5 -213t217.5 -78t218 78t71 213v725h176v-725q0 -213 -118.5 -327.5t-346.5 -114.5q-227 0 -345.5 114.5t-118.5 327.5z" />
<glyph unicode="&#xe1b;" horiz-adv-x="1236" d="M154 422v725h176v-725q0 -135 70.5 -213t217.5 -78t218 78t71 213v1114h176v-1114q0 -213 -118.5 -327.5t-346.5 -114.5q-227 0 -345.5 114.5t-118.5 327.5z" />
<glyph unicode="&#xe1c;" horiz-adv-x="1351" d="M158 0v963q0 80 46 133t130 51h135v-152h-88q-51 0 -51 -53v-407q0 -94 -4 -174t-15 -162h4q16 59 38 123.5t53 121.5l204 381h140l198 -383q29 -57 48.5 -114.5t39.5 -128.5h4q-12 82 -15 161.5t-3 174.5v612h172v-1147h-188l-261 518q-25 47 -42 96.5t-21 71.5h-4 q-4 -23 -21.5 -72t-42.5 -96l-268 -518h-188z" />
<glyph unicode="&#xe1d;" horiz-adv-x="1351" d="M158 0v963q0 80 46 133t130 51h135v-152h-88q-51 0 -51 -53v-407q0 -94 -4 -174t-15 -162h4q16 59 38 123.5t53 121.5l204 381h140l198 -383q29 -57 48.5 -114.5t39.5 -128.5h4q-12 82 -15 161.5t-3 174.5v1001h172v-1536h-188l-261 518q-25 47 -42 96.5t-21 71.5h-4 q-4 -23 -21.5 -72t-42.5 -96l-268 -518h-188z" />
<glyph unicode="&#xe1e;" horiz-adv-x="1454" d="M74 1147h178l104 -651q6 -43 11.5 -77t8.5 -68t6 -72.5t5 -94.5h6q16 102 32.5 180t39.5 156l186 570h152l186 -570q23 -78 39 -155.5t33 -180.5h6q2 55 5 94t6 73t8.5 68t11.5 77l104 651h178l-190 -1147h-195l-196 588q-23 72 -40.5 147.5t-29.5 177.5h-4 q-12 -102 -29.5 -178t-40.5 -147l-196 -588h-195z" />
<glyph unicode="&#xe1f;" horiz-adv-x="1454" d="M74 1147h178l104 -651q6 -43 11.5 -77t8.5 -68t6 -72.5t5 -94.5h6q16 102 32.5 180t39.5 156l186 570h152l192 -570q29 -78 47.5 -155.5t34.5 -180.5h6q2 51 3 90t4.5 74t6.5 70t7 78l106 1040h162l-162 -1536h-194l-207 588q-23 72 -45.5 147.5t-34.5 177.5h-4 q-12 -102 -29.5 -178t-40.5 -147l-196 -588h-195z" />
<glyph unicode="&#xe20;" horiz-adv-x="1257" d="M61 0v147h89q29 0 38 14.5t9 39.5v272q0 59 28.5 112.5t81.5 80.5l-188 157q16 66 62 128.5t113.5 110.5t155 76.5t185.5 28.5q117 0 205 -32.5t146 -92t88 -140.5t30 -179v-723h-176v723q0 147 -76 220t-217 73q-117 0 -207 -50.5t-123 -131.5l176 -158 q-55 -29 -81.5 -71t-26.5 -107v-314q0 -80 -46 -133t-130 -51h-136z" />
<glyph unicode="&#xe21;" horiz-adv-x="1241" d="M158 0v1147h176v-782q20 -47 56 -89.5t81 -75t95 -51t102 -18.5q129 0 186 77t57 222v717h176v-719q0 -207 -98 -327.5t-301 -120.5q-123 0 -209 51t-145 137l-10 -168h-166z" />
<glyph unicode="&#xe22;" horiz-adv-x="1187" d="M94 350q0 102 51.5 175t139.5 102q-78 20 -134.5 85.5t-56.5 182.5q0 115 78 189.5t215 74.5q57 0 102.5 -10t77.5 -25l-20 -147q-20 10 -56 20.5t-75 10.5q-76 0 -114 -38t-38 -98q0 -41 17.5 -70.5t44 -51t59.5 -31.5t66 -10h174l14 -152h-162q-90 0 -150.5 -53 t-60.5 -144q0 -55 23.5 -98t63.5 -72.5t92.5 -44t109.5 -14.5q154 0 228.5 77t74.5 222v717h176v-719q0 -100 -26.5 -183t-85 -141.5t-149.5 -91t-222 -32.5q-217 0 -337 96t-120 274z" />
<glyph unicode="&#xe23;" horiz-adv-x="1009" d="M90 862q0 145 116 225t314 80q96 0 188.5 -19.5t163.5 -55.5l-45 -140q-125 66 -290 66q-129 0 -202 -45t-73 -111q0 -37 20.5 -65.5t55.5 -50t80 -39t96 -33.5q96 -31 171 -65t126 -77t77.5 -98t26.5 -131q0 -145 -109.5 -234t-336.5 -89q-113 0 -208 20t-161 59l43 138 q63 -31 145.5 -49.5t172.5 -18.5q139 0 210.5 54.5t71.5 123.5q0 43 -25.5 76t-67.5 58.5t-94 44t-105 34.5q-78 23 -144.5 50.5t-115 67.5t-75 94t-26.5 130z" />
<glyph unicode="&#xe24;" horiz-adv-x="1241" d="M98 823q16 66 62.5 128.5t115 110.5t155.5 76.5t185 28.5q117 0 205 -32.5t147.5 -92t89 -140.5t29.5 -179v-1133h-176v1133q0 147 -76.5 220t-218.5 73q-117 0 -208 -50.5t-123 -131.5l155 -144q-55 -29 -81.5 -70.5t-26.5 -107.5v-311q0 -25 9 -39.5t38 -14.5h110v-147 h-157q-84 0 -130 52t-46 132v303q0 59 28.5 112.5t81.5 80.5z" />
<glyph unicode="&#xe25;" horiz-adv-x="1179" d="M74 322q0 180 127 281.5t383 101.5h266v26q0 135 -63.5 212t-225.5 77q-117 0 -217 -35t-174 -86l-57 125q31 27 79 52.5t108 46t130 32.5t145 12q221 0 336 -117.5t115 -316.5v-733h-176v553h-287q-145 0 -229 -56.5t-84 -172.5q0 -100 59.5 -148.5t149.5 -48.5 q43 0 91 9t85 26l29 -146q-45 -16 -104.5 -26t-119.5 -10q-78 0 -144.5 21.5t-115.5 63t-77.5 106.5t-28.5 151z" />
<glyph unicode="&#xe26;" horiz-adv-x="1257" d="M61 0v147h89q29 0 38 14.5t9 39.5v272q0 59 28.5 112.5t81.5 80.5l-188 157q16 66 62 128.5t113.5 110.5t155 76.5t185.5 28.5q117 0 205 -32.5t146 -92t88 -140.5t30 -179v-1133h-176v1133q0 147 -76 220t-217 73q-117 0 -207 -50.5t-123 -131.5l176 -158 q-55 -29 -81.5 -71t-26.5 -107v-314q0 -80 -46 -133t-130 -51h-136z" />
<glyph unicode="&#xe27;" horiz-adv-x="1077" d="M74 1051q82 53 185 84.5t212 31.5q248 0 376 -154.5t128 -430.5q0 -295 -136.5 -448.5t-385.5 -153.5q-117 0 -207 28.5t-170 81.5l43 143q74 -45 156.5 -73.5t181.5 -28.5q156 0 249 106.5t93 327.5q0 233 -89 342t-253 109q-109 0 -186.5 -27.5t-155.5 -79.5z" />
<glyph unicode="&#xe28;" horiz-adv-x="1269" d="M154 0v727q0 94 32.5 174t94 139.5t151.5 93t207 33.5q137 0 229 -57l99 117h200l-174 -207q66 -53 94.5 -135t28.5 -170v-715h-176v717q0 63 -18.5 118.5t-55.5 95.5t-94 62.5t-133 22.5q-154 0 -231.5 -79t-77.5 -208v-250q27 59 84 100.5t143 41.5h137v-154h-137 q-82 0 -141.5 -46t-85.5 -138v-283h-176z" />
<glyph unicode="&#xe29;" horiz-adv-x="1265" d="M154 422v725h176v-725q0 -135 70.5 -213t217.5 -78t218 78t71 213v180h-268v152h268v393h176v-393h174l-40 -152h-134v-180q0 -213 -118.5 -327.5t-346.5 -114.5q-227 0 -345.5 114.5t-118.5 327.5z" />
<glyph unicode="&#xe2a;" horiz-adv-x="1179" d="M74 322q0 180 127 281.5t383 101.5h266v26q0 63 -14.5 116.5t-48 92.5t-88 59.5t-132.5 20.5q-125 0 -224 -35t-173 -86l-57 125q33 27 83 53.5t110.5 46t128 31.5t132.5 12q131 0 232 -45l88 105h200l-161 -195q51 -55 75.5 -131t24.5 -168v-733h-176v553h-287 q-145 0 -229 -56.5t-84 -172.5q0 -100 59.5 -148.5t149.5 -48.5q43 0 91 9t85 26l29 -146q-45 -16 -104.5 -26t-119.5 -10q-78 0 -144.5 21.5t-115.5 63t-77.5 106.5t-28.5 151z" />
<glyph unicode="&#xe2b;" horiz-adv-x="1200" d="M158 0v1147h176v-451l545 451h237l-401 -332q111 -16 171 -92t95 -188l158 -535h-189l-151 520q-57 188 -209 193l-256 -211v-502h-176z" />
<glyph unicode="&#xe2c;" horiz-adv-x="1351" d="M158 0v1147h172v-612q0 -94 -3 -174t-16 -162h4q20 72 40 129t48 114l199 383h139l205 -381q31 -57 52.5 -121.5t37.5 -123.5h4q-10 82 -14 161.5t-4 174.5v323q0 113 -34 165t-136 52h-25l-24 74l266 387h180l-274 -375q57 -6 98 -33.5t67.5 -68.5t40 -92.5t13.5 -106.5 v-860h-188l-269 518q-25 47 -42 96.5t-21 71.5h-4q-4 -23 -21.5 -72t-42.5 -96l-260 -518h-188z" />
<glyph unicode="&#xe2d;" horiz-adv-x="1212" d="M102 391v62q0 106 56.5 155t152.5 49h185v-151h-164q-23 0 -38 -15.5t-15 -44.5v-55q0 -135 75.5 -197.5t231.5 -62.5q164 0 256 105.5t92 343.5q0 211 -92 323.5t-258 112.5q-135 0 -238.5 -38t-181.5 -97l-58 131q35 29 86.5 56.5t113 50t132 35.5t146.5 13 q258 0 392 -159.5t134 -436.5q0 -291 -134 -441t-386 -150q-248 0 -368 106.5t-120 304.5z" />
<glyph unicode="&#xe2e;" horiz-adv-x="1212" d="M102 391v62q0 106 56.5 155t152.5 49h185v-151h-164q-23 0 -38 -15.5t-15 -44.5v-55q0 -135 75.5 -197.5t231.5 -62.5q164 0 256 105.5t92 343.5q0 104 -26.5 185t-73 136t-111 85t-139.5 30q-135 0 -238.5 -38t-181.5 -97l-58 131q35 29 86.5 56.5t113 50t132 35.5 t146.5 13q139 0 247 -55l99 115h200l-176 -207q78 -78 117 -192.5t39 -256.5q0 -291 -134 -441t-386 -150q-248 0 -368 106.5t-120 304.5z" />
<glyph unicode="&#xe2f;" horiz-adv-x="1124" d="M82 1073v74h172v-76q0 -133 50 -200.5t161 -67.5q59 0 118.5 27.5t107.5 71.5t78 100.5t30 113.5v31h168v-1147h-176v856q-20 -43 -58.5 -79t-86.5 -61.5t-104.5 -38.5t-115.5 -13q-94 0 -159.5 30.5t-106.5 85t-59.5 129t-18.5 164.5z" />
<glyph unicode="&#xe30;" horiz-adv-x="614" d="M90 342v100h168v-84q0 -39 39 -39h215v-143h-238q-84 0 -134 37t-50 129zM90 907v101h168v-84q0 -39 39 -39h215v-144h-238q-84 0 -134 37t-50 129z" />
<glyph unicode="&#xe31;" d="M-588 1487v82h168v-62q0 -61 58 -61h483v-143h-502q-207 0 -207 184z" />
<glyph unicode="&#xe32;" horiz-adv-x="970" d="M20 1028q31 27 75 52.5t96.5 45t108.5 30.5t114 11q201 0 302 -113.5t101 -322.5v-731h-176v739q0 276 -244 277q-98 0 -184 -36t-145 -85z" />
<glyph unicode="&#xe33;" horiz-adv-x="970" d="M-449 1479q0 43 15.5 79.5t43.5 64.5t64.5 44t79.5 16t80 -16t64.5 -44t44 -64.5t16.5 -79.5t-16.5 -81t-44 -65.5t-64.5 -43t-80 -15.5t-79.5 15.5t-64.5 43t-43.5 65.5t-15.5 81zM-332 1481q0 -37 25.5 -63.5t60.5 -26.5q39 0 63.5 26.5t24.5 63.5q0 39 -24.5 63.5 t-63.5 24.5q-35 0 -60.5 -24.5t-25.5 -63.5zM20 1028q31 27 75 52.5t96.5 45t108.5 30.5t114 11q201 0 302 -113.5t101 -322.5v-731h-176v739q0 276 -244 277q-98 0 -184 -36t-145 -85z" />
<glyph unicode="&#xe34;" d="M-1032 1303v143h878v-143h-878z" />
<glyph unicode="&#xe35;" d="M-1032 1303v143h713v188h165v-331h-878z" />
<glyph unicode="&#xe36;" d="M-1032 1303v143h567q-2 10 -3 19.5t-1 19.5q0 78 52 130t128 52q78 0 130.5 -52t52.5 -130q0 -76 -50.5 -127t-124.5 -55h-8h-6h-737zM-358 1487q0 -29 20 -51.5t49 -22.5q31 0 51.5 22.5t20.5 51.5q0 31 -20.5 51.5t-51.5 20.5q-29 0 -49 -20.5t-20 -51.5z" />
<glyph unicode="&#xe37;" d="M-1032 1303v143h479v188h145v-192h109v192h145v-331h-878z" />
<glyph unicode="&#xe38;" d="M-449 -141h134q86 0 123.5 -41t37.5 -133v-220h-172v203q0 43 -43 43h-80v148z" />
<glyph unicode="&#xe39;" d="M-795 -141h277v-201q0 -47 28.5 -67.5t69.5 -20.5t69.5 20.5t28.5 67.5v201h168v-201q0 -104 -67.5 -159.5t-198.5 -55.5t-196.5 55.5t-65.5 159.5v57h-113v144z" />
<glyph unicode="&#xe3a;" d="M-387 -256q0 53 40 92t93 39q57 0 96 -39t39 -92t-39 -91t-96 -38q-53 0 -93 38t-40 91z" />
<glyph unicode="&#xe3f;" horiz-adv-x="1171" d="M152 0v1331h405v205h115v-207q188 -14 282.5 -109.5t94.5 -244.5q0 -59 -20.5 -104.5t-51.5 -79t-67 -56t-68 -35.5q47 -8 94 -30.5t85 -60.5t61.5 -92t23.5 -128q0 -164 -107.5 -269.5t-326.5 -117.5v-207h-115v205h-405zM319 154h238v458h-238v-458zM319 764h238v414 h-238v-414zM672 156q125 10 195.5 69.5t70.5 163.5q0 57 -19.5 97t-54.5 67t-84 40t-108 17v-454zM672 768q88 12 148.5 64.5t60.5 150.5q0 86 -56.5 133t-152.5 58v-406z" />
<glyph unicode="&#xe40;" horiz-adv-x="495" d="M160 0v1147h176v-1147h-176z" />
<glyph unicode="&#xe41;" horiz-adv-x="892" d="M160 0v1147h172v-1147h-172zM561 0v1147h172v-1147h-172z" />
<glyph unicode="&#xe42;" horiz-adv-x="561" d="M-20 1683q33 57 83 101.5t112.5 74t135 44t150.5 14.5q125 0 200.5 -15.5t137.5 -39.5l-27 -156q-59 33 -138 47t-157 14q-98 0 -179 -22.5t-118 -69.5q102 -55 155.5 -173t53.5 -259v-1243h-176v1260q0 94 -29.5 163.5t-68.5 117.5t-77 73.5t-54 32.5z" />
<glyph unicode="&#xe43;" horiz-adv-x="561" d="M-76 1745q27 37 68 68.5t92 54t108.5 36t114.5 13.5q82 0 145.5 -23.5t106.5 -64.5t64.5 -95.5t21.5 -117.5q0 -76 -40 -139.5t-88 -126t-88 -132t-40 -157.5v-1061h-176v1104q0 86 39 154.5t85 128t85 114.5t39 115q0 66 -38 106.5t-128 40.5q-76 0 -160 -34.5 t-155 -106.5z" />
<glyph unicode="&#xe44;" horiz-adv-x="561" d="M-135 1741v145h731v-123q-98 -45 -152.5 -134t-54.5 -224v-1405h-176v1366q0 125 42 217t116 158h-506z" />
<glyph unicode="&#xe45;" horiz-adv-x="970" d="M20 1028q31 27 75 52.5t96.5 45t108.5 30.5t114 11q201 0 302 -113.5t101 -322.5v-1141h-176v1149q0 276 -244 277q-98 0 -184 -36t-145 -85z" />
<glyph unicode="&#xe46;" horiz-adv-x="1144" d="M102 895q0 61 24 108.5t62.5 81t90 55t106.5 31.5l164 -124l166 124q70 -4 122 -32.5t86.5 -73.5t51 -103.5t16.5 -121.5v-1250h-176v1262q0 158 -98 176l-168 -121l-172 121q-127 -29 -127 -133q0 -59 34.5 -92t94.5 -33q33 0 55 8l21 -133q-23 -8 -48.5 -11t-48.5 -3 q-49 0 -95 15.5t-82 47t-57.5 81.5t-21.5 120z" />
<glyph unicode="&#xe47;" d="M-905 1513q0 45 15.5 86t46 74t79.5 52.5t117 19.5h420v-139h-414q-55 0 -77.5 -29t-22.5 -66t22.5 -61.5t67.5 -24.5q35 0 60.5 27t31.5 55h98q8 -29 31.5 -45t69.5 -16h135v-143h-127q-53 0 -93 27.5t-61 70.5q-14 -43 -57 -75t-117 -32q-53 0 -95 18.5t-70.5 49.5 t-44 69.5t-15.5 81.5z" />
<glyph unicode="&#xe48;" d="M-319 1735v274h165v-274h-165z" />
<glyph unicode="&#xe49;" d="M-549 1903v143h166q53 0 84 -23.5t31 -72.5v-45q0 -29 28 -29h277v-141h-369q-35 0 -60.5 22.5t-25.5 59.5v53q0 16 -4 24.5t-22 8.5h-105z" />
<glyph unicode="&#xe4a;" d="M-709 1837q0 61 46.5 115.5t138.5 62.5l104 -94l96 96q178 -6 162 -184q41 18 53.5 50t12.5 97q0 27 -5 48.5t-16 42.5h164q6 -16 10 -36t6 -44q0 -53 -18 -99.5t-52 -81t-80 -55t-103 -20.5h-82l-17 34q18 18 19 50q0 29 -17.5 43t-42.5 16l-90 -72l-90 66 q-23 0 -36 -15.5t-13 -37.5q0 -16 4 -37t18 -51h-155q-10 29 -13.5 56.5t-3.5 49.5z" />
<glyph unicode="&#xe4b;" d="M-453 1855v123l146 -4l-6 127h153l-4 -127l146 4v-123l-146 5l4 -125h-153l6 125z" />
<glyph unicode="&#xe4c;" d="M-432 1559v65q0 88 52 139.5t157 51.5h184v-144h-133q-37 0 -56.5 -15.5t-19.5 -53.5v-43h-184z" />
<glyph unicode="&#xe4d;" d="M-449 1479q0 43 15.5 79.5t43.5 64.5t64.5 44t79.5 16t80 -16t64.5 -44t44 -64.5t16.5 -79.5t-16.5 -81t-44 -65.5t-64.5 -43t-80 -15.5t-79.5 15.5t-64.5 43t-43.5 65.5t-15.5 81zM-332 1481q0 -37 25.5 -63.5t60.5 -26.5q39 0 63.5 26.5t24.5 63.5q0 39 -24.5 63.5 t-63.5 24.5q-35 0 -60.5 -24.5t-25.5 -63.5z" />
<glyph unicode="&#xe4e;" d="M-631 1475q0 76 51.5 126t163.5 39q-12 14 -18 33t-6 37q0 41 34.5 69.5t110.5 28.5h123l29 -114h-123q-16 0 -25.5 -10.5t-9.5 -26.5q0 -33 51 -58l-33 -86q-61 18 -120 19q-80 0 -80 -57q0 -59 88 -60q25 0 49 3t53 14v-103q-27 -16 -54.5 -23.5t-68.5 -7.5t-80 10.5 t-68.5 32t-48 54t-18.5 80.5z" />
<glyph unicode="&#xe4f;" horiz-adv-x="1118" d="M123 492q0 90 33.5 169.5t93 139t139.5 93.5t170 34t170 -34t139.5 -93.5t93 -139t33.5 -169.5t-33.5 -170t-93 -139.5t-139.5 -94.5t-170 -35t-170 35t-139.5 94.5t-93 139t-33.5 170.5zM190 492q0 -78 29 -144.5t79 -117t117.5 -79t143.5 -28.5t143.5 28.5t117.5 79 t79 117t29 144.5q0 76 -29 143t-79 117.5t-117.5 79t-143.5 28.5t-143.5 -28.5t-117.5 -79t-79 -118t-29 -142.5zM305 489q0 53 20.5 100.5t54.5 81.5t80 53t97 19q53 0 99 -19t81 -54t54.5 -81t19.5 -97q0 -53 -20.5 -99.5t-54.5 -80t-80 -53t-97 -19.5q-53 0 -99 19.5 t-81 53t-54.5 79.5t-19.5 97zM412 489q0 -59 43 -102t104 -43q59 0 101 42t42 106q0 59 -42 101t-103 42q-59 0 -102 -43t-43 -103z" />
<glyph unicode="&#xe50;" horiz-adv-x="1306" d="M98 496q0 121 44 216t120 161.5t177 101.5t216 35q113 0 213.5 -35t176 -101.5t119.5 -162t44 -215.5q0 -121 -44 -216.5t-119.5 -162t-177 -101t-216.5 -34.5q-113 0 -213 34.5t-176 101t-120 162t-44 216.5zM268 496q0 -86 31 -155t83 -116t121.5 -71.5t149.5 -24.5 t149.5 24.5t122 71.5t83 116t30.5 155t-30.5 154.5t-83 115.5t-122 71.5t-149.5 24.5t-149.5 -24.5t-121.5 -71.5t-83 -115.5t-31 -154.5z" />
<glyph unicode="&#xe51;" horiz-adv-x="1312" d="M90 512q0 109 40 200t111.5 157.5t173 103.5t224.5 37q133 0 239.5 -43t181.5 -123t114.5 -191.5t39.5 -246.5q0 -143 -48 -260t-131 -201t-193.5 -130t-235.5 -46h-71l16 141h67q76 0 152 31.5t137.5 93t99 154t37.5 212.5q0 104 -28.5 190.5t-81.5 146t-129 92 t-170 32.5q-86 0 -155.5 -26.5t-121 -73.5t-79 -111.5t-27.5 -140.5q0 -143 77 -219t191 -76q47 0 93 10.5t81 24.5q2 -41 5 -70.5t6 -68.5q-45 -23 -89.5 -33t-95.5 -10q-88 0 -166 28.5t-136 84t-93 138t-35 193.5z" />
<glyph unicode="&#xe52;" horiz-adv-x="1531" d="M150 397v750h169v-750q0 -129 63.5 -189.5t166.5 -60.5h440q102 0 166 60.5t64 189.5v246q0 100 -32 149.5t-106 57.5l-163 -129l-177 133q-53 -10 -81.5 -59.5t-28.5 -102.5q0 -72 48 -118t114 -66l-45 -129q-127 23 -200 103.5t-73 205.5q0 137 75 220t198 102 l170 -150l155 150q168 -16 242 -111.5t74 -261.5v-240q0 -88 -26 -160.5t-75 -125t-121.5 -82t-167.5 -29.5h-460q-96 0 -169 29.5t-122 82t-73.5 125t-24.5 160.5z" />
<glyph unicode="&#xe53;" horiz-adv-x="1353" d="M115 494q0 113 20.5 208t63.5 163.5t106.5 106.5t149.5 38q102 0 154.5 -42t76.5 -104q29 61 83 103.5t153 42.5q74 0 128 -24.5t90 -69t53 -105.5t17 -133v-678h-170v680q0 33 -4 65.5t-17 59t-38 42t-68 15.5q-84 0 -117.5 -52t-33.5 -144v-297h-154v297 q0 92 -29.5 144t-105.5 52q-53 0 -89 -27.5t-58.5 -75.5t-31.5 -116t-9 -147q0 -178 51 -274.5t139 -96.5q27 0 51.5 5t46.5 13l33 -116q-57 -39 -137 -39q-84 0 -149.5 36.5t-110.5 103.5t-69.5 160t-24.5 206z" />
<glyph unicode="&#xe54;" horiz-adv-x="1251" d="M98 489q0 125 43 218.5t117 156t175.5 94t217.5 31.5h209q57 0 92 10.5t54.5 27.5t26.5 42t7 53v25h170v-25q0 -135 -79.5 -207.5t-239.5 -72.5h-238q-86 0 -156.5 -19.5t-121.5 -61.5t-79 -108.5t-28 -158.5q0 -84 22.5 -153t61.5 -117t91.5 -73.5t111.5 -25.5 q61 0 102 16.5t74 46.5q-49 72 -49 166q0 61 20.5 109.5t55.5 81.5t81 50t97 17h143l-32 -143h-72q-53 0 -91 -37t-38 -102q0 -88 59.5 -137.5t184.5 -49.5h104l-31 -143h-96q-102 0 -163.5 18.5t-112.5 71.5q-39 -47 -99.5 -78.5t-175.5 -31.5q-90 0 -167 35.5t-132 102 t-87 161t-32 210.5z" />
<glyph unicode="&#xe55;" horiz-adv-x="1251" d="M98 489q0 180 86 295t228 166q-10 20 -15.5 42t-5.5 46q0 41 15.5 77t41 61.5t60.5 41t76 15.5q39 0 74.5 -15.5t61 -41t41 -61.5t15.5 -77q0 -29 -6 -49h90q57 0 92 10.5t54.5 27.5t26.5 42t7 53v25h170v-25q0 -135 -79.5 -207.5t-239.5 -72.5h-238q-86 0 -156.5 -19.5 t-121.5 -61.5t-79 -108.5t-28 -158.5q0 -84 22.5 -153t61.5 -117t91.5 -73.5t111.5 -25.5q61 0 102 16.5t74 46.5q-49 72 -49 166q0 61 20.5 109.5t55.5 81.5t81 50t97 17h143l-32 -143h-72q-53 0 -91 -37t-38 -102q0 -88 59.5 -137.5t184.5 -49.5h104l-31 -143h-96 q-102 0 -163.5 18.5t-112.5 71.5q-39 -47 -99.5 -78.5t-175.5 -31.5q-90 0 -167 35.5t-132 102t-87 161t-32 210.5zM508 1040q0 -31 22.5 -54t53.5 -23q33 0 54 23.5t21 53.5q0 35 -21.5 56.5t-53.5 21.5q-31 0 -53.5 -21.5t-22.5 -56.5z" />
<glyph unicode="&#xe56;" horiz-adv-x="1263" d="M20 1167h173l104 -319q53 74 151.5 118t215.5 44q106 0 198 -37t160 -104.5t105.5 -161t37.5 -205.5q0 -102 -31.5 -197.5t-99 -167t-172 -114.5t-250.5 -43q-109 0 -195.5 27.5t-148 76.5t-95.5 117.5t-34 152.5q0 63 27 118.5t57 88.5l127 -92q-23 -23 -35 -60.5 t-12 -68.5q0 -41 20.5 -79t59.5 -67.5t96.5 -48t130.5 -18.5q96 0 169 27.5t121 78t71.5 120t23.5 155.5q0 78 -24.5 143.5t-70.5 113.5t-109.5 74.5t-139.5 26.5q-127 0 -203.5 -46t-130.5 -122h-133z" />
<glyph unicode="&#xe57;" horiz-adv-x="1648" d="M115 494q0 113 22.5 208t65.5 163.5t106.5 106.5t145.5 38q90 0 132 -39t58 -99q29 59 84 98.5t145 39.5q55 0 98.5 -24.5t74 -69t46 -105.5t15.5 -133v-549h49q78 0 125 56.5t47 156.5v805h170v-778q0 -80 -21.5 -147.5t-64.5 -117t-107.5 -77t-150.5 -27.5h-213v680 q0 33 -3 65.5t-14.5 59t-34 42t-61.5 15.5q-53 0 -81.5 -38t-28.5 -97v-113h-150v113q0 55 -22.5 95t-77.5 40q-51 0 -87 -27.5t-57.5 -75.5t-30.5 -116t-9 -147q0 -178 55 -274.5t135 -96.5q27 0 52.5 5t45.5 13l33 -116q-31 -23 -63.5 -31t-73.5 -8q-84 0 -149.5 36.5 t-110.5 103.5t-69.5 160t-24.5 206z" />
<glyph unicode="&#xe58;" horiz-adv-x="1304" d="M139 322v251q0 86 32 161t90 132.5t141 90t188 32.5h248q57 0 92 10.5t54.5 27.5t26.5 42t7 53v25h170v-25q0 -135 -80 -207.5t-240 -72.5h-266q-145 0 -219 -79t-74 -202v-235q0 -72 44 -126.5t110 -54.5l229 222l244 -220q68 18 101.5 71.5t33.5 123.5q0 82 -50 134 t-122 63l53 127q59 -6 110.5 -35t88.5 -74t58.5 -102.5t21.5 -116.5q0 -72 -27.5 -134.5t-74 -108.5t-103.5 -73.5t-117 -29.5l-217 201l-190 -201q-160 4 -261.5 87t-101.5 243z" />
<glyph unicode="&#xe59;" horiz-adv-x="1280" d="M86 494q0 113 29.5 208t80 163.5t119 106.5t148.5 38q61 0 104 -11.5t75 -33t55.5 -50t41.5 -61.5q-6 82 41 119t109 37q66 0 107.5 -28t66.5 -81l43 246h154l-78 -410h-121q-18 51 -48 93t-83 42t-83 -43t-30 -96l250 -733h-168l-240 682q-29 86 -67.5 132t-118.5 46 q-49 0 -90 -26.5t-68.5 -75.5t-43 -116t-15.5 -146q0 -88 18.5 -158t47 -119t66.5 -74.5t79 -25.5q27 0 62.5 9t64.5 28l33 -117q-35 -25 -77 -41t-89 -16q-78 0 -145.5 33.5t-119 98t-81 161t-29.5 219.5z" />
<glyph unicode="&#xe5b;" horiz-adv-x="2336" d="M123 592q0 98 30.5 183t88 146.5t138.5 96.5t181 35q84 0 152.5 -33t118 -88t78 -126t30.5 -144h-139q-8 111 -73.5 184.5t-170.5 73.5q-70 0 -123 -29t-90 -75t-55.5 -104.5t-18.5 -119.5q0 -80 28 -144.5t77 -111.5t114.5 -72.5t141.5 -25.5q135 0 229 64.5 t155.5 161.5t92.5 213t37 220h92l149 -430l113 387h90l129 -367l101 322h77q20 -158 80 -248t160 -90q59 0 119 21l41 -107q-53 -16 -99.5 -23.5t-80.5 -7.5q-92 0 -158 47.5t-107 139.5l-88 -291h-77l-136 368l-125 -405h-79l-127 362q-29 -100 -83.5 -187t-131 -151.5 t-172 -101.5t-201.5 -37q-111 0 -204 38t-160.5 103.5t-105.5 156.5t-38 196z" />
<glyph unicode="&#x2000;" horiz-adv-x="1050" />
<glyph unicode="&#x2001;" horiz-adv-x="2101" />
<glyph unicode="&#x2002;" horiz-adv-x="1050" />
<glyph unicode="&#x2003;" horiz-adv-x="2101" />
<glyph unicode="&#x2004;" horiz-adv-x="700" />
<glyph unicode="&#x2005;" horiz-adv-x="525" />
<glyph unicode="&#x2006;" horiz-adv-x="350" />
<glyph unicode="&#x2007;" horiz-adv-x="350" />
<glyph unicode="&#x2008;" horiz-adv-x="262" />
<glyph unicode="&#x2009;" horiz-adv-x="420" />
<glyph unicode="&#x200a;" horiz-adv-x="116" />
<glyph unicode="&#x2010;" horiz-adv-x="663" d="M61 481v140h541v-140h-541z" />
<glyph unicode="&#x2011;" horiz-adv-x="663" d="M61 481v140h541v-140h-541z" />
<glyph unicode="&#x2012;" horiz-adv-x="663" d="M61 481v140h541v-140h-541z" />
<glyph unicode="&#x2013;" horiz-adv-x="1052" d="M61 461v119h930v-119h-930z" />
<glyph unicode="&#x2014;" horiz-adv-x="2035" d="M143 461v119h1749v-119h-1749z" />
<glyph unicode="&#x2018;" horiz-adv-x="442" d="M123 1049q0 39 11 87t28.5 97t40 94t47.5 80l72 -14q-16 -29 -32 -64t-26 -68.5t-16 -62.5t-6 -47q0 -27 20 -27q41 0 61.5 -25.5t20.5 -72.5t-27.5 -75.5t-80.5 -28.5q-113 0 -113 127z" />
<glyph unicode="&#x2019;" horiz-adv-x="442" d="M98 1303q0 47 28 75.5t81 28.5q113 0 112 -127q0 -39 -11 -87t-28.5 -97t-40 -95.5t-46.5 -78.5l-72 14q16 29 31.5 63.5t25.5 68.5t16.5 62.5t6.5 47.5q0 27 -21 26q-41 0 -61.5 25.5t-20.5 73.5z" />
<glyph unicode="&#x201a;" horiz-adv-x="442" d="M98 139q0 47 28 76t81 29q113 0 112 -127q0 -39 -11 -87t-28.5 -97.5t-40 -95.5t-46.5 -79l-72 15q16 29 31.5 63.5t25.5 68.5t16.5 62.5t6.5 46.5q0 27 -21 27q-41 0 -61.5 25.5t-20.5 72.5z" />
<glyph unicode="&#x201c;" horiz-adv-x="770" d="M123 1049q0 39 11 87t28.5 97t40 94t47.5 80l72 -14q-16 -29 -32 -64t-26 -68.5t-16 -62.5t-6 -47q0 -27 20 -27q41 0 61.5 -25.5t20.5 -72.5t-27.5 -75.5t-80.5 -28.5q-113 0 -113 127zM451 1049q0 39 11 87t28.5 97t40 94t47.5 80l71 -14q-16 -29 -31.5 -64 t-25.5 -68.5t-16.5 -62.5t-6.5 -47q0 -27 21 -27q41 0 61.5 -25.5t20.5 -72.5t-28 -75.5t-81 -28.5q-113 0 -112 127z" />
<glyph unicode="&#x201d;" horiz-adv-x="770" d="M98 1303q0 47 28 75.5t81 28.5q113 0 112 -127q0 -39 -11 -87t-28.5 -97t-40 -95.5t-46.5 -78.5l-72 14q16 29 31.5 63.5t25.5 68.5t16.5 62.5t6.5 47.5q0 27 -21 26q-41 0 -61.5 25.5t-20.5 73.5zM426 1303q0 47 27.5 75.5t81.5 28.5q113 0 112 -127q0 -39 -11 -87 t-28.5 -97t-40 -95.5t-47.5 -78.5l-71 14q16 29 31.5 63.5t25.5 68.5t16 62.5t6 47.5q0 27 -20 26q-41 0 -61.5 25.5t-20.5 73.5z" />
<glyph unicode="&#x201e;" horiz-adv-x="770" d="M98 139q0 47 28 76t81 29q113 0 112 -127q0 -39 -11 -87t-28.5 -97.5t-40 -95.5t-46.5 -79l-72 15q16 29 31.5 63.5t25.5 68.5t16.5 62.5t6.5 46.5q0 27 -21 27q-41 0 -61.5 25.5t-20.5 72.5zM426 139q0 47 27.5 76t81.5 29q113 0 112 -127q0 -39 -11 -87t-28.5 -97.5 t-40 -95.5t-47.5 -79l-71 15q16 29 31.5 63.5t25.5 68.5t16 62.5t6 46.5q0 27 -20 27q-41 0 -61.5 25.5t-20.5 72.5z" />
<glyph unicode="&#x2020;" horiz-adv-x="1110" d="M123 850v139h348v391h168v-391h348v-139h-348v-850h-168v850h-348z" />
<glyph unicode="&#x2021;" horiz-adv-x="1110" d="M123 289v139h348v422h-348v139h348v391h168v-391h348v-139h-348v-422h348v-139h-348v-391h-168v391h-348z" />
<glyph unicode="&#x2022;" horiz-adv-x="634" d="M102 700q0 88 53.5 150.5t161.5 62.5q106 0 160.5 -61t54.5 -147t-54 -151t-163 -65q-106 0 -159.5 62.5t-53.5 148.5z" />
<glyph unicode="&#x2026;" horiz-adv-x="1486" d="M123 102q0 51 32.5 87t92.5 36q59 0 92 -35.5t33 -87.5q0 -51 -33 -86.5t-92 -35.5t-92 35.5t-33 86.5zM618 102q0 51 33 87t92 36t92 -35.5t33 -87.5q0 -51 -32.5 -86.5t-92.5 -35.5q-59 0 -92 35.5t-33 86.5zM1114 102q0 51 33 87t92 36t92 -35.5t33 -87.5 q0 -51 -33 -86.5t-92 -35.5t-92 35.5t-33 86.5z" />
<glyph unicode="&#x202f;" horiz-adv-x="420" />
<glyph unicode="&#x2030;" horiz-adv-x="2310" d="M86 991q0 74 18.5 139.5t55.5 114.5t91 78t126 29q70 0 124 -29t91 -78t56.5 -114.5t19.5 -139.5t-19.5 -139.5t-56.5 -114.5t-91.5 -77.5t-123.5 -28.5q-72 0 -126 28.5t-91 77.5t-55.5 114.5t-18.5 139.5zM225 991q0 -47 8.5 -92t27 -80t47 -55.5t69.5 -20.5t69.5 21.5 t47 55.5t26.5 78t8 91t-8 92t-26.5 80t-47 56.5t-69.5 21.5t-69.5 -21.5t-47 -56.5t-27 -80t-8.5 -90zM348 0l750 1352h143l-749 -1352h-144zM922 340q0 74 18 139.5t55 114.5t91.5 77.5t125.5 28.5q70 0 124.5 -28.5t91 -77.5t56 -114.5t19.5 -139.5t-19.5 -139.5 t-56 -114.5t-91 -77.5t-124.5 -28.5q-72 0 -126 28.5t-91 77.5t-55 114.5t-18 139.5zM1061 340q0 -47 8 -92t26.5 -80t47 -55.5t69.5 -20.5t70 21.5t47.5 55.5t26.5 78t8 91t-8 92t-26.5 80t-47.5 56.5t-70 21.5t-69.5 -21.5t-47 -56.5t-26.5 -80t-8 -90zM1642 340 q0 74 18.5 139.5t55.5 114.5t91.5 77.5t125.5 28.5q70 0 124 -28.5t91 -77.5t56.5 -114.5t19.5 -139.5t-19.5 -139.5t-56.5 -114.5t-91 -77.5t-124 -28.5q-72 0 -126 28.5t-91 77.5t-55.5 114.5t-18.5 139.5zM1782 340q0 -47 8 -92t26.5 -80t47 -55.5t69.5 -20.5t70 21.5 t47 55.5t26.5 78t8.5 91t-8.5 92t-26.5 80t-47 56.5t-70 21.5t-69.5 -21.5t-47 -56.5t-26.5 -80t-8 -90z" />
<glyph unicode="&#x2039;" horiz-adv-x="567" d="M82 496l264 368h139l-264 -368l264 -369h-139z" />
<glyph unicode="&#x203a;" horiz-adv-x="565" d="M82 127l264 369l-264 368h137l264 -368l-264 -369h-137z" />
<glyph unicode="&#x2044;" horiz-adv-x="892" d="M-20 0l749 1352h143l-749 -1352h-143z" />
<glyph unicode="&#x205f;" horiz-adv-x="525" />
<glyph unicode="&#x20ac;" horiz-adv-x="1171" d="M94 494l31 100h129q-4 23 -4 47.5v48.5v36.5t2 37.5h-158l31 100h137q18 121 64.5 219.5t114 169t155.5 109.5t192 39t169 -29t120 -78l-45 -147q-47 43 -103.5 68.5t-129.5 25.5q-143 0 -236.5 -97t-124.5 -280h457l-31 -100h-436q-2 -18 -2 -36.5v-37.5v-50.5t4 -45.5 h465l-31 -100h-420q35 -172 129.5 -263.5t233.5 -91.5q74 0 134 25.5t108 68.5l45 -147q-55 -49 -124 -77.5t-173 -28.5q-102 0 -189.5 36.5t-156 104t-115.5 162t-70 211.5h-172z" />
<glyph unicode="&#x2113;" horiz-adv-x="817" d="M20 360q57 35 110.5 72t105.5 82v449q0 244 73.5 354t198.5 110q111 0 179.5 -78.5t68.5 -242.5q0 -190 -88 -347t-260 -286v-147q0 -111 27.5 -152t99.5 -41q55 0 104 21l43 -136q-29 -16 -66.5 -26t-85.5 -10q-88 0 -144 21.5t-90 65.5t-47 108.5t-13 150.5v49 l-156 -101zM408 631q102 92 143 217t41 258q0 106 -20.5 153.5t-61.5 47.5q-25 0 -44.5 -15.5t-32.5 -54.5t-19 -105.5t-6 -168.5v-332z" />
<glyph unicode="&#x2122;" horiz-adv-x="1593" d="M41 1280v100h582v-100l-234 2v-678h-119v678zM748 604v776h137l182 -411q14 -31 27.5 -66t23.5 -69h2q10 35 23.5 69.5t27.5 65.5l183 411h137v-776h-117v469q0 35 3 63.5t5 55.5h-4q-4 -16 -14 -44t-27 -65l-157 -354h-121l-158 354q-16 37 -26.5 65t-14.5 44h-4 q2 -27 5 -55.5t3 -63.5v-469h-116z" />
<glyph unicode="&#x2126;" horiz-adv-x="1540" d="M143 782q0 141 44 255t125 195t197 125t261 44q143 0 260 -44t198 -125t125 -194.5t44 -255.5q0 -117 -34 -215t-83 -177t-104.5 -138t-100.5 -98h246v-154h-449v113q49 39 109.5 101t114 145t89.5 182.5t36 210.5q0 231 -120 358t-327 127q-213 0 -334 -127t-121 -358 q0 -111 36 -210.5t89.5 -182.5t113.5 -145t110 -101v-113h-449v154h246q-45 39 -100.5 98t-104.5 138t-83 177.5t-34 214.5z" />
<glyph unicode="&#x212e;" horiz-adv-x="1675" d="M74 662q0 150 60.5 276.5t163.5 217.5t242.5 142.5t297.5 51.5t297 -50.5t242.5 -140.5t164 -213t60.5 -268v-45h-1250v-375q18 -23 64.5 -61.5t111 -75.5t144.5 -64.5t164 -27.5q88 0 166.5 24.5t142 59t109.5 74.5t69 71h147q-117 -141 -284.5 -213t-347.5 -72 q-158 0 -297.5 50.5t-242.5 141.5t-163.5 218t-60.5 279zM352 690h971v373q-23 31 -69 71t-110.5 75.5t-142 59t-165.5 23.5q-84 0 -164 -27.5t-144.5 -64.5t-110.5 -76t-65 -61v-373z" />
<glyph unicode="&#x2202;" horiz-adv-x="1228" d="M82 332q0 102 39 201.5t109.5 177t169 125t214.5 47.5q70 0 123.5 -14.5t93 -37t67.5 -50t44 -52.5q25 104 25 186q0 141 -69 215t-198 74q-78 0 -140 -16.5t-120 -48.5l-20 135q55 35 138 56.5t161 21.5q205 0 312.5 -117t107.5 -322q0 -92 -19.5 -197.5t-58.5 -209 t-96.5 -198.5t-132 -168.5t-166 -116.5t-197.5 -43q-201 0 -294 95t-93 257zM260 338q0 -100 54.5 -155.5t152.5 -55.5q66 0 132.5 30.5t124.5 91t105.5 146.5t75.5 197q-41 57 -115 99t-178 42q-82 0 -147.5 -33.5t-110.5 -89t-69.5 -126t-24.5 -146.5z" />
<glyph unicode="&#x2206;" horiz-adv-x="1280" d="M61 0l545 1380h66l547 -1380h-1158zM274 137h723l-358 959z" />
<glyph unicode="&#x220f;" horiz-adv-x="1257" d="M184 -98v1478h889v-1478h-176v1315h-537v-1315h-176z" />
<glyph unicode="&#x2211;" horiz-adv-x="1118" d="M82 -23l516 668l-477 651v84h876v-127h-667l444 -604l-475 -620h737v-127h-954v75z" />
<glyph unicode="&#x2212;" horiz-adv-x="1171" d="M162 512v139h848v-139h-848z" />
<glyph unicode="&#x221a;" horiz-adv-x="1064" d="M41 721v133h272l199 -680l342 1206h150l-406 -1405h-164l-225 746h-168z" />
<glyph unicode="&#x221e;" horiz-adv-x="1568" d="M111 633q0 68 23.5 122t66.5 94t101 61.5t128 21.5q61 0 112.5 -16.5t95.5 -43t80 -62.5t64 -75h4q23 31 57 66t78 64.5t97 48t119 18.5q70 0 128 -21.5t101 -60.5t67.5 -93t24.5 -120t-22.5 -121t-63.5 -96t-99.5 -64.5t-131.5 -23.5q-115 0 -206 56t-149 140h-4 q-61 -78 -148 -137t-206 -59q-68 0 -126 21.5t-101 60.5t-66.5 95t-23.5 124zM254 635q0 -84 52 -134t134 -50q84 0 155 53t122 129q-55 82 -127 130t-154 48q-90 0 -136 -52t-46 -124zM852 633q53 -86 124 -134t154 -48q94 0 139.5 56t45.5 128t-45 124t-142 52 q-86 0 -150.5 -47t-125.5 -131z" />
<glyph unicode="&#x222b;" horiz-adv-x="884" d="M82 -74l43 135q49 -20 104 -20q78 0 102.5 51t24.5 162v780q0 86 13.5 153.5t47.5 116t90 73t144 24.5q47 0 85 -10.5t67 -26.5l-43 -135q-49 20 -105 20q-78 0 -102.5 -51t-24.5 -162v-780q0 -86 -13 -153.5t-47 -115.5t-90 -73t-145 -25q-47 0 -84.5 10.5t-66.5 26.5z " />
<glyph unicode="&#x2248;" horiz-adv-x="1171" d="M102 358q16 35 43 71t62 65.5t79 48t97 18.5q76 0 128 -25.5t96 -57.5t85 -57.5t94 -25.5q70 0 117 43t82 97l84 -89q-41 -84 -112.5 -144t-165.5 -60q-76 0 -129.5 26.5t-98.5 57t-86 57.5t-90 27q-78 0 -122 -43t-79 -99zM102 725q16 35 43 70.5t62 65.5t79 48.5 t97 18.5q76 0 128 -25.5t96 -57.5t85 -57.5t94 -25.5q70 0 117 43t82 96l84 -88q-41 -84 -112.5 -144.5t-165.5 -60.5q-76 0 -129.5 27t-98.5 57.5t-86 57t-90 26.5q-78 0 -122 -43t-79 -98z" />
<glyph unicode="&#x2260;" horiz-adv-x="1171" d="M172 328v139h299l92 229h-391v140h446l140 348h137l-139 -348h243v-140h-299l-92 -229h391v-139h-446l-129 -328h-137l129 328h-244z" />
<glyph unicode="&#x2264;" horiz-adv-x="1171" d="M135 0v119h873v-119h-873zM135 627v114l873 473v-163l-699 -367l699 -367v-163z" />
<glyph unicode="&#x2265;" horiz-adv-x="1171" d="M164 0v119h872v-119h-872zM164 154v163l698 367l-698 367v163l872 -473v-114z" />
<glyph unicode="&#x25ca;" horiz-adv-x="1204" d="M82 698l469 703h102l469 -701l-469 -700h-102zM248 700l354 -522l352 522l-352 521z" />
<glyph unicode="&#x25fc;" horiz-adv-x="993" d="M0 0v993h993v-993h-993z" />
<glyph unicode="&#xf700;" horiz-adv-x="1110" d="M29 1006q86 72 202.5 116.5t245.5 44.5q152 0 264 -59l103 119h200l-178 -213q141 -152 142 -404q0 -135 -37 -246.5t-104.5 -192.5t-161 -126t-205.5 -45h-144l-110 461q-6 27 -18.5 36t-34.5 9h-78v151h92q86 0 133 -32.5t70 -128.5l79 -344h27q61 0 117.5 30.5 t100.5 89t70.5 144.5t26.5 196q0 211 -91 307.5t-261 96.5q-117 0 -219 -42t-176 -106z" />
<glyph unicode="&#xf701;" d="M-1208 1303v143h776v-143h-776z" />
<glyph unicode="&#xf702;" d="M-1208 1303v143h610v188h166v-331h-776z" />
<glyph unicode="&#xf703;" d="M-1208 1303v143h465q-2 10 -3.5 19.5t-1.5 19.5q0 78 52.5 130t128.5 52q78 0 130 -52t52 -130q0 -76 -50 -127t-124 -55h-8h-6h-635zM-637 1487q0 -29 20.5 -51.5t49.5 -22.5q31 0 51 22.5t20 51.5q0 31 -20.5 51.5t-50.5 20.5q-29 0 -49.5 -20.5t-20.5 -51.5z" />
<glyph unicode="&#xf704;" d="M-1208 1303v143h377v188h145v-192h108v192h146v-331h-776z" />
<glyph unicode="&#xf705;" d="M-727 1303v339h172v-339h-172z" />
<glyph unicode="&#xf706;" d="M-944 1491v143h168q57 0 91 -24.5t34 -77.5v-51q0 -16 7 -25.5t30 -9.5h317v-143h-414q-35 0 -61.5 24.5t-26.5 65.5v57q0 23 -6 32t-31 9h-108z" />
<glyph unicode="&#xf707;" d="M-1186 1415q0 66 50.5 124t148.5 69l104 -107l101 109q193 -10 174 -209q47 27 56 68.5t9 89.5q0 41 -5 64.5t-15 45.5h170q6 -18 11 -40.5t5 -65.5q0 -49 -17.5 -96.5t-49 -83t-79.5 -58t-110 -22.5h-102l-17 34q20 23 21 58q0 68 -64 69l-86 -80l-84 74 q-29 0 -47 -19.5t-18 -43.5q0 -23 3 -43.5t17 -53.5h-157q-10 27 -14.5 60t-4.5 57z" />
<glyph unicode="&#xf708;" d="M-907 1452v127l168 -4l-6 154h163l-4 -154l170 4v-127l-170 4l4 -153h-163l6 153z" />
<glyph unicode="&#xf709;" d="M-856 1298v68q0 98 56.5 152.5t170.5 54.5h199v-150h-141q-45 0 -68 -18.5t-23 -63.5v-43h-194z" />
<glyph unicode="&#xf70a;" d="M-326 1303v339h172v-339h-172z" />
<glyph unicode="&#xf70b;" d="M-625 1491v143h168q57 0 91 -24.5t34 -77.5v-51q0 -16 7.5 -25.5t29.5 -9.5h277v-143h-373q-35 0 -61.5 24.5t-26.5 65.5v57q0 23 -6.5 32t-30.5 9h-109z" />
<glyph unicode="&#xf70c;" d="M-825 1415q0 66 50 124t148 69l115 -107l111 109q193 -10 174 -209q47 27 66.5 68.5t19.5 89.5q0 41 -5.5 64.5t-15.5 45.5h170q6 -18 11.5 -40.5t5.5 -65.5q0 -49 -20.5 -96.5t-56.5 -83t-87 -58t-113 -22.5h-102l-17 34q20 23 21 58q0 68 -64 69l-96 -80l-94 74 q-29 0 -47.5 -19.5t-18.5 -43.5q0 -23 3 -43.5t18 -53.5h-158q-10 27 -14 60t-4 57z" />
<glyph unicode="&#xf70d;" d="M-485 1452v127l168 -4l-7 154h164l-4 -154l170 4v-127l-170 4l4 -153h-164l7 153z" />
<glyph unicode="&#xf70e;" d="M-475 1298v68q0 98 56.5 152.5t170.5 54.5h199v-150h-141q-45 0 -68 -18.5t-23 -63.5v-43h-194z" />
<glyph unicode="&#xf70f;" horiz-adv-x="1888" d="M98 823q16 66 60.5 128.5t109 110.5t147.5 76.5t177 28.5q113 0 196.5 -32.5t139 -92t83 -140.5t27.5 -179v-330q0 -127 61.5 -194.5t196.5 -67.5q139 0 201 67.5t62 194.5v754h176v-754q0 -109 -32 -187.5t-89.5 -128.5t-137 -73.5t-178.5 -23.5q-98 0 -178 23.5 t-137 73.5t-89 129t-32 187v330q0 147 -70.5 220t-199.5 73q-104 0 -189.5 -50.5t-117.5 -131.5l155 -144q-55 -29 -81.5 -70.5t-26.5 -107.5v-311q0 -25 9 -39.5t38 -14.5h110v-147h-157q-84 0 -130 52t-46 132v303q0 59 28.5 112.5t81.5 80.5z" />
<glyph unicode="&#xf710;" d="M-874 1487v82h167v-62q0 -61 58 -61h463v-143h-482q-207 0 -206 184z" />
<glyph unicode="&#xf711;" d="M-866 1479q0 43 15 79.5t43 64.5t64.5 44t79.5 16t80 -16t64.5 -44t44 -64.5t16.5 -79.5t-16.5 -81t-44 -65.5t-64.5 -43t-80 -15.5t-79.5 15.5t-64.5 43t-43 65.5t-15 81zM-750 1481q0 -37 25.5 -63.5t60.5 -26.5q39 0 64 26.5t25 63.5q0 39 -25 63.5t-64 24.5 q-35 0 -60.5 -24.5t-25.5 -63.5z" />
<glyph unicode="&#xf712;" d="M-1100 1513q0 45 15.5 86t46 74t80 52.5t116.5 19.5h420v-139h-414q-55 0 -77.5 -29t-22.5 -66t22.5 -61.5t67.5 -24.5q35 0 60.5 27t31.5 55h99q8 -29 31.5 -45t68.5 -16h135v-143h-127q-53 0 -93 27.5t-60 70.5q-14 -43 -57.5 -75t-116.5 -32q-53 0 -95.5 18.5 t-71 49.5t-44 69.5t-15.5 81.5z" />
<glyph unicode="&#xf713;" d="M-595 1735v274h165v-274h-165z" />
<glyph unicode="&#xf714;" d="M-825 1903v143h166q53 0 84 -23.5t31 -72.5v-45q0 -29 28 -29h277v-141h-369q-35 0 -60.5 22.5t-25.5 59.5v53q0 16 -4 24.5t-22 8.5h-105z" />
<glyph unicode="&#xf715;" d="M-985 1837q0 61 46.5 115.5t138.5 62.5l104 -94l96 96q178 -6 162 -184q41 18 53.5 50t12.5 97q0 27 -5 48.5t-16 42.5h164q6 -16 10 -36t6 -44q0 -53 -18 -99.5t-52 -81t-80 -55t-103 -20.5h-82l-17 34q18 18 19 50q0 29 -17.5 43t-42.5 16l-90 -72l-90 66 q-23 0 -36 -15.5t-13 -37.5q0 -16 4 -37t18 -51h-155q-10 29 -13.5 56.5t-3.5 49.5z" />
<glyph unicode="&#xf716;" d="M-729 1855v123l146 -4l-6 127h153l-4 -127l146 4v-123l-146 5l4 -125h-153l6 125z" />
<glyph unicode="&#xf717;" d="M-708 1559v65q0 88 52 139.5t157 51.5h184v-144h-133q-37 0 -56.5 -15.5t-19.5 -53.5v-43h-184z" />
<glyph unicode="&#xf718;" d="M-449 -479h134q86 0 123.5 -41t37.5 -133v-199h-172v182q0 43 -43 43h-80v148z" />
<glyph unicode="&#xf719;" d="M-795 -479h277v-180q0 -47 28.5 -68t69.5 -21t69.5 20.5t28.5 68.5v180h168v-180q0 -104 -67.5 -159.5t-198.5 -55.5t-196.5 55t-65.5 160v36h-113v144z" />
<glyph unicode="&#xf71a;" d="M-387 -600q0 53 40 92t93 39q57 0 96 -39t39 -92t-39 -91t-96 -38q-53 0 -93 38t-40 91z" />
<glyph unicode="&#xf71b;" horiz-adv-x="1257" d="M61 0v147h89q29 0 38 14.5t9 39.5v272q0 59 28.5 112.5t81.5 80.5l-188 157q16 66 62 128.5t113.5 110.5t155 76.5t185.5 28.5q117 0 205 -32.5t146 -92t88 -140.5t30 -179v-1092h-219q-51 47 -117 80t-150 33q-102 0 -170.5 -29.5t-136.5 -83.5l-47 136q59 53 143.5 90 t188.5 37q98 0 188 -43.5t144 -98.5v971q0 147 -76 220t-217 73q-117 0 -207 -50.5t-123 -131.5l176 -158q-55 -29 -81.5 -71t-26.5 -107v-314q0 -80 -46 -133t-130 -51h-136z" />
<glyph unicode="&#xf71c;" horiz-adv-x="1257" d="M61 0v147h89q29 0 38 14.5t9 39.5v272q0 59 28.5 112.5t81.5 80.5l-188 157q16 66 62 128.5t113.5 110.5t155 76.5t185.5 28.5q117 0 205 -32.5t146 -92t88 -140.5t30 -179v-1092h-168l-244 146q-33 -72 -104.5 -115t-151.5 -43q-74 0 -142.5 17.5t-111.5 46.5l45 149 q43 -29 98.5 -51.5t100.5 -22.5q86 0 150.5 58.5t80.5 144.5l271 -162v924q0 147 -76 220t-217 73q-117 0 -207 -50.5t-123 -131.5l176 -158q-55 -29 -81.5 -71t-26.5 -107v-314q0 -80 -46 -133t-130 -51h-136z" />
<glyph unicode="&#xf71d;" horiz-adv-x="1351" d="M158 0v1147h172v-612q0 -94 -3 -174t-16 -162h4q20 72 40 129t48 114l199 383h139l205 -381q31 -57 52.5 -121.5t37.5 -123.5h4q-10 82 -14 161.5t-4 174.5v186q0 86 -36 123t-95 37h-39l-25 73l217 273h193l-231 -260q92 -12 140 -79t48 -165v-723h-188l-269 518 q-25 47 -42 96.5t-21 71.5h-4q-4 -23 -21.5 -72t-42.5 -96l-260 -518h-188z" />
<glyph horiz-adv-x="970" d="M-866 1479q0 43 15 79.5t43 64.5t64.5 44t79.5 16t80 -16t64.5 -44t44 -64.5t16.5 -79.5t-16.5 -81t-44 -65.5t-64.5 -43t-80 -15.5t-79.5 15.5t-64.5 43t-43 65.5t-15 81zM-750 1481q0 -37 25.5 -63.5t60.5 -26.5q39 0 64 26.5t25 63.5q0 39 -25 63.5t-64 24.5 q-35 0 -60.5 -24.5t-25.5 -63.5zM20 1028q31 27 75 52.5t96.5 45t108.5 30.5t114 11q201 0 302 -113.5t101 -322.5v-731h-176v739q0 276 -244 277q-98 0 -184 -36t-145 -85z" />
<glyph d="M-856 1475q0 76 51 126t164 39q-12 14 -18.5 33t-6.5 37q0 41 35 69.5t111 28.5h123l28 -114h-123q-16 0 -25 -10.5t-9 -26.5q0 -33 51 -58l-33 -86q-61 18 -121 19q-80 0 -80 -57q0 -59 88 -60q25 0 49.5 3t53.5 14v-103q-27 -16 -54.5 -23.5t-68.5 -7.5t-80 10.5 t-68.5 32t-48 54t-18.5 80.5z" />
</font>
</defs>
</svg>
