<?xml version="1.0" standalone="no"?>
<!DOCTYPE svg PUBLIC "-//W3C//DTD SVG 1.1//EN" "http://www.w3.org/Graphics/SVG/1.1/DTD/svg11.dtd" >
<svg xmlns="http://www.w3.org/2000/svg" xmlns:xlink="http://www.w3.org/1999/xlink" version="1.1">
<metadata></metadata>
<defs>
<font id="sukhumvit_settext" horiz-adv-x="0" >
<font-face units-per-em="2048" ascent="1638" descent="-410" />
<missing-glyph horiz-adv-x="528" />
<glyph unicode="&#xe2f;&#xe2f;" horiz-adv-x="1488" d="M78 1069v78h149v-80q0 -141 52.5 -211t166.5 -70q63 0 126 29t111 75t78 103.5t30 116.5v37h145v-363q51 18 95 55.5t77 82.5t52.5 94t19.5 94v37h147v-1147h-156v864q-31 -66 -92 -119t-143 -81v-664h-156v864q-20 -43 -57 -79.5t-85 -63.5t-104.5 -42t-117.5 -15 q-92 0 -156.5 29.5t-104.5 83.5t-58.5 128t-18.5 164z" />
<glyph unicode="&#xe4f;&#x22;" horiz-adv-x="1118" d="M123 492q0 90 33.5 169.5t93 139t139.5 93.5t170 34t170 -34t139.5 -93.5t93 -139t33.5 -169.5t-33.5 -170t-93 -139.5t-139.5 -94.5t-170 -35t-170 35t-139.5 94.5t-93 139t-33.5 170.5zM186 492q0 -78 30 -145.5t80 -119t117.5 -80t145.5 -28.5t145.5 28.5t118.5 80 t80 119t29 145.5q0 76 -29 144.5t-80 118.5t-118.5 79.5t-145.5 29.5t-145.5 -29.5t-117.5 -79.5t-80 -119t-30 -144zM309 489q0 53 19.5 98.5t53.5 79t79 53t96 19.5t97 -19.5t80 -53t53.5 -78.5t19.5 -96q0 -53 -19.5 -98.5t-53.5 -78t-79 -52t-96 -19.5q-53 0 -98 19.5 t-79 53t-53.5 77.5t-19.5 95zM371 1407h123l-19 -401h-86zM408 489q0 -59 44 -104t107 -45q61 0 104.5 43t43.5 109q0 59 -43 103t-107 44q-59 0 -104 -44t-45 -106zM629 1407h123l-19 -401h-86z" />
<glyph unicode="&#xe24;&#xe32;" horiz-adv-x="1943" d="M102 827q18 63 63.5 125t112 109t150.5 75.5t180 28.5q123 0 213 -36.5t150 -104.5q70 57 165 99t212 42q104 0 186 -32.5t138.5 -92t85 -140.5t28.5 -177v-1133h-156v1133q0 152 -75.5 230.5t-213.5 78.5q-98 0 -173.5 -33.5t-127.5 -87.5q18 -41 26.5 -89t8.5 -99 v-1133h-155v1133q0 152 -80 230.5t-232 78.5q-121 0 -213 -54t-129 -140l166 -152q-117 -53 -117 -184v-316q0 -57 54 -57h110v-129h-149q-80 0 -125 48t-45 126v305q0 66 29.5 121t84.5 82z" />
<glyph unicode="&#xe26;&#xe32;" horiz-adv-x="1951" d="M66 0v129h84q29 0 40 14.5t11 40.5v285q0 63 30.5 118.5t83.5 82.5l-196 153q18 63 63 126t111.5 110t151.5 76.5t182 29.5q121 0 209 -35.5t147 -101.5q72 55 165 96t210 41q104 0 186 -32.5t137.5 -92t84 -140.5t28.5 -177v-1133h-156v1133q0 152 -75.5 230.5 t-212.5 78.5q-94 0 -170 -33.5t-127 -85.5q37 -86 37 -190v-1133h-156v1133q0 152 -79 230.5t-228 78.5q-123 0 -215.5 -56t-126.5 -140l190 -162q-119 -51 -119 -185v-317q0 -80 -46 -126t-124 -46h-120z" />
<glyph unicode="fi" horiz-adv-x="1095" d="M37 866v123h158v29q0 84 21.5 154.5t66.5 120.5t113.5 78t162.5 28q78 0 142.5 -17.5t107.5 -40.5l-35 -110q-41 23 -95 34t-112 11q-127 0 -176 -71.5t-49 -188.5v-27h590v-989h-152v866h-438v-866h-147v866h-158z" />
<glyph unicode="fl" horiz-adv-x="1163" d="M37 864v125h156v29q0 80 28.5 149.5t83.5 120.5t137 81t191 30q96 0 189 -20.5t177 -55.5v-1323h-153v1245q-47 16 -96.5 23.5t-116.5 7.5q-147 0 -220 -73t-73 -187v-27h291v-125h-291v-864h-147v864h-156z" />
<glyph unicode=" "  horiz-adv-x="528" />
<glyph unicode="&#x09;" horiz-adv-x="528" />
<glyph unicode="&#xa0;" horiz-adv-x="528" />
<glyph unicode="!" horiz-adv-x="507" d="M139 94q0 47 30 80t85 33t85 -33t30 -80t-30 -79.5t-85 -32.5t-85 32.5t-30 79.5zM176 1067v313h158v-313l-23 -682h-112z" />
<glyph unicode="&#x22;" horiz-adv-x="673" d="M123 1409h139l-20 -483h-99zM412 1409h139l-21 -483h-96z" />
<glyph unicode="#" horiz-adv-x="1159" d="M57 414v110h215q14 70 29.5 140.5t30.5 140.5h-191v110h215l90 416h129l-90 -416h297l90 416h129l-90 -416h191v-110h-213l-62 -281h191v-110h-213q-23 -104 -45.5 -207t-44.5 -207h-131q23 104 45 206.5t45 207.5h-295q-23 -104 -45.5 -207t-44.5 -207h-131 q23 104 45 206.5t45 207.5h-191zM399 524h299l62 281h-299z" />
<glyph unicode="$" horiz-adv-x="1159" d="M147 57l39 125q59 -29 142.5 -48t193.5 -19v503q-61 20 -127.5 48t-121 71t-89 106.5t-34.5 155.5q0 68 21.5 127.5t67.5 105.5t116.5 75.5t166.5 38.5v190h105v-186q90 -4 165.5 -23.5t137.5 -50.5l-37 -123q-55 25 -125 41t-141 20v-481q68 -23 134 -51.5t119.5 -72.5 t87 -106.5t33.5 -152.5q0 -164 -103 -253t-271 -109v-193h-105v187q-135 0 -223 21.5t-152 53.5zM289 1001q0 -49 18.5 -84.5t49 -62.5t73.5 -46.5t92 -37.5v438q-121 -12 -177 -66.5t-56 -140.5zM627 123q104 16 168.5 71.5t64.5 159.5q0 51 -18.5 87t-50 62.5t-74.5 46 t-90 36.5v-463z" />
<glyph unicode="%" horiz-adv-x="1572" d="M90 991q0 72 18.5 136.5t55.5 113.5t90 79t123 30t123 -30t90 -79t55.5 -113.5t18.5 -136.5t-18.5 -136t-55.5 -113.5t-90.5 -79t-122.5 -29.5q-70 0 -123 29.5t-90 79t-55.5 113.5t-18.5 136zM215 991q0 -49 9 -96t28.5 -83t50.5 -57.5t74 -21.5t74.5 21.5t51 57.5 t29 82t9.5 95t-9.5 96.5t-29 84t-51 58t-74.5 21.5t-74 -22.5t-50.5 -58t-28.5 -82t-9 -95.5zM346 0l750 1352h129l-750 -1352h-129zM907 340q0 72 18.5 136.5t55.5 113.5t90 78.5t123 29.5t124 -29.5t91 -78.5t55.5 -113.5t18.5 -136.5t-18.5 -136.5t-55.5 -113.5 t-91 -78.5t-124 -29.5t-123 29.5t-90 78.5t-55.5 113.5t-18.5 136.5zM1032 340q0 -49 9.5 -96t29 -83t50 -57.5t73.5 -21.5t74.5 21.5t51 57.5t29 82t9.5 95t-9.5 96t-29 84t-51 58.5t-74.5 21.5t-73.5 -22.5t-50 -58.5t-29 -82t-9.5 -95z" />
<glyph unicode="&#x26;" horiz-adv-x="1290" d="M133 365q0 74 22.5 132t60.5 107t87 90t103 76l-23 31q-59 80 -101 148.5t-42 158.5q0 129 87 210t246 81q84 0 145.5 -23.5t101.5 -63.5t58.5 -93.5t18.5 -112.5q0 -61 -24.5 -111.5t-65.5 -93.5t-95.5 -81t-113.5 -77l369 -442q41 63 60.5 141t19.5 164v99h151v-99 q0 -125 -35 -229.5t-100 -188.5l156 -188h-168l-82 98q-158 -117 -379 -116q-119 0 -205 30.5t-142.5 82.5t-83 122t-26.5 148zM295 369q0 -115 79 -180.5t222 -65.5q84 0 154.5 20.5t123.5 65.5l-382 461q-84 -61 -140.5 -131t-56.5 -170zM387 1104q0 -63 27.5 -120.5 t83.5 -119.5l20 -24q47 29 89 58.5t74 62t50.5 68.5t18.5 79q0 74 -43 120t-136 46q-78 0 -131 -42t-53 -128z" />
<glyph unicode="'" horiz-adv-x="385" d="M123 1409h139l-20 -483h-99z" />
<glyph unicode="(" horiz-adv-x="608" d="M147 580q0 164 33 298t88.5 239.5t128 182t152.5 127.5l39 -69q-72 -49 -128.5 -129t-94 -181.5t-58 -220t-20.5 -247.5t20.5 -248t58 -220.5t94 -182.5t128.5 -130l-39 -67q-80 51 -152.5 128t-128 181t-88.5 238.5t-33 300.5z" />
<glyph unicode=")" horiz-adv-x="608" d="M20 -201q72 49 127.5 130t94.5 182.5t58 220.5t19 248t-19 247.5t-58 220t-94.5 181.5t-127.5 129l39 69q80 -51 153 -127.5t128 -182t88 -239.5t33 -298q0 -166 -33 -300.5t-88 -238.5t-128 -181t-153 -128z" />
<glyph unicode="*" horiz-adv-x="1015" d="M123 774l289 180v15l-289 180l94 100l236 -213l16 4l-35 340h148l-33 -340l14 -4l236 213l94 -100l-291 -180v-13l291 -182l-94 -98l-240 217l-10 -8l33 -336h-148l35 338l-14 4l-238 -215z" />
<glyph unicode="+" horiz-adv-x="1159" d="M145 518v125h367v373h137v-373h365v-125h-365v-371h-137v371h-367z" />
<glyph unicode="," horiz-adv-x="483" d="M117 -256l59 455h180l-145 -455h-94z" />
<glyph unicode="-" horiz-adv-x="647" d="M61 496v122h525v-122h-525z" />
<glyph unicode="." horiz-adv-x="483" d="M127 94q0 47 28.5 80t86.5 33q55 0 84.5 -33t29.5 -80t-29.5 -79.5t-84.5 -32.5q-57 0 -86 32.5t-29 79.5z" />
<glyph unicode="/" horiz-adv-x="749" d="M20 -82l584 1462h125l-584 -1462h-125z" />
<glyph unicode="0" horiz-adv-x="1159" d="M100 666q0 324 126 504t354 180q113 0 201.5 -46.5t150 -134.5t94.5 -215t33 -288q0 -162 -33 -289t-94.5 -215t-150.5 -134t-201 -46q-227 0 -353.5 180t-126.5 504zM256 666q0 -281 83 -419t241 -138q156 0 239.5 138t83.5 419t-84 419t-239 138q-158 0 -241 -138 t-83 -419z" />
<glyph unicode="1" horiz-adv-x="1159" d="M199 0v139h327v1047l-286 -92v125l315 112h127v-1192h319v-139h-802z" />
<glyph unicode="2" horiz-adv-x="1159" d="M127 0v119l348 352q78 80 140.5 146.5t106.5 128t67.5 122t23.5 127.5q0 106 -72.5 161.5t-193.5 55.5q-88 0 -172 -22.5t-150 -54.5l-39 129q63 33 157.5 59.5t203.5 26.5q217 0 319.5 -95.5t102.5 -261.5q0 -84 -31 -162.5t-84 -155.5t-125 -151.5t-154 -152.5 l-237 -228h674v-143h-885z" />
<glyph unicode="3" horiz-adv-x="1159" d="M131 63l39 125q61 -29 148.5 -50t191.5 -21q164 0 241.5 69.5t77.5 186.5q0 123 -78.5 184t-218.5 61h-190v132h190q117 0 189 64.5t72 182.5q0 100 -73 158.5t-233 58.5q-96 0 -173.5 -19t-139.5 -50l-39 125q66 35 159 57.5t200 22.5q117 0 201.5 -27t140 -75 t82 -112.5t26.5 -138.5q0 -63 -17.5 -113t-46 -87t-67.5 -63.5t-84 -43.5q115 -25 184.5 -108.5t69.5 -210.5q0 -180 -123 -284.5t-348 -104.5q-123 0 -219 23.5t-162 57.5z" />
<glyph unicode="4" horiz-adv-x="1159" d="M92 258v107l686 964h127v-938h158v-133h-158v-258h-151v258h-662zM268 391h490v686z" />
<glyph unicode="5" horiz-adv-x="1159" d="M123 66l41 124q59 -29 147 -51t201 -22q166 0 254 82t88 211q0 133 -80 208.5t-264 75.5h-326v111l52 526h692v-143h-561l-33 -354h178q244 0 371 -113t127 -311q0 -100 -35 -179t-99.5 -134.5t-156.5 -85t-205 -29.5q-131 0 -228.5 24.5t-162.5 59.5z" />
<glyph unicode="6" horiz-adv-x="1159" d="M125 651q0 168 37 299t105.5 219t165.5 134.5t216 46.5q94 0 165 -19.5t130 -54.5l-37 -117q-113 64 -254 64q-174 0 -271 -132.5t-103 -379.5q25 27 60.5 56.5t82.5 53t104.5 38.5t126.5 15q88 0 162 -29.5t126 -84.5t81 -135t29 -183q0 -96 -31 -180t-87 -146.5 t-138 -98t-183 -35.5q-231 0 -359 167.5t-128 501.5zM281 586q0 -111 25.5 -199t70.5 -149.5t105.5 -95t129.5 -33.5q129 0 206 89t77 248q0 61 -13.5 115.5t-43 95.5t-79.5 64.5t-124 23.5q-115 0 -206 -48t-148 -111z" />
<glyph unicode="7" horiz-adv-x="1159" d="M147 1198v133h875v-104l-573 -1227h-162l559 1198h-699z" />
<glyph unicode="8" horiz-adv-x="1159" d="M119 354q0 66 20.5 123.5t56 100.5t83 71.5t100.5 38.5q-90 27 -154.5 105.5t-64.5 205.5q0 162 109.5 256.5t308.5 94.5t309 -94.5t110 -256.5q0 -63 -17 -114t-48 -90t-71 -66t-85 -41q53 -10 100.5 -38.5t83 -71.5t56 -100.5t20.5 -123.5q0 -174 -120.5 -273 t-337.5 -99t-338 99t-121 273zM270 358q0 -119 80.5 -186.5t227.5 -67.5t227 68t80 186q0 125 -74 192.5t-233 67.5q-160 0 -234 -67.5t-74 -192.5zM309 991q0 -121 72 -184.5t197 -63.5q127 0 197.5 63.5t70.5 184.5q0 117 -70.5 175.5t-197.5 58.5q-125 0 -197 -58.5 t-72 -175.5z" />
<glyph unicode="9" horiz-adv-x="1159" d="M106 889q0 96 31 180t87.5 146.5t138 98.5t184.5 36q106 0 196.5 -42t155 -127t100 -210t35.5 -291q0 -344 -135 -521t-403 -177q-96 0 -173 19t-137 50l37 117q57 -29 127 -44t142 -15q199 0 289.5 133t97.5 379q-25 -27 -61 -55.5t-83 -53.5t-104.5 -40t-126.5 -15 q-88 0 -162 29.5t-126 85t-81 135t-29 182.5zM262 885q0 -61 13.5 -115.5t43 -95.5t79.5 -64.5t124 -23.5q115 0 206 48t149 111q0 111 -26 199t-71 149.5t-104.5 95.5t-128.5 34q-129 0 -207 -89.5t-78 -248.5z" />
<glyph unicode=":" horiz-adv-x="524" d="M147 92q0 47 29 80t86 33q55 0 85 -33t30 -80t-30 -79.5t-85 -32.5q-57 0 -86 32.5t-29 79.5zM147 864q0 47 29 80t86 33q55 0 85 -33t30 -80t-30 -79.5t-85 -32.5q-57 0 -86 32.5t-29 79.5z" />
<glyph unicode=";" horiz-adv-x="524" d="M125 -256l59 455h181l-146 -455h-94zM147 864q0 47 29 80t86 33q55 0 85 -33t30 -80t-30 -79.5t-85 -32.5q-57 0 -86 32.5t-29 79.5z" />
<glyph unicode="&#x3c;" horiz-adv-x="1157" d="M131 535v102l862 473v-145l-706 -379l706 -377v-148z" />
<glyph unicode="=" horiz-adv-x="1157" d="M160 334v125h823v-125h-823zM160 711v125h823v-125h-823z" />
<glyph unicode="&#x3e;" horiz-adv-x="1157" d="M164 61v148l706 377l-706 379v145l862 -473v-102z" />
<glyph unicode="?" horiz-adv-x="999" d="M100 1311q66 33 160 60.5t203 27.5q211 0 312.5 -91t101.5 -247q0 -78 -27 -139.5t-67 -112.5t-87 -95t-87 -88t-66.5 -89t-26.5 -101q0 -66 19 -108h-129q-27 47 -27 114q0 66 25.5 119t63.5 98.5t82 87t82 88t63.5 97.5t25.5 117q0 43 -14.5 80.5t-46 67.5t-80.5 47.5 t-117 17.5q-88 0 -173 -24t-151 -56zM354 92q0 47 30 80t85 33t85 -33t30 -80t-30 -79.5t-85 -32.5t-85 32.5t-30 79.5z" />
<glyph unicode="@" horiz-adv-x="1671" d="M123 670q0 145 49 277t143.5 233.5t230.5 161t312 59.5q160 0 288 -50.5t217 -139.5t137 -211.5t48 -268.5q0 -123 -22.5 -210t-60.5 -144.5t-88 -84t-103 -26.5q-84 0 -131 59.5t-51 137.5q-16 -35 -46 -70t-70 -62.5t-89 -44t-101 -16.5q-152 0 -237.5 108.5 t-85.5 295.5q0 84 20.5 159.5t68.5 134t125 93.5t189 35q88 0 167 -19.5t145 -54.5v-496q0 -66 23.5 -117t82.5 -51q27 0 57.5 18.5t56 62.5t42 118t16.5 186q0 106 -35 209t-107.5 184t-185 131t-268.5 50t-276.5 -51.5t-203.5 -139.5t-127 -205.5t-44 -250.5 q0 -154 48 -267.5t131 -188.5t193.5 -113t237.5 -38q84 0 167 20.5t151 61.5q0 -2 6 -13t12 -24.5t12.5 -24.5t6.5 -13q-63 -41 -154.5 -65.5t-204.5 -24.5q-147 0 -273 43t-219.5 129t-146.5 215t-53 303zM588 678q0 -78 17.5 -133.5t47 -91t69.5 -53t83 -17.5 q51 0 96 22.5t77 62.5t50.5 96.5t18.5 121.5v262q-33 16 -81 25.5t-102 9.5q-147 0 -211.5 -81t-64.5 -224z" />
<glyph unicode="A" horiz-adv-x="1273" d="M45 0l514 1380h156l514 -1380h-160l-139 379h-588l-137 -379h-160zM395 518h484l-152 410q-23 70 -44 138.5t-44 137.5h-4q-23 -70 -44.5 -138.5t-43.5 -137.5z" />
<glyph unicode="B" horiz-adv-x="1257" d="M168 0v1380h506q213 0 323.5 -100t110.5 -262q0 -59 -20.5 -108.5t-51 -87.5t-69.5 -62.5t-76 -36.5q51 -6 100 -30.5t88 -65.5t62.5 -98.5t23.5 -131.5q0 -86 -29.5 -159.5t-90 -126t-152.5 -82t-217 -29.5h-508zM319 139h355q166 0 253 67.5t87 190.5 q0 137 -93.5 192.5t-248.5 55.5h-353v-506zM319 782h357q117 0 197.5 60.5t80.5 181.5q0 109 -75.5 163t-204.5 54h-355v-459z" />
<glyph unicode="C" horiz-adv-x="1167" d="M94 690q0 156 43 287t126 224t204 145.5t278 52.5q106 0 184.5 -17.5t145.5 -48.5l-39 -131q-124 58 -288 58q-236 0 -368 -147.5t-132 -422.5q0 -270 131 -418.5t366 -148.5q168 0 304 65l38 -131q-74 -37 -156.5 -56t-187.5 -19q-168 0 -289.5 51t-201.5 143t-119 223 t-39 291z" />
<glyph unicode="D" horiz-adv-x="1329" d="M168 0v1380h385q338 0 510 -174t172 -514t-172 -516t-510 -176h-385zM324 143h229q127 0 225.5 31t165 97.5t101 171t34.5 249.5t-34.5 248.5t-101 169.5t-165 96.5t-225.5 30.5h-229v-1094z" />
<glyph unicode="E" horiz-adv-x="1116" d="M168 0v1380h833v-141h-677v-455h637v-143h-637v-500h690v-141h-846z" />
<glyph unicode="F" horiz-adv-x="1071" d="M168 0v1380h817v-143h-661v-473h620v-143h-620v-621h-156z" />
<glyph unicode="G" horiz-adv-x="1316" d="M94 684q0 170 46 303t132 224.5t211 139.5t283 48q111 0 193.5 -20.5t152.5 -51.5l-39 -131q-59 29 -138 45t-165 16q-119 0 -215 -34.5t-163.5 -105t-104.5 -179.5t-37 -254q0 -127 30.5 -230.5t87 -177t134.5 -114.5t172 -41q74 0 137 22.5t110.5 66.5t74 110.5 t26.5 154.5v150h-285v137h432v-762h-120l-27 178q-45 -84 -133 -140t-225 -56q-133 0 -239 50t-179.5 142t-112.5 221t-39 289z" />
<glyph unicode="H" horiz-adv-x="1345" d="M168 0v1380h156v-596h698v596h156v-1380h-156v639h-698v-639h-156z" />
<glyph unicode="I" horiz-adv-x="499" d="M172 0v1380h156v-1380h-156z" />
<glyph unicode="J" horiz-adv-x="778" d="M23 39l40 131q35 -20 85.5 -32.5t115.5 -12.5q90 0 142.5 60.5t52.5 207.5v987h155v-987q0 -211 -87 -310t-261 -99q-78 0 -138 14t-105 41z" />
<glyph unicode="K" horiz-adv-x="1224" d="M168 0v1380h156v-1380h-156zM430 692v76l563 612h185l-594 -645l616 -735h-190z" />
<glyph unicode="L" horiz-adv-x="1044" d="M168 0v1380h156v-1237h659v-143h-815z" />
<glyph unicode="M" horiz-adv-x="1607" d="M168 0v1380h182l334 -739q14 -33 32.5 -73t35 -78.5t30 -73.5t19.5 -58h6q6 23 19.5 58t29.5 73.5t33.5 78.5t34.5 73l333 739h183v-1380h-154v842q0 51 2 137t15 180h-5q-27 -82 -53 -144.5t-55 -123.5l-303 -666h-166l-303 666q-29 61 -55.5 123.5t-53.5 144.5h-4 q12 -94 14.5 -180t2.5 -137v-842h-154z" />
<glyph unicode="N" horiz-adv-x="1357" d="M168 0v1380h166l581 -934q41 -66 75 -128t57 -107h4q-10 70 -13.5 138.5t-3.5 152.5v878h156v-1380h-166l-582 934q-41 63 -74.5 126.5t-56.5 108.5h-4q10 -70 13.5 -138t3.5 -152v-879h-156z" />
<glyph unicode="O" horiz-adv-x="1409" d="M94 690q0 152 36 282t111.5 225t190.5 148.5t273 53.5t272.5 -53.5t190 -148.5t111.5 -225t36 -282t-36 -281.5t-111.5 -225t-190 -148.5t-272.5 -53t-273 53t-190.5 148.5t-111.5 225.5t-36 281zM248 690q0 -135 27.5 -241.5t85 -182.5t143.5 -115.5t201 -39.5 t199.5 39.5t142 115.5t85 182.5t27.5 241.5t-27.5 241.5t-85 182.5t-142.5 116t-199 40q-115 0 -201 -40t-143.5 -116t-85 -182.5t-27.5 -241.5z" />
<glyph unicode="P" horiz-adv-x="1146" d="M168 0v1380h444q106 0 191.5 -32.5t143 -90t88 -135.5t30.5 -168q0 -94 -33 -173t-93 -137t-146 -91t-193 -33h-276v-520h-156zM324 664h276q145 0 227 77.5t82 212.5q0 131 -75.5 207t-221.5 76h-288v-573z" />
<glyph unicode="Q" horiz-adv-x="1406" d="M92 690q0 152 36 282t111.5 225t190.5 148.5t272 53.5q158 0 273 -53.5t190.5 -148.5t111.5 -225t36 -282q0 -139 -30 -260t-92.5 -213t-156.5 -151.5t-223 -75.5q-16 -53 -51 -100.5t-84 -69.5h416v-135h-693v135h33q94 0 152.5 48t79.5 116q-147 6 -255 61 t-178.5 149.5t-104.5 221.5t-34 274zM248 690q0 -270 111.5 -424.5t342.5 -154.5q229 0 342 154.5t113 424.5q0 135 -27.5 241.5t-84 181.5t-142.5 115t-201 40q-231 0 -342.5 -155t-111.5 -423z" />
<glyph unicode="R" horiz-adv-x="1202" d="M168 0v1380h489q106 0 191.5 -31.5t143 -87t88 -130t30.5 -160.5q0 -150 -87 -258.5t-237 -145.5l334 -567h-170l-323 551h-2h-303v-551h-154zM322 694h323q145 0 227 74t82 203q0 123 -75.5 193.5t-221.5 70.5h-335v-541z" />
<glyph unicode="S" horiz-adv-x="1081" d="M113 61l41 127q59 -29 143 -49t192 -20q74 0 136.5 14t107.5 44t70.5 77t25.5 113t-26.5 108.5t-72.5 73.5t-105.5 52.5t-124.5 41.5q-66 20 -133.5 49t-125 73t-93 109.5t-35.5 161.5q0 78 25.5 144.5t80.5 114.5t141 76t207 28q102 0 186.5 -19.5t151.5 -54.5l-41 -127 q-59 29 -137 46.5t-160 17.5q-162 0 -233.5 -62.5t-71.5 -161.5q0 -59 24.5 -100t66.5 -70.5t98.5 -52t119.5 -43.5q74 -25 147 -54.5t131 -75.5t94 -112.5t36 -164.5t-35 -170t-97.5 -119t-149.5 -70.5t-189 -23.5q-147 0 -238.5 22.5t-156.5 56.5z" />
<glyph unicode="T" horiz-adv-x="1048" d="M25 1235v145h999v-145l-422 2v-1237h-156v1237z" />
<glyph unicode="U" horiz-adv-x="1359" d="M164 551v829h155v-831q0 -217 93.5 -320.5t267.5 -103.5t267 103.5t93 320.5v831h156v-829q0 -147 -36 -254t-103.5 -177.5t-162.5 -104t-214 -33.5t-214 33.5t-162.5 104t-103.5 177t-36 254.5z" />
<glyph unicode="V" horiz-adv-x="1253" d="M39 1380h160l317 -872q29 -86 54.5 -171t52.5 -171h4q29 86 54.5 170t51.5 170l320 874h159l-507 -1380h-158z" />
<glyph unicode="W" horiz-adv-x="1800" d="M63 1380h156l182 -780q27 -113 44.5 -221.5t27.5 -206.5h4q16 100 40 201.5t58 216.5l242 790h162l242 -790q35 -113 59.5 -215.5t40.5 -202.5h4q8 98 26.5 206.5t45.5 221.5l180 780h158l-326 -1380h-156l-274 897q-23 72 -45.5 161t-34.5 154h-4q-12 -68 -33.5 -155.5 t-44.5 -159.5l-274 -897h-154z" />
<glyph unicode="X" horiz-adv-x="1253" d="M59 0l478 717l-441 663h174l357 -553l354 553h174l-440 -663l479 -717h-174l-393 606h-2l-394 -606h-172z" />
<glyph unicode="Y" horiz-adv-x="1153" d="M33 1380h164l376 -663h5l374 663h166l-465 -796v-584h-155v584z" />
<glyph unicode="Z" horiz-adv-x="1120" d="M90 0v109l731 1130h-680v141h873v-110l-729 -1129h741v-141h-936z" />
<glyph unicode="[" horiz-adv-x="569" d="M168 -242v1643h356v-117h-221v-1409h221v-117h-356z" />
<glyph unicode="\" horiz-adv-x="749" d="M20 1380h125l584 -1462h-125z" />
<glyph unicode="]" horiz-adv-x="569" d="M45 -125h221v1409h-221v117h356v-1643h-356v117z" />
<glyph unicode="^" horiz-adv-x="1064" d="M86 565l379 815h135l379 -815h-158l-289 660l-290 -660h-156z" />
<glyph unicode="_" horiz-adv-x="874" d="M0 -141h874v-121h-874v121z" />
<glyph unicode="`" horiz-adv-x="604" d="M-18 1319l84 115l296 -254l-47 -66z" />
<glyph unicode="a" horiz-adv-x="1030" d="M86 276q0 166 114.5 249t319.5 83h213v43q0 125 -63.5 179.5t-171.5 54.5q-92 0 -169 -21.5t-141 -52.5l-34 109q55 33 146 60.5t202 27.5q193 0 285 -96.5t92 -262.5v-649h-115l-31 174q-23 -39 -52.5 -73.5t-69.5 -61.5t-93 -42t-127 -15q-63 0 -118.5 19t-97.5 56 t-65.5 92.5t-23.5 126.5zM233 276q0 -86 52.5 -131t130.5 -45q72 0 130 27t100 71t64.5 98t22.5 110v88h-215q-141 0 -213 -56.5t-72 -161.5z" />
<glyph unicode="b" horiz-adv-x="1140" d="M160 0v1380h151v-551q20 29 54 61t78 57.5t98.5 43t117.5 17.5q96 0 169 -40t121 -108.5t73 -160t25 -191.5q0 -131 -30 -229.5t-84 -165t-130 -99t-166 -32.5q-113 0 -199 56t-127 136l-30 -174h-121zM311 471q0 -76 23.5 -140.5t64.5 -112.5t96.5 -74.5t118.5 -26.5 q55 0 106.5 20.5t90.5 66.5t62.5 120.5t23.5 183.5q0 184 -73.5 273t-190.5 89q-100 0 -182 -50t-140 -128v-221z" />
<glyph unicode="c" horiz-adv-x="935" d="M90 496q0 109 28.5 203t88 162.5t149.5 107.5t211 39q84 0 154 -17.5t129 -46.5l-35 -115q-53 25 -114.5 40.5t-133.5 15.5q-84 0 -146.5 -29t-102 -81t-59 -123.5t-19.5 -155.5t19.5 -156t60 -124t104 -82t151.5 -30q63 0 128 15.5t122 44.5l35 -113q-63 -33 -134 -51 t-163 -18q-121 0 -209 38.5t-147.5 108.5t-88 164t-28.5 203z" />
<glyph unicode="d" horiz-adv-x="1138" d="M94 494q0 111 29 204t84 162.5t134 108.5t177 39q57 0 106.5 -15.5t88.5 -41t67.5 -56.5t46.5 -61v546h152v-1380h-121l-31 174q-41 -80 -126 -136t-195 -56q-90 0 -166 32.5t-130 97t-85 160t-31 222.5zM242 496q0 -104 23.5 -176t63.5 -117t91 -65.5t106 -20.5 q63 0 117.5 26.5t95.5 74.5t64.5 112.5t23.5 140.5v225q-53 82 -126.5 128t-157.5 46q-129 0 -215 -92t-86 -282z" />
<glyph unicode="e" horiz-adv-x="1026" d="M94 496q0 109 26.5 203t81 162.5t139.5 107.5t202 39q193 0 291 -110t98 -300q0 -49 -6 -92t-17 -80h-669q12 -154 97 -238t245 -84q68 0 137 14.5t125 43.5l37 -113q-63 -33 -140 -50t-172 -17q-121 0 -210 36.5t-147 103t-88 162t-30 212.5zM240 539h548q2 4 2.5 28.5 t0.5 30.5q0 141 -57.5 217t-190.5 76q-78 0 -133.5 -26.5t-92 -74t-55 -112t-22.5 -139.5z" />
<glyph unicode="f" horiz-adv-x="684" d="M37 866v123h158v55q0 162 69.5 258.5t239.5 96.5q61 0 108 -14.5t88 -36.5l-34 -111q-72 39 -152 39q-53 0 -87 -15.5t-52.5 -46t-25.5 -73.5t-7 -99v-53h291v-123h-291v-866h-147v866h-158z" />
<glyph unicode="g" horiz-adv-x="1134" d="M94 502q0 106 29 198.5t84 161t134 107.5t177 39q57 0 106.5 -17.5t87.5 -43t67.5 -57.5t47.5 -61l27 160h125v-915q0 -129 -33 -220.5t-92 -149.5t-142 -86t-184 -28q-106 0 -202.5 28t-153.5 63l37 122q59 -35 137 -56t166 -21q70 0 128 15t99 55t64.5 107.5 t23.5 172.5v112q-41 -80 -126 -136t-195 -56q-90 0 -166 32.5t-130 96t-85 159t-31 218.5zM242 502q0 -100 23.5 -171t63.5 -115t91 -64.5t106 -20.5q68 0 123.5 26.5t95 75t61 113t21.5 139.5v203q-47 78 -123.5 130t-160.5 52q-129 0 -215 -91t-86 -277z" />
<glyph unicode="h" horiz-adv-x="1150" d="M160 0v1380h151v-544q20 29 55 59.5t80.5 55t100.5 41t117 16.5q158 0 246.5 -102.5t88.5 -284.5v-621h-147v621q0 117 -57.5 184t-155.5 67q-104 0 -189 -50t-139 -124v-698h-151z" />
<glyph unicode="i" horiz-adv-x="479" d="M135 1296q0 43 26.5 74t78.5 31q53 0 78.5 -31t25.5 -74t-25.5 -72.5t-78.5 -29.5q-51 0 -78 29.5t-27 72.5zM164 0v989h151v-989h-151z" />
<glyph unicode="j" horiz-adv-x="481" d="M-106 -379l38 119q51 -23 105 -23q78 0 102.5 46.5t24.5 154.5v1071h151v-1073q0 -80 -12 -142.5t-43 -103.5t-84 -62.5t-135 -21.5q-45 0 -82 10.5t-65 24.5zM135 1296q0 43 26.5 74t78.5 31q53 0 79.5 -31t26.5 -74t-26.5 -72.5t-79.5 -29.5q-51 0 -78 29.5t-27 72.5z " />
<glyph unicode="k" horiz-adv-x="1026" d="M160 0v1380h151v-1380h-151zM395 524v58l393 407h183l-422 -434l444 -555h-178l-209 262q-39 49 -76.5 96.5t-67.5 84t-48 59.5z" />
<glyph unicode="l" horiz-adv-x="479" d="M164 0v1380h151v-1380h-151z" />
<glyph unicode="m" horiz-adv-x="1632" d="M156 0v989h125l26 -160q18 31 48 62t69 57.5t88 43t109 16.5q102 0 164.5 -53.5t86.5 -145.5q49 80 135.5 139.5t192.5 59.5q145 0 213 -98.5t68 -258.5v-651h-150v651q0 100 -35.5 161.5t-126.5 61.5q-45 0 -85 -16t-74.5 -43t-64.5 -62.5t-50 -74.5v-678h-150v651 q0 100 -36.5 161.5t-122.5 61.5q-92 0 -165 -54t-114 -128v-692h-151z" />
<glyph unicode="n" horiz-adv-x="1146" d="M156 0v989h123l28 -160q23 29 56.5 61t78.5 57.5t99.5 43t117.5 17.5q158 0 247 -102.5t89 -284.5v-621h-149v621q0 117 -56.5 184t-154.5 67q-104 0 -189.5 -52t-138.5 -128v-692h-151z" />
<glyph unicode="o" horiz-adv-x="1101" d="M90 496q0 109 27.5 202t84 162.5t143.5 108.5t206 39t205 -39t143 -108.5t85 -163t28 -201.5q0 -109 -28 -203t-85 -164t-143 -108.5t-205 -38.5t-206 38.5t-143.5 108.5t-84 164t-27.5 203zM240 496q0 -84 18 -157t56 -125t96.5 -82t140.5 -30t140.5 30t96 82t56 125 t18.5 157t-18.5 154.5t-56 122.5t-96 82t-140.5 30t-140.5 -30t-96.5 -82t-56 -122.5t-18 -154.5z" />
<glyph unicode="p" horiz-adv-x="1136" d="M156 -391v1380h125l26 -160q20 29 54 61t78 57.5t99.5 43t116.5 17.5q96 0 169 -40t121 -108.5t72.5 -160t24.5 -191.5q0 -131 -29.5 -229.5t-84 -165t-130 -99t-165.5 -32.5q-113 0 -199 56t-127 136v-565h-151zM307 471q0 -76 23.5 -140.5t64.5 -112.5t96.5 -74.5 t118.5 -26.5q55 0 106.5 20.5t90.5 66.5t62.5 120.5t23.5 183.5q0 184 -74 273t-190 89q-94 0 -179 -50t-143 -128v-221z" />
<glyph unicode="q" horiz-adv-x="1144" d="M96 494q0 111 29 204t84 162.5t134 108.5t177 39q57 0 106.5 -16.5t88.5 -43t67.5 -57.5t46.5 -62l27 160h125v-1380h-152v565q-41 -80 -126 -136t-195 -56q-90 0 -166 32.5t-130 97t-85 160t-31 222.5zM244 496q0 -104 23.5 -176t63.5 -117t91 -65.5t106 -20.5 q63 0 117.5 26.5t95.5 74.5t64.5 112.5t23.5 140.5v217q-51 84 -122.5 133t-161.5 49q-129 0 -215 -92t-86 -282z" />
<glyph unicode="r" horiz-adv-x="755" d="M156 0v989h120l31 -176q20 35 48 70t63 62.5t77 45t95 17.5q61 0 94 -14.5t39 -18.5l-43 -150q-43 37 -115 37q-84 0 -150.5 -47t-107.5 -133v-682h-151z" />
<glyph unicode="s" horiz-adv-x="886" d="M98 45l35 113q53 -25 125 -41.5t148 -16.5q125 0 178 46.5t53 111.5q0 82 -69.5 124t-170.5 71q-66 18 -120 42.5t-94 59.5t-61.5 82t-21.5 113q0 125 95.5 191.5t255.5 66.5q86 0 163.5 -16.5t137.5 -45.5l-35 -117q-55 27 -118.5 42.5t-135.5 15.5q-111 0 -164 -37 t-53 -98q0 -72 55 -109t148 -65q166 -51 250.5 -122t84.5 -200q0 -125 -90 -199.5t-282 -74.5q-94 0 -176 16t-138 47z" />
<glyph unicode="t" horiz-adv-x="714" d="M37 866v123h158l38 283h109v-283h305v-123h-305v-596q0 -82 24.5 -124t102.5 -42q47 0 87 12.5t71 28.5l35 -108q-41 -27 -90.5 -41t-125.5 -14q-129 0 -190 67.5t-61 218.5v598h-158z" />
<glyph unicode="u" horiz-adv-x="1132" d="M152 369v620h147v-620q0 -121 53.5 -187.5t145.5 -66.5q55 0 104 16t90 44t75 64.5t58 75.5v674h152v-989h-121l-31 174q-18 -31 -50 -65.5t-76 -62.5t-100 -46t-126 -18q-141 0 -231 92t-90 295z" />
<glyph unicode="v" horiz-adv-x="946" d="M37 989h156l180 -504q25 -84 50.5 -164.5t47.5 -164.5h4q23 84 48.5 164.5t49.5 164.5l181 504h155l-360 -989h-152z" />
<glyph unicode="w" horiz-adv-x="1386" d="M53 989h148l135 -590q14 -59 22.5 -122.5t12.5 -135.5h4q10 70 24.5 133.5t30.5 118.5l186 596h154l186 -596q16 -55 30.5 -118.5t25.5 -133.5h4q4 72 12 135.5t23 122.5l135 590h147l-239 -989h-146l-203 645q-16 53 -27 104.5t-22 108.5h-6q-10 -57 -21.5 -108.5 t-27.5 -104.5l-203 -645h-145z" />
<glyph unicode="x" horiz-adv-x="987" d="M49 0l363 516l-332 473h160q94 -139 145 -216t74.5 -111.5t28.5 -41.5l4 -6l253 375h162l-334 -473l365 -516h-160l-286 414l-283 -414h-160z" />
<glyph unicode="y" horiz-adv-x="1126" d="M152 387v602h147v-602q0 -121 52 -187.5t147 -66.5q55 0 103 17.5t88 45t73 63.5t57 75v655h152v-915q0 -246 -116 -366t-327 -120q-98 0 -190 28t-148 65l39 120q57 -35 131 -56t160 -21q72 0 127 17t94 58t58.5 108.5t19.5 168.5v119q-18 -33 -49 -67t-74 -62.5 t-97 -47t-120 -18.5q-152 0 -239.5 92t-87.5 295z" />
<glyph unicode="z" horiz-adv-x="919" d="M86 0v88l541 778h-500v123h684v-88l-541 -778h559v-123h-743z" />
<glyph unicode="{" horiz-adv-x="634" d="M106 526v105q96 0 129 43t33 121q0 37 -5 80t-10 87t-10 87t-5 81q0 137 75.5 204t216.5 67h43v-96h-41q-90 0 -124.5 -50.5t-34.5 -144.5q0 -76 15 -154.5t15 -156.5q0 -86 -33.5 -141.5t-117.5 -77.5q84 -25 117.5 -80.5t33.5 -141.5q0 -78 -15 -156.5t-15 -154.5 q0 -92 34.5 -142t124.5 -50h41v-97h-43q-141 0 -216.5 66.5t-75.5 202.5q0 39 5 82t10 87t10 87t5 79q0 78 -32.5 121t-129.5 43z" />
<glyph unicode="|" horiz-adv-x="505" d="M184 -410v1995h138v-1995h-138z" />
<glyph unicode="}" horiz-adv-x="634" d="M61 -145h39q90 0 126 50t36 142q0 76 -15.5 155t-15.5 156q0 86 34 141.5t116 80.5q-82 23 -116 78t-34 141q0 78 15.5 156.5t15.5 154.5q0 94 -36 144.5t-126 50.5h-39v96h41q141 0 217 -66.5t76 -204.5q0 -39 -5 -81.5t-10 -86.5t-10 -87.5t-5 -79.5q0 -78 33.5 -121 t129.5 -43v-105q-96 0 -129.5 -43t-33.5 -121q0 -37 5 -79.5t10 -86.5t10 -87t5 -82q0 -135 -75.5 -202t-217.5 -67h-41v97z" />
<glyph unicode="~" horiz-adv-x="1114" d="M86 618q16 33 43 68t61.5 62.5t77.5 45t92 17.5q72 0 122 -23.5t92 -53t83 -53.5t95 -24q72 0 119.5 41.5t82.5 94.5q18 -18 36 -38t38 -38q-41 -78 -111.5 -136.5t-160.5 -58.5q-74 0 -125 24.5t-94 53.5t-83 53.5t-89 24.5q-80 0 -126 -41t-79 -94q-20 18 -38 36.5 t-36 38.5z" />
<glyph horiz-adv-x="1024" />
<glyph unicode="&#xa0;" />
<glyph unicode="&#xa1;" horiz-adv-x="507" d="M139 895q0 47 30 80t85 33t85 -33t30 -80t-30 -80t-85 -33t-85 33t-30 80zM176 -78l23 682h112l23 -682v-313h-158v313z" />
<glyph unicode="&#xa2;" horiz-adv-x="1159" d="M195 496q0 102 26.5 191t80.5 156.5t134 109.5t189 53v188h102v-186q139 -6 246 -60l-35 -114q-45 23 -98.5 35t-112.5 16v-781q55 4 113.5 18.5t107.5 37.5l35 -113q-113 -57 -256 -63v-189h-102v191q-106 8 -187.5 50t-134.5 109.5t-80.5 157.5t-27.5 193zM344 496 q0 -152 68.5 -258.5t212.5 -128.5v772q-141 -18 -211 -124.5t-70 -260.5z" />
<glyph unicode="&#xa3;" horiz-adv-x="1159" d="M143 0v152h72q51 18 91 51t67.5 70.5t43 79.5t15.5 83q0 49 -14.5 93t-32.5 87h-229v113h168q-31 59 -55.5 121.5t-24.5 138.5q0 82 33.5 148.5t91 113.5t134.5 73t163 26q106 0 174.5 -20.5t134.5 -55.5l-39 -125q-57 33 -114.5 48t-139.5 15q-74 0 -124 -22.5t-82 -58 t-45 -78.5t-13 -86q0 -68 23.5 -125.5t52.5 -112.5h327v-113h-270q16 -39 27.5 -78.5t11.5 -86.5q0 -98 -51.5 -175t-141.5 -124h666v-152h-920z" />
<glyph unicode="&#xa4;" horiz-adv-x="1169" d="M170 1012q18 18 37.5 36.5t38.5 38.5l116 -116q51 41 106.5 58.5t115.5 17.5q61 0 115.5 -19.5t107.5 -56.5l115 114q18 -18 36.5 -38.5t36.5 -36.5l-110 -113q37 -53 55 -107.5t18 -117.5q0 -59 -19 -116.5t-54 -104.5l112 -115q-18 -20 -37.5 -40t-37.5 -42l-113 119 q-55 -35 -108.5 -53.5t-114.5 -18.5q-66 0 -119 18.5t-105 53.5l-114 -119q-18 20 -38 41.5t-38 40.5l113 115q-37 49 -55.5 102t-18.5 119q0 61 19.5 115.5t54.5 109.5l-82 80q-6 8 -15.5 16t-17.5 19zM317 672q0 -55 20.5 -103.5t57.5 -84t85 -56t104 -20.5q53 0 102 20.5 t86 56t59.5 84t22.5 103.5t-22.5 104t-59.5 85t-86 56.5t-102 20.5q-55 0 -103.5 -20.5t-85.5 -56.5t-57.5 -85t-20.5 -104z" />
<glyph unicode="&#xa5;" horiz-adv-x="1159" d="M92 1331h164l319 -614h5l321 614h166l-342 -620h252v-95h-301q-4 -8 -10.5 -15t-10.5 -17v-127h322v-92h-322v-365h-155v365h-320v92h320v127l-19 32h-301v95h252z" />
<glyph unicode="&#xa6;" horiz-adv-x="503" d="M186 -358v718h131v-718h-131zM186 662v718h131v-718h-131z" />
<glyph unicode="&#xa7;" horiz-adv-x="1159" d="M176 690q0 78 37 129t96 74q-47 45 -67.5 98t-20.5 113q0 131 104.5 213t286.5 82q80 0 157 -18.5t138 -47.5l-35 -114q-53 29 -112.5 46t-130.5 17q-135 0 -197.5 -51t-62.5 -127q0 -41 20.5 -72t54 -53.5t76.5 -39.5t90 -34q59 -20 126 -44.5t123 -61.5t93 -89.5 t37 -125.5q0 -76 -38 -126t-99 -73q53 -47 75.5 -106.5t22.5 -116.5q0 -68 -31.5 -121t-89 -90t-136.5 -56.5t-173 -19.5q-100 0 -186 19.5t-148 50.5l35 112q59 -29 129 -47t158 -18q59 0 112.5 11t94.5 33.5t65.5 53.5t24.5 72q0 45 -21.5 76.5t-56.5 56t-80 42t-90 32.5 q-51 14 -116.5 36.5t-124 59.5t-99.5 92t-41 133zM330 705q0 -49 27.5 -83t68.5 -57.5t88 -39t88 -27.5q61 -18 92 -28.5t64 -27.5q20 12 39 31q14 16 26.5 37.5t12.5 54.5q0 78 -77 128t-200 85q-57 16 -92 28.5t-68 31.5q-20 -12 -34 -33q-14 -16 -24.5 -42t-10.5 -58z " />
<glyph unicode="&#xa8;" horiz-adv-x="604" d="M8 1257q0 39 24.5 67t71.5 28t73 -28t26 -67t-25.5 -66.5t-73.5 -27.5q-47 0 -71.5 27.5t-24.5 66.5zM401 1257q0 39 26 67t73 28t71.5 -28t24.5 -67t-24.5 -66.5t-71.5 -27.5t-73 27.5t-26 66.5z" />
<glyph unicode="&#xa9;" horiz-adv-x="1409" d="M82 690q0 133 50 250t135 204t198 137t240 50t239.5 -50t197.5 -137t135 -204t50 -250t-50 -249.5t-135 -203.5t-198 -137.5t-239 -50.5q-127 0 -240 50.5t-198 137.5t-135 203.5t-50 249.5zM176 690q0 -115 40 -216t110.5 -177t168 -120t210.5 -44t210 44t167.5 120 t110.5 177t40 216t-40 216.5t-110.5 177t-168 119.5t-209.5 44q-113 0 -210.5 -44t-168 -119.5t-110.5 -177t-40 -216.5zM391 688q0 76 20.5 142.5t62.5 115.5t106.5 78t152.5 29q113 0 201 -45l-27 -82q-82 39 -174 39q-121 0 -176 -79t-55 -198t55 -197.5t180 -78.5 q90 0 176 41l25 -82q-47 -23 -96 -35t-115 -12q-86 0 -149.5 28.5t-105.5 77.5t-61.5 115.5t-19.5 142.5z" />
<glyph unicode="&#xaa;" horiz-adv-x="706" d="M31 819q0 125 86 184.5t233 59.5h144v22q0 82 -45.5 121t-116.5 39q-59 0 -115.5 -14t-105.5 -41l-33 96q43 23 110.5 44.5t151.5 21.5q141 0 209.5 -73t68.5 -196v-469h-102l-18 103q-35 -47 -87.5 -82t-150.5 -35q-96 0 -162.5 55.5t-66.5 163.5zM162 819 q0 -53 32.5 -85t86.5 -32q47 0 87 18.5t67.5 48.5t43 67.5t15.5 76.5v56h-144q-92 0 -140 -39t-48 -111z" />
<glyph unicode="&#xab;" horiz-adv-x="923" d="M82 496l266 366h125l-264 -366l264 -369h-125zM440 496l267 366h124l-264 -366l264 -369h-124z" />
<glyph unicode="&#xac;" horiz-adv-x="1015" d="M82 621v129h831v-496h-137v367h-694z" />
<glyph unicode="&#xad;" horiz-adv-x="604" d="M20 449v122h564v-122h-564z" />
<glyph unicode="&#xae;" horiz-adv-x="1083" d="M82 942q0 96 34 180t94 145.5t144 97.5t187 36q102 0 187 -36t145.5 -97.5t94 -145.5t33.5 -180t-33.5 -180t-94 -146.5t-145.5 -98.5t-187 -36t-186.5 36t-144.5 98.5t-94 146.5t-34 180zM162 942q0 -80 27.5 -151.5t77.5 -125t120 -84t154 -30.5q86 0 155.5 30.5 t119.5 84t78 125t28 151.5t-28 150.5t-78 125t-119.5 85t-155.5 30.5q-84 0 -154 -30.5t-120 -85t-77.5 -125t-27.5 -150.5zM381 680v510h190q98 0 139.5 -43.5t41.5 -106.5q0 -55 -33 -96t-88 -57l123 -207h-84l-119 199h-92v-199h-78zM459 950h108q107 0 107 90 q0 39 -24.5 59.5t-80.5 20.5h-110v-170z" />
<glyph unicode="&#xaf;" horiz-adv-x="604" d="M23 1176v106h559v-106h-559z" />
<glyph unicode="&#xb0;" horiz-adv-x="718" d="M82 1133q0 55 21.5 104t58.5 85t87 57.5t109 21.5t110.5 -21.5t88.5 -57.5t58.5 -85t21.5 -104t-21.5 -104.5t-58.5 -86.5t-88 -58.5t-111 -21.5q-59 0 -109 21.5t-87 58.5t-58.5 86.5t-21.5 104.5zM168 1133q0 -39 14.5 -74t40 -61.5t60 -42t75.5 -15.5q43 0 79 15.5 t61.5 42t41 61.5t15.5 74q0 78 -55.5 132t-141.5 54q-82 0 -136 -54t-54 -132z" />
<glyph unicode="&#xb1;" horiz-adv-x="1159" d="M145 0v102h869v-102h-869zM145 537v122h367v357h137v-357h365v-122h-365v-357h-137v357h-367z" />
<glyph unicode="&#xb2;" horiz-adv-x="628" d="M55 614v82l187 191q74 74 122 137t48 129q0 47 -32 70.5t-89 23.5q-39 0 -87 -14t-89 -35l-33 96q41 20 97.5 38t115.5 18q123 0 182.5 -52.5t59.5 -144.5q0 -47 -21.5 -92t-54.5 -87t-72 -81l-72 -72l-98 -98h338v-109h-502z" />
<glyph unicode="&#xb3;" horiz-adv-x="614" d="M55 657l31 95q39 -20 87 -33.5t97 -13.5q76 0 112 35.5t36 86.5q0 55 -37 85t-98 30h-111v98h111q49 0 81.5 28t32.5 87q0 41 -30.5 67.5t-108.5 26.5q-47 0 -89 -11t-81 -32l-33 97q43 23 97.5 35t109.5 12q137 0 197.5 -57.5t60.5 -137.5q0 -61 -31.5 -100t-78.5 -58 q66 -14 98.5 -62t32.5 -108q0 -102 -69 -162.5t-200 -60.5q-70 0 -123 15.5t-94 37.5z" />
<glyph unicode="&#xb4;" horiz-adv-x="604" d="M242 1180l297 254l84 -115l-334 -205z" />
<glyph unicode="&#xb5;" horiz-adv-x="1138" d="M156 -410v1399h149v-627q0 -123 54.5 -186t152.5 -63q53 0 100 17t87 45t73 63.5t57 74.5v676h154v-989h-123l-31 174q-18 -33 -49.5 -66.5t-71.5 -61.5t-90.5 -46t-105.5 -18q-78 0 -128 21.5t-79 62.5v-476h-149z" />
<glyph unicode="&#xb6;" horiz-adv-x="905" d="M86 1024q0 84 28.5 150.5t78 112.5t116 69.5t142.5 23.5h393v-98h-74q-84 0 -112.5 -34t-28.5 -105v-1241h-140v772h-59q-66 0 -127 22.5t-109.5 66.5t-78 109.5t-29.5 151.5z" />
<glyph unicode="&#xb7;" horiz-adv-x="483" d="M127 571q0 47 28.5 80t86.5 33q55 0 84.5 -33t29.5 -80t-29.5 -79.5t-84.5 -32.5q-57 0 -86 32.5t-29 79.5z" />
<glyph unicode="&#xb8;" horiz-adv-x="604" d="M111 -336l163 256h97l-97 -256h-163z" />
<glyph unicode="&#xb9;" horiz-adv-x="583" d="M72 614v107h170v506l-148 -47v100l178 61h93v-620h163v-107h-456z" />
<glyph unicode="&#xba;" horiz-adv-x="806" d="M61 977q0 78 20.5 146.5t62.5 118.5t106.5 79t152.5 29t153 -29t107 -79t62 -118.5t20 -146.5q0 -80 -20 -147.5t-62 -119t-106.5 -80t-153.5 -28.5q-88 0 -152.5 28.5t-106.5 80t-62.5 119t-20.5 147.5zM193 977q0 -57 12 -106.5t37.5 -86t65.5 -57t95 -20.5t95.5 20.5 t67 57t38.5 86t12 106.5q0 117 -51 191.5t-162 74.5t-160.5 -74.5t-49.5 -191.5z" />
<glyph unicode="&#xbb;" horiz-adv-x="923" d="M92 127l264 369l-264 366h125l266 -366l-266 -369h-125zM451 127l264 369l-264 366h124l267 -366l-267 -369h-124z" />
<glyph unicode="&#xbc;" horiz-adv-x="1556" d="M109 614v107h170v506l-148 -47v100l176 61h94v-620h164v-107h-456zM340 0l750 1352h129l-750 -1352h-129zM850 137v88l358 502h101v-481h82v-109h-82v-137h-117v137h-342zM981 246h213v289z" />
<glyph unicode="&#xbd;" horiz-adv-x="1556" d="M109 614v107h170v506l-148 -47v100l176 61h94v-620h164v-107h-456zM340 0l750 1352h129l-750 -1352h-129zM954 0v82l187 190q74 74 122 137.5t48 129.5q0 47 -32 70.5t-89 23.5q-39 0 -87 -14.5t-89 -34.5l-33 96q41 20 97.5 37.5t115.5 17.5q123 0 182.5 -52t59.5 -144 q0 -47 -21.5 -92.5t-54.5 -87.5t-72 -80.5t-71 -71.5l-99 -98h338v-109h-502z" />
<glyph unicode="&#xbe;" horiz-adv-x="1556" d="M88 657l33 95q37 -20 86 -33.5t96 -13.5q78 0 114 35.5t36 86.5q0 55 -37 85t-101 30h-108v98h108q51 0 84 28t33 87q0 41 -30.5 67.5t-108.5 26.5q-47 0 -89 -11t-81 -32l-33 97q43 23 96.5 35t110.5 12q137 0 196.5 -57.5t59.5 -137.5q0 -61 -30.5 -100t-80.5 -58 q68 -14 99.5 -62t31.5 -108q0 -102 -68.5 -162.5t-197.5 -60.5q-70 0 -124 15.5t-95 37.5zM340 0l750 1352h129l-750 -1352h-129zM850 137v88l358 502h101v-481h82v-109h-82v-137h-117v137h-342zM981 246h213v289z" />
<glyph unicode="&#xbf;" horiz-adv-x="999" d="M123 -72q0 78 26.5 139.5t67.5 112.5t87 95t87 87.5t67.5 89.5t26.5 101q0 61 -18 109h127q14 -23 21.5 -53.5t7.5 -61.5q0 -66 -26 -119t-63.5 -98t-82.5 -87t-83 -88t-63.5 -97.5t-25.5 -116.5q0 -43 14 -81t46 -68t81 -47t119 -17q86 0 172 23.5t149 55.5l39 -129 q-63 -33 -157.5 -61.5t-204.5 -28.5q-209 0 -311.5 92.5t-102.5 247.5zM416 895q0 47 29.5 80t84.5 33t85 -33t30 -80t-29.5 -80t-85.5 -33q-55 0 -84.5 33t-29.5 80z" />
<glyph unicode="&#xc0;" horiz-adv-x="1273" d="M45 0l514 1380h156l514 -1380h-160l-139 379h-588l-137 -379h-160zM395 518h484l-152 410q-23 70 -44 138.5t-44 137.5h-4q-23 -70 -44.5 -138.5t-43.5 -137.5zM447 1720l84 115l296 -254l-47 -66z" />
<glyph unicode="&#xc1;" horiz-adv-x="1273" d="M45 0l514 1380h156l514 -1380h-160l-139 379h-588l-137 -379h-160zM395 518h484l-152 410q-23 70 -44 138.5t-44 137.5h-4q-23 -70 -44.5 -138.5t-43.5 -137.5zM447 1581l297 254l84 -115l-334 -205z" />
<glyph unicode="&#xc2;" horiz-adv-x="1273" d="M45 0l514 1380h156l514 -1380h-160l-139 379h-588l-137 -379h-160zM346 1519l238 287h104l238 -287h-143l-148 182l-145 -182h-144zM395 518h484l-152 410q-23 70 -44 138.5t-44 137.5h-4q-23 -70 -44.5 -138.5t-43.5 -137.5z" />
<glyph unicode="&#xc3;" horiz-adv-x="1273" d="M45 0l514 1380h156l514 -1380h-160l-139 379h-588l-137 -379h-160zM330 1548q2 96 46 149.5t130 53.5q43 0 77 -15.5t62.5 -33t57 -33t59.5 -15.5q41 0 55.5 26t14.5 67h110q-2 -98 -48 -151.5t-126 -53.5q-47 0 -81 15t-62.5 33.5t-56 34t-58.5 15.5q-41 0 -57.5 -27.5 t-16.5 -64.5h-106zM395 518h484l-152 410q-23 70 -44 138.5t-44 137.5h-4q-23 -70 -44.5 -138.5t-43.5 -137.5z" />
<glyph unicode="&#xc4;" horiz-adv-x="1273" d="M45 0l514 1380h156l514 -1380h-160l-139 379h-588l-137 -379h-160zM342 1658q0 39 24.5 67t71.5 28t73 -28t26 -67t-25.5 -66.5t-73.5 -27.5q-47 0 -71.5 27.5t-24.5 66.5zM395 518h484l-152 410q-23 70 -44 138.5t-44 137.5h-4q-23 -70 -44.5 -138.5t-43.5 -137.5z M735 1658q0 39 26 67t73 28t71.5 -28t24.5 -67t-24.5 -66.5t-71.5 -27.5t-73 27.5t-26 66.5z" />
<glyph unicode="&#xc5;" horiz-adv-x="1273" d="M45 0l514 1380h156l514 -1380h-160l-139 379h-588l-137 -379h-160zM395 518h484l-152 410q-23 70 -44 138.5t-44 137.5h-4q-23 -70 -44.5 -138.5t-43.5 -137.5zM449 1695q0 39 14 74t40 60.5t60.5 41t73.5 15.5t74 -15.5t60.5 -41t39.5 -60.5t14 -74t-14 -72.5t-39.5 -59 t-60.5 -40t-74 -14.5t-73.5 14.5t-60.5 40t-40 59t-14 72.5zM539 1697q0 -47 28.5 -75.5t69.5 -28.5t70.5 28.5t29.5 75.5t-28.5 77t-71.5 30q-41 0 -69.5 -30t-28.5 -77z" />
<glyph unicode="&#xc6;" horiz-adv-x="1671" d="M41 0l610 1380h905v-143h-706l135 -455h531v-141h-490l148 -500h395v-141h-506l-113 379h-588q-41 -94 -81.5 -189.5t-81.5 -189.5h-158zM426 518h485l-125 410l-67 276h-4q-27 -70 -53.5 -138.5t-55.5 -137.5z" />
<glyph unicode="&#xc7;" horiz-adv-x="1167" d="M94 690q0 156 43 287t126 224t204 145.5t278 52.5q106 0 184.5 -17.5t145.5 -48.5l-39 -131q-124 58 -288 58q-236 0 -368 -147.5t-132 -422.5q0 -270 131 -418.5t366 -148.5q168 0 304 65l38 -131q-74 -37 -156.5 -56t-187.5 -19q-168 0 -289.5 51t-201.5 143t-119 223 t-39 291zM514 -336l163 256h97l-97 -256h-163z" />
<glyph unicode="&#xc8;" horiz-adv-x="1116" d="M168 0v1380h833v-141h-677v-455h637v-143h-637v-500h690v-141h-846zM408 1720l84 115l296 -254l-47 -66z" />
<glyph unicode="&#xc9;" horiz-adv-x="1116" d="M168 0v1380h833v-141h-677v-455h637v-143h-637v-500h690v-141h-846zM408 1581l297 254l84 -115l-334 -205z" />
<glyph unicode="&#xca;" horiz-adv-x="1116" d="M168 0v1380h833v-141h-677v-455h637v-143h-637v-500h690v-141h-846zM309 1519l238 287h104l238 -287h-143l-148 182l-145 -182h-144z" />
<glyph unicode="&#xcb;" horiz-adv-x="1116" d="M168 0v1380h833v-141h-677v-455h637v-143h-637v-500h690v-141h-846zM305 1658q0 39 24.5 67t71.5 28t73 -28t26 -67t-25.5 -66.5t-73.5 -27.5q-47 0 -71.5 27.5t-24.5 66.5zM698 1658q0 39 26 67t73 28t71.5 -28t24.5 -67t-24.5 -66.5t-71.5 -27.5t-73 27.5t-26 66.5z " />
<glyph unicode="&#xcc;" horiz-adv-x="499" d="M60 1720l84 115l296 -254l-47 -66zM172 0v1380h156v-1380h-156z" />
<glyph unicode="&#xcd;" horiz-adv-x="499" d="M62 1581l297 254l84 -115l-334 -205zM172 0v1380h156v-1380h-156z" />
<glyph unicode="&#xce;" horiz-adv-x="499" d="M-37 1519l238 287h104l238 -287h-143l-148 182l-145 -182h-144zM172 0v1380h156v-1380h-156z" />
<glyph unicode="&#xcf;" horiz-adv-x="499" d="M-41 1658q0 39 24.5 67t71.5 28t73 -28t26 -67t-25.5 -66.5t-73.5 -27.5q-47 0 -71.5 27.5t-24.5 66.5zM172 0v1380h156v-1380h-156zM352 1658q0 39 26 67t73 28t71.5 -28t24.5 -67t-24.5 -66.5t-71.5 -27.5t-73 27.5t-26 66.5z" />
<glyph unicode="&#xd0;" horiz-adv-x="1331" d="M27 616v121h141v643h385q338 0 510 -174t172 -514t-172 -516t-510 -176h-385v616h-141zM324 143h229q127 0 225.5 31t165 97.5t101 171t34.5 249.5t-34.5 248.5t-101 169.5t-165 96.5t-225.5 30.5h-229v-500h364v-121h-364v-473z" />
<glyph unicode="&#xd1;" horiz-adv-x="1357" d="M168 0v1380h166l581 -934q41 -66 75 -128t57 -107h4q-10 70 -13.5 138.5t-3.5 152.5v878h156v-1380h-166l-582 934q-41 63 -74.5 126.5t-56.5 108.5h-4q10 -70 13.5 -138t3.5 -152v-879h-156zM373 1548q2 96 46 149.5t130 53.5q43 0 77 -15.5t62.5 -33t57 -33t59.5 -15.5 q41 0 55.5 26t14.5 67h110q-2 -98 -48 -151.5t-126 -53.5q-47 0 -81 15t-62.5 33.5t-56 34t-58.5 15.5q-41 0 -57.5 -27.5t-16.5 -64.5h-106z" />
<glyph unicode="&#xd2;" horiz-adv-x="1409" d="M94 690q0 152 36 282t111.5 225t190.5 148.5t273 53.5t272.5 -53.5t190 -148.5t111.5 -225t36 -282t-36 -281.5t-111.5 -225t-190 -148.5t-272.5 -53t-273 53t-190.5 148.5t-111.5 225.5t-36 281zM248 690q0 -135 27.5 -241.5t85 -182.5t143.5 -115.5t201 -39.5 t199.5 39.5t142 115.5t85 182.5t27.5 241.5t-27.5 241.5t-85 182.5t-142.5 116t-199 40q-115 0 -201 -40t-143.5 -116t-85 -182.5t-27.5 -241.5zM514 1720l84 115l296 -254l-47 -66z" />
<glyph unicode="&#xd3;" horiz-adv-x="1409" d="M94 690q0 152 36 282t111.5 225t190.5 148.5t273 53.5t272.5 -53.5t190 -148.5t111.5 -225t36 -282t-36 -281.5t-111.5 -225t-190 -148.5t-272.5 -53t-273 53t-190.5 148.5t-111.5 225.5t-36 281zM248 690q0 -135 27.5 -241.5t85 -182.5t143.5 -115.5t201 -39.5 t199.5 39.5t142 115.5t85 182.5t27.5 241.5t-27.5 241.5t-85 182.5t-142.5 116t-199 40q-115 0 -201 -40t-143.5 -116t-85 -182.5t-27.5 -241.5zM514 1581l297 254l84 -115l-334 -205z" />
<glyph unicode="&#xd4;" horiz-adv-x="1409" d="M94 690q0 152 36 282t111.5 225t190.5 148.5t273 53.5t272.5 -53.5t190 -148.5t111.5 -225t36 -282t-36 -281.5t-111.5 -225t-190 -148.5t-272.5 -53t-273 53t-190.5 148.5t-111.5 225.5t-36 281zM248 690q0 -135 27.5 -241.5t85 -182.5t143.5 -115.5t201 -39.5 t199.5 39.5t142 115.5t85 182.5t27.5 241.5t-27.5 241.5t-85 182.5t-142.5 116t-199 40q-115 0 -201 -40t-143.5 -116t-85 -182.5t-27.5 -241.5zM413 1519l238 287h104l238 -287h-143l-148 182l-145 -182h-144z" />
<glyph unicode="&#xd5;" horiz-adv-x="1409" d="M94 690q0 152 36 282t111.5 225t190.5 148.5t273 53.5t272.5 -53.5t190 -148.5t111.5 -225t36 -282t-36 -281.5t-111.5 -225t-190 -148.5t-272.5 -53t-273 53t-190.5 148.5t-111.5 225.5t-36 281zM248 690q0 -135 27.5 -241.5t85 -182.5t143.5 -115.5t201 -39.5 t199.5 39.5t142 115.5t85 182.5t27.5 241.5t-27.5 241.5t-85 182.5t-142.5 116t-199 40q-115 0 -201 -40t-143.5 -116t-85 -182.5t-27.5 -241.5zM397 1548q2 96 46 149.5t130 53.5q43 0 77 -15.5t62.5 -33t57 -33t59.5 -15.5q41 0 55.5 26t14.5 67h110q-2 -98 -48 -151.5 t-126 -53.5q-47 0 -81 15t-62.5 33.5t-56 34t-58.5 15.5q-41 0 -57.5 -27.5t-16.5 -64.5h-106z" />
<glyph unicode="&#xd6;" horiz-adv-x="1409" d="M94 690q0 152 36 282t111.5 225t190.5 148.5t273 53.5t272.5 -53.5t190 -148.5t111.5 -225t36 -282t-36 -281.5t-111.5 -225t-190 -148.5t-272.5 -53t-273 53t-190.5 148.5t-111.5 225.5t-36 281zM248 690q0 -135 27.5 -241.5t85 -182.5t143.5 -115.5t201 -39.5 t199.5 39.5t142 115.5t85 182.5t27.5 241.5t-27.5 241.5t-85 182.5t-142.5 116t-199 40q-115 0 -201 -40t-143.5 -116t-85 -182.5t-27.5 -241.5zM409 1658q0 39 24.5 67t71.5 28t73 -28t26 -67t-25.5 -66.5t-73.5 -27.5q-47 0 -71.5 27.5t-24.5 66.5zM802 1658q0 39 26 67 t73 28t71.5 -28t24.5 -67t-24.5 -66.5t-71.5 -27.5t-73 27.5t-26 66.5z" />
<glyph unicode="&#xd7;" horiz-adv-x="1159" d="M170 885l98 96l303 -303l306 303l96 -96l-305 -305l305 -304l-96 -96l-306 303l-303 -303l-96 96l303 304z" />
<glyph unicode="&#xd8;" horiz-adv-x="1409" d="M94 690q0 152 36 282t111.5 225t190.5 148.5t273 53.5q188 0 321 -82l90 145h121l-125 -205q104 -98 153.5 -242.5t49.5 -324.5q0 -152 -36 -281.5t-111.5 -225t-190.5 -148.5t-272 -53q-98 0 -178.5 20.5t-145.5 58.5l-88 -143h-121l125 203q-104 98 -153.5 243.5 t-49.5 325.5zM248 690q0 -143 30.5 -254.5t96.5 -187.5l579 952q-49 33 -111.5 51.5t-137.5 18.5q-115 0 -201 -40t-143.5 -116t-85 -182.5t-27.5 -241.5zM453 180q100 -69 252 -69q115 0 199.5 39.5t142 115.5t85 182.5t27.5 241.5q0 287 -127 438z" />
<glyph unicode="&#xd9;" horiz-adv-x="1359" d="M164 551v829h155v-831q0 -217 93.5 -320.5t267.5 -103.5t267 103.5t93 320.5v831h156v-829q0 -147 -36 -254t-103.5 -177.5t-162.5 -104t-214 -33.5t-214 33.5t-162.5 104t-103.5 177t-36 254.5zM490 1720l84 115l296 -254l-47 -66z" />
<glyph unicode="&#xda;" horiz-adv-x="1359" d="M164 551v829h155v-831q0 -217 93.5 -320.5t267.5 -103.5t267 103.5t93 320.5v831h156v-829q0 -147 -36 -254t-103.5 -177.5t-162.5 -104t-214 -33.5t-214 33.5t-162.5 104t-103.5 177t-36 254.5zM490 1581l297 254l84 -115l-334 -205z" />
<glyph unicode="&#xdb;" horiz-adv-x="1359" d="M164 551v829h155v-831q0 -217 93.5 -320.5t267.5 -103.5t267 103.5t93 320.5v831h156v-829q0 -147 -36 -254t-103.5 -177.5t-162.5 -104t-214 -33.5t-214 33.5t-162.5 104t-103.5 177t-36 254.5zM389 1519l238 287h104l238 -287h-143l-148 182l-145 -182h-144z" />
<glyph unicode="&#xdc;" horiz-adv-x="1359" d="M164 551v829h155v-831q0 -217 93.5 -320.5t267.5 -103.5t267 103.5t93 320.5v831h156v-829q0 -147 -36 -254t-103.5 -177.5t-162.5 -104t-214 -33.5t-214 33.5t-162.5 104t-103.5 177t-36 254.5zM385 1658q0 39 24.5 67t71.5 28t73 -28t26 -67t-25.5 -66.5t-73.5 -27.5 q-47 0 -71.5 27.5t-24.5 66.5zM778 1658q0 39 26 67t73 28t71.5 -28t24.5 -67t-24.5 -66.5t-71.5 -27.5t-73 27.5t-26 66.5z" />
<glyph unicode="&#xdd;" horiz-adv-x="1153" d="M33 1380h164l376 -663h5l374 663h166l-465 -796v-584h-155v584zM385 1581l297 254l84 -115l-334 -205z" />
<glyph unicode="&#xde;" horiz-adv-x="1155" d="M168 0v1380h156v-260h288q106 0 191.5 -30.5t143 -86t88 -132t30.5 -166.5q0 -94 -33 -172t-93 -134.5t-146 -87t-193 -30.5h-276v-281h-156zM324 424h276q145 0 227 73t82 208q0 131 -75.5 201.5t-221.5 70.5h-288v-553z" />
<glyph unicode="&#xdf;" horiz-adv-x="1222" d="M154 0v879q0 113 30.5 208t92 164.5t154.5 108.5t218 39q88 0 164 -24.5t129 -69.5t84 -108.5t31 -141.5q0 -55 -20.5 -101.5t-53.5 -80t-75 -55t-85 -32.5q57 -10 112.5 -35.5t96.5 -71.5t66.5 -115.5t25.5 -170.5q0 -102 -31.5 -179t-87 -129t-130 -77.5t-160.5 -25.5 q-178 0 -293 57l33 117q55 -27 118.5 -41.5t133.5 -14.5q119 0 192.5 77t73.5 218q0 170 -90 250t-244 80h-107v125h140q102 0 169.5 45t67.5 141q0 61 -22.5 104.5t-59 71t-83 41t-93.5 13.5q-180 0 -264 -103.5t-84 -283.5v-879h-149z" />
<glyph unicode="&#xe0;" horiz-adv-x="1030" d="M86 276q0 166 114.5 249t319.5 83h213v43q0 125 -63.5 179.5t-171.5 54.5q-92 0 -169 -21.5t-141 -52.5l-34 109q55 33 146 60.5t202 27.5q193 0 285 -96.5t92 -262.5v-649h-115l-31 174q-23 -39 -52.5 -73.5t-69.5 -61.5t-93 -42t-127 -15q-63 0 -118.5 19t-97.5 56 t-65.5 92.5t-23.5 126.5zM233 276q0 -86 52.5 -131t130.5 -45q72 0 130 27t100 71t64.5 98t22.5 110v88h-215q-141 0 -213 -56.5t-72 -161.5zM324 1319l84 115l296 -254l-47 -66z" />
<glyph unicode="&#xe1;" horiz-adv-x="1030" d="M86 276q0 166 114.5 249t319.5 83h213v43q0 125 -63.5 179.5t-171.5 54.5q-92 0 -169 -21.5t-141 -52.5l-34 109q55 33 146 60.5t202 27.5q193 0 285 -96.5t92 -262.5v-649h-115l-31 174q-23 -39 -52.5 -73.5t-69.5 -61.5t-93 -42t-127 -15q-63 0 -118.5 19t-97.5 56 t-65.5 92.5t-23.5 126.5zM233 276q0 -86 52.5 -131t130.5 -45q72 0 130 27t100 71t64.5 98t22.5 110v88h-215q-141 0 -213 -56.5t-72 -161.5zM324 1180l297 254l84 -115l-334 -205z" />
<glyph unicode="&#xe2;" horiz-adv-x="1030" d="M86 276q0 166 114.5 249t319.5 83h213v43q0 125 -63.5 179.5t-171.5 54.5q-92 0 -169 -21.5t-141 -52.5l-34 109q55 33 146 60.5t202 27.5q193 0 285 -96.5t92 -262.5v-649h-115l-31 174q-23 -39 -52.5 -73.5t-69.5 -61.5t-93 -42t-127 -15q-63 0 -118.5 19t-97.5 56 t-65.5 92.5t-23.5 126.5zM225 1118l238 287h104l238 -287h-143l-148 182l-145 -182h-144zM233 276q0 -86 52.5 -131t130.5 -45q72 0 130 27t100 71t64.5 98t22.5 110v88h-215q-141 0 -213 -56.5t-72 -161.5z" />
<glyph unicode="&#xe3;" horiz-adv-x="1030" d="M86 276q0 166 114.5 249t319.5 83h213v43q0 125 -63.5 179.5t-171.5 54.5q-92 0 -169 -21.5t-141 -52.5l-34 109q55 33 146 60.5t202 27.5q193 0 285 -96.5t92 -262.5v-649h-115l-31 174q-23 -39 -52.5 -73.5t-69.5 -61.5t-93 -42t-127 -15q-63 0 -118.5 19t-97.5 56 t-65.5 92.5t-23.5 126.5zM209 1147q2 96 46 149.5t130 53.5q43 0 77 -15.5t62.5 -33t57 -33t59.5 -15.5q41 0 55.5 26t14.5 67h110q-2 -98 -48 -151.5t-126 -53.5q-47 0 -81 15t-62.5 33.5t-56 34t-58.5 15.5q-41 0 -57.5 -27.5t-16.5 -64.5h-106zM233 276q0 -86 52.5 -131 t130.5 -45q72 0 130 27t100 71t64.5 98t22.5 110v88h-215q-141 0 -213 -56.5t-72 -161.5z" />
<glyph unicode="&#xe4;" horiz-adv-x="1030" d="M86 276q0 166 114.5 249t319.5 83h213v43q0 125 -63.5 179.5t-171.5 54.5q-92 0 -169 -21.5t-141 -52.5l-34 109q55 33 146 60.5t202 27.5q193 0 285 -96.5t92 -262.5v-649h-115l-31 174q-23 -39 -52.5 -73.5t-69.5 -61.5t-93 -42t-127 -15q-63 0 -118.5 19t-97.5 56 t-65.5 92.5t-23.5 126.5zM221 1257q0 39 24.5 67t71.5 28t73 -28t26 -67t-25.5 -66.5t-73.5 -27.5q-47 0 -71.5 27.5t-24.5 66.5zM233 276q0 -86 52.5 -131t130.5 -45q72 0 130 27t100 71t64.5 98t22.5 110v88h-215q-141 0 -213 -56.5t-72 -161.5zM614 1257q0 39 26 67 t73 28t71.5 -28t24.5 -67t-24.5 -66.5t-71.5 -27.5t-73 27.5t-26 66.5z" />
<glyph unicode="&#xe5;" horiz-adv-x="1030" d="M86 276q0 166 114.5 249t319.5 83h213v43q0 125 -63.5 179.5t-171.5 54.5q-92 0 -169 -21.5t-141 -52.5l-34 109q55 33 146 60.5t202 27.5q193 0 285 -96.5t92 -262.5v-649h-115l-31 174q-23 -39 -52.5 -73.5t-69.5 -61.5t-93 -42t-127 -15q-63 0 -118.5 19t-97.5 56 t-65.5 92.5t-23.5 126.5zM233 276q0 -86 52.5 -131t130.5 -45q72 0 130 27t100 71t64.5 98t22.5 110v88h-215q-141 0 -213 -56.5t-72 -161.5zM326 1294q0 39 14 74t40 60.5t60.5 41t73.5 15.5t74 -15.5t60.5 -41t39.5 -60.5t14 -74t-14 -72.5t-39.5 -59t-60.5 -40t-74 -14.5 t-73.5 14.5t-60.5 40t-40 59t-14 72.5zM416 1296q0 -47 28.5 -75.5t69.5 -28.5t70.5 28.5t29.5 75.5t-28.5 77t-71.5 30q-41 0 -69.5 -30t-28.5 -77z" />
<glyph unicode="&#xe6;" horiz-adv-x="1630" d="M84 276q0 166 114.5 249t319.5 83h213v43q0 125 -63.5 179.5t-171.5 54.5q-92 0 -169 -19.5t-141 -50.5l-34 109q55 33 146 58.5t202 25.5q127 0 202.5 -44t116.5 -124q47 78 133 123t207 45q188 0 281.5 -110t93.5 -300q0 -49 -5 -92t-16 -80h-641q14 -154 91 -238 t237 -84q129 0 248 58l35 -113q-63 -33 -133 -50t-164 -17q-162 0 -249 64.5t-132 180.5q-25 -51 -64 -95t-90 -78t-116.5 -53t-145.5 -19q-63 0 -118.5 19t-97.5 56t-65.5 92.5t-23.5 126.5zM231 276q0 -86 52.5 -131t130.5 -45q72 0 130 26t100 68t64.5 97t22.5 115v88 h-215q-141 0 -213 -56.5t-72 -161.5zM874 539h521q0 4 1 28.5t1 30.5q0 141 -53.5 217t-184.5 76q-78 0 -130 -26.5t-85 -74t-49 -112t-21 -139.5z" />
<glyph unicode="&#xe7;" horiz-adv-x="935" d="M90 496q0 109 28.5 203t88 162.5t149.5 107.5t211 39q84 0 154 -17.5t129 -46.5l-35 -115q-53 25 -114.5 40.5t-133.5 15.5q-84 0 -146.5 -29t-102 -81t-59 -123.5t-19.5 -155.5t19.5 -156t60 -124t104 -82t151.5 -30q63 0 128 15.5t122 44.5l35 -113q-63 -33 -134 -51 t-163 -18q-121 0 -209 38.5t-147.5 108.5t-88 164t-28.5 203zM338 -336l163 256h97l-97 -256h-163z" />
<glyph unicode="&#xe8;" horiz-adv-x="1026" d="M94 496q0 109 26.5 203t81 162.5t139.5 107.5t202 39q193 0 291 -110t98 -300q0 -49 -6 -92t-17 -80h-669q12 -154 97 -238t245 -84q68 0 137 14.5t125 43.5l37 -113q-63 -33 -140 -50t-172 -17q-121 0 -210 36.5t-147 103t-88 162t-30 212.5zM240 539h548q2 4 2.5 28.5 t0.5 30.5q0 141 -57.5 217t-190.5 76q-78 0 -133.5 -26.5t-92 -74t-55 -112t-22.5 -139.5zM322 1319l84 115l296 -254l-47 -66z" />
<glyph unicode="&#xe9;" horiz-adv-x="1026" d="M94 496q0 109 26.5 203t81 162.5t139.5 107.5t202 39q193 0 291 -110t98 -300q0 -49 -6 -92t-17 -80h-669q12 -154 97 -238t245 -84q68 0 137 14.5t125 43.5l37 -113q-63 -33 -140 -50t-172 -17q-121 0 -210 36.5t-147 103t-88 162t-30 212.5zM240 539h548q2 4 2.5 28.5 t0.5 30.5q0 141 -57.5 217t-190.5 76q-78 0 -133.5 -26.5t-92 -74t-55 -112t-22.5 -139.5zM322 1180l297 254l84 -115l-334 -205z" />
<glyph unicode="&#xea;" horiz-adv-x="1026" d="M94 496q0 109 26.5 203t81 162.5t139.5 107.5t202 39q193 0 291 -110t98 -300q0 -49 -6 -92t-17 -80h-669q12 -154 97 -238t245 -84q68 0 137 14.5t125 43.5l37 -113q-63 -33 -140 -50t-172 -17q-121 0 -210 36.5t-147 103t-88 162t-30 212.5zM223 1118l238 287h104 l238 -287h-143l-148 182l-145 -182h-144zM240 539h548q2 4 2.5 28.5t0.5 30.5q0 141 -57.5 217t-190.5 76q-78 0 -133.5 -26.5t-92 -74t-55 -112t-22.5 -139.5z" />
<glyph unicode="&#xeb;" horiz-adv-x="1026" d="M94 496q0 109 26.5 203t81 162.5t139.5 107.5t202 39q193 0 291 -110t98 -300q0 -49 -6 -92t-17 -80h-669q12 -154 97 -238t245 -84q68 0 137 14.5t125 43.5l37 -113q-63 -33 -140 -50t-172 -17q-121 0 -210 36.5t-147 103t-88 162t-30 212.5zM219 1257q0 39 24.5 67 t71.5 28t73 -28t26 -67t-25.5 -66.5t-73.5 -27.5q-47 0 -71.5 27.5t-24.5 66.5zM240 539h548q2 4 2.5 28.5t0.5 30.5q0 141 -57.5 217t-190.5 76q-78 0 -133.5 -26.5t-92 -74t-55 -112t-22.5 -139.5zM612 1257q0 39 26 67t73 28t71.5 -28t24.5 -67t-24.5 -66.5t-71.5 -27.5 t-73 27.5t-26 66.5z" />
<glyph unicode="&#xec;" horiz-adv-x="479" d="M50 1319l84 115l296 -254l-47 -66zM164 0v989h151v-989h-151z" />
<glyph unicode="&#xed;" horiz-adv-x="479" d="M52 1180l297 254l84 -115l-334 -205zM164 0v989h151v-989h-151z" />
<glyph unicode="&#xee;" horiz-adv-x="479" d="M-47 1118l238 287h104l238 -287h-143l-148 182l-145 -182h-144zM164 0v989h151v-989h-151z" />
<glyph unicode="&#xef;" horiz-adv-x="479" d="M-51 1257q0 39 24.5 67t71.5 28t73 -28t26 -67t-25.5 -66.5t-73.5 -27.5q-47 0 -71.5 27.5t-24.5 66.5zM164 0v989h151v-989h-151zM342 1257q0 39 26 67t73 28t71.5 -28t24.5 -67t-24.5 -66.5t-71.5 -27.5t-73 27.5t-26 66.5z" />
<glyph unicode="&#xf0;" horiz-adv-x="1126" d="M86 483q0 106 33 201.5t93 167.5t145 114t188 42q96 0 165.5 -31t123.5 -86h6q-27 76 -84.5 149.5t-134.5 139.5l-238 -111l-35 80l193 90q-51 37 -107.5 65.5t-116.5 49.5l50 96q156 -51 290 -156l228 109l41 -78l-195 -92q135 -129 218 -309.5t83 -407.5 q0 -111 -31.5 -209t-93 -169.5t-150.5 -113.5t-202 -42q-109 0 -196 39.5t-147 108.5t-93 160t-33 193zM236 487q0 -80 21.5 -149.5t62 -121.5t100 -82t135.5 -30q80 0 142.5 36t103.5 93.5t62.5 127t21.5 135.5q0 78 -18.5 148.5t-58.5 124.5t-101.5 87t-147.5 33 q-80 0 -141.5 -32t-101.5 -87t-60 -128t-20 -155z" />
<glyph unicode="&#xf1;" horiz-adv-x="1146" d="M156 0v989h123l28 -160q23 29 56.5 61t78.5 57.5t99.5 43t117.5 17.5q158 0 247 -102.5t89 -284.5v-621h-149v621q0 117 -56.5 184t-154.5 67q-104 0 -189.5 -52t-138.5 -128v-692h-151zM266 1147q2 96 46 149.5t130 53.5q43 0 77 -15.5t62.5 -33t57 -33t59.5 -15.5 q41 0 55.5 26t14.5 67h110q-2 -98 -48 -151.5t-126 -53.5q-47 0 -81 15t-62.5 33.5t-56 34t-58.5 15.5q-41 0 -57.5 -27.5t-16.5 -64.5h-106z" />
<glyph unicode="&#xf2;" horiz-adv-x="1101" d="M90 496q0 109 27.5 202t84 162.5t143.5 108.5t206 39t205 -39t143 -108.5t85 -163t28 -201.5q0 -109 -28 -203t-85 -164t-143 -108.5t-205 -38.5t-206 38.5t-143.5 108.5t-84 164t-27.5 203zM240 496q0 -84 18 -157t56 -125t96.5 -82t140.5 -30t140.5 30t96 82t56 125 t18.5 157t-18.5 154.5t-56 122.5t-96 82t-140.5 30t-140.5 -30t-96.5 -82t-56 -122.5t-18 -154.5zM361 1319l84 115l296 -254l-47 -66z" />
<glyph unicode="&#xf3;" horiz-adv-x="1101" d="M90 496q0 109 27.5 202t84 162.5t143.5 108.5t206 39t205 -39t143 -108.5t85 -163t28 -201.5q0 -109 -28 -203t-85 -164t-143 -108.5t-205 -38.5t-206 38.5t-143.5 108.5t-84 164t-27.5 203zM240 496q0 -84 18 -157t56 -125t96.5 -82t140.5 -30t140.5 30t96 82t56 125 t18.5 157t-18.5 154.5t-56 122.5t-96 82t-140.5 30t-140.5 -30t-96.5 -82t-56 -122.5t-18 -154.5zM361 1180l297 254l84 -115l-334 -205z" />
<glyph unicode="&#xf4;" horiz-adv-x="1101" d="M90 496q0 109 27.5 202t84 162.5t143.5 108.5t206 39t205 -39t143 -108.5t85 -163t28 -201.5q0 -109 -28 -203t-85 -164t-143 -108.5t-205 -38.5t-206 38.5t-143.5 108.5t-84 164t-27.5 203zM240 496q0 -84 18 -157t56 -125t96.5 -82t140.5 -30t140.5 30t96 82t56 125 t18.5 157t-18.5 154.5t-56 122.5t-96 82t-140.5 30t-140.5 -30t-96.5 -82t-56 -122.5t-18 -154.5zM260 1118l238 287h104l238 -287h-143l-148 182l-145 -182h-144z" />
<glyph unicode="&#xf5;" horiz-adv-x="1101" d="M90 496q0 109 27.5 202t84 162.5t143.5 108.5t206 39t205 -39t143 -108.5t85 -163t28 -201.5q0 -109 -28 -203t-85 -164t-143 -108.5t-205 -38.5t-206 38.5t-143.5 108.5t-84 164t-27.5 203zM240 496q0 -84 18 -157t56 -125t96.5 -82t140.5 -30t140.5 30t96 82t56 125 t18.5 157t-18.5 154.5t-56 122.5t-96 82t-140.5 30t-140.5 -30t-96.5 -82t-56 -122.5t-18 -154.5zM244 1147q2 96 46 149.5t130 53.5q43 0 77 -15.5t62.5 -33t57 -33t59.5 -15.5q41 0 55.5 26t14.5 67h110q-2 -98 -48 -151.5t-126 -53.5q-47 0 -81 15t-62.5 33.5t-56 34 t-58.5 15.5q-41 0 -57.5 -27.5t-16.5 -64.5h-106z" />
<glyph unicode="&#xf6;" horiz-adv-x="1101" d="M90 496q0 109 27.5 202t84 162.5t143.5 108.5t206 39t205 -39t143 -108.5t85 -163t28 -201.5q0 -109 -28 -203t-85 -164t-143 -108.5t-205 -38.5t-206 38.5t-143.5 108.5t-84 164t-27.5 203zM240 496q0 -84 18 -157t56 -125t96.5 -82t140.5 -30t140.5 30t96 82t56 125 t18.5 157t-18.5 154.5t-56 122.5t-96 82t-140.5 30t-140.5 -30t-96.5 -82t-56 -122.5t-18 -154.5zM256 1257q0 39 24.5 67t71.5 28t73 -28t26 -67t-25.5 -66.5t-73.5 -27.5q-47 0 -71.5 27.5t-24.5 66.5zM649 1257q0 39 26 67t73 28t71.5 -28t24.5 -67t-24.5 -66.5 t-71.5 -27.5t-73 27.5t-26 66.5z" />
<glyph unicode="&#xf7;" horiz-adv-x="1157" d="M145 518v125h852v-125h-852zM446 270q0 47 31 82t88 35q59 0 90 -35t31 -82t-30.5 -81.5t-90.5 -34.5q-57 0 -88 34.5t-31 81.5zM446 891q0 49 31 84t88 35q59 0 90 -35t31 -84q0 -47 -30.5 -82t-90.5 -35q-57 0 -88 35t-31 82z" />
<glyph unicode="&#xf8;" horiz-adv-x="1101" d="M90 496q0 109 27.5 202t84 162.5t143.5 108.5t206 39q111 0 197 -37l77 143h107l-103 -186q92 -70 137.5 -182.5t45.5 -249.5q0 -109 -28 -203t-85 -164t-143 -108.5t-205 -38.5q-63 0 -116.5 11t-100.5 32l-58 -107h-106l86 156q-86 72 -126 179t-40 243zM240 496 q0 -92 20.5 -167t65.5 -128l358 655q-57 29 -133 29q-82 0 -140.5 -30t-96.5 -82t-56 -122.5t-18 -154.5zM397 139q33 -16 71 -26.5t83 -10.5q82 0 140.5 30t96 82t56 125t18.5 157q0 98 -24.5 176t-75.5 131z" />
<glyph unicode="&#xf9;" horiz-adv-x="1132" d="M152 369v620h147v-620q0 -121 53.5 -187.5t145.5 -66.5q55 0 104 16t90 44t75 64.5t58 75.5v674h152v-989h-121l-31 174q-18 -31 -50 -65.5t-76 -62.5t-100 -46t-126 -18q-141 0 -231 92t-90 295zM375 1319l84 115l296 -254l-47 -66z" />
<glyph unicode="&#xfa;" horiz-adv-x="1132" d="M152 369v620h147v-620q0 -121 53.5 -187.5t145.5 -66.5q55 0 104 16t90 44t75 64.5t58 75.5v674h152v-989h-121l-31 174q-18 -31 -50 -65.5t-76 -62.5t-100 -46t-126 -18q-141 0 -231 92t-90 295zM375 1180l297 254l84 -115l-334 -205z" />
<glyph unicode="&#xfb;" horiz-adv-x="1132" d="M152 369v620h147v-620q0 -121 53.5 -187.5t145.5 -66.5q55 0 104 16t90 44t75 64.5t58 75.5v674h152v-989h-121l-31 174q-18 -31 -50 -65.5t-76 -62.5t-100 -46t-126 -18q-141 0 -231 92t-90 295zM276 1118l238 287h104l238 -287h-143l-148 182l-145 -182h-144z" />
<glyph unicode="&#xfc;" horiz-adv-x="1132" d="M152 369v620h147v-620q0 -121 53.5 -187.5t145.5 -66.5q55 0 104 16t90 44t75 64.5t58 75.5v674h152v-989h-121l-31 174q-18 -31 -50 -65.5t-76 -62.5t-100 -46t-126 -18q-141 0 -231 92t-90 295zM272 1257q0 39 24.5 67t71.5 28t73 -28t26 -67t-25.5 -66.5t-73.5 -27.5 q-47 0 -71.5 27.5t-24.5 66.5zM665 1257q0 39 26 67t73 28t71.5 -28t24.5 -67t-24.5 -66.5t-71.5 -27.5t-73 27.5t-26 66.5z" />
<glyph unicode="&#xfd;" horiz-adv-x="1126" d="M152 387v602h147v-602q0 -121 52 -187.5t147 -66.5q55 0 103 17.5t88 45t73 63.5t57 75v655h152v-915q0 -246 -116 -366t-327 -120q-98 0 -190 28t-148 65l39 120q57 -35 131 -56t160 -21q72 0 127 17t94 58t58.5 108.5t19.5 168.5v119q-18 -33 -49 -67t-74 -62.5 t-97 -47t-120 -18.5q-152 0 -239.5 92t-87.5 295zM373 1180l297 254l84 -115l-334 -205z" />
<glyph unicode="&#xfe;" horiz-adv-x="1202" d="M160 -391v1771h151v-551q20 29 54 61t78 57.5t98.5 43t117.5 17.5q96 0 169 -40t121 -108.5t73 -160t25 -191.5q0 -131 -30 -229.5t-84 -165t-130 -99t-166 -32.5q-113 0 -199 56t-127 136v-565h-151zM311 471q0 -76 23.5 -140.5t64.5 -112.5t96.5 -74.5t118.5 -26.5 q55 0 106.5 20.5t90.5 66.5t62.5 120.5t23.5 183.5q0 184 -73.5 273t-190.5 89q-96 0 -180 -50t-142 -128v-221z" />
<glyph unicode="&#xff;" horiz-adv-x="1126" d="M152 387v602h147v-602q0 -121 52 -187.5t147 -66.5q55 0 103 17.5t88 45t73 63.5t57 75v655h152v-915q0 -246 -116 -366t-327 -120q-98 0 -190 28t-148 65l39 120q57 -35 131 -56t160 -21q72 0 127 17t94 58t58.5 108.5t19.5 168.5v119q-18 -33 -49 -67t-74 -62.5 t-97 -47t-120 -18.5q-152 0 -239.5 92t-87.5 295zM268 1257q0 39 24.5 67t71.5 28t73 -28t26 -67t-25.5 -66.5t-73.5 -27.5q-47 0 -71.5 27.5t-24.5 66.5zM661 1257q0 39 26 67t73 28t71.5 -28t24.5 -67t-24.5 -66.5t-71.5 -27.5t-73 27.5t-26 66.5z" />
<glyph unicode="&#x131;" horiz-adv-x="479" d="M164 0v989h151v-989h-151z" />
<glyph unicode="&#x141;" horiz-adv-x="1044" d="M45 535v141l123 53v651h156v-583l305 133v-142l-305 -133v-512h659v-143h-815v588z" />
<glyph unicode="&#x142;" horiz-adv-x="479" d="M51 535v141l111 47v657h151v-589l115 49v-142l-115 -49v-649h-151v582z" />
<glyph unicode="&#x152;" horiz-adv-x="2029" d="M92 690q0 152 36 282t109.5 225t186.5 148.5t264 53.5q76 0 136.5 -15.5t108.5 -42t84 -63.5t60 -78v180h838v-143h-682v-455h641v-141h-641v-500h694v-141h-850v178q-53 -84 -144 -140t-239 -56q-154 0 -267.5 53t-188 148.5t-110.5 225.5t-36 281zM248 690 q0 -270 111.5 -424.5t342.5 -154.5q66 0 123.5 19.5t105.5 52t85 75.5t61 92v277v420q-55 104 -155.5 162.5t-219.5 58.5q-231 0 -342.5 -155t-111.5 -423z" />
<glyph unicode="&#x153;" horiz-adv-x="1720" d="M88 496q0 109 27.5 202t84 162.5t142.5 108.5t205 39q129 0 208 -49.5t119 -120.5q53 78 141.5 124t217.5 46q197 0 294 -111t97 -301q0 -47 -6 -91t-16 -79h-668q14 -154 97 -239t243 -85q68 0 137.5 15.5t124.5 44.5q10 -29 18.5 -56.5t16.5 -56.5q-123 -68 -309 -67 q-135 0 -230.5 44t-154.5 128q-49 -78 -125 -125t-205 -47q-119 0 -205 38.5t-142.5 108.5t-84 164t-27.5 203zM238 496q0 -84 17 -157t55 -125t96.5 -82t140.5 -30q104 0 170.5 44t101.5 122q-16 47 -25.5 105.5t-9.5 122.5q0 121 31 219q-35 78 -99.5 124t-168.5 46 q-82 0 -140.5 -30t-96.5 -82t-55 -122.5t-17 -154.5zM932 539h549q0 14 1 28.5t1 28.5q0 141 -57.5 218t-192.5 77q-78 0 -133.5 -26.5t-91 -74t-54 -112t-22.5 -139.5z" />
<glyph unicode="&#x160;" horiz-adv-x="1081" d="M113 61l41 127q59 -29 143 -49t192 -20q74 0 136.5 14t107.5 44t70.5 77t25.5 113t-26.5 108.5t-72.5 73.5t-105.5 52.5t-124.5 41.5q-66 20 -133.5 49t-125 73t-93 109.5t-35.5 161.5q0 78 25.5 144.5t80.5 114.5t141 76t207 28q102 0 186.5 -19.5t151.5 -54.5l-41 -127 q-59 29 -137 46.5t-160 17.5q-162 0 -233.5 -62.5t-71.5 -161.5q0 -59 24.5 -100t66.5 -70.5t98.5 -52t119.5 -43.5q74 -25 147 -54.5t131 -75.5t94 -112.5t36 -164.5t-35 -170t-97.5 -119t-149.5 -70.5t-189 -23.5q-147 0 -238.5 22.5t-156.5 56.5zM250 1802h144l145 -182 l148 182h143l-238 -287h-104z" />
<glyph unicode="&#x161;" horiz-adv-x="886" d="M98 45l35 113q53 -25 125 -41.5t148 -16.5q125 0 178 46.5t53 111.5q0 82 -69.5 124t-170.5 71q-66 18 -120 42.5t-94 59.5t-61.5 82t-21.5 113q0 125 95.5 191.5t255.5 66.5q86 0 163.5 -16.5t137.5 -45.5l-35 -117q-55 27 -118.5 42.5t-135.5 15.5q-111 0 -164 -37 t-53 -98q0 -72 55 -109t148 -65q166 -51 250.5 -122t84.5 -200q0 -125 -90 -199.5t-282 -74.5q-94 0 -176 16t-138 47zM153 1401h144l145 -182l148 182h143l-238 -287h-104z" />
<glyph unicode="&#x178;" horiz-adv-x="1153" d="M33 1380h164l376 -663h5l374 663h166l-465 -796v-584h-155v584zM282 1658q0 39 24.5 67t71.5 28t73 -28t26 -67t-25.5 -66.5t-73.5 -27.5q-47 0 -71.5 27.5t-24.5 66.5zM675 1658q0 39 26 67t73 28t71.5 -28t24.5 -67t-24.5 -66.5t-71.5 -27.5t-73 27.5t-26 66.5z" />
<glyph unicode="&#x17d;" horiz-adv-x="1120" d="M90 0v109l731 1130h-680v141h873v-110l-729 -1129h741v-141h-936zM270 1802h144l145 -182l148 182h143l-238 -287h-104z" />
<glyph unicode="&#x17e;" horiz-adv-x="919" d="M86 0v88l541 778h-500v123h684v-88l-541 -778h559v-123h-743zM170 1401h144l145 -182l148 182h143l-238 -287h-104z" />
<glyph unicode="&#x192;" horiz-adv-x="1159" d="M74 -119q14 29 26.5 58.5t24.5 58.5q27 -12 55.5 -17.5t57.5 -5.5q90 0 126.5 62.5t53.5 177.5q16 127 33.5 252t33.5 250h-188v96h203q12 117 30.5 215t57.5 170t104.5 112t171.5 40q49 0 88 -11.5t68 -27.5q-14 -29 -27.5 -58.5t-25.5 -58.5q-27 12 -55.5 17.5 t-57.5 5.5q-92 0 -128 -62.5t-52 -179.5l-25 -162h258v-96h-270q-16 -125 -33.5 -250t-34.5 -250q-12 -84 -35.5 -152.5t-63.5 -117.5t-99.5 -77t-143.5 -28q-49 0 -87 11.5t-66 27.5z" />
<glyph unicode="&#x2c6;" horiz-adv-x="604" d="M12 1118l238 287h104l238 -287h-143l-148 182l-145 -182h-144z" />
<glyph unicode="&#x2c7;" horiz-adv-x="604" d="M12 1401h144l145 -182l148 182h143l-238 -287h-104z" />
<glyph unicode="&#x2d8;" horiz-adv-x="604" d="M12 1419h109q10 -68 57 -109.5t125 -41.5q76 0 124 42t58 109h105q-6 -55 -26.5 -102t-57.5 -83t-88 -56.5t-115 -20.5q-66 0 -117 20.5t-88 56.5t-58.5 83t-27.5 102z" />
<glyph unicode="&#x2d9;" horiz-adv-x="604" d="M195 1266q0 41 27.5 71.5t78.5 30.5t79 -30.5t28 -71.5q0 -43 -28 -74t-79 -31t-78.5 31t-27.5 74z" />
<glyph unicode="&#x2da;" horiz-adv-x="604" d="M113 1294q0 39 14 74t40 60.5t60.5 41t73.5 15.5t74 -15.5t60.5 -41t39.5 -60.5t14 -74t-14 -72.5t-39.5 -59t-60.5 -40t-74 -14.5t-73.5 14.5t-60.5 40t-40 59t-14 72.5zM203 1296q0 -47 28.5 -75.5t69.5 -28.5t70.5 28.5t29.5 75.5t-28.5 77t-71.5 30q-41 0 -69.5 -30 t-28.5 -77z" />
<glyph unicode="&#x2db;" horiz-adv-x="604" d="M248 4h96l160 -246h-164z" />
<glyph unicode="&#x2dc;" horiz-adv-x="604" d="M-4 1147q2 96 46 149.5t130 53.5q43 0 77 -15.5t62.5 -33t57 -33t59.5 -15.5q41 0 55.5 26t14.5 67h110q-2 -98 -48 -151.5t-126 -53.5q-47 0 -81 15t-62.5 33.5t-56 34t-58.5 15.5q-41 0 -57.5 -27.5t-16.5 -64.5h-106z" />
<glyph unicode="&#x2dd;" horiz-adv-x="604" d="M82 1130l170 279h164l-223 -279h-111zM401 1130l170 279h162l-221 -279h-111z" />
<glyph unicode="&#x3a9;" horiz-adv-x="1525" d="M143 784q0 139 43 253t123 194t194.5 124t258.5 44q143 0 258 -44t195.5 -124t123.5 -193.5t43 -253.5q0 -119 -34.5 -219t-85 -181t-108.5 -143.5t-105 -105.5h256v-135h-435v102q51 39 112.5 103.5t116 148.5t91.5 184.5t37 215.5q0 242 -124 371.5t-337 129.5 q-219 0 -344 -130t-125 -371q0 -115 37 -215.5t91 -184.5t115.5 -148.5t112.5 -103.5v-102h-434v135h256q-47 43 -104.5 105.5t-108.5 143.5t-85 181.5t-34 218.5z" />
<glyph unicode="&#x3c0;" horiz-adv-x="1216" d="M61 938q37 23 109 38t145 15h815v-125h-245v-610q0 -70 26.5 -112t85.5 -42q39 0 62.5 5.5t42.5 15.5l33 -103q-27 -16 -68 -25t-88 -9q-72 0 -118 22.5t-73.5 61.5t-39 91t-11.5 109v596h-274v-467q0 -49 -5 -106t-13.5 -112.5t-21.5 -103.5t-28 -77h-149q18 33 31.5 84 t20.5 106.5t11 110.5t4 98v467q-74 -2 -130 -15t-99 -34z" />
<glyph unicode="&#xe00;" horiz-adv-x="399" />
<glyph unicode="&#xe01;" horiz-adv-x="1230" d="M102 827q18 63 62.5 125t111 109t150.5 75.5t180 28.5q115 0 203 -32.5t146.5 -92t88 -140.5t29.5 -177v-723h-155v723q0 152 -80 230.5t-232 78.5q-121 0 -212 -54t-128 -140l166 -152q-117 -53 -117 -184v-502h-155v479q0 66 29.5 121t84.5 82z" />
<glyph unicode="&#xe02;" horiz-adv-x="1130" d="M137 367v159q0 59 32 110.5t71 97.5t70.5 89t31.5 84v54q0 53 -53 53h-139v133h153q104 0 145 -47t41 -129v-62q0 -57 -31.5 -106t-68.5 -95t-68.5 -91.5t-31.5 -90.5v-159q0 -125 62.5 -189.5t203.5 -64.5q135 0 198.5 57t63.5 213v764h156v-762q0 -199 -100.5 -301 t-317.5 -102t-317.5 105.5t-100.5 279.5z" />
<glyph unicode="&#xe03;" horiz-adv-x="1138" d="M74 1028v137q35 -20 70.5 -38.5t70.5 -36.5q20 33 57 50t78 17q84 0 124 -50t40 -138v-45q0 -66 -34 -119t-74.5 -99.5t-74.5 -90.5t-34 -91v-157q0 -125 62.5 -189.5t203.5 -64.5q135 0 198.5 57t63.5 213v764h156v-762q0 -199 -100.5 -301t-317.5 -102t-317.5 105.5 t-100.5 279.5v157q0 59 34 110.5t76 98.5t76 93t34 98v45q0 23 -11.5 39t-40.5 16t-49 -19.5t-33 -52.5q-39 20 -78.5 39t-78.5 37z" />
<glyph unicode="&#xe04;" horiz-adv-x="1263" d="M158 0v727q0 92 30.5 172t91 139.5t148.5 93t203 33.5t204 -33.5t149 -93t91 -139.5t31 -172v-727h-156v729q0 135 -79.5 219t-239.5 84t-239 -84t-79 -219v-260q29 63 90.5 107.5t151.5 44.5h141v-138h-141q-88 0 -150.5 -50t-91.5 -146v-287h-155z" />
<glyph unicode="&#xe05;" horiz-adv-x="1282" d="M160 0v795q0 154 66.5 247t207.5 123l207 -139l207 139q274 -59 274 -370v-795h-155v811q0 168 -125 209l-201 -121l-201 121q-125 -41 -125 -209v-342q29 63 90.5 107.5t153.5 44.5h141v-138h-141q-90 0 -152.5 -50t-91.5 -146v-287h-155z" />
<glyph unicode="&#xe06;" horiz-adv-x="1232" d="M70 1030v135l141 -75q20 33 57 50t78 17q84 0 124 -50t40 -136v-45q0 -70 -29.5 -125.5t-66.5 -104.5t-67 -93t-30 -91v-152q23 -49 59 -94t82 -78.5t100 -53t110 -19.5q135 0 193.5 80.5t58.5 230.5v721h155v-723q0 -209 -95 -325.5t-294 -116.5q-123 0 -215 52 t-154 146l-10 -180h-145v512q0 59 31.5 110.5t68.5 100.5t68.5 98t31.5 105v43q0 25 -12 40t-41 15q-57 0 -80 -72z" />
<glyph unicode="&#xe07;" horiz-adv-x="1136" d="M31 1147h153l310 -1014h30q70 0 134.5 32t113.5 93t79 149.5t30 200.5q0 115 -20.5 196t-56.5 131t-84 73.5t-104 23.5q-70 0 -127 -20l-22 123q31 16 76 23t82 7q90 0 165.5 -35.5t130 -105.5t84 -174.5t29.5 -241.5q0 -141 -42 -254.5t-112.5 -191.5t-163.5 -120 t-196 -42h-141z" />
<glyph unicode="&#xe08;" horiz-adv-x="1101" d="M37 1010q82 66 197.5 110.5t244.5 44.5t226.5 -37.5t163 -109.5t98 -174.5t32.5 -231.5q0 -135 -36.5 -246.5t-103 -193.5t-159 -127t-202.5 -45h-129l-115 473q-10 47 -55 47h-78v133h90q82 0 126 -31.5t62 -117.5l86 -371h29q63 0 122.5 32t105.5 92t74 150.5t28 206.5 q0 217 -93.5 317.5t-269.5 100.5q-121 0 -220 -41t-175 -102z" />
<glyph unicode="&#xe09;" horiz-adv-x="1202" d="M76 1012q92 66 212 109.5t271 43.5q121 0 212 -33.5t151.5 -96t91 -150.5t30.5 -197v-688h-145l-10 178q-27 -41 -60.5 -76.5t-76.5 -62.5t-98.5 -42t-127.5 -15q-166 0 -249.5 84t-83.5 262v145q0 47 -41 47h-66v131h104q72 0 113 -36.5t41 -120.5v-160q0 -115 49 -167 t166 -52q55 0 105.5 19.5t92.5 53t75.5 78.5t56.5 94v328q0 164 -82 254t-246 90q-129 0 -238.5 -40t-189.5 -97z" />
<glyph unicode="&#xe0a;" horiz-adv-x="1132" d="M137 369v157q0 59 33 111.5t71 98.5t70.5 88t32.5 85v52q0 53 -55 53h-139v133h155q102 0 144.5 -47t42.5 -129v-60q0 -57 -32 -107t-70 -96t-69.5 -90.5t-31.5 -91.5v-157q0 -127 63.5 -191.5t204.5 -64.5q66 0 115 13t80.5 45t48 84t16.5 130v213q0 88 -39 129t-100 41 h-41l-23 66l224 313h170l-230 -299q86 -14 141.5 -82t55.5 -166v-213q0 -201 -100.5 -303t-317.5 -102t-318.5 106.5t-101.5 280.5z" />
<glyph unicode="&#xe0b;" horiz-adv-x="1138" d="M74 1030v135l141 -75q20 33 57 50t78 17q84 0 124 -50t40 -136v-45q0 -66 -34 -119t-74.5 -100.5t-74.5 -90.5t-34 -90v-157q0 -127 62.5 -191.5t203.5 -64.5q66 0 115 13t82 45t49 84t16 130v213q0 88 -38.5 129t-100.5 41h-41l-22 66l221 313h170l-230 -299 q86 -14 141.5 -82t55.5 -166v-213q0 -201 -100.5 -303t-317.5 -102q-109 0 -187.5 27.5t-129.5 78.5t-76 123t-25 158v157q0 59 35 109.5t76 97.5t76 93t35 100v43q0 25 -12.5 40t-41.5 15q-57 0 -80 -72z" />
<glyph unicode="&#xe0c;" horiz-adv-x="1882" d="M102 827q18 63 61.5 125t107 109t143.5 75.5t172 28.5q111 0 193.5 -32.5t137 -92t82 -140.5t27.5 -177v-363q23 -51 57.5 -95t77.5 -77.5t91 -53t98 -19.5q119 0 169 79.5t50 221.5v731h155v-705q0 -106 -19 -191t-62.5 -145.5t-111 -92t-161.5 -31.5q-113 0 -198 52 t-144 144l-12 -178h-146v723q0 152 -71.5 230.5t-212.5 78.5q-109 0 -196 -54t-124 -140q41 -39 82 -76t84 -76q-117 -53 -117 -184v-316q0 -57 54 -57h110v-129h-149q-80 0 -125 48t-45 126v305q0 66 29.5 121t84.5 82q-43 35 -86 72t-86 73z" />
<glyph unicode="&#xe0d;" horiz-adv-x="1882" d="M102 827q18 63 61.5 125t107 109t143.5 75.5t172 28.5q111 0 192.5 -32.5t137 -92t82 -140.5t26.5 -177v-340q0 -115 52 -182.5t169 -67.5q115 0 195 64.5t125 150.5v799h155v-1018q0 -119 -31.5 -205t-90 -141t-140.5 -81t-180 -26q-117 0 -213 27t-154 64l39 120 q59 -35 138 -55t163 -20q74 0 131.5 13t98.5 48t62.5 97.5t21.5 160.5v68q-18 -37 -50 -73t-75 -63.5t-98.5 -45t-120.5 -17.5q-76 0 -140.5 22.5t-111.5 69.5t-74 120t-27 171v340q0 152 -70.5 230.5t-211.5 78.5q-109 0 -196 -54t-124 -140l166 -152q-117 -53 -117 -184 v-316q0 -57 54 -57h110v-129h-149q-80 0 -125 48t-45 126v305q0 59 29.5 116.5t84.5 86.5z" />
<glyph unicode="&#xe0e;" horiz-adv-x="1247" d="M66 0v129h84q29 0 40 14.5t11 40.5v285q0 63 30.5 118.5t83.5 82.5l-196 153q18 63 63 126t111.5 110t151.5 76.5t182 29.5q115 0 200.5 -32.5t144 -92t88.5 -140.5t30 -177v-1133h-191q-53 47 -122.5 82t-162.5 35q-100 0 -169.5 -30.5t-135.5 -84.5q-10 29 -20 60 t-21 61q57 53 138 90t192 37q98 0 190.5 -42t145.5 -99v1024q0 152 -79 230.5t-228 78.5q-123 0 -215.5 -56t-126.5 -140l190 -162q-119 -51 -119 -185v-317q0 -80 -46 -126t-124 -46h-120z" />
<glyph unicode="&#xe0f;" horiz-adv-x="1247" d="M66 0v129h84q29 0 40 14.5t11 40.5v285q0 63 30.5 118.5t83.5 82.5q-49 39 -97 76.5t-99 76.5q18 63 63 126t111.5 110t151.5 76.5t182 29.5q115 0 200.5 -32.5t144 -92t88.5 -140.5t30 -177v-1133h-150l-252 152q-33 -76 -103.5 -120t-148.5 -44q-76 0 -143.5 18.5 t-108.5 47.5q10 33 20.5 65.5t20.5 65.5q41 -29 97.5 -50.5t103.5 -21.5q86 0 147.5 58.5t79.5 146.5l281 -168v983q0 152 -79 230.5t-228 78.5q-123 0 -215.5 -56t-126.5 -140l145 -117l45 -45q-119 -51 -119 -185v-317q0 -80 -46 -126t-124 -46h-120z" />
<glyph unicode="&#xe10;" horiz-adv-x="1101" d="M37 1010q82 66 197.5 110.5t244.5 44.5q152 0 266 -63l109 125h176l-174 -207q72 -74 107.5 -177.5t35.5 -230.5q0 -135 -36.5 -246.5t-103 -193.5t-159 -127t-202.5 -45h-129l-115 473q-10 47 -55 47h-78v133h90q82 0 126 -31.5t62 -117.5l86 -371h29q63 0 122.5 32 t105.5 92t74 150.5t28 206.5q0 211 -93.5 314.5t-269.5 103.5q-121 0 -221 -41t-174 -102zM139 -274h146q66 0 115 30.5t85 77.5q39 -47 82 -77.5t113 -30.5h108v120h146v-256h-246q-70 0 -120 29t-83 72q-29 -45 -85 -73t-128 -28h-133v136z" />
<glyph unicode="&#xe11;" horiz-adv-x="1241" d="M86 1028v137q31 -20 62.5 -38.5t62.5 -36.5q20 33 57 50t80 17q66 0 103.5 -44t40.5 -103q45 61 118.5 108t175.5 47q63 0 117.5 -20.5t93.5 -64.5t61.5 -112.5t22.5 -162.5v-805h-155v803q0 133 -38 181t-108 48q-82 0 -165 -56t-149.5 -141t-108.5 -187.5t-42 -194.5 v-453h-153v449q0 76 19.5 142t49 122.5t64.5 102.5t67 83v70q0 23 -12 39t-41 16q-27 0 -48 -19.5t-32 -52.5z" />
<glyph unicode="&#xe12;" horiz-adv-x="2013" d="M104 571q0 123 31 224.5t85 178.5t129 125t165 66l164 -127l168 127q131 -27 201.5 -118t70.5 -240v-447q23 -49 58.5 -94t79.5 -78.5t96.5 -53t105.5 -19.5q129 0 185.5 80.5t56.5 230.5v721h155v-723q0 -209 -92 -325.5t-286 -116.5q-121 0 -209 52t-150 146l-10 -180 h-145v817q0 86 -32 135t-89 70l-164 -109l-156 107q-55 -12 -103 -47t-83 -91.5t-55.5 -134t-20.5 -174.5q0 -123 25.5 -208.5t68.5 -140t98.5 -79t114.5 -24.5q43 0 76 6t66 20l28 -122q-35 -16 -81 -26.5t-97 -10.5q-96 0 -179 33.5t-144.5 105.5t-96.5 181.5t-35 262.5z " />
<glyph unicode="&#xe13;" horiz-adv-x="1882" d="M102 827q18 63 61.5 125t107 109t143.5 75.5t172 28.5q111 0 192.5 -32.5t137 -92t82 -140.5t26.5 -177v-363q0 -113 48 -179t151 -66q57 0 108 19.5t96.5 53t80 77.5t57.5 95v787h155v-1147h-145l-12 178q-59 -92 -144.5 -144t-204.5 -52q-176 0 -261 101t-85 275v365 q0 152 -70.5 230.5t-211.5 78.5q-109 0 -196 -54t-124 -140l166 -152q-117 -53 -117 -184v-316q0 -57 54 -57h110v-129h-149q-80 0 -125 48t-45 126v305q0 66 29.5 121t84.5 82z" />
<glyph unicode="&#xe14;" horiz-adv-x="1269" d="M102 559q0 127 36 237.5t105.5 192.5t169 129t228.5 47q121 0 210 -37.5t147.5 -103.5t86 -153t27.5 -185v-686h-156v688q0 74 -18 137.5t-57 109.5t-97.5 71.5t-138.5 25.5q-96 0 -169 -33.5t-121 -96t-72.5 -149.5t-24.5 -194q0 -121 28.5 -204t74 -135t101.5 -75.5 t111 -23.5q43 0 75 6t63 18l28 -122q-35 -16 -79 -25.5t-95 -9.5q-90 0 -173 33.5t-147.5 104.5t-103.5 178.5t-39 254.5z" />
<glyph unicode="&#xe15;" horiz-adv-x="1296" d="M102 565q0 125 31 227.5t86 179.5t131 126t166 67q43 -33 86 -64.5t86 -62.5q45 31 88 63t88 64q129 -29 201 -119t72 -239v-807h-156v817q0 84 -31.5 133t-91.5 70l-170 -109q-41 29 -82 54.5t-82 52.5q-55 -12 -104 -47t-85 -91.5t-57.5 -135t-21.5 -179.5 q0 -121 27.5 -205t71.5 -137t100.5 -77.5t115.5 -24.5q43 0 75 6t65 20q8 -31 15 -61.5t13 -60.5q-35 -16 -80 -26.5t-98 -10.5q-94 0 -178 33.5t-146.5 104.5t-98.5 179.5t-36 259.5z" />
<glyph unicode="&#xe16;" horiz-adv-x="1234" d="M102 827q18 63 63.5 125t112 109t150.5 75.5t180 28.5q115 0 202 -32.5t146.5 -92t89 -140.5t29.5 -177v-723h-155v723q0 152 -80 230.5t-232 78.5q-121 0 -213 -54t-129 -140q41 -39 82 -76t84 -76q-117 -53 -117 -184v-316q0 -57 54 -57h110v-129h-149q-80 0 -125 48 t-45 126v305q0 66 29.5 121t84.5 82q-43 35 -86 72t-86 73z" />
<glyph unicode="&#xe17;" horiz-adv-x="1253" d="M162 0v1147h145l10 -180q35 39 79 74.5t96.5 63.5t112 44t126.5 16q180 0 272.5 -111.5t92.5 -310.5v-743h-156v743q0 150 -56.5 219.5t-160.5 69.5q-66 0 -126 -19.5t-112.5 -53t-95.5 -77.5t-72 -94v-788h-155z" />
<glyph unicode="&#xe18;" horiz-adv-x="1130" d="M98 872q0 131 116 214t335 83q125 0 230.5 -24.5t189.5 -65.5l-31 -125q-78 41 -176 63.5t-209 22.5q-160 0 -232.5 -47t-72.5 -121q0 -66 35.5 -95t95.5 -40l389 -57q129 -18 192.5 -83t63.5 -183v-101q0 -98 -25.5 -162.5t-81 -101.5t-142.5 -52t-210 -15t-210 17 t-142 58t-81 108.5t-26 166.5v119h150v-119q0 -66 16.5 -109t53 -67.5t95 -34.5t144.5 -10q88 0 147.5 8t95.5 29.5t51 61.5t15 103v103q0 61 -31.5 91t-90.5 40l-387 53q-123 16 -195 82t-72 190z" />
<glyph unicode="&#xe19;" horiz-adv-x="1232" d="M158 403v744h155v-741q0 -147 57.5 -219t192.5 -72q55 0 108.5 19.5t100.5 53t84 78.5t59 94v787h156v-1147h-145l-11 180q-61 -92 -156 -145t-231 -53q-186 0 -278 106.5t-92 314.5z" />
<glyph unicode="&#xe1a;" horiz-adv-x="1228" d="M158 418v729h155v-729q0 -141 73.5 -222t227.5 -81t227.5 80.5t73.5 222.5v729h156v-729q0 -211 -115.5 -323.5t-341.5 -112.5q-225 0 -340.5 112.5t-115.5 323.5z" />
<glyph unicode="&#xe1b;" horiz-adv-x="1228" d="M158 418v729h155v-729q0 -141 73.5 -222t227.5 -81t227.5 80.5t73.5 222.5v1118h156v-1118q0 -211 -115.5 -323.5t-341.5 -112.5q-225 0 -340.5 112.5t-115.5 323.5z" />
<glyph unicode="&#xe1c;" horiz-adv-x="1341" d="M162 0v973q0 78 46 127t126 47h127v-133h-90q-57 0 -58 -58v-475q0 -84 -4 -157.5t-14 -149.5h4q16 53 36.5 114.5t49.5 112.5l227 424h125l221 -426q27 -51 46.5 -106t37.5 -119h2q-10 76 -13 149.5t-3 157.5v666h152v-1147h-168l-275 543q-23 47 -39 93t-22 69h-4 q-4 -23 -20.5 -69t-41.5 -93l-280 -543h-168z" />
<glyph unicode="&#xe1d;" horiz-adv-x="1341" d="M162 0v973q0 78 46 127t126 47h127v-133h-90q-57 0 -58 -58v-475q0 -84 -4 -157.5t-14 -149.5h4q16 53 36.5 114.5t49.5 112.5l227 424h125l221 -426q27 -51 46.5 -106t37.5 -119h2q-10 76 -13 149.5t-3 157.5v1055h152v-1536h-168l-275 543q-23 47 -39 93t-22 69h-4 q-4 -23 -20.5 -69t-41.5 -93l-280 -543h-168z" />
<glyph unicode="&#xe1e;" horiz-adv-x="1433" d="M78 1147h158l108 -686q10 -59 18.5 -128t12.5 -171h4q14 100 30.5 169.5t34.5 127.5l207 631h131l207 -631q18 -57 34.5 -127t31.5 -170h4q4 102 12 170.5t19 128.5l108 686h158l-189 -1147h-172l-225 672q-18 53 -31.5 126.5t-19.5 133.5h-4q-6 -59 -19.5 -133 t-31.5 -127l-226 -672h-172q-47 289 -94 573.5t-94 573.5z" />
<glyph unicode="&#xe1f;" horiz-adv-x="1433" d="M78 1147h158l108 -686q10 -59 18.5 -128t12.5 -171h4q14 100 32.5 169.5t37.5 127.5l206 631h131l211 -631q18 -57 35 -127t31 -170h4q4 102 12 170.5t19 128.5l110 1075h158l-190 -1536h-172l-230 672q-18 53 -31.5 126.5t-19.5 133.5h-4q-6 -59 -19.5 -133t-31.5 -127 l-230 -672h-172q-47 289 -94 573.5t-94 573.5z" />
<glyph unicode="&#xe20;" horiz-adv-x="1247" d="M66 0v129h84q29 0 40 14.5t11 40.5v285q0 63 30.5 118.5t83.5 82.5l-196 153q18 63 63 126t111.5 110t151.5 76.5t182 29.5q115 0 200.5 -32.5t144 -92t88.5 -140.5t30 -177v-723h-156v723q0 152 -79 230.5t-228 78.5q-123 0 -215.5 -56t-126.5 -140l190 -162 q-119 -51 -119 -185v-317q0 -80 -46 -126t-124 -46h-120z" />
<glyph unicode="&#xe21;" horiz-adv-x="1232" d="M162 0v1147h155v-787q23 -49 59 -94t82 -78.5t100 -53t110 -19.5q135 0 193.5 80.5t58.5 230.5v721h155v-723q0 -209 -95 -325.5t-294 -116.5q-123 0 -215 52t-154 146l-10 -180h-145z" />
<glyph unicode="&#xe22;" horiz-adv-x="1181" d="M98 346q0 104 51.5 179t143.5 106q-86 23 -140.5 88t-54.5 176q0 113 75 188.5t210 75.5q55 0 100 -10t76 -25q-4 -33 -9 -64.5t-9 -64.5q-20 10 -57.5 20.5t-75.5 10.5q-80 0 -120 -42t-40 -107q0 -41 18.5 -74t47 -54.5t64.5 -32.5t71 -11h165q4 -35 7.5 -68t5.5 -68 h-152q-96 0 -160.5 -59t-64.5 -156q0 -61 25.5 -106t67.5 -75t97.5 -44t114.5 -14q160 0 236.5 78.5t76.5 228.5v725h156v-727q0 -100 -26.5 -181t-84 -138.5t-146.5 -88t-214 -30.5q-211 0 -333 93t-122 271z" />
<glyph unicode="&#xe23;" horiz-adv-x="1003" d="M96 866q0 141 111.5 220t304.5 79q98 0 190.5 -20.5t159.5 -54.5l-39 -121q-61 31 -135 48t-160 17q-137 0 -208.5 -47t-71.5 -121q0 -43 21.5 -73.5t57 -54t83 -41t100.5 -33.5q86 -27 159.5 -58t126 -72.5t82 -99t29.5 -135.5q0 -145 -105.5 -231t-328.5 -86 q-115 0 -211 21.5t-162 59.5l39 121q59 -33 145.5 -52t180.5 -19q143 0 217 55t74 135q0 49 -27 84t-70 61.5t-97 46t-109 35.5q-74 20 -138.5 47t-113.5 66t-77 92t-28 131z" />
<glyph unicode="&#xe24;" horiz-adv-x="1234" d="M102 827q18 63 63.5 125t112 109t150.5 75.5t180 28.5q115 0 202 -32.5t146.5 -92t89 -140.5t29.5 -177v-1133h-155v1133q0 152 -80 230.5t-232 78.5q-121 0 -213 -54t-129 -140q41 -39 82 -76t84 -76q-117 -53 -117 -184v-316q0 -57 54 -57h110v-129h-149q-80 0 -125 48 t-45 126v305q0 66 29.5 121t84.5 82q-43 35 -86 72t-86 73z" />
<glyph unicode="&#xe25;" horiz-adv-x="1171" d="M78 319q0 180 125 279.5t381 99.5h274v37q0 143 -66.5 222t-228.5 79q-119 0 -218 -34.5t-173 -86.5l-51 111q33 25 80 49.5t105.5 45t126 32.5t140.5 12q215 0 328 -114.5t113 -313.5v-737h-156v565h-291q-156 0 -246 -57t-90 -186q0 -109 67 -160t159 -51q47 0 93 9 t81 25l26 -127q-41 -16 -98 -26t-117 -10q-78 0 -144.5 20.5t-115.5 62t-76.5 105t-27.5 149.5z" />
<glyph unicode="&#xe26;" horiz-adv-x="1247" d="M66 0v129h84q29 0 40 14.5t11 40.5v285q0 63 30.5 118.5t83.5 82.5l-196 153q18 63 63 126t111.5 110t151.5 76.5t182 29.5q115 0 200.5 -32.5t144 -92t88.5 -140.5t30 -177v-1133h-156v1133q0 152 -79 230.5t-228 78.5q-123 0 -215.5 -56t-126.5 -140l190 -162 q-119 -51 -119 -185v-317q0 -80 -46 -126t-124 -46h-120z" />
<glyph unicode="&#xe27;" horiz-adv-x="1060" d="M74 1053q76 47 177 79.5t210 32.5q244 0 370.5 -154.5t126.5 -430.5q0 -295 -132 -446.5t-377 -151.5q-117 0 -207 27.5t-164 76.5l37 127q70 -43 153.5 -70.5t182.5 -27.5q162 0 257 110.5t95 343.5q0 236 -90 349.5t-262 113.5q-106 0 -187.5 -28.5t-152.5 -75.5z" />
<glyph unicode="&#xe28;" horiz-adv-x="1263" d="M158 0v727q0 92 30.5 172t91 139.5t148.5 93t203 33.5q74 0 136 -15t116 -44l102 121h178l-172 -201q55 -59 85 -136t30 -163v-727h-156v729q0 135 -79.5 219t-239.5 84t-239 -84t-79 -219v-260q29 63 90.5 107.5t151.5 44.5h141v-138h-141q-88 0 -150.5 -50t-91.5 -146 v-287h-155z" />
<glyph unicode="&#xe29;" horiz-adv-x="1257" d="M158 418v729h155v-729q0 -141 73.5 -222t227.5 -81t227.5 80.5t73.5 222.5v192h-272v133h272v404h156v-404h170l-35 -133h-135v-192q0 -211 -115.5 -323.5t-341.5 -112.5q-225 0 -340.5 112.5t-115.5 323.5z" />
<glyph unicode="&#xe2a;" horiz-adv-x="1171" d="M78 319q0 180 125 279.5t381 99.5h274v37q0 137 -66.5 219t-224.5 82q-123 0 -222 -34.5t-173 -86.5l-51 111q33 25 82 50.5t107.5 45t124 31.5t132.5 12q70 0 128.5 -13t105.5 -36l96 111h178l-164 -193q102 -113 103 -297v-737h-156v565h-291q-156 0 -246 -57t-90 -186 q0 -109 67 -160t159 -51q47 0 93 9t81 25l26 -127q-41 -16 -98 -26t-117 -10q-78 0 -144.5 20.5t-115.5 62t-76.5 105t-27.5 149.5z" />
<glyph unicode="&#xe2b;" horiz-adv-x="1183" d="M162 0v1147h155v-471l568 471h211l-400 -332q111 -16 173.5 -90t97.5 -190l155 -535h-164l-149 520q-59 197 -225 203l-267 -219v-504h-155z" />
<glyph unicode="&#xe2c;" horiz-adv-x="1341" d="M162 0v1147h151v-666q0 -84 -3 -157.5t-13 -149.5h2q18 63 37.5 118.5t46.5 106.5l221 426h125l227 -424q29 -51 49.5 -112.5t36.5 -114.5h5q-10 76 -14.5 149.5t-4.5 157.5v408q0 106 -37 149t-131 43h-31l-22 66l266 389h162l-270 -375q111 -12 163 -88t52 -182v-891 h-168l-281 543q-25 47 -41 93t-20 69h-4q-6 -23 -22.5 -69t-39.5 -93l-274 -543h-168z" />
<glyph unicode="&#xe2d;" horiz-adv-x="1200" d="M106 389v64q0 100 54.5 150t148.5 50h183v-133h-166q-29 0 -47.5 -19.5t-18.5 -54.5v-57q0 -274 318 -274q174 0 268 109.5t94 350.5q0 223 -96 340t-271 117q-129 0 -231 -38t-178 -95l-51 115q35 29 84 55.5t108.5 48t128 34.5t141.5 13q254 0 387.5 -159.5 t133.5 -438.5q0 -287 -130 -436t-386 -149q-240 0 -357 105.5t-117 301.5z" />
<glyph unicode="&#xe2e;" horiz-adv-x="1200" d="M106 389v64q0 100 54.5 150t148.5 50h183v-133h-166q-29 0 -47.5 -19.5t-18.5 -54.5v-57q0 -274 318 -274q174 0 268 109.5t94 350.5q0 223 -96 340t-271 117q-129 0 -231 -38t-178 -95l-51 115q35 29 84 55.5t108.5 48t128 34.5t141.5 13q68 0 126.5 -13t109.5 -36 l96 111h178l-159 -189q84 -78 127 -197.5t43 -273.5q0 -287 -130 -436t-386 -149q-240 0 -357 105.5t-117 301.5z" />
<glyph unicode="&#xe2f;" horiz-adv-x="1097" d="M78 1069v78h149v-80q0 -141 52.5 -211t166.5 -70q63 0 126 29t111 75t78 103.5t30 116.5v37h145v-1147h-156v864q-20 -43 -57 -79.5t-85 -63.5t-104.5 -42t-117.5 -15q-92 0 -156.5 29.5t-104.5 83.5t-58.5 128t-18.5 164z" />
<glyph unicode="&#xe30;" horiz-adv-x="606" d="M92 340v92h148v-76q0 -25 11 -36t40 -11h213v-127h-234q-82 0 -130 36t-48 122zM92 918v90h148v-74q0 -27 11 -38t40 -11h213v-127h-234q-82 0 -130 36.5t-48 123.5z" />
<glyph unicode="&#xe31;" d="M-580 1481v80h148v-62q0 -66 65 -65h490v-127h-508q-195 0 -195 174z" />
<glyph unicode="&#xe32;" horiz-adv-x="956" d="M20 1030q31 25 73 49.5t92.5 43t106.5 30.5t111 12q199 0 297.5 -110.5t98.5 -311.5v-743h-156v743q0 147 -62.5 218t-187.5 71q-98 0 -185 -35.5t-147 -83.5z" />
<glyph unicode="&#xe33;" horiz-adv-x="956" d="M-432 1468q0 41 15.5 77t41 62.5t60 42t75.5 15.5q82 0 139.5 -56.5t57.5 -140.5t-57.5 -139t-139.5 -55q-41 0 -75.5 14.5t-60 41t-41 62t-15.5 76.5zM-328 1470q0 -41 26.5 -67.5t61.5 -26.5q39 0 66 27t27 67q0 41 -27 67t-66 26q-35 0 -61.5 -26t-26.5 -67zM20 1030 q31 25 73 49.5t92.5 43t106.5 30.5t111 12q199 0 297.5 -110.5t98.5 -311.5v-743h-156v743q0 147 -62.5 218t-187.5 71q-98 0 -185 -35.5t-147 -83.5z" />
<glyph unicode="&#xe34;" d="M-1028 1307v127h870v-127h-870z" />
<glyph unicode="&#xe35;" d="M-1028 1307v127h723v192h147v-319h-870z" />
<glyph unicode="&#xe36;" d="M-1026 1307v127h577q-10 20 -10 45q0 74 50.5 125t121.5 51q72 0 123 -51.5t51 -124.5q0 -37 -13 -69t-36.5 -54.5t-55.5 -35.5t-69 -13h-739zM-358 1481q0 -31 21 -52.5t50 -21.5q31 0 51.5 21.5t20.5 52.5q0 33 -20.5 53t-51.5 20q-29 0 -50 -20.5t-21 -52.5z" />
<glyph unicode="&#xe37;" d="M-1028 1307v127h504v192h129v-196h106v196h131v-319h-870z" />
<glyph unicode="&#xe38;" d="M-430 -147h117q80 0 117.5 -38t37.5 -126v-209h-151v198q0 45 -45 46h-76v129z" />
<glyph unicode="&#xe39;" d="M-770 -145h252v-150q0 -76 22.5 -105.5t83.5 -29.5t84 29.5t23 105.5v150h147v-189q0 -100 -64.5 -154.5t-189.5 -54.5t-188.5 54.5t-63.5 154.5v62h-106v127z" />
<glyph unicode="&#xe3a;" d="M-365 -252q0 49 37 86t86 37q53 0 89 -37t36 -86q0 -47 -35.5 -83t-89.5 -36q-49 0 -86 36t-37 83z" />
<glyph unicode="&#xe3f;" horiz-adv-x="1159" d="M158 0v1331h401v205h105v-207q180 -14 273 -106.5t93 -241.5q0 -59 -19.5 -106.5t-50 -82t-68.5 -58t-75 -36.5q49 -8 98.5 -30.5t87 -60.5t61 -93t23.5 -129q0 -164 -104 -267.5t-319 -115.5v-207h-105v205h-401zM307 135h252v486h-252v-486zM307 756h252v440h-252v-440 zM664 137q133 10 203.5 73.5t70.5 174.5q0 121 -75 172t-199 61v-481zM664 758q92 14 154.5 69.5t62.5 159.5q0 94 -58.5 144.5t-158.5 60.5v-434z" />
<glyph unicode="&#xe40;" horiz-adv-x="483" d="M164 0v1147h155v-1147h-155z" />
<glyph unicode="&#xe41;" horiz-adv-x="880" d="M164 0v1147h151v-1147h-151zM565 0v1147h152v-1147h-152z" />
<glyph unicode="&#xe42;" horiz-adv-x="546" d="M-16 1683q66 115 191.5 173.5t277.5 58.5q61 0 108 -4t86 -12.5t72 -17.5t61 -21l-26 -136q-57 31 -134 45.5t-153 14.5q-100 0 -182 -26.5t-127 -80.5q106 -59 160.5 -176t54.5 -258v-1243h-156v1260q0 92 -28.5 161.5t-66.5 116.5t-76 73.5t-58 37.5z" />
<glyph unicode="&#xe43;" horiz-adv-x="546" d="M-68 1747q51 70 152.5 119t216.5 49q80 0 140.5 -22.5t101.5 -61.5t62.5 -92t21.5 -113q0 -78 -40 -141.5t-87 -126t-87 -131t-40 -156.5v-1071h-156v1110q0 86 39 154.5t85 128t85 116t39 117.5q0 66 -41 110t-133 44q-78 0 -160 -35t-149 -107z" />
<glyph unicode="&#xe44;" horiz-adv-x="546" d="M-121 1757v129h701v-110q-98 -47 -152.5 -138.5t-54.5 -220.5v-1417h-156v1378q0 123 43 219.5t123 159.5h-504z" />
<glyph unicode="&#xe45;" horiz-adv-x="956" d="M20 1030q31 25 73 49.5t92.5 43t106.5 30.5t111 12q199 0 297.5 -110.5t98.5 -311.5v-1153h-156v1153q0 147 -62.5 218t-187.5 71q-98 0 -185 -35.5t-147 -83.5z" />
<glyph unicode="&#xe46;" horiz-adv-x="1138" d="M102 899q0 57 22.5 103.5t61.5 81t89.5 56t103.5 29.5l162 -125l166 125q135 -10 202.5 -102t67.5 -225v-1252h-156v1264q0 78 -27.5 126t-80.5 58l-170 -120l-174 120q-59 -10 -95 -47t-36 -92q0 -68 37.5 -103.5t103.5 -35.5q16 0 31.5 2t31.5 6l19 -117 q-23 -8 -49.5 -11t-49.5 -3q-49 0 -95 14.5t-83 46t-59.5 81.5t-22.5 120z" />
<glyph unicode="&#xe47;" d="M-893 1505q0 41 14.5 81t44 71t74.5 49t109 18h422v-118h-416q-55 0 -80 -31t-25 -72q0 -39 25 -64.5t70 -25.5q39 0 63.5 25.5t32.5 56.5h92q16 -61 98 -61h140v-127h-131q-49 0 -90.5 25.5t-59.5 70.5q-14 -45 -57 -75t-111 -30q-51 0 -91 17.5t-67.5 46.5t-42 65.5 t-14.5 77.5z" />
<glyph unicode="&#xe48;" d="M-303 1729v268h145v-268h-145z" />
<glyph unicode="&#xe49;" d="M-545 1903v122h166q53 0 75.5 -27.5t22.5 -82.5v-35q0 -29 29 -29h272v-122h-346q-45 0 -66.5 27.5t-21.5 74.5v37q0 16 -5 25.5t-25 9.5h-101z" />
<glyph unicode="&#xe4a;" d="M-674 1829q0 59 43 110.5t127 61.5l101 -86l94 88q76 -4 113.5 -45t37.5 -107v-19t-2 -20q41 18 56.5 56.5t15.5 91.5q0 47 -21 88h142q4 -16 10 -35.5t6 -54.5q0 -41 -15.5 -82t-46 -74t-74.5 -53t-101 -20h-74l-12 30q18 23 18 53q0 29 -16.5 46.5t-38.5 21.5l-95 -70 l-92 66q-20 -2 -32.5 -21.5t-12.5 -42.5q0 -18 4 -38.5t17 -49.5h-135q-10 27 -13.5 54.5t-3.5 50.5z" />
<glyph unicode="&#xe4b;" d="M-440 1855v109l147 -4l-4 131h135l-4 -131l148 4v-109l-148 5l4 -131h-135l4 131z" />
<glyph unicode="&#xe4c;" d="M-428 1550v64q0 82 50 131t149 49h186v-127h-154q-80 0 -79 -74v-43h-152z" />
<glyph unicode="&#xe4d;" d="M-432 1468q0 41 15.5 77t41 62.5t60 42t75.5 15.5q82 0 139.5 -56.5t57.5 -140.5t-57.5 -139t-139.5 -55q-41 0 -75.5 14.5t-60 41t-41 62t-15.5 76.5zM-328 1470q0 -41 26.5 -67.5t61.5 -26.5q39 0 66 27t27 67q0 41 -27 67t-66 26q-35 0 -61.5 -26t-26.5 -67z" />
<glyph unicode="&#xe4e;" d="M-631 1475q0 37 12.5 68.5t39 54t67.5 32.5t96 4q-29 33 -28 74q0 39 34.5 69.5t106.5 30.5h115l26 -102h-112q-23 0 -35.5 -13.5t-12.5 -29.5q0 -39 52 -64l-29 -75q-29 8 -56.5 12t-58.5 4q-86 0 -86 -65q0 -31 24.5 -49.5t69.5 -18.5q23 0 45.5 2t49.5 12v-90 q-25 -14 -51.5 -20t-63.5 -6q-39 0 -76 10t-65.5 30.5t-46 52.5t-17.5 77z" />
<glyph unicode="&#xe4f;" horiz-adv-x="1118" d="M123 492q0 90 33.5 169.5t93 139t139.5 93.5t170 34t170 -34t139.5 -93.5t93 -139t33.5 -169.5t-33.5 -170t-93 -139.5t-139.5 -94.5t-170 -35t-170 35t-139.5 94.5t-93 139t-33.5 170.5zM186 492q0 -78 30 -145.5t80 -119t117.5 -80t145.5 -28.5t145.5 28.5t118.5 80 t80 119t29 145.5q0 76 -29 144.5t-80 118.5t-118.5 79.5t-145.5 29.5t-145.5 -29.5t-117.5 -79.5t-80 -119t-30 -144zM309 489q0 53 19.5 98.5t53.5 79t79 53t96 19.5t97 -19.5t80 -53t53.5 -78.5t19.5 -96q0 -53 -19.5 -98.5t-53.5 -78t-79 -52t-96 -19.5q-53 0 -98 19.5 t-79 53t-53.5 77.5t-19.5 95zM408 489q0 -59 44 -104t107 -45q61 0 104.5 43t43.5 109q0 59 -43 103t-107 44q-59 0 -104 -44t-45 -106z" />
<glyph unicode="&#xe50;" horiz-adv-x="1300" d="M102 496q0 119 43 214t118 160.5t174 101.5t214 36q113 0 212.5 -36t174 -101.5t117.5 -161t43 -213.5q0 -119 -43 -214.5t-117.5 -162t-175 -102t-213.5 -35.5t-212 35.5t-174 102t-118 162t-43 214.5zM252 496q0 -90 31.5 -162t85 -121t126 -75.5t154.5 -26.5t156 26.5 t127 75.5t85 121t32 162t-32 160.5t-85 119.5t-127 76t-156 27t-154.5 -27t-126 -76t-85 -119.5t-31.5 -160.5z" />
<glyph unicode="&#xe51;" horiz-adv-x="1310" d="M96 510q0 109 40 200t111.5 157.5t172 103.5t221.5 37q133 0 238.5 -45t178 -125t111.5 -190.5t39 -241.5q0 -145 -48 -263t-131 -201t-192.5 -128t-234.5 -45h-65l14 125h63q80 0 159 31.5t141.5 94t102.5 157.5t40 224q0 106 -29 194.5t-82 151t-131 97.5t-178 35 q-88 0 -161 -28t-125 -78t-81.5 -117.5t-29.5 -147.5q0 -74 21.5 -132.5t60 -97t90 -59t112.5 -20.5q43 0 88 10t80 24q2 -29 5 -60.5t5 -59.5q-41 -23 -86 -33t-94 -10q-86 0 -163.5 28.5t-136 84t-92.5 137t-34 190.5z" />
<glyph unicode="&#xe52;" horiz-adv-x="1525" d="M154 391v756h151v-756q0 -135 66.5 -198.5t177.5 -63.5h432q111 0 178.5 63.5t67.5 198.5v260q0 109 -36 159t-110 58l-172 -135l-184 137q-59 -10 -90 -62t-31 -110q0 -78 50.5 -126t121.5 -70l-41 -115q-123 23 -196.5 102.5t-73.5 204.5q0 135 72.5 215t193.5 99 l178 -150l162 150q162 -16 233.5 -107.5t71.5 -255.5v-254q0 -86 -24.5 -157.5t-73.5 -124t-121 -81t-166 -28.5h-452q-94 0 -166 28.5t-121 81t-73.5 124t-24.5 157.5z" />
<glyph unicode="&#xe53;" horiz-adv-x="1347" d="M119 492q0 113 21.5 207t63.5 162.5t105.5 107.5t147.5 39q96 0 149 -41t78 -107q31 66 86 107t150 41q72 0 125 -25t86.5 -70t50 -105t16.5 -130v-678h-149v680q0 37 -4.5 71.5t-18.5 62.5t-41 45.5t-72 17.5q-86 0 -123.5 -54.5t-37.5 -146.5v-301h-138v301 q0 92 -30.5 146.5t-110.5 54.5q-55 0 -94 -29t-63.5 -80t-36 -122t-11.5 -152q0 -182 55.5 -283.5t147.5 -101.5q53 0 100 20l31 -104q-55 -37 -137 -37q-78 0 -142.5 35.5t-109.5 102.5t-69.5 159t-24.5 207z" />
<glyph unicode="&#xe54;" horiz-adv-x="1239" d="M102 485q0 123 42 217.5t115 158t172 96t216 32.5h223q106 0 142.5 36t36.5 95v27h149v-27q0 -127 -75.5 -193.5t-229.5 -66.5h-244q-88 0 -160.5 -21.5t-125 -67.5t-82 -115.5t-29.5 -166.5q0 -88 23.5 -158.5t63.5 -119.5t94 -75.5t116 -26.5q63 0 104 18t72 53 q-23 35 -35 77t-12 89q0 123 72.5 190.5t179.5 67.5h135l-27 -125h-80q-59 0 -97 -41t-38 -110q0 -98 63.5 -150.5t182.5 -52.5h109l-27 -125h-100q-96 0 -158 19.5t-113 72.5q-37 -47 -96 -78.5t-168 -31.5q-90 0 -166 34.5t-131 100t-86 159t-31 209.5z" />
<glyph unicode="&#xe55;" horiz-adv-x="1239" d="M100 485q0 184 88 301t234 166q-25 39 -25 92q0 37 13.5 71t38 59.5t58.5 41t73 15.5t72.5 -14.5t58 -40t39 -59.5t14.5 -73q0 -29 -10 -55h114q106 0 142.5 36t36.5 95v27h149v-27q0 -129 -76 -195.5t-227 -66.5h-246q-88 0 -160.5 -21.5t-125 -67.5t-82 -115.5 t-29.5 -164.5q0 -88 23.5 -158.5t64.5 -120.5t94 -77t115 -27q63 0 104 19.5t74 52.5q-47 70 -47 168q0 123 72.5 190.5t179.5 67.5h135l-29 -125h-78q-59 0 -98 -42t-39 -109q0 -100 63.5 -151.5t184.5 -51.5h109l-27 -125h-100q-96 0 -159 18.5t-112 71.5 q-39 -47 -98 -77.5t-166 -30.5q-90 0 -166 34.5t-131 100t-87 159t-32 209.5zM502 1047q0 -35 22.5 -58.5t55.5 -23.5q35 0 57 23.5t22 58.5t-22.5 58t-56.5 23q-33 0 -55.5 -23.5t-22.5 -57.5z" />
<glyph unicode="&#xe56;" horiz-adv-x="1255" d="M27 1165h149l107 -325q63 76 159.5 122t216.5 46q104 0 195.5 -37t157 -104.5t103.5 -161t38 -203.5q0 -104 -30.5 -198.5t-96 -166t-168 -113.5t-246.5 -42q-111 0 -197.5 27.5t-147 76.5t-92.5 117.5t-32 148.5q0 61 23.5 115.5t56.5 87.5l113 -82q-23 -23 -36 -60.5 t-13 -70.5q0 -43 20.5 -85t61.5 -73.5t101 -52t140 -20.5q100 0 174 29.5t123 81.5t73 125t24 159q0 82 -26 151.5t-72 119.5t-111.5 78t-145.5 28q-131 0 -210 -48.5t-132 -123.5h-123z" />
<glyph unicode="&#xe57;" horiz-adv-x="1640" d="M119 492q0 113 22.5 207t65.5 162.5t104.5 107.5t141.5 39q86 0 129 -37t61 -103q29 66 83 103t140 37q57 0 101.5 -25t73 -70t44 -105t15.5 -130v-559h51q84 0 135 54t51 163v811h150v-789q0 -160 -84 -259t-254 -99h-197v680q0 37 -3 71.5t-15 62.5t-36 45.5t-64 17.5 q-59 0 -93 -44.5t-34 -111.5v-107h-132v107q0 66 -22.5 111t-87.5 45q-53 0 -90 -29t-60.5 -80t-35 -122t-11.5 -152q0 -182 58.5 -283.5t144.5 -101.5q55 0 100 20l31 -104q-29 -20 -62.5 -28.5t-74.5 -8.5q-78 0 -142.5 35.5t-109.5 102.5t-69.5 159t-24.5 207z" />
<glyph unicode="&#xe58;" horiz-adv-x="1294" d="M143 317v261q0 84 32 158.5t90.5 131t141 89t185.5 32.5h258q106 0 142 36t36 95v27h150v-27q0 -129 -76 -195.5t-230 -66.5h-268q-154 0 -232.5 -81t-78.5 -212v-243q0 -80 47 -136.5t119 -58.5l227 223l244 -219q70 20 107.5 76.5t37.5 132.5q0 84 -49 137t-121 66 l49 114q57 -6 105.5 -35.5t83.5 -74.5t55.5 -100.5t20.5 -112.5q0 -70 -27 -130.5t-71 -106.5t-100 -74.5t-114 -30.5l-221 203l-192 -203q-156 4 -253.5 87t-97.5 238z" />
<glyph unicode="&#xe59;" horiz-adv-x="1261" d="M92 496q0 113 27.5 207t77 161.5t118 105.5t148.5 38q57 0 99 -12.5t74 -34t53.5 -50t39.5 -61.5q0 80 45 119t111 39q68 0 110.5 -34t65.5 -87l47 260h133l-78 -410h-110q-16 61 -49 106.5t-86 45.5q-59 0 -90 -47t-31 -107l252 -735h-146l-244 696q-29 80 -68.5 130.5 t-119.5 50.5q-53 0 -95 -28t-72 -79t-46 -120.5t-16 -151.5q0 -92 18.5 -165t49 -124t70.5 -79t83 -28q27 0 60.5 9.5t60.5 25.5l30 -104q-33 -23 -72.5 -36t-84.5 -13q-74 0 -140.5 33.5t-116.5 99t-79 161t-29 218.5z" />
<glyph unicode="&#xe5b;" horiz-adv-x="2324" d="M127 590q0 98 30.5 181t86 144.5t135.5 95t178 33.5q82 0 149.5 -31.5t115.5 -85t75 -121t31 -140.5h-123q-10 111 -75.5 186.5t-176.5 75.5q-72 0 -127 -29t-92 -76t-56.5 -108.5t-19.5 -124.5q0 -80 28.5 -146.5t78 -113.5t117 -74t145.5 -27q131 0 225 65.5t157.5 164 t96.5 215.5t39 221h82l153 -455l117 412h82l133 -389l105 344h65q23 -156 83 -249t163 -93q59 0 115 20l36 -94q-49 -16 -91 -23.5t-79 -7.5q-92 0 -157.5 53.5t-108.5 151.5l-92 -313h-68l-141 391l-127 -428h-72l-131 387q-29 -102 -83 -193.5t-129.5 -159t-171 -106.5 t-201.5 -39q-109 0 -200 37t-157.5 102.5t-104.5 154.5t-38 192z" />
<glyph unicode="&#x2000;" horiz-adv-x="1045" />
<glyph unicode="&#x2001;" horiz-adv-x="2091" />
<glyph unicode="&#x2002;" horiz-adv-x="1045" />
<glyph unicode="&#x2003;" horiz-adv-x="2091" />
<glyph unicode="&#x2004;" horiz-adv-x="697" />
<glyph unicode="&#x2005;" horiz-adv-x="522" />
<glyph unicode="&#x2006;" horiz-adv-x="348" />
<glyph unicode="&#x2007;" horiz-adv-x="348" />
<glyph unicode="&#x2008;" horiz-adv-x="261" />
<glyph unicode="&#x2009;" horiz-adv-x="418" />
<glyph unicode="&#x200a;" horiz-adv-x="116" />
<glyph unicode="&#x2010;" horiz-adv-x="647" d="M61 496v122h525v-122h-525z" />
<glyph unicode="&#x2011;" horiz-adv-x="647" d="M61 496v122h525v-122h-525z" />
<glyph unicode="&#x2012;" horiz-adv-x="647" d="M61 496v122h525v-122h-525z" />
<glyph unicode="&#x2013;" horiz-adv-x="1048" d="M66 469v109h917v-109h-917z" />
<glyph unicode="&#x2014;" horiz-adv-x="2025" d="M147 469v109h1731v-109h-1731z" />
<glyph unicode="&#x2018;" horiz-adv-x="425" d="M123 1044q0 39 10 87.5t27.5 97.5t40 94t45.5 80l59 -12q-16 -29 -30.5 -64t-24.5 -68.5t-15.5 -64.5t-5.5 -51q0 -31 21 -31q78 0 78 -90q0 -43 -26 -68.5t-75 -25.5t-76.5 28.5t-27.5 87.5z" />
<glyph unicode="&#x2019;" horiz-adv-x="423" d="M98 1309q0 41 24.5 68.5t74.5 27.5q49 0 76.5 -29.5t27.5 -89.5v-8q-2 -39 -13.5 -86t-27.5 -94t-37.5 -92t-42.5 -78q-16 4 -30.5 7t-30.5 7q31 57 53.5 128t22.5 114q0 35 -21 35q-76 0 -76 90z" />
<glyph unicode="&#x201a;" horiz-adv-x="423" d="M98 139q0 43 24.5 68.5t74.5 25.5q49 0 76.5 -28.5t27.5 -87.5v-11q-2 -39 -13.5 -85t-27.5 -94t-37.5 -91t-42.5 -76l-61 13q14 29 28.5 62.5t24.5 66t16.5 62.5t6.5 50q0 35 -21 35q-76 0 -76 90z" />
<glyph unicode="&#x201c;" horiz-adv-x="743" d="M123 1042q0 39 10 87.5t27.5 97.5t39 94t44.5 80l61 -12q-16 -29 -30.5 -64t-24.5 -68.5t-15.5 -64.5t-5.5 -51q0 -31 21 -31q76 0 76 -90q0 -43 -25 -68.5t-74 -25.5t-76.5 28.5t-27.5 87.5zM442 1042q0 39 10.5 87.5t28 97.5t39 94t43.5 80l62 -12q-16 -29 -30.5 -64 t-25 -68.5t-16.5 -64.5t-6 -51q0 -31 22 -31q76 0 76 -90q0 -43 -25.5 -68.5t-74.5 -25.5q-102 0 -103 116z" />
<glyph unicode="&#x201d;" horiz-adv-x="743" d="M98 1309q0 41 24.5 68.5t74.5 27.5q49 0 76.5 -29.5t27.5 -89.5v-8q-2 -39 -13.5 -86t-27.5 -94t-37.5 -92t-42.5 -78q-16 4 -30.5 7t-30.5 7q31 57 53.5 128t22.5 114q0 35 -21 35q-76 0 -76 90zM416 1309q0 41 26.5 68.5t73.5 27.5q49 0 77 -29.5t28 -89.5 q0 -37 -11.5 -85t-29 -97t-39 -96t-43.5 -80l-62 14q16 29 30.5 63.5t25 68.5t16.5 63.5t6 52.5q0 29 -22 29q-76 0 -76 90z" />
<glyph unicode="&#x201e;" horiz-adv-x="743" d="M98 139q0 43 24.5 68.5t74.5 25.5q49 0 76.5 -28.5t27.5 -87.5v-11q-2 -39 -13.5 -85t-27.5 -94t-37.5 -91t-42.5 -76l-61 13q14 29 28.5 62.5t24.5 66t16.5 62.5t6.5 50q0 35 -21 35q-76 0 -76 90zM416 139q0 43 25.5 68.5t74.5 25.5t77 -28.5t28 -87.5q0 -39 -10.5 -87 t-28 -97.5t-40 -94.5t-44.5 -78l-62 13q33 59 55.5 131.5t22.5 113.5q0 31 -22 31q-76 0 -76 90z" />
<glyph unicode="&#x2020;" horiz-adv-x="1101" d="M127 864v119h350v397h148v-397h350v-119h-350v-864h-148v864h-350z" />
<glyph unicode="&#x2021;" horiz-adv-x="1101" d="M127 295v119h350v450h-350v119h350v397h148v-397h350v-119h-350v-450h350v-119h-350v-397h-148v397h-350z" />
<glyph unicode="&#x2022;" horiz-adv-x="626" d="M106 705q0 86 51.5 145t155.5 59t155.5 -59t51.5 -141q0 -84 -52 -145.5t-157 -61.5q-102 0 -153.5 59.5t-51.5 143.5z" />
<glyph unicode="&#x2026;" horiz-adv-x="1449" d="M127 94q0 47 28.5 80t86.5 33q55 0 84.5 -33t29.5 -80t-29.5 -79.5t-84.5 -32.5q-57 0 -86 32.5t-29 79.5zM610 94q0 47 29 80t86 33q55 0 85 -33t30 -80t-30 -79.5t-85 -32.5q-57 0 -86 32.5t-29 79.5zM1094 94q0 47 28.5 80t85.5 33q55 0 85 -33t30 -80t-29.5 -79.5 t-85.5 -32.5q-57 0 -85.5 32.5t-28.5 79.5z" />
<glyph unicode="&#x202f;" horiz-adv-x="418" />
<glyph unicode="&#x2030;" horiz-adv-x="2287" d="M90 991q0 72 18.5 136.5t55.5 113.5t90 79t123 30t123 -30t90 -79t55.5 -113.5t18.5 -136.5t-18.5 -136t-55.5 -113.5t-90.5 -79t-122.5 -29.5q-70 0 -123 29.5t-90 79t-55.5 113.5t-18.5 136zM215 991q0 -49 9 -96t28.5 -83t50.5 -57.5t74 -21.5t74.5 21.5t51 57.5 t29 82t9.5 95t-9.5 96.5t-29 84t-51 58t-74.5 21.5t-74 -22.5t-50.5 -58t-28.5 -82t-9 -95.5zM346 0l750 1352h129l-750 -1352h-129zM907 340q0 72 18.5 136.5t55.5 113.5t90 78.5t123 29.5t124 -29.5t91 -78.5t55.5 -113.5t18.5 -136.5t-18.5 -136.5t-55.5 -113.5 t-91 -78.5t-124 -29.5t-123 29.5t-90 78.5t-55.5 113.5t-18.5 136.5zM1032 340q0 -49 9.5 -96t29 -83t50 -57.5t73.5 -21.5t74.5 21.5t51 57.5t29 82t9.5 95t-9.5 96t-29 84t-51 58.5t-74.5 21.5t-73.5 -22.5t-50 -58.5t-29 -82t-9.5 -95zM1624 340q0 72 18.5 136.5 t55.5 113.5t90 78.5t123 29.5t123 -29.5t90 -78.5t55.5 -113.5t18.5 -136.5t-18.5 -136.5t-55.5 -113.5t-90.5 -78.5t-122.5 -29.5q-70 0 -123 29.5t-90 78.5t-55.5 113.5t-18.5 136.5zM1747 340q0 -49 9 -96t28.5 -83t51.5 -57.5t75 -21.5t73.5 21.5t51 57.5t30 82t9.5 95 t-9.5 96t-30 84t-51 58.5t-73.5 21.5t-75 -22.5t-51.5 -58.5t-28.5 -82t-9 -95z" />
<glyph unicode="&#x2039;" horiz-adv-x="559" d="M82 496l266 366h125l-264 -366l264 -369h-125q-68 92 -134.5 184t-131.5 185z" />
<glyph unicode="&#x203a;" horiz-adv-x="557" d="M84 127l264 369l-264 366h125l266 -366l-266 -369h-125z" />
<glyph unicode="&#x2044;" horiz-adv-x="878" d="M-14 0l749 1352h127l-749 -1352h-127z" />
<glyph unicode="&#x205f;" horiz-adv-x="522" />
<glyph unicode="&#x20ac;" horiz-adv-x="1157" d="M92 498q12 47 29 92h133q-4 25 -4 49.5v50.5q0 18 1 38t3 42h-162l29 92h143q18 115 61.5 213.5t110 170t153.5 112.5t195 41q100 0 165 -30t118 -77q-10 -33 -20.5 -64.5t-20.5 -62.5q-45 43 -102.5 67.5t-128.5 24.5q-156 0 -251 -107.5t-126 -287.5h465 q-8 -23 -14.5 -46t-14.5 -46h-446q-2 -20 -2 -39.5v-40.5v-52.5t4 -47.5h473q-8 -23 -14.5 -46.5t-14.5 -45.5h-430q35 -176 134 -276.5t247 -100.5q72 0 131 24.5t106 67.5q10 -31 20.5 -62.5t20.5 -64.5q-53 -49 -118.5 -76.5t-169.5 -27.5t-191.5 37.5t-155 106.5 t-114.5 163t-68 209h-174z" />
<glyph unicode="&#x2113;" horiz-adv-x="806" d="M25 365q55 33 108 69.5t105 81.5v455q0 229 69.5 341.5t194.5 112.5q106 0 172.5 -76.5t66.5 -234.5q0 -193 -88 -349.5t-264 -285.5v-166q0 -111 27.5 -154.5t101.5 -43.5q59 0 107 20l37 -117q-27 -14 -64 -24t-84 -10q-156 0 -216 79.5t-60 251.5v78 q-35 -27 -77 -52.5t-85 -53.5zM389 618q117 100 162 224.5t45 271.5q0 111 -24.5 156t-67.5 45q-29 0 -50.5 -16.5t-36 -56.5t-21.5 -106.5t-7 -164.5v-353z" />
<glyph unicode="&#x2122;" horiz-adv-x="1585" d="M41 1286v94h575v-94l-235 2v-684h-109v684zM745 604v776h132l184 -422q12 -29 26.5 -63.5t24.5 -69.5h4q10 35 24.5 70t26.5 63l185 422h131v-776h-109v471q0 35 3 73t5 69q-12 -23 -23 -56t-30 -74l-158 -354h-114l-158 354q-18 41 -29.5 74t-17.5 56h-6q4 -31 6 -69 t2 -73v-471h-109z" />
<glyph unicode="&#x2126;" horiz-adv-x="1525" d="M143 784q0 139 43 253t123 194t194.5 124t258.5 44q143 0 258 -44t195.5 -124t123.5 -193.5t43 -253.5q0 -119 -34.5 -219t-85 -181t-108.5 -143.5t-105 -105.5h256v-135h-435v102q51 39 112.5 103.5t116 148.5t91.5 184.5t37 215.5q0 242 -124 371.5t-337 129.5 q-219 0 -344 -130t-125 -371q0 -115 37 -215.5t91 -184.5t115.5 -148.5t112.5 -103.5v-102h-434v135h256q-47 43 -104.5 105.5t-108.5 143.5t-85 181.5t-34 218.5z" />
<glyph unicode="&#x212e;" horiz-adv-x="1675" d="M74 662q0 150 60.5 276.5t163.5 217.5t242.5 142.5t297.5 51.5t297 -50.5t242.5 -140.5t164 -213t60.5 -268v-45h-1250v-375q18 -23 64.5 -61.5t111 -75.5t144.5 -64.5t164 -27.5q88 0 166.5 24.5t142 59t109.5 74.5t69 71h147q-117 -141 -284.5 -213t-347.5 -72 q-158 0 -297.5 50.5t-242.5 141.5t-163.5 218t-60.5 279zM352 690h971v373q-23 31 -69 71t-110.5 75.5t-142 59t-165.5 23.5q-84 0 -164 -27.5t-144.5 -64.5t-110.5 -76t-65 -61v-373z" />
<glyph unicode="&#x2202;" horiz-adv-x="1214" d="M82 324q0 102 39 201.5t108.5 178t166 127t212.5 48.5q70 0 124 -16.5t94 -41t69 -55.5t45 -59q14 59 20.5 113t6.5 104q0 145 -70 222t-201 77q-76 0 -138 -16.5t-120 -47.5l-18 117q55 33 135 53.5t160 20.5q199 0 302 -112t103 -316q0 -92 -19.5 -198t-57 -210 t-95 -200.5t-131.5 -170t-166 -117.5t-200 -44q-190 0 -279.5 94t-89.5 248zM238 326q0 -104 56 -160.5t159 -56.5q70 0 139.5 33.5t129.5 95t107.5 149.5t75.5 199q-41 63 -113.5 113.5t-181.5 50.5q-88 0 -157.5 -37t-116.5 -97.5t-72.5 -136.5t-25.5 -153z" />
<glyph unicode="&#x2206;" horiz-adv-x="1273" d="M66 0l538 1380h62l540 -1380h-1140zM256 123h756l-377 1005z" />
<glyph unicode="&#x220f;" horiz-adv-x="1243" d="M184 -98v1478h875v-1478h-156v1335h-563v-1335h-156z" />
<glyph unicode="&#x2211;" horiz-adv-x="1110" d="M82 -29l528 676l-489 653v80h862v-116h-676l459 -615l-492 -633h750v-116h-942v71z" />
<glyph unicode="&#x2212;" horiz-adv-x="1159" d="M154 518v125h852v-125h-852z" />
<glyph unicode="&#x221a;" horiz-adv-x="1062" d="M41 729v119h262l207 -707l350 1239h137l-405 -1405h-156l-227 754h-168z" />
<glyph unicode="&#x221e;" horiz-adv-x="1558" d="M113 633q0 66 22.5 120t64.5 93t99 60.5t125 21.5q119 0 206 -61.5t146 -143.5h4q25 33 58.5 68.5t78 66.5t98.5 50.5t118 19.5q68 0 125 -21.5t99 -60.5t65.5 -92.5t23.5 -116.5t-21.5 -118.5t-62.5 -95.5t-98.5 -63.5t-126.5 -23.5q-113 0 -204 59.5t-151 147.5h-4 q-66 -84 -153.5 -145.5t-202.5 -61.5q-68 0 -124 21.5t-97 59.5t-64.5 93t-23.5 123zM238 635q0 -90 55 -143.5t141 -53.5t160 58.5t127 136.5q-57 88 -132 139t-159 51q-94 0 -143 -55t-49 -133zM836 633q57 -92 130.5 -143.5t159.5 -51.5q49 0 85 16.5t60.5 44t36 62.5 t11.5 74q0 78 -47 133t-148 55q-90 0 -156.5 -50t-131.5 -140z" />
<glyph unicode="&#x222b;" horiz-adv-x="870" d="M86 -74l39 117q47 -20 104 -20q80 0 104.5 51t24.5 162v788q0 184 57.5 279.5t217.5 95.5q47 0 84 -10.5t65 -24.5l-37 -119q-47 20 -106 21q-80 0 -104.5 -51.5t-24.5 -161.5v-789q0 -92 -13.5 -161.5t-44 -116.5t-84 -71t-132.5 -24q-47 0 -84 10.5t-66 24.5z" />
<glyph unicode="&#x2248;" horiz-adv-x="1159" d="M111 354q16 33 42.5 68t61.5 62.5t78 45t92 17.5q74 0 124 -24.5t91 -53.5t81 -53.5t93 -24.5q72 0 121 41t82 94l74 -75q-41 -76 -111 -135.5t-162 -59.5q-74 0 -125 24.5t-93 54.5t-82 54.5t-89 24.5q-78 0 -125 -42t-80 -96zM111 727q16 33 42.5 67.5t61.5 62.5 t78 45.5t92 17.5q74 0 124 -25t91 -53.5t81 -53t93 -24.5q72 0 121 41t82 94l74 -76q-41 -76 -111 -135t-162 -59q-74 0 -125 24.5t-93 54t-82 54t-89 24.5q-78 0 -124 -42t-81 -95z" />
<glyph unicode="&#x2260;" horiz-adv-x="1159" d="M160 334v125h307l100 252h-407v125h456l140 348h118l-139 -348h248v-125h-297l-102 -252h399v-125h-448l-132 -334h-118l133 334h-258z" />
<glyph unicode="&#x2264;" horiz-adv-x="1159" d="M133 0v102h862v-102h-862zM133 614v101l862 473v-146l-706 -376l706 -379v-146z" />
<glyph unicode="&#x2265;" horiz-adv-x="1159" d="M164 0v102h862v-102h-862zM164 141v146l706 379l-706 376v146l862 -473v-101z" />
<glyph unicode="&#x25ca;" horiz-adv-x="1193" d="M82 698l469 703h90l469 -701l-469 -700h-90zM227 700l369 -544l365 544l-365 543z" />
<glyph unicode="&#x25fc;" horiz-adv-x="993" d="M0 0v993h993v-993h-993z" />
<glyph unicode="&#xf700;" horiz-adv-x="1101" d="M37 1010q82 66 197.5 110.5t244.5 44.5q152 0 266 -63l109 125h176l-174 -207q72 -74 107.5 -177.5t35.5 -230.5q0 -135 -36.5 -246.5t-103 -193.5t-159 -127t-202.5 -45h-129l-115 473q-10 47 -55 47h-78v133h90q82 0 126 -31.5t62 -117.5l86 -371h29q63 0 122.5 32 t105.5 92t74 150.5t28 206.5q0 211 -93.5 314.5t-269.5 103.5q-121 0 -221 -41t-174 -102z" />
<glyph unicode="&#xf701;" d="M-1190 1307v127h768v-127h-768z" />
<glyph unicode="&#xf702;" d="M-1190 1307v127h621v192h147v-319h-768z" />
<glyph unicode="&#xf703;" d="M-1190 1307v127h471q-10 20 -10 45q0 74 50 125t122 51t122 -51.5t50 -124.5q0 -72 -50 -122t-122 -50h-25h-608zM-629 1481q0 -31 21.5 -52.5t50.5 -21.5q31 0 51.5 21.5t20.5 52.5q0 33 -20.5 53t-51.5 20q-29 0 -50.5 -20.5t-21.5 -52.5z" />
<glyph unicode="&#xf704;" d="M-1190 1307v127h399v192h132v-196h106v196h131v-319h-768z" />
<glyph unicode="&#xf705;" d="M-709 1307v333h152v-333h-152z" />
<glyph unicode="&#xf706;" d="M-958 1501v127h159q66 0 93.5 -29.5t27.5 -93.5v-39q0 -14 6 -23t29 -9h274v-127h-350q-53 0 -73.5 31.5t-20.5 80.5v41q0 23 -7 32t-32 9h-106z" />
<glyph unicode="&#xf707;" d="M-1143 1417q0 66 47 121t140 68l102 -99l102 101q78 -6 121 -50.5t43 -121.5q0 -10 -1 -21.5t-3 -21.5q47 25 62.5 65.5t15.5 91.5q0 37 -6 62.5t-17 46.5h152q6 -18 12 -41t6 -64q0 -47 -16 -91t-48 -78.5t-79 -56t-106 -21.5h-91l-12 30q20 27 21 64q0 70 -62 76 q-23 -18 -46 -38t-48 -38l-88 74q-29 -4 -45.5 -26t-16.5 -48q0 -25 3.5 -47.5t15.5 -50.5h-139q-10 25 -14.5 57.5t-4.5 56.5z" />
<glyph unicode="&#xf708;" d="M-887 1460v115l170 -4l-6 158h145l-6 -158l176 4v-115l-176 4l6 -157h-145l6 157z" />
<glyph unicode="&#xf709;" d="M-840 1303v69q0 90 53.5 142.5t159.5 52.5h205v-133h-160q-94 0 -94 -84v-47h-164z" />
<glyph unicode="&#xf70a;" d="M-309 1307v333h151v-333h-151z" />
<glyph unicode="&#xf70b;" d="M-616 1501v127h159q55 0 88 -24.5t33 -79.5v-58q0 -14 6 -23t29 -9h285v-127h-361q-53 0 -73.5 31.5t-20.5 80.5v41q0 23 -7 32t-32 9h-106z" />
<glyph unicode="&#xf70c;" d="M-782 1417q0 66 47 121t139 68l111 -99l108 101q78 -6 122 -50.5t44 -121.5q0 -10 -1 -21.5t-3 -21.5q47 25 69.5 65.5t22.5 91.5q0 37 -6 62.5t-16 46.5h149q6 -18 12.5 -41t6.5 -64q0 -47 -18.5 -91t-53.5 -78.5t-83 -56t-110 -21.5h-88l-14 30q20 27 20 64 q0 70 -59 76l-102 -76l-97 74q-29 -4 -45 -26t-16 -48q0 -25 3 -47.5t15 -50.5h-139q-10 25 -14 57.5t-4 56.5z" />
<glyph unicode="&#xf70d;" d="M-473 1460v115l170 -4l-6 158h145l-8 -158l174 4v-115l-174 4l8 -157h-145l6 157z" />
<glyph unicode="&#xf70e;" d="M-469 1303v69q0 90 53.5 142.5t159.5 52.5h209v-133h-164q-94 0 -94 -84v-47h-164z" />
<glyph unicode="&#xf70f;" horiz-adv-x="1882" d="M102 827q18 63 61.5 125t107 109t143.5 75.5t172 28.5q111 0 192.5 -32.5t137 -92t82 -140.5t26.5 -177v-340q0 -268 272 -268q141 0 207 67.5t66 200.5v764h155v-764q0 -104 -30.5 -180t-86 -125t-134 -72.5t-175.5 -23.5q-96 0 -176 23.5t-136 72.5t-87 125t-31 180 v340q0 152 -70.5 230.5t-211.5 78.5q-109 0 -196 -54t-124 -140q41 -39 82 -76t84 -76q-117 -53 -117 -184v-316q0 -57 54 -57h110v-129h-149q-80 0 -125 48t-45 126v305q0 66 29.5 121t84.5 82q-43 35 -86 72t-86 73z" />
<glyph unicode="&#xf710;" d="M-872 1481v80h147v-62q0 -66 66 -65h448v-127h-467q-195 0 -194 174z" />
<glyph unicode="&#xf711;" d="M-842 1468q0 41 15.5 77t41 62.5t60.5 42t76 15.5q82 0 139 -56.5t57 -140.5t-57 -139t-139 -55q-41 0 -76 14.5t-60.5 41t-41 62t-15.5 76.5zM-737 1470q0 -41 26.5 -67.5t61.5 -26.5q39 0 65.5 27t26.5 67q0 41 -26.5 67t-65.5 26q-35 0 -61.5 -26t-26.5 -67z" />
<glyph unicode="&#xf712;" d="M-1090 1505q0 41 14.5 81t44.5 71t75 49t108 18h422v-118h-416q-55 0 -79.5 -31t-24.5 -72q0 -39 24.5 -64.5t69.5 -25.5q39 0 63.5 25.5t32.5 56.5h92q16 -61 99 -61h139v-127h-131q-49 0 -90 25.5t-60 70.5q-14 -45 -57 -75t-110 -30q-51 0 -91.5 17.5t-68 46.5 t-42 65.5t-14.5 77.5z" />
<glyph unicode="&#xf713;" d="M-565 1729v268h145v-268h-145z" />
<glyph unicode="&#xf714;" d="M-828 1903v122h166q53 0 75.5 -27.5t22.5 -82.5v-35q0 -29 29 -29h272v-122h-346q-45 0 -66.5 27.5t-21.5 74.5v37q0 16 -5 25.5t-25 9.5h-101z" />
<glyph unicode="&#xf715;" d="M-936 1829q0 59 43 110.5t127 61.5l101 -86l94 88q76 -4 113.5 -45t37.5 -107v-19t-2 -20q41 18 56.5 56.5t15.5 91.5q0 47 -21 88h142q4 -16 10 -35.5t6 -54.5q0 -41 -15.5 -82t-46 -74t-74.5 -53t-101 -20h-74l-12 30q18 23 18 53q0 29 -16.5 46.5t-38.5 21.5l-95 -70 l-92 66q-20 -2 -32.5 -21.5t-12.5 -42.5q0 -18 4 -38.5t17 -49.5h-135q-10 27 -13.5 54.5t-3.5 50.5z" />
<glyph unicode="&#xf716;" d="M-704 1855v109l147 -4l-4 131h135l-4 -131l148 4v-109l-148 5l4 -131h-135l4 131z" />
<glyph unicode="&#xf717;" d="M-690 1550v64q0 82 50 131t149 49h186v-127h-154q-80 0 -79 -74v-43h-152z" />
<glyph unicode="&#xf718;" d="M-430 -479h117q80 0 117.5 -38t37.5 -126v-191h-151v179q0 47 -45 47h-76v129z" />
<glyph unicode="&#xf719;" d="M-770 -479h252v-133q0 -72 23.5 -100.5t82.5 -28.5t83 28.5t24 100.5v133h147v-166q0 -102 -64.5 -155.5t-189.5 -53.5t-188.5 53t-63.5 156v41h-106v125z" />
<glyph unicode="&#xf71a;" d="M-369 -590q0 49 37 85t86 36q53 0 89 -36t36 -85t-36 -85t-89 -36q-49 0 -86 36t-37 85z" />
<glyph unicode="&#xf71b;" horiz-adv-x="1247" d="M66 0v129h84q29 0 40 14.5t11 40.5v285q0 63 30.5 118.5t83.5 82.5l-196 153q18 63 63 126t111.5 110t151.5 76.5t182 29.5q115 0 200.5 -32.5t144 -92t88.5 -140.5t30 -177v-1092h-191q-53 47 -122.5 82t-162.5 35q-100 0 -169.5 -30.5t-135.5 -84.5q-10 29 -20 60 t-21 61q57 53 138 90t192 37q98 0 190.5 -42t145.5 -99v983q0 152 -79 230.5t-228 78.5q-123 0 -215.5 -56t-126.5 -140l190 -162q-119 -51 -119 -185v-317q0 -80 -46 -126t-124 -46h-120z" />
<glyph unicode="&#xf71c;" horiz-adv-x="1247" d="M66 0v129h84q29 0 40 14.5t11 40.5v285q0 63 30.5 118.5t83.5 82.5q-49 39 -97 76.5t-99 76.5q18 63 63 126t111.5 110t151.5 76.5t182 29.5q115 0 200.5 -32.5t144 -92t88.5 -140.5t30 -177v-1092h-150l-252 152q-33 -76 -103.5 -120t-148.5 -44q-76 0 -143.5 18.5 t-108.5 47.5q10 33 20.5 65.5t20.5 65.5q41 -29 97.5 -50.5t103.5 -21.5q86 0 147.5 58.5t79.5 146.5l281 -168v942q0 152 -79 230.5t-228 78.5q-123 0 -215.5 -56t-126.5 -140l145 -117l45 -45q-119 -51 -119 -185v-317q0 -80 -46 -126t-124 -46h-120z" />
<glyph unicode="&#xf71d;" horiz-adv-x="1341" d="M162 0v1147h151v-666q0 -84 -3 -157.5t-13 -149.5h2q18 63 37.5 118.5t46.5 106.5l221 426h125l227 -424q29 -51 49.5 -112.5t36.5 -114.5h5q-10 76 -14.5 149.5t-4.5 157.5v228q0 86 -38 128t-101 42h-41q-6 16 -11.5 32.5t-11.5 32.5q55 70 110.5 140.5t111.5 142.5 h170q-57 -68 -113.5 -135.5t-116.5 -133.5q92 -12 142.5 -80.5t50.5 -166.5v-711h-168l-281 543q-25 47 -41 93t-20 69h-4q-6 -23 -22.5 -69t-39.5 -93l-274 -543h-168z" />
<glyph horiz-adv-x="956" d="M-842 1468q0 41 15.5 77t41 62.5t60.5 42t76 15.5q82 0 139 -56.5t57 -140.5t-57 -139t-139 -55q-41 0 -76 14.5t-60.5 41t-41 62t-15.5 76.5zM-737 1470q0 -41 26.5 -67.5t61.5 -26.5q39 0 65.5 27t26.5 67q0 41 -26.5 67t-65.5 26q-35 0 -61.5 -26t-26.5 -67zM20 1030 q31 25 73 49.5t92.5 43t106.5 30.5t111 12q199 0 297.5 -110.5t98.5 -311.5v-743h-156v743q0 147 -62.5 218t-187.5 71q-98 0 -185 -35.5t-147 -83.5z" />
<glyph d="M-836 1475q0 37 12.5 68.5t39 54t67.5 32.5t99 4q-29 29 -29 74q0 39 33.5 69.5t107.5 30.5h115l24 -102h-112q-23 0 -34 -13.5t-11 -29.5q0 -39 49 -64l-29 -75q-29 8 -56.5 12t-57.5 4q-86 0 -87 -65q0 -31 25 -49.5t70 -18.5q23 0 45 2t49 12v-90q-25 -14 -51.5 -20 t-63.5 -6q-39 0 -75.5 10t-65.5 30.5t-46.5 52.5t-17.5 77z" />
</font>
</defs>
</svg>
