<?xml version="1.0" standalone="no"?>
<!DOCTYPE svg PUBLIC "-//W3C//DTD SVG 1.1//EN" "http://www.w3.org/Graphics/SVG/1.1/DTD/svg11.dtd" >
<svg xmlns="http://www.w3.org/2000/svg" xmlns:xlink="http://www.w3.org/1999/xlink" version="1.1">
<metadata></metadata>
<defs>
<font id="sukhumvit_setthin" horiz-adv-x="0" >
<font-face units-per-em="2048" ascent="1638" descent="-410" />
<missing-glyph horiz-adv-x="573" />
<glyph unicode="&#xe2f;&#xe2f;" horiz-adv-x="1421" d="M94 1057v90h92v-92q0 -164 59.5 -241t180.5 -77q76 0 143.5 33t117.5 83t80 112.5t30 124.5v57h86v-422q61 16 112.5 57t88 93.5t57 109.5t20.5 105v57h86v-1147h-96v887q-18 -37 -44 -75t-59.5 -69.5t-74.5 -55t-90 -36.5v-651h-97v887q-20 -45 -56 -85t-83 -71 t-105.5 -49t-125.5 -18q-88 0 -149.5 28.5t-99.5 80.5t-55.5 125t-17.5 159z" />
<glyph unicode="&#xe4f;&#x22;" horiz-adv-x="1118" d="M123 492q0 90 33.5 169.5t93 139t139.5 93.5t170 34t170 -34t139.5 -93.5t93 -139t33.5 -169.5t-33.5 -170t-93 -139.5t-139.5 -94.5t-170 -35t-170 35t-139.5 94.5t-93 139t-33.5 170.5zM178 492q0 -80 30 -149t82 -121t121.5 -81.5t147.5 -29.5q80 0 148.5 29.5 t121 81.5t82 121t29.5 149q0 78 -29.5 147.5t-82 121.5t-121 81.5t-148.5 29.5q-78 0 -147.5 -29.5t-121.5 -81.5t-82 -122t-30 -147zM324 489q0 49 18 92.5t50 75t75 50t90 18.5q49 0 92 -18.5t75 -50t50.5 -73.5t18.5 -91t-18.5 -92.5t-50.5 -74t-75 -49t-90 -18.5 q-49 0 -92 18.5t-75 50t-50 73.5t-18 89zM399 489q0 -31 12.5 -59.5t34 -50t51 -34.5t62.5 -13q66 0 111 46t45 114q0 63 -46 109t-112 46q-63 0 -110.5 -46t-47.5 -112zM403 1409h78l-10 -360h-57zM653 1409h78l-10 -360h-57z" />
<glyph unicode="&#xe24;&#xe32;" horiz-adv-x="1927" d="M115 840q20 59 63 117.5t105.5 104.5t140.5 73.5t166 27.5q123 0 214 -42t150 -115q74 66 174.5 111.5t208.5 45.5q102 0 181 -33.5t132.5 -92t80 -138.5t26.5 -174v-1135h-96v1135q0 160 -80 257t-244 97q-106 0 -192 -41t-146 -102q47 -94 48 -211v-1135h-97v1135 q0 160 -93 257t-267 97q-135 0 -229.5 -67.5t-141.5 -161.5l193 -152v-18q-70 -25 -107 -80t-37 -127v-321q0 -72 70 -72h108v-80h-116q-72 0 -115 37t-43 110v314q0 78 34 140.5t99 90.5z" />
<glyph unicode="&#xe26;&#xe32;" horiz-adv-x="1935" d="M78 0v80h74q61 0 61 65v316q0 78 36 137t95 88l-219 141q20 59 64 120t106.5 109t141.5 77.5t167 29.5q123 0 213 -42t148 -113q72 66 172 110.5t209 44.5q102 0 181 -33.5t132 -92t79.5 -138.5t26.5 -174v-1135h-96v1135q0 160 -80 257t-243 97q-106 0 -192.5 -41 t-145.5 -102q47 -94 47 -211v-1135h-97v1135q0 160 -90 257t-264 97q-68 0 -126 -20.5t-106 -53t-84 -74.5t-57 -85l228 -154v-18q-70 -25 -110 -77t-40 -124v-332q0 -74 -39 -107.5t-110 -33.5h-82z" />
<glyph unicode="fi" horiz-adv-x="1028" d="M37 911v78h172v21q0 78 19.5 148.5t60.5 123.5t107.5 84t160.5 31q74 0 134.5 -18.5t103.5 -43.5l-21 -67q-41 23 -97 36t-112 13q-80 0 -131 -24.5t-80.5 -65.5t-41 -98.5t-11.5 -120.5v-19h553v-989h-94v911h-459v-911h-92v911h-172z" />
<glyph unicode="fl" horiz-adv-x="1110" d="M37 911v78h172v21q0 78 22.5 148.5t69.5 123.5t122 84t177 31q90 0 179 -15.5t157 -38.5v-1343h-94v1290q-39 10 -101.5 18.5t-124.5 8.5q-92 0 -153.5 -24.5t-97 -65.5t-50 -98.5t-14.5 -120.5v-19h305v-78h-305v-911h-92v911h-172z" />
<glyph unicode=" "  horiz-adv-x="573" />
<glyph unicode="&#x09;" horiz-adv-x="573" />
<glyph unicode="&#xa0;" horiz-adv-x="573" />
<glyph unicode="!" horiz-adv-x="464" d="M145 68q0 35 21.5 59.5t64.5 24.5t64.5 -25t21.5 -59q0 -35 -21.5 -59.5t-64.5 -24.5t-64.5 24.5t-21.5 59.5zM184 1069v311h97v-311l-25 -684h-49z" />
<glyph unicode="&#x22;" horiz-adv-x="606" d="M139 1409h78l-10 -483h-57zM389 1409h78l-10 -483h-58z" />
<glyph unicode="#" horiz-adv-x="1118" d="M53 432v76h213l68 315h-197v76h213l94 432h93l-95 -432h334l94 432h93l-95 -432h197v-76h-213l-68 -315h197v-76h-213l-94 -432h-92l94 432h-334l-94 -432h-92l94 432h-197zM358 508h334l68 315h-334z" />
<glyph unicode="$" horiz-adv-x="1118" d="M139 68l27 77q68 -35 158 -56t204 -21v573q-68 20 -135 50t-121.5 74t-89.5 105.5t-35 149.5q0 63 23 121.5t70 102.5t118.5 70.5t169.5 31.5v190h72v-190q92 -4 173 -26t134 -50l-24 -70q-55 27 -133 42t-150 20v-553q72 -25 139.5 -52.5t119.5 -67.5t84 -97.5 t32 -141.5q0 -80 -27.5 -143.5t-78 -109.5t-119 -73.5t-150.5 -35.5v-193h-72v189q-141 0 -235 24.5t-154 59.5zM238 1014q0 -61 21.5 -104.5t59 -75t91 -55t118.5 -46.5v529q-147 -8 -218.5 -73.5t-71.5 -174.5zM600 72q123 14 203 80.5t80 197.5q0 66 -23.5 110 t-62.5 72.5t-90.5 48t-106.5 37.5v-546z" />
<glyph unicode="%" horiz-adv-x="1523" d="M102 991q0 68 18.5 132.5t53.5 114.5t87 80t118 30t117 -30t86.5 -80t54 -114.5t18.5 -132.5t-18.5 -132t-54 -114.5t-87 -80t-116.5 -29.5q-66 0 -118 29.5t-87 80t-53.5 114.5t-18.5 132zM182 991q0 -55 12.5 -107.5t37 -92t61.5 -64.5t86 -25t86 25t61.5 64.5t36.5 92 t12 107.5t-12 107.5t-36.5 92.5t-61.5 64.5t-86 24.5t-86 -24.5t-61.5 -64.5t-37 -92.5t-12.5 -107.5zM344 0l750 1352h86l-750 -1352h-86zM868 340q0 68 18.5 132.5t53.5 114.5t87 79.5t118 29.5t117 -29.5t86.5 -79.5t54 -114.5t18.5 -132.5t-18.5 -132.5t-54 -114.5 t-87 -79.5t-116.5 -29.5q-66 0 -118 29.5t-87 79.5t-53.5 114.5t-18.5 132.5zM948 340q0 -55 12.5 -107.5t37 -92.5t61.5 -64.5t86 -24.5t86 24.5t61.5 64.5t36.5 92.5t12 107.5t-12 107.5t-36.5 92.5t-61.5 64.5t-86 24.5t-86 -24.5t-61.5 -64.5t-37 -92.5t-12.5 -107.5z " />
<glyph unicode="&#x26;" horiz-adv-x="1269" d="M135 332q0 80 25.5 142.5t67.5 114.5t96.5 95t113.5 84l-45 55q-33 39 -60.5 75t-48 71t-32.5 71.5t-12 79.5q0 57 23.5 108.5t66.5 88.5t102.5 58.5t132.5 21.5q76 0 132.5 -22.5t95 -60.5t58 -87t19.5 -101q0 -61 -23.5 -110t-65.5 -92t-99 -84t-127 -86l436 -527 q53 72 79 170.5t26 204.5v70h88v-70q0 -133 -34 -239.5t-106 -198.5l136 -164h-101l-94 113q-86 -68 -186.5 -98.5t-223.5 -30.5q-113 0 -195.5 29.5t-137 77.5t-81 110.5t-26.5 130.5zM236 330q0 -115 93 -188.5t257 -73.5q96 0 184 23.5t160 86.5l-445 535 q-51 -39 -97 -78t-80 -84t-53 -99.5t-19 -121.5zM332 1120q0 -78 38 -138t101 -130l41 -45q53 33 101.5 68.5t85 73.5t58 82t21.5 97q0 86 -58 139.5t-157 53.5q-43 0 -85 -12.5t-73.5 -37t-52 -62.5t-20.5 -89z" />
<glyph unicode="'" horiz-adv-x="356" d="M139 1409h78l-10 -483h-57z" />
<glyph unicode="(" horiz-adv-x="593" d="M156 578q0 156 32.5 285.5t87 235t124 186.5t143.5 136l30 -51q-68 -53 -126 -133t-101 -181.5t-67.5 -222t-24.5 -255.5t24.5 -256t67.5 -222.5t101.5 -182.5t125.5 -132l-30 -51q-74 55 -143.5 136t-124 186.5t-87 235.5t-32.5 286z" />
<glyph unicode=")" horiz-adv-x="593" d="M20 -215q68 51 126.5 132t101.5 182.5t67.5 222t24.5 256.5q0 135 -24.5 255.5t-67.5 222t-101.5 181.5t-126.5 133l31 51q74 -55 143.5 -136t124 -186.5t87 -235t32.5 -285.5t-32.5 -286t-87 -235.5t-124 -186.5t-143.5 -136z" />
<glyph unicode="*" horiz-adv-x="952" d="M123 846l307 151l-307 152l41 74l291 -189l-21 346h86l-20 -346l286 189l43 -74l-307 -152l307 -151l-43 -76l-284 186l18 -342h-86l21 344l-291 -188z" />
<glyph unicode="+" horiz-adv-x="1118" d="M127 541v80h389v395h88v-395h387v-80h-387v-394h-88v394h-389z" />
<glyph unicode="," horiz-adv-x="442" d="M139 -256l51 399h121l-116 -399h-56z" />
<glyph unicode="-" horiz-adv-x="618" d="M70 539v75h479v-75h-479z" />
<glyph unicode="." horiz-adv-x="442" d="M135 68q0 35 21.5 59.5t64.5 24.5t64.5 -25t21.5 -59q0 -35 -21.5 -59.5t-64.5 -24.5t-64.5 24.5t-21.5 59.5z" />
<glyph unicode="/" horiz-adv-x="737" d="M31 -82l585 1462h91l-586 -1462h-90z" />
<glyph unicode="0" horiz-adv-x="1118" d="M102 666q0 160 32 286.5t92.5 213.5t144.5 134.5t188 47.5t188 -47.5t144.5 -134.5t92.5 -214t32 -286q0 -160 -32 -287t-92.5 -214t-144 -134t-188.5 -47q-104 0 -188 47t-144.5 134t-92.5 214t-32 287zM201 666q0 -299 93 -453t265 -154t265.5 154t93.5 453 t-93.5 452.5t-265.5 153.5t-265 -153.5t-93 -452.5z" />
<glyph unicode="1" horiz-adv-x="1118" d="M201 0v84h340v1157l-301 -104v73l327 121h70v-1247h334v-84h-770z" />
<glyph unicode="2" horiz-adv-x="1118" d="M129 0v76l393 397q63 63 120.5 124.5t101.5 125t71 132.5t27 149q0 123 -81 193.5t-210 70.5q-92 0 -181 -25.5t-149 -58.5l-24 73q57 33 151 62t201 29q193 0 291 -92.5t98 -254.5q0 -90 -28.5 -167.5t-80 -152.5t-123 -149.5t-157.5 -156.5l-301 -287h729v-88h-848z " />
<glyph unicode="3" horiz-adv-x="1118" d="M139 66l27 73q63 -33 148 -54.5t196 -21.5q180 0 266 80t86 219q0 135 -85 208t-245 73h-178v80h178q139 0 216 78t77 198q0 123 -81.5 196t-241.5 73q-92 0 -176 -21.5t-150 -58.5l-24 72q61 35 153 61.5t197 26.5q100 0 178 -27t131 -73t80 -109.5t27 -139.5 q0 -63 -22 -117.5t-58.5 -94t-82.5 -66.5t-96 -35q70 -8 125.5 -36.5t94.5 -73t59 -99.5t20 -115q0 -174 -119.5 -276t-328.5 -102q-123 0 -214 23.5t-157 58.5z" />
<glyph unicode="4" horiz-adv-x="1118" d="M86 270v68l696 989h78v-969h160v-88h-160v-270h-98v270h-676zM201 358h565v793z" />
<glyph unicode="5" horiz-adv-x="1118" d="M123 80l27 74q63 -37 158 -64t208 -27q78 0 144.5 24t115.5 68t77 108.5t28 146.5q0 72 -21.5 131t-69 101t-122 65.5t-181.5 23.5h-301v80l54 520h655v-88h-580l-41 -432h215q240 0 365 -109.5t125 -298.5q0 -98 -35 -175.5t-96.5 -132t-146.5 -83t-185 -28.5 q-139 0 -233.5 29.5t-159.5 66.5z" />
<glyph unicode="6" horiz-adv-x="1118" d="M127 649q0 340 129 519.5t365 179.5q86 0 153.5 -18.5t114.5 -45.5l-19 -63q-108 55 -245 55q-193 0 -291 -159t-111 -460q27 35 66 70t88 63.5t107.5 46t127.5 17.5q186 0 286.5 -112.5t100.5 -311.5q0 -88 -27.5 -169t-79.5 -142.5t-130 -98t-176 -36.5 q-215 0 -337 165.5t-122 499.5zM223 565q0 -106 26.5 -199.5t75 -162t115 -108.5t146.5 -40q150 0 232.5 97.5t82.5 281.5q0 70 -15.5 133.5t-49 111.5t-89 75.5t-137.5 27.5q-59 0 -115.5 -18.5t-105.5 -49t-92 -69.5t-74 -80z" />
<glyph unicode="7" horiz-adv-x="1118" d="M145 1243v88h838v-67l-580 -1264h-98l574 1243h-734z" />
<glyph unicode="8" horiz-adv-x="1118" d="M125 340q0 68 22.5 125t61.5 102t91 75t114 42q-45 14 -89 40t-80 65.5t-57.5 96t-21.5 132.5t28.5 137.5t80 104.5t124 65.5t160.5 22.5t161 -22.5t124 -65.5t79.5 -104.5t28.5 -137.5t-22.5 -132.5t-57 -96t-78.5 -65.5t-89 -40q61 -12 113 -42t91 -75t61.5 -102 t22.5 -125q0 -166 -111.5 -261t-322.5 -95t-322.5 95t-111.5 261zM217 344q0 -139 87 -214t255 -75t255 75t87 214q0 133 -83 219t-259 86t-259 -86t-83 -219zM258 1008q0 -139 80 -215t221 -76t221 75.5t80 215.5q0 139 -77.5 203.5t-223.5 64.5q-145 0 -223 -64.5 t-78 -203.5z" />
<glyph unicode="9" horiz-adv-x="1118" d="M119 901q0 88 27.5 169t80 142.5t130 98.5t175.5 37q215 0 337 -166t122 -500q0 -340 -120.5 -519t-372.5 -179q-94 0 -162 18t-115 45l19 64q107 -56 254 -56q102 0 175.5 41t122 119t73 193.5t30.5 265.5q-29 -31 -66.5 -66t-87 -63.5t-108 -48t-127.5 -19.5 q-186 0 -286.5 112.5t-100.5 311.5zM217 897q0 -72 15.5 -134.5t49 -110.5t89 -75.5t137.5 -27.5q59 0 115.5 18.5t105.5 49t92 69.5t74 80q0 106 -26.5 199.5t-75 162t-115 108.5t-146.5 40q-150 0 -232.5 -97.5t-82.5 -281.5z" />
<glyph unicode=":" horiz-adv-x="483" d="M156 66q0 35 21.5 59.5t64.5 24.5t64.5 -25t21.5 -59q0 -35 -21.5 -59.5t-64.5 -24.5t-64.5 24.5t-21.5 59.5zM156 891q0 35 21.5 59.5t64.5 24.5t64.5 -24.5t21.5 -59.5t-21.5 -59.5t-64.5 -24.5t-64.5 24.5t-21.5 59.5z" />
<glyph unicode=";" horiz-adv-x="483" d="M152 -256l51 399h121l-117 -399h-55zM156 891q0 35 21.5 59.5t64.5 24.5t64.5 -24.5t21.5 -59.5t-21.5 -59.5t-64.5 -24.5t-64.5 24.5t-21.5 59.5z" />
<glyph unicode="&#x3c;" horiz-adv-x="1118" d="M123 567v62l831 473v-94l-729 -410l729 -410v-94z" />
<glyph unicode="=" horiz-adv-x="1118" d="M152 356v80h815v-80h-815zM152 756v80h815v-80h-815z" />
<glyph unicode="&#x3e;" horiz-adv-x="1118" d="M164 94v94l729 410l-729 410v94l831 -473v-62z" />
<glyph unicode="?" horiz-adv-x="966" d="M106 1296q59 35 152.5 68t200.5 33q188 0 286.5 -89t98.5 -247q0 -72 -26.5 -130.5t-66.5 -109.5t-86.5 -98t-86 -94t-66.5 -97.5t-27 -109.5q0 -51 17 -94h-88q-10 18 -17.5 44.5t-7.5 55.5q0 63 26.5 117.5t66.5 102.5t86 94t86 95.5t67 103.5t27 120q0 51 -16.5 97 t-50.5 81t-89 56.5t-131 21.5q-92 0 -182.5 -28.5t-147.5 -65.5zM373 66q0 35 21.5 59.5t64.5 24.5t64.5 -25t21.5 -59q0 -35 -21.5 -59.5t-64.5 -24.5t-64.5 24.5t-21.5 59.5z" />
<glyph unicode="@" horiz-adv-x="1662" d="M131 670q0 145 47 277t138.5 233.5t225.5 161t310 59.5q160 0 287 -50.5t214 -139.5t133 -209.5t46 -262.5q0 -127 -23.5 -215t-61.5 -144t-85 -82t-94 -26t-81 19.5t-56.5 52.5t-34 74t-11.5 84q-31 -102 -110.5 -166t-183.5 -64q-156 0 -245 107.5t-89 294.5 q0 88 23.5 164.5t71.5 134t123 89.5t177 32q86 0 159.5 -19.5t133.5 -46.5v-504q0 -76 28.5 -132t92.5 -56q31 0 66.5 18.5t65 63.5t50 122.5t20.5 198.5q0 111 -34.5 220.5t-108.5 195.5t-190.5 140.5t-280.5 54.5q-162 0 -286 -54.5t-208 -146.5t-127 -216t-43 -263 q0 -160 48.5 -280t131.5 -199.5t196.5 -118.5t246.5 -39q84 0 165 19.5t152 60.5q10 -16 14.5 -26.5t10.5 -25.5q-63 -39 -151.5 -60t-194.5 -21q-147 0 -271 43t-214.5 129t-141.5 215t-51 303zM545 674q0 -82 20.5 -142.5t54 -100.5t77.5 -59.5t91 -19.5q59 0 108.5 24.5 t85.5 66.5t55.5 96.5t19.5 113.5v328q-37 14 -94.5 23.5t-112.5 9.5q-164 0 -234.5 -91.5t-70.5 -248.5z" />
<glyph unicode="A" horiz-adv-x="1243" d="M51 0l524 1380h93l524 -1380h-98l-150 408h-645l-149 -408h-99zM332 489h579l-190 498l-98 291h-5l-100 -295z" />
<glyph unicode="B" horiz-adv-x="1247" d="M180 0v1380h492q193 0 304 -89t111 -253q0 -61 -19 -114.5t-52 -94.5t-77 -68.5t-91 -39.5q59 -6 113.5 -30.5t96.5 -67.5t66.5 -103.5t24.5 -136.5q0 -84 -28.5 -154.5t-87 -121t-147.5 -79t-212 -28.5h-494zM276 84h396q199 0 290 77t91 222q0 82 -27 137t-77 89 t-120.5 48.5t-158.5 14.5h-394v-588zM276 756h398q137 0 227 70.5t90 211.5q0 131 -84 194.5t-235 63.5h-396v-540z" />
<glyph unicode="C" horiz-adv-x="1153" d="M102 690q0 160 42 290t123 223t202 143.5t279 50.5q96 0 174.5 -21.5t136.5 -50.5l-23 -80q-59 27 -131.5 45.5t-156.5 18.5q-260 0 -404.5 -158t-144.5 -461q0 -147 37.5 -262t107.5 -193.5t169 -118.5t222 -40q98 0 175 21.5t137 49.5l24 -81q-35 -18 -70.5 -33 t-75.5 -25t-86 -15t-104 -5q-162 0 -280.5 50t-197.5 142t-117 221t-38 289z" />
<glyph unicode="D" horiz-adv-x="1306" d="M180 0v1380h338q338 0 512 -175t174 -513q0 -340 -174 -516t-512 -176h-338zM276 88h242q141 0 251 35t185.5 108.5t114.5 188t39 272.5q0 317 -153.5 458.5t-436.5 141.5h-242v-1204z" />
<glyph unicode="E" horiz-adv-x="1101" d="M180 0v1380h807v-86h-711v-540h666v-86h-666v-584h723v-84h-819z" />
<glyph unicode="F" horiz-adv-x="1060" d="M180 0v1380h791v-88h-695v-559h650v-90h-650v-643h-96z" />
<glyph unicode="G" horiz-adv-x="1302" d="M102 659q0 184 46.5 322.5t129 231t199.5 138.5t258 46q123 0 212 -25.5t149 -54.5l-25 -80q-59 31 -142 51.5t-181 20.5q-123 0 -224.5 -38t-173 -118t-111.5 -203t-40 -293q0 -129 32.5 -236.5t93 -185t147.5 -120.5t198 -43q74 0 143.5 30.5t123.5 85t86 130t32 165.5 v172h-293v78h385v-733h-68l-24 227q-53 -102 -154.5 -172.5t-243.5 -70.5q-129 0 -231 50t-175 139t-111 213t-38 273z" />
<glyph unicode="H" horiz-adv-x="1327" d="M180 0v1380h96v-626h775v626h96v-1380h-96v666h-775v-666h-96z" />
<glyph unicode="I" horiz-adv-x="464" d="M184 0v1380h97v-1380h-97z" />
<glyph unicode="J" horiz-adv-x="765" d="M29 41l26 80q43 -25 99.5 -37t115.5 -12q106 0 166 68.5t60 238.5v1001h96v-1001q0 -203 -85 -299t-235 -96q-68 0 -130 14t-113 43z" />
<glyph unicode="K" horiz-adv-x="1187" d="M180 0v1380h96v-1380h-96zM424 707v53l590 620h116l-614 -645l639 -735h-115z" />
<glyph unicode="L" horiz-adv-x="1032" d="M180 0v1380h96v-1292h687v-88h-783z" />
<glyph unicode="M" horiz-adv-x="1568" d="M180 0v1380h99l417 -868q29 -57 50.5 -109.5t35.5 -89.5h4q14 37 36 89.5t50 109.5l418 868h99v-1380h-95v993q0 27 1 59.5t3 66.5t4.5 67t6.5 59h-4q-6 -18 -16.5 -44.5t-21 -54.5t-21.5 -53.5t-19 -43.5l-396 -811h-94l-395 811q-8 18 -19.5 43.5t-21.5 53.5 t-20.5 54.5t-16.5 44.5h-4q2 -27 5 -59.5t5 -66.5t3 -66.5t1 -59.5v-993h-94z" />
<glyph unicode="N" horiz-adv-x="1343" d="M180 0v1380h103l673 -1056q37 -57 68 -106.5t53 -90.5h4q-8 59 -11 122.5t-3 137.5v993h96v-1380h-102l-674 1057q-37 57 -67.5 106t-53.5 90h-4q8 -59 11 -122.5t3 -137.5v-993h-96z" />
<glyph unicode="O" horiz-adv-x="1380" d="M102 690q0 152 37 282t111 224t183.5 147.5t256.5 53.5t257 -53.5t183.5 -147.5t110.5 -224t37 -282t-37 -281.5t-110.5 -224t-183.5 -147.5t-257 -53t-256.5 53t-183.5 147.5t-111 224.5t-37 281zM199 690q0 -135 29.5 -249.5t91 -197.5t153.5 -129t217 -46t217 46 t153.5 129t91.5 197.5t30 249.5t-30 249t-91.5 197t-153.5 130t-217 47t-217 -47t-153.5 -130t-91 -197t-29.5 -249z" />
<glyph unicode="P" horiz-adv-x="1122" d="M180 0v1380h420q104 0 186 -30.5t138.5 -85t86 -130t29.5 -167.5q0 -98 -33.5 -177t-93 -132.5t-143.5 -82t-184 -28.5h-310v-547h-96zM276 633h310q168 0 263 88t95 246q0 154 -87 240.5t-257 86.5h-324v-661z" />
<glyph unicode="Q" horiz-adv-x="1380" d="M102 690q0 152 37 282t111 224t183.5 147.5t256.5 53.5t257 -53.5t183.5 -147.5t110.5 -224t37 -282q0 -141 -32 -262t-94 -214t-156.5 -151.5t-219.5 -72.5q-14 -86 -60 -140.5t-102 -80.5h467v-84h-700v82h47q49 0 92 17t75 47t52.5 70t26.5 85q-143 2 -250 57 t-178.5 148.5t-107.5 221.5t-36 277zM199 690q0 -135 29.5 -249.5t91 -197.5t153.5 -129t217 -46t217 46t153.5 129t91.5 197.5t30 249.5t-30 249t-91.5 197t-153.5 130t-217 47t-217 -47t-153.5 -130t-91 -197t-29.5 -249z" />
<glyph unicode="R" horiz-adv-x="1196" d="M180 0v1380h482q104 0 186 -28.5t138 -80.5t86 -126t30 -162q0 -166 -95.5 -267.5t-254.5 -127.5l358 -588h-106l-353 580h-4h-371v-580h-96zM276 666h371q168 0 263.5 83.5t95.5 233.5q0 145 -87.5 228t-256.5 83h-386v-628z" />
<glyph unicode="S" horiz-adv-x="1069" d="M139 1057q0 70 22.5 132t73 108t129 73t189.5 27q106 0 193.5 -24.5t146.5 -55.5l-27 -72q-63 31 -147 49.5t-164 18.5q-172 0 -248 -72t-76 -190q0 -68 24 -114t67 -80t102 -59.5t133 -49.5q80 -27 154.5 -55.5t132 -70.5t92.5 -103.5t35 -156.5q0 -92 -32 -162.5 t-90 -118.5t-140.5 -72.5t-182.5 -24.5q-145 0 -234 25.5t-151 60.5l29 80q70 -35 154 -58.5t202 -23.5q76 0 141.5 17t111.5 53t73 91.5t27 132.5q0 80 -29 129.5t-78 81t-112.5 52t-131.5 43.5q-70 23 -139.5 52.5t-124.5 73.5t-90 108.5t-35 154.5z" />
<glyph unicode="T" horiz-adv-x="1030" d="M33 1292v88h964v-88l-434 2v-1294h-96v1294z" />
<glyph unicode="U" horiz-adv-x="1335" d="M174 543v837h96v-839q0 -248 106.5 -358.5t291.5 -110.5q184 0 290.5 110.5t106.5 358.5v839h96v-837q0 -145 -35.5 -250t-100 -174.5t-155.5 -102t-202 -32.5t-202 32.5t-155.5 102t-100.5 174t-36 250.5z" />
<glyph unicode="V" horiz-adv-x="1243" d="M49 1380h98l369 -977l102 -305h5l100 301l373 981h98l-524 -1380h-97z" />
<glyph unicode="W" horiz-adv-x="1785" d="M70 1380h98l238 -972q20 -86 34.5 -166t24.5 -144h4q10 66 27.5 146t42.5 164l290 972h127l291 -972q25 -84 42.5 -164t27.5 -146h4q10 63 24.5 143.5t34.5 166.5l238 972h98l-338 -1380h-106l-322 1073q-16 55 -30.5 111.5t-24.5 93.5h-4q-10 -37 -24.5 -93.5 t-30.5 -111.5l-322 -1073h-106z" />
<glyph unicode="X" horiz-adv-x="1208" d="M66 0l481 717l-445 663h109l393 -592l393 592h109l-444 -663l481 -717h-107l-432 647l-432 -647h-106z" />
<glyph unicode="Y" horiz-adv-x="1120" d="M37 1380h102l420 -721h2l420 721h102l-475 -807v-573h-96v573z" />
<glyph unicode="Z" horiz-adv-x="1105" d="M98 0v72l781 1222h-727v86h841v-73l-778 -1221h793v-86h-910z" />
<glyph unicode="[" horiz-adv-x="534" d="M180 -242v1643h297v-76h-209v-1491h209v-76h-297z" />
<glyph unicode="\" horiz-adv-x="737" d="M31 1380h90l586 -1462h-91z" />
<glyph unicode="]" horiz-adv-x="534" d="M57 -166h209v1491h-209v76h297v-1643h-297v76z" />
<glyph unicode="^" horiz-adv-x="1048" d="M94 565l387 815h86l387 -815h-90l-340 733l-340 -733h-90z" />
<glyph unicode="_" horiz-adv-x="835" d="M0 -150h836v-71h-836v71z" />
<glyph unicode="`" horiz-adv-x="573" d="M0 1335l55 74l277 -246l-27 -37z" />
<glyph unicode="a" horiz-adv-x="1019" d="M86 270q0 160 110.5 240t325.5 80h242v69q0 147 -68.5 207t-197.5 60q-100 0 -175 -20.5t-135 -53.5l-22 70q55 33 141 58.5t191 25.5q180 0 269 -93.5t89 -253.5v-659h-68l-24 195q-55 -100 -147.5 -155.5t-219.5 -55.5q-66 0 -123 18t-99 55t-65.5 90.5t-23.5 122.5z M176 270q0 -53 17.5 -92t48 -64.5t71.5 -38t86 -12.5q88 0 156 30t114 78t70.5 107.5t24.5 120.5v111h-242q-184 0 -265 -57.5t-81 -182.5z" />
<glyph unicode="b" horiz-adv-x="1124" d="M168 0v1380h94v-585q25 37 60.5 74.5t83 67.5t104.5 49.5t125 19.5q82 0 152.5 -32t123 -95.5t82 -158.5t29.5 -222q0 -137 -32 -234.5t-87 -160t-129 -91t-160 -28.5q-125 0 -212 57t-140 154l-24 -195h-70zM262 434q0 -68 21.5 -133t64.5 -117.5t107.5 -84t150.5 -31.5 q59 0 117.5 22.5t103.5 73.5t73 133t28 201q0 113 -23.5 192.5t-63.5 130.5t-95.5 76t-116.5 25q-111 0 -204 -59.5t-163 -170.5v-258z" />
<glyph unicode="c" horiz-adv-x="917" d="M98 496q0 111 29 204t87 161.5t144 106.5t201 38q76 0 139.5 -14.5t120.5 -39.5l-22 -71q-47 23 -106.5 35t-131.5 12q-94 0 -163.5 -32t-114.5 -89t-66.5 -137t-21.5 -174t22.5 -174t68.5 -137.5t117.5 -89.5t169.5 -32q66 0 126.5 15.5t113.5 38.5l25 -72 q-53 -27 -122 -43t-147 -16q-117 0 -205 37.5t-146 106.5t-88 162t-30 204z" />
<glyph unicode="d" horiz-adv-x="1124" d="M102 498q0 121 33 215t89.5 159.5t130 99.5t157.5 34q68 0 123 -19.5t99 -50.5t76 -68t52 -73v585h94v-1380h-69l-25 195q-53 -96 -138 -153.5t-202 -57.5q-90 0 -166.5 28.5t-133 91t-88.5 159.5t-32 235zM197 498q0 -119 27.5 -201t73.5 -133t106.5 -73.5t123.5 -22.5 q82 0 144.5 31.5t104.5 84t63.5 118t21.5 132.5v258q-61 104 -147 167t-193 63q-66 0 -124 -26t-103 -78t-71.5 -132t-26.5 -188z" />
<glyph unicode="e" horiz-adv-x="1007" d="M98 496q0 111 28 204t83 161.5t138 106.5t194 38q180 0 274 -102.5t94 -289.5q0 -39 -7 -86t-17 -77h-695q8 -172 100.5 -280t278.5 -108q78 0 144.5 20.5t117.5 49.5l25 -72q-51 -31 -126 -53t-165 -22q-117 0 -205 37.5t-146 106.5t-87 162t-29 204zM193 522h622 q4 18 6 44t2 48q0 162 -68.5 239t-213.5 77q-92 0 -158 -31t-106.5 -84t-61 -129t-22.5 -164z" />
<glyph unicode="f" horiz-adv-x="667" d="M37 911v78h172v62q0 158 63.5 252t216.5 94q53 0 100.5 -11.5t82.5 -29.5l-21 -68q-31 14 -69.5 21.5t-73.5 7.5q-123 0 -165 -69.5t-42 -198.5v-60h305v-78h-305v-911h-92v911h-172z" />
<glyph unicode="g" horiz-adv-x="1144" d="M102 498q0 121 33 215t89.5 159.5t130 99.5t157.5 34q68 0 123 -19.5t99 -50.5t76 -68t52 -73l25 194h69v-944q0 -229 -111.5 -342t-309.5 -113q-104 0 -191.5 27t-144.5 57l24 76q57 -31 138 -53.5t178 -22.5q74 0 133 19.5t101 63.5t65.5 116t23.5 174v148 q-53 -96 -138 -153.5t-202 -57.5q-90 0 -166.5 28.5t-133 91t-88.5 159.5t-32 235zM197 498q0 -119 27.5 -201t73.5 -133t106.5 -73.5t123.5 -22.5q82 0 144.5 31.5t104.5 84t63.5 118t21.5 132.5v258q-61 104 -147 167t-193 63q-66 0 -124 -26t-103 -78t-71.5 -132 t-26.5 -188z" />
<glyph unicode="h" horiz-adv-x="1142" d="M168 0v1380h94v-585q31 39 71 76.5t90 67.5t107.5 48.5t120.5 18.5q156 0 242 -96.5t86 -274.5v-635h-94v635q0 137 -65.5 212t-176.5 75q-59 0 -114.5 -19.5t-105.5 -52.5t-91 -74t-70 -84v-692h-94z" />
<glyph unicode="i" horiz-adv-x="442" d="M139 1319q0 33 21.5 55.5t60.5 22.5t60.5 -22.5t21.5 -55.5t-21.5 -55.5t-60.5 -22.5t-60.5 22.5t-21.5 55.5zM174 0v989h94v-989h-94z" />
<glyph unicode="j" horiz-adv-x="442" d="M-92 -377l22 70q23 -10 49.5 -17.5t61.5 -7.5q82 0 107.5 55.5t25.5 161.5v1104h94v-1104q0 -82 -16 -138t-46 -91t-70 -50.5t-87 -15.5q-45 0 -82 10.5t-59 22.5zM139 1319q0 33 21.5 55.5t60.5 22.5t60.5 -22.5t21.5 -55.5t-21.5 -55.5t-60.5 -22.5t-60.5 22.5 t-21.5 55.5z" />
<glyph unicode="k" horiz-adv-x="976" d="M164 0v1380h94v-1380h-94zM375 526v56l418 407h114l-444 -432l477 -557h-109z" />
<glyph unicode="l" horiz-adv-x="442" d="M174 0v1380h94v-1380h-94z" />
<glyph unicode="m" horiz-adv-x="1622" d="M168 0v989h70l24 -194q23 37 57.5 74.5t78.5 68.5t95.5 49.5t108.5 18.5q111 0 169 -60.5t79 -165.5q53 94 146.5 160t203.5 66q137 0 197.5 -94.5t60.5 -252.5v-659h-94v659q0 121 -35 192t-141 71q-94 0 -182 -62.5t-148 -165.5q0 -10 1 -17t1 -18v-659h-94v659 q0 121 -35 192t-141 71q-51 0 -98.5 -18.5t-89.5 -50.5t-77.5 -74t-62.5 -87v-692h-94z" />
<glyph unicode="n" horiz-adv-x="1138" d="M168 0v989h70l24 -194q31 39 71 76.5t89 67.5t106.5 48.5t120.5 18.5q156 0 241 -96.5t85 -274.5v-635h-94v635q0 137 -64.5 212t-175.5 75q-59 0 -114.5 -19.5t-104.5 -52.5t-90 -74t-70 -84v-692h-94z" />
<glyph unicode="o" horiz-adv-x="1085" d="M98 496q0 111 28 204t83 161.5t138 106.5t196 38t195.5 -38t138 -106.5t83 -162t27.5 -203.5q0 -111 -27.5 -204t-83 -162t-138.5 -106.5t-195 -37.5q-113 0 -196 37.5t-138 106.5t-83 162t-28 204zM193 496q0 -94 20 -174t62 -137.5t109 -89.5t159 -32t158.5 32 t108.5 89.5t62.5 137t20.5 174.5q0 94 -20.5 174t-62.5 137t-108.5 89t-158.5 32t-159 -32t-109 -89t-62 -137t-20 -174z" />
<glyph unicode="p" horiz-adv-x="1124" d="M168 -391v1380h70l24 -194q25 37 60.5 74.5t83 67.5t104.5 49.5t125 19.5q82 0 152.5 -32t123 -95.5t82 -158.5t29.5 -222q0 -137 -32 -234.5t-87 -160t-130 -91t-161 -28.5q-123 0 -210 57t-140 154v-586h-94zM262 434q0 -68 21.5 -133t64.5 -117.5t107.5 -84 t150.5 -31.5q59 0 117.5 22.5t103.5 73.5t73 133t28 201q0 113 -23.5 192.5t-63.5 130.5t-95.5 76t-116.5 25q-111 0 -204 -59.5t-163 -170.5v-258z" />
<glyph unicode="q" horiz-adv-x="1144" d="M102 498q0 121 33 215t89.5 159.5t130 99.5t157.5 34q68 0 123 -19.5t99 -50.5t76 -68t52 -73l25 194h69v-1380h-94v586q-53 -96 -138 -153.5t-202 -57.5q-90 0 -166.5 28.5t-133 91t-88.5 159.5t-32 235zM197 498q0 -119 27.5 -201t73.5 -133t106.5 -73.5t123.5 -22.5 q82 0 144.5 31.5t104.5 84t63.5 118t21.5 132.5v258q-61 104 -147 167t-193 63q-66 0 -124 -26t-103 -78t-71.5 -132t-26.5 -188z" />
<glyph unicode="r" horiz-adv-x="741" d="M168 0v989h70l24 -194q25 43 56.5 80.5t70.5 66.5t84 46.5t94 17.5q43 0 77 -9.5t56 -21.5l-24 -90q-20 12 -48 20t-71 8q-98 0 -170 -63.5t-125 -157.5v-692h-94z" />
<glyph unicode="s" horiz-adv-x="864" d="M106 762q0 61 25 107t69 77t103 45.5t127 14.5q88 0 162 -18.5t131 -43.5l-25 -76q-53 25 -122.5 41.5t-145.5 16.5q-111 0 -172 -39t-61 -117q0 -90 66.5 -138t164.5 -75q162 -47 246 -116.5t84 -192.5t-86 -193.5t-260 -70.5q-86 0 -168 19.5t-135 43.5l24 74 q49 -23 125 -40.5t154 -17.5q131 0 193.5 49.5t62.5 135.5q0 49 -20.5 84t-57.5 61.5t-87 45t-108 36.5q-61 18 -113.5 42t-91 57.5t-61.5 78.5t-23 109z" />
<glyph unicode="t" horiz-adv-x="688" d="M37 911v78h170l33 283h61v-283h313v-78h-313v-655q0 -104 33 -146t115 -42q47 0 89 14t70 37l27 -68q-35 -25 -83 -44t-114 -19q-115 0 -172 61.5t-57 204.5v657h-172z" />
<glyph unicode="u" horiz-adv-x="1118" d="M164 354v635h94v-635q0 -137 58.5 -211.5t185.5 -74.5q57 0 112.5 20.5t101.5 52t82 72.5t58 84v692h94v-989h-69l-25 195q-18 -37 -53 -74t-81 -67.5t-104.5 -50t-123.5 -19.5q-160 0 -245 96t-85 274z" />
<glyph unicode="v" horiz-adv-x="909" d="M41 989h98l203 -557l111 -332h4l110 332l203 557h98l-366 -989h-94z" />
<glyph unicode="w" horiz-adv-x="1355" d="M61 989h89l147 -577q10 -43 19.5 -87t16.5 -87t11 -80t8 -64h4q12 70 31 144.5t39 136.5l197 614h110l197 -614q20 -61 38.5 -136t30.5 -145h5q2 27 7 64t12 80t16.5 87t19.5 87l147 577h88l-252 -989h-75l-242 750q-12 41 -24.5 85t-20.5 83h-4q-8 -39 -20.5 -83 t-24.5 -85l-242 -750h-76z" />
<glyph unicode="x" horiz-adv-x="962" d="M49 0l383 522l-342 467h105l286 -401l287 401h104l-344 -467l385 -522h-104l-328 457l-327 -457h-105z" />
<glyph unicode="y" horiz-adv-x="1136" d="M164 371v618h94v-618q0 -137 58.5 -212t185.5 -75q57 0 111.5 20.5t100.5 52t80.5 72.5t57.5 84v676h94v-944q0 -455 -389 -455q-111 0 -203 30t-145 65l24 75q53 -33 139.5 -59.5t184.5 -26.5q72 0 127 19.5t92 63.5t56.5 116t19.5 174v164q-18 -37 -52 -75t-80 -67.5 t-103.5 -49t-122.5 -19.5q-160 0 -245 96.5t-85 274.5z" />
<glyph unicode="z" horiz-adv-x="903" d="M86 0v55l594 856h-547v78h664v-55l-594 -856h610v-78h-727z" />
<glyph unicode="{" horiz-adv-x="589" d="M106 537v86q51 2 82 14t47.5 33.5t21.5 53.5t5 73q0 92 -16.5 175t-16.5 169q0 133 66.5 196.5t185.5 63.5h43v-66h-43q-96 0 -131 -55t-35 -147q0 -47 6.5 -90.5t12.5 -85.5t12 -82.5t6 -86.5q0 -72 -32.5 -131t-124.5 -77q92 -18 124.5 -78t32.5 -131q0 -45 -6 -86 t-12 -83t-12.5 -85t-6.5 -90q0 -92 35 -147.5t131 -55.5h43v-66h-43q-119 0 -185.5 63.5t-66.5 196.5q0 86 16.5 169t16.5 175q0 41 -5 73t-21.5 53.5t-47 34t-82.5 14.5z" />
<glyph unicode="|" horiz-adv-x="497" d="M205 -410v1995h88v-1995h-88z" />
<glyph unicode="}" horiz-adv-x="589" d="M66 -176h43q96 0 130.5 55t34.5 148q0 47 -6 90t-12 85t-12 83t-6 86q0 72 32.5 131t124.5 78q-92 18 -124.5 77.5t-32.5 130.5q0 45 6 86t12 83t12 85t6 91q0 92 -34.5 147t-130.5 55h-43v66h43q119 0 185 -63.5t66 -196.5q0 -86 -16 -169t-16 -175q0 -41 5 -73 t21.5 -53.5t47 -33.5t81.5 -14v-86q-51 -2 -81.5 -14.5t-47 -34t-21.5 -53.5t-5 -73q0 -92 16 -175t16 -169q0 -133 -66.5 -196.5t-184.5 -63.5h-43v66z" />
<glyph unicode="~" horiz-adv-x="1064" d="M102 631q18 27 45 56.5t61 53t70.5 39t77.5 15.5q66 0 109 -19.5t80 -43t72.5 -43t87.5 -19.5q78 0 130 37.5t87 87.5l41 -41q-18 -29 -45 -57.5t-61 -52t-71.5 -39t-76.5 -15.5q-68 0 -112 19.5t-80 43t-71.5 43t-85.5 19.5q-78 0 -130 -38t-87 -87z" />
<glyph horiz-adv-x="1024" />
<glyph unicode="&#xa0;" />
<glyph unicode="&#xa1;" horiz-adv-x="464" d="M145 922q0 35 21.5 59.5t64.5 24.5t64.5 -24.5t21.5 -59.5t-21.5 -59.5t-64.5 -24.5t-64.5 24.5t-21.5 59.5zM182 -80l25 684h49l23 -684v-311h-97v311z" />
<glyph unicode="&#xa2;" horiz-adv-x="1118" d="M180 496q0 104 28 194t81 157.5t133 108.5t184 48v192h72v-190q66 -4 126 -17.5t114 -36.5l-23 -71q-43 18 -98.5 30.5t-118.5 16.5v-865q59 2 120.5 16.5t110.5 37.5l25 -72q-49 -25 -116.5 -40t-139.5 -19v-191h-72v193q-104 8 -184 49t-134.5 108.5t-81 156.5 t-26.5 194zM274 496q0 -88 19.5 -163t60.5 -131.5t103.5 -92t148.5 -43.5v860q-168 -16 -250 -133t-82 -297z" />
<glyph unicode="&#xa3;" horiz-adv-x="1118" d="M172 0v88h82q63 18 105 56t68 86.5t36 102.5t10 107q0 55 -20.5 107.5t-49.5 105.5h-210v70h172q-35 63 -62 131t-27 150q0 80 33 143t88.5 107t128 69t154.5 25q100 0 172 -22.5t119 -51.5l-23 -70q-53 33 -110.5 50.5t-149.5 17.5q-82 0 -141.5 -26.5t-97 -68.5 t-56 -93.5t-18.5 -102.5q0 -72 26.5 -135.5t61.5 -122.5h354v-70h-317q27 -49 44 -101t17 -112q0 -123 -51 -209t-131 -143h670v-88h-877z" />
<glyph unicode="&#xa4;" horiz-adv-x="1163" d="M180 1018l56 57l118 -117q55 43 111.5 62.5t116.5 19.5q61 0 117.5 -20.5t113.5 -61.5l115 115l53 -55l-113 -115q41 -59 61.5 -113.5t20.5 -117.5q0 -57 -20.5 -115.5t-61.5 -112.5l115 -114l-55 -62l-113 117q-59 -37 -113.5 -57.5t-117.5 -20.5t-118.5 20.5 t-111.5 59.5l-116 -119l-54 60h-2l115 116q-41 53 -60.5 107.5t-19.5 120.5q0 61 19.5 117.5t60.5 115.5zM295 672q0 -59 22.5 -111.5t61.5 -91.5t91 -60.5t112 -21.5q57 0 110 21.5t94 60.5t64.5 91.5t23.5 111.5q0 61 -23.5 113.5t-64.5 91t-94 61.5t-110 23 q-59 0 -111.5 -23t-91.5 -61.5t-61.5 -91t-22.5 -113.5z" />
<glyph unicode="&#xa5;" horiz-adv-x="1118" d="M78 1331h102l379 -672h2l379 672h102l-356 -620h254v-70h-293l-39 -68v-120h332v-70h-332v-383h-96v383h-332v70h332v120l-39 68h-293v70h252z" />
<glyph unicode="&#xa6;" horiz-adv-x="483" d="M195 -358v718h94v-718h-94zM195 662v718h94v-718h-94z" />
<glyph unicode="&#xa7;" horiz-adv-x="1118" d="M168 696q0 74 37 132.5t96 89.5q-53 51 -73.5 98t-20.5 112q0 117 100.5 193t274.5 76q74 0 143.5 -14.5t128.5 -39.5l-23 -69q-53 27 -106 39t-119 12q-164 0 -237.5 -53t-73.5 -144q0 -53 22.5 -90t60.5 -64.5t88 -49t105 -39.5t120 -44t120 -63t92 -86t37 -114 q0 -72 -43 -127.5t-119 -81.5q70 -41 98.5 -105.5t28.5 -122.5q0 -66 -30.5 -115t-82 -81.5t-118 -50t-135.5 -17.5q-139 0 -219 20.5t-142 49.5l17 63q37 -14 71.5 -25.5t73.5 -19.5t86.5 -12t108.5 -4q45 0 96 11t92 34.5t68.5 60.5t27.5 90q0 51 -25.5 89t-66.5 67 t-91 48.5t-99 35.5q-49 12 -113 34.5t-121 59.5t-96 90.5t-39 126.5zM256 696q0 -57 33 -96t78 -65.5t92 -42t76 -23.5q51 -16 80.5 -25.5t46 -15.5t25.5 -10t20 -10q39 12 71 34q29 18 51.5 49t22.5 76q0 86 -88 147.5t-225 100.5q-72 20 -110 35.5t-64 32.5 q-33 -20 -56 -47q-20 -23 -36.5 -58t-16.5 -82z" />
<glyph unicode="&#xa8;" horiz-adv-x="573" d="M16 1278q0 29 20.5 50.5t55.5 21.5t55.5 -21.5t20.5 -50.5t-20.5 -50.5t-55.5 -21.5t-55.5 21.5t-20.5 50.5zM406 1278q0 29 20 50.5t55 21.5t55.5 -21.5t20.5 -50.5t-20.5 -50.5t-55.5 -21.5t-55 21.5t-20 50.5z" />
<glyph unicode="&#xa9;" horiz-adv-x="1400" d="M82 690q0 133 49 250t133 203t196.5 136t239.5 50q125 0 238 -50t198 -136t134 -203t49 -250t-49 -249.5t-134 -202.5t-198 -136.5t-238 -50.5q-127 0 -239.5 50.5t-196.5 136.5t-133 202.5t-49 249.5zM147 690q0 -121 42 -227.5t116 -185t175.5 -125t219.5 -46.5 q119 0 220.5 46.5t175 125t115.5 185t42 227.5t-42 226.5t-115.5 184.5t-175 125t-220.5 46t-220 -46t-175 -125t-116 -184.5t-42 -226.5zM393 688q0 76 19.5 141.5t61.5 113.5t105.5 76t153.5 28q53 0 97 -10.5t88 -30.5l-21 -54q-37 16 -79 24.5t-83 8.5q-68 0 -117 -22.5 t-80.5 -62.5t-47 -94t-15.5 -118q0 -63 15.5 -117.5t47 -94.5t80 -62.5t115.5 -22.5q41 0 85 8.5t85 26.5l19 -53q-43 -20 -91.5 -31.5t-101.5 -11.5q-88 0 -151.5 27.5t-104.5 75.5t-60.5 113.5t-19.5 141.5z" />
<glyph unicode="&#xaa;" horiz-adv-x="688" d="M37 811q0 123 83 180.5t226 57.5h174v41q0 94 -54 139t-142 45q-59 0 -112.5 -14.5t-98.5 -36.5l-25 67q43 23 106.5 41.5t141.5 18.5q135 0 198.5 -71t63.5 -192v-473h-61l-23 136q-49 -66 -105.5 -108t-148.5 -42q-96 0 -159.5 53.5t-63.5 157.5zM123 811q0 -61 42 -98 t107 -37q55 0 101.5 20.5t79 53t50 75.5t17.5 86v72h-174q-109 0 -166 -45t-57 -127z" />
<glyph unicode="&#xab;" horiz-adv-x="866" d="M82 496l272 364h88l-266 -364l266 -365h-88zM412 496l272 364h88l-266 -364l266 -365h-88z" />
<glyph unicode="&#xac;" horiz-adv-x="989" d="M82 664v81h805v-466h-92v385h-713z" />
<glyph unicode="&#xad;" horiz-adv-x="577" d="M20 467v94h537v-94h-537z" />
<glyph unicode="&#xae;" horiz-adv-x="1075" d="M82 946q0 94 32.5 177t93 144.5t144.5 97.5t187 36q102 0 186 -36t143.5 -97.5t92 -144.5t32.5 -177q0 -96 -32.5 -179t-92 -144.5t-143.5 -97.5t-186 -36t-186.5 36t-145 97.5t-93 144.5t-32.5 179zM141 946q0 -84 29 -158.5t81 -130t125 -88t163 -32.5q88 0 161.5 32.5 t126 88t81 130t28.5 158.5t-28.5 158t-81 129t-126 88t-161.5 33q-90 0 -163 -33t-125 -88t-81 -129t-29 -158zM385 690v498h184q92 0 132 -42.5t40 -103.5q0 -59 -30.5 -97t-94.5 -50l117 -205h-59l-119 203h-111v-203h-59zM444 942h121q117 0 117 100q0 47 -26.5 71 t-88.5 24h-123v-195z" />
<glyph unicode="&#xaf;" horiz-adv-x="573" d="M27 1182v71h520v-71h-520z" />
<glyph unicode="&#xb0;" horiz-adv-x="706" d="M90 1141q0 53 19.5 100t55.5 83t84 56.5t103 20.5q57 0 105.5 -20.5t83 -56.5t55 -83t20.5 -100t-20.5 -101.5t-55 -84t-82.5 -56t-106 -20.5q-55 0 -103 20.5t-84 56t-55.5 84t-19.5 101.5zM143 1141q0 -43 15.5 -81t43 -67.5t66.5 -47t84 -17.5t84 17.5t67.5 47 t44 67.5t15.5 81q0 41 -15.5 78.5t-44 67.5t-67.5 47.5t-84 17.5t-84 -17.5t-66.5 -47.5t-43 -67.5t-15.5 -78.5z" />
<glyph unicode="&#xb1;" horiz-adv-x="1118" d="M127 0v63h864v-63h-864zM127 549v80h389v387h88v-387h387v-80h-387v-385h-88v385h-389z" />
<glyph unicode="&#xb2;" horiz-adv-x="608" d="M57 614v62l201 205q33 33 63.5 66.5t55 68.5t39 71.5t14.5 75.5q0 111 -137 111q-47 0 -96.5 -14.5t-83.5 -34.5l-25 67q37 20 92.5 38t120.5 18q104 0 158.5 -47.5t54.5 -137.5q0 -47 -18.5 -90t-47 -84t-62.5 -78t-67 -69l-155 -152h371v-76h-478z" />
<glyph unicode="&#xb3;" horiz-adv-x="587" d="M57 655l19 60q35 -20 82 -31.5t94 -11.5q90 0 131 45t41 104q0 63 -43 102.5t-117 39.5h-78v65h78q59 0 100.5 34t41.5 105q0 47 -35 81t-119 34q-53 0 -93 -10t-75 -27l-21 60q39 18 87.5 30.5t103.5 12.5q127 0 181 -54.5t54 -128.5q0 -68 -38.5 -109.5t-96.5 -58.5 q41 -6 71 -23.5t48.5 -42t27.5 -54t9 -58.5q0 -94 -65.5 -153.5t-188.5 -59.5q-121 0 -199 49z" />
<glyph unicode="&#xb4;" horiz-adv-x="573" d="M242 1163l276 246l55 -74l-305 -209z" />
<glyph unicode="&#xb5;" horiz-adv-x="1122" d="M168 -410v1399h94v-649q4 -143 62.5 -207.5t181.5 -64.5q57 0 112.5 20.5t101.5 52t82 72.5t58 84v692h94v-989h-69l-25 195q-18 -37 -53 -74t-81 -67.5t-101.5 -50t-118.5 -19.5q-82 0 -145.5 31.5t-98.5 90.5v-516h-94z" />
<glyph unicode="&#xb6;" horiz-adv-x="872" d="M94 1038q0 164 101.5 253t269.5 89h338v-82h-60q-88 0 -120.5 -36.5t-32.5 -118.5v-1241h-96v805h-80q-61 0 -119.5 21.5t-103 63.5t-71 103t-26.5 143z" />
<glyph unicode="&#xb7;" horiz-adv-x="442" d="M135 594q0 35 21.5 59.5t64.5 24.5t64.5 -24.5t21.5 -59.5t-21.5 -59.5t-64.5 -24.5t-64.5 24.5t-21.5 59.5z" />
<glyph unicode="&#xb8;" horiz-adv-x="573" d="M135 -317l148 231h51l-98 -231h-101z" />
<glyph unicode="&#xb9;" horiz-adv-x="557" d="M78 614v74h170v578l-148 -49v65l174 59h60v-653h166v-74h-422z" />
<glyph unicode="&#xba;" horiz-adv-x="784" d="M61 977q0 78 19.5 145.5t60.5 117.5t103.5 79t148.5 29q84 0 146.5 -29t103.5 -79t60.5 -117.5t19.5 -145.5t-19.5 -146.5t-60.5 -118.5t-103.5 -79t-146.5 -29q-86 0 -148.5 29t-103.5 79t-60.5 118.5t-19.5 146.5zM150 977q0 -63 14 -116.5t44 -93.5t76 -62.5 t109 -22.5t109.5 22.5t76 62.5t44 93t14.5 117q0 127 -59.5 209t-184.5 82q-127 0 -185 -82t-58 -209z" />
<glyph unicode="&#xbb;" horiz-adv-x="866" d="M94 131l266 365l-266 364h88l273 -364l-273 -365h-88zM424 131l266 365l-266 364h88l272 -364l-272 -365h-88z" />
<glyph unicode="&#xbc;" horiz-adv-x="1466" d="M102 614v74h170v578l-147 -49v65l174 59h59v-653h166v-74h-422zM315 0l750 1352h86l-750 -1352h-86zM819 150v67l367 510h74v-502h83v-75h-83v-150h-78v150h-363zM905 225h279v377z" />
<glyph unicode="&#xbd;" horiz-adv-x="1466" d="M102 614v74h170v578l-147 -49v65l174 59h59v-653h166v-74h-422zM315 0l750 1352h86l-750 -1352h-86zM918 0v61l200 205q33 33 63.5 67t55.5 68.5t39 71.5t14 76q0 110 -137 110q-47 0 -96 -14t-84 -35l-25 68q37 20 92.5 37.5t120.5 17.5q104 0 158.5 -47t54.5 -137 q0 -47 -18.5 -90t-47 -84t-62.5 -78t-66 -70l-156 -151h371v-76h-477z" />
<glyph unicode="&#xbe;" horiz-adv-x="1466" d="M72 655l18 60q35 -20 82 -31.5t94 -11.5q90 0 131 45t41 104q0 63 -43 102.5t-116 39.5h-78v65h78q59 0 100 34t41 105q0 47 -35 81t-119 34q-53 0 -93 -10t-75 -27l-20 60q39 18 87 30.5t103 12.5q127 0 181.5 -54.5t54.5 -128.5q0 -68 -39 -109.5t-96 -58.5 q41 -6 70.5 -23.5t48 -42t27.5 -54t9 -58.5q0 -94 -65.5 -153.5t-188.5 -59.5q-121 0 -198 49zM315 0l750 1352h86l-750 -1352h-86zM819 150v67l367 510h74v-502h83v-75h-83v-150h-78v150h-363zM905 225h279v377z" />
<glyph unicode="&#xbf;" horiz-adv-x="966" d="M123 -74q0 72 26.5 130.5t66.5 109.5t86 98t86 94.5t66.5 97.5t26.5 109q0 51 -16 94h88q10 -18 17.5 -44.5t7.5 -55.5q0 -66 -27 -119t-67 -101t-86 -94t-86 -95.5t-66.5 -103.5t-26.5 -120q0 -51 16.5 -97t50 -82t88 -56.5t132.5 -20.5q92 0 182 29t148 65l24 -73 q-59 -35 -152.5 -68t-199.5 -33q-188 0 -286.5 89.5t-98.5 246.5zM422 922q0 35 21.5 59.5t64.5 24.5t64.5 -24.5t21.5 -59.5t-21.5 -59.5t-64.5 -24.5t-64.5 24.5t-21.5 59.5z" />
<glyph unicode="&#xc0;" horiz-adv-x="1243" d="M51 0l524 1380h93l524 -1380h-98l-150 408h-645l-149 -408h-99zM332 489h579l-190 498l-98 291h-5l-100 -295zM455 1736l55 74l277 -246l-27 -37z" />
<glyph unicode="&#xc1;" horiz-adv-x="1243" d="M51 0l524 1380h93l524 -1380h-98l-150 408h-645l-149 -408h-99zM332 489h579l-190 498l-98 291h-5l-100 -295zM455 1564l276 246l55 -74l-305 -209z" />
<glyph unicode="&#xc2;" horiz-adv-x="1243" d="M51 0l524 1380h93l524 -1380h-98l-150 408h-645l-149 -408h-99zM332 489h579l-190 498l-98 291h-5l-100 -295zM350 1525l240 281h61l240 -281h-68l-202 203l-203 -203h-68z" />
<glyph unicode="&#xc3;" horiz-adv-x="1243" d="M51 0l524 1380h93l524 -1380h-98l-150 408h-645l-149 -408h-99zM326 1554q4 70 51 119t113 49q45 0 76.5 -15.5t59 -35t54.5 -34.5t62 -15q55 0 78.5 28.5t27.5 71.5h68q-4 -70 -51 -119t-113 -49q-45 0 -78 15.5t-60.5 35t-54 34.5t-59.5 15q-55 0 -79 -28.5t-28 -71.5 h-67zM332 489h579l-190 498l-98 291h-5l-100 -295z" />
<glyph unicode="&#xc4;" horiz-adv-x="1243" d="M51 0l524 1380h93l524 -1380h-98l-150 408h-645l-149 -408h-99zM332 489h579l-190 498l-98 291h-5l-100 -295zM350 1679q0 29 20.5 50.5t55.5 21.5t55.5 -21.5t20.5 -50.5t-20.5 -50.5t-55.5 -21.5t-55.5 21.5t-20.5 50.5zM740 1679q0 29 20 50.5t55 21.5t55.5 -21.5 t20.5 -50.5t-20.5 -50.5t-55.5 -21.5t-55 21.5t-20 50.5z" />
<glyph unicode="&#xc5;" horiz-adv-x="1243" d="M51 0l524 1380h93l524 -1380h-98l-150 408h-645l-149 -408h-99zM332 489h579l-190 498l-98 291h-5l-100 -295zM455 1687q0 70 48 118t118 48t118 -48t48 -118t-48.5 -118t-117.5 -48q-70 0 -118 48t-48 118zM514 1687q0 -53 31 -84t76 -31t75.5 31t30.5 84t-30.5 84 t-75.5 31t-76 -31t-31 -84z" />
<glyph unicode="&#xc6;" horiz-adv-x="1677" d="M51 0l621 1380h891v-86h-775l158 -540h572v-86h-547l170 -584h434v-84h-483l-121 408h-645l-179 -408h-96zM365 489h579l-156 498l-77 291h-4l-121 -295z" />
<glyph unicode="&#xc7;" horiz-adv-x="1153" d="M102 690q0 160 42 290t123 223t202 143.5t279 50.5q96 0 174.5 -21.5t136.5 -50.5l-23 -80q-59 27 -131.5 45.5t-156.5 18.5q-260 0 -404.5 -158t-144.5 -461q0 -147 37.5 -262t107.5 -193.5t169 -118.5t222 -40q98 0 175 21.5t137 49.5l24 -81q-35 -18 -70.5 -33 t-75.5 -25t-86 -15t-104 -5q-162 0 -280.5 50t-197.5 142t-117 221t-38 289zM551 -317l148 231h51l-98 -231h-101z" />
<glyph unicode="&#xc8;" horiz-adv-x="1101" d="M180 0v1380h807v-86h-711v-540h666v-86h-666v-584h723v-84h-819zM426 1736l55 74l277 -246l-27 -37z" />
<glyph unicode="&#xc9;" horiz-adv-x="1101" d="M180 0v1380h807v-86h-711v-540h666v-86h-666v-584h723v-84h-819zM426 1564l276 246l55 -74l-305 -209z" />
<glyph unicode="&#xca;" horiz-adv-x="1101" d="M180 0v1380h807v-86h-711v-540h666v-86h-666v-584h723v-84h-819zM321 1525l240 281h61l240 -281h-68l-202 203l-203 -203h-68z" />
<glyph unicode="&#xcb;" horiz-adv-x="1101" d="M180 0v1380h807v-86h-711v-540h666v-86h-666v-584h723v-84h-819zM321 1679q0 29 20.5 50.5t55.5 21.5t55.5 -21.5t20.5 -50.5t-20.5 -50.5t-55.5 -21.5t-55.5 21.5t-20.5 50.5zM711 1679q0 29 20 50.5t55 21.5t55.5 -21.5t20.5 -50.5t-20.5 -50.5t-55.5 -21.5t-55 21.5 t-20 50.5z" />
<glyph unicode="&#xcc;" horiz-adv-x="464" d="M66 1736l55 74l277 -246l-27 -37zM184 0v1380h97v-1380h-97z" />
<glyph unicode="&#xcd;" horiz-adv-x="464" d="M70 1564l276 246l55 -74l-305 -209zM184 0v1380h97v-1380h-97z" />
<glyph unicode="&#xce;" horiz-adv-x="464" d="M-35 1525l240 281h61l240 -281h-68l-202 203l-203 -203h-68zM184 0v1380h97v-1380h-97z" />
<glyph unicode="&#xcf;" horiz-adv-x="464" d="M-35 1679q0 29 20.5 50.5t55.5 21.5t55.5 -21.5t20.5 -50.5t-20.5 -50.5t-55.5 -21.5t-55.5 21.5t-20.5 50.5zM184 0v1380h97v-1380h-97zM355 1679q0 29 20 50.5t55 21.5t55.5 -21.5t20.5 -50.5t-20.5 -50.5t-55.5 -21.5t-55 21.5t-20 50.5z" />
<glyph unicode="&#xd0;" horiz-adv-x="1306" d="M39 618v76h141v686h338q338 0 512 -175t174 -513q0 -340 -174 -516t-512 -176h-338v618h-141zM276 88h242q141 0 251 35t185.5 108.5t114.5 188t39 272.5q0 317 -153.5 458.5t-436.5 141.5h-242v-598h357v-76h-357v-530z" />
<glyph unicode="&#xd1;" horiz-adv-x="1343" d="M180 0v1380h103l673 -1056q37 -57 68 -106.5t53 -90.5h4q-8 59 -11 122.5t-3 137.5v993h96v-1380h-102l-674 1057q-37 57 -67.5 106t-53.5 90h-4q8 -59 11 -122.5t3 -137.5v-993h-96zM377 1554q4 70 51 119t113 49q45 0 76.5 -15.5t59 -35t54.5 -34.5t62 -15 q55 0 78.5 28.5t27.5 71.5h68q-4 -70 -51 -119t-113 -49q-45 0 -78 15.5t-60.5 35t-54 34.5t-59.5 15q-55 0 -79 -28.5t-28 -71.5h-67z" />
<glyph unicode="&#xd2;" horiz-adv-x="1380" d="M102 690q0 152 37 282t111 224t183.5 147.5t256.5 53.5t257 -53.5t183.5 -147.5t110.5 -224t37 -282t-37 -281.5t-110.5 -224t-183.5 -147.5t-257 -53t-256.5 53t-183.5 147.5t-111 224.5t-37 281zM199 690q0 -135 29.5 -249.5t91 -197.5t153.5 -129t217 -46t217 46 t153.5 129t91.5 197.5t30 249.5t-30 249t-91.5 197t-153.5 130t-217 47t-217 -47t-153.5 -130t-91 -197t-29.5 -249zM524 1736l55 74l277 -246l-27 -37z" />
<glyph unicode="&#xd3;" horiz-adv-x="1380" d="M102 690q0 152 37 282t111 224t183.5 147.5t256.5 53.5t257 -53.5t183.5 -147.5t110.5 -224t37 -282t-37 -281.5t-110.5 -224t-183.5 -147.5t-257 -53t-256.5 53t-183.5 147.5t-111 224.5t-37 281zM199 690q0 -135 29.5 -249.5t91 -197.5t153.5 -129t217 -46t217 46 t153.5 129t91.5 197.5t30 249.5t-30 249t-91.5 197t-153.5 130t-217 47t-217 -47t-153.5 -130t-91 -197t-29.5 -249zM525 1564l276 246l55 -74l-305 -209z" />
<glyph unicode="&#xd4;" horiz-adv-x="1380" d="M102 690q0 152 37 282t111 224t183.5 147.5t256.5 53.5t257 -53.5t183.5 -147.5t110.5 -224t37 -282t-37 -281.5t-110.5 -224t-183.5 -147.5t-257 -53t-256.5 53t-183.5 147.5t-111 224.5t-37 281zM199 690q0 -135 29.5 -249.5t91 -197.5t153.5 -129t217 -46t217 46 t153.5 129t91.5 197.5t30 249.5t-30 249t-91.5 197t-153.5 130t-217 47t-217 -47t-153.5 -130t-91 -197t-29.5 -249zM419 1525l240 281h61l240 -281h-68l-202 203l-203 -203h-68z" />
<glyph unicode="&#xd5;" horiz-adv-x="1380" d="M102 690q0 152 37 282t111 224t183.5 147.5t256.5 53.5t257 -53.5t183.5 -147.5t110.5 -224t37 -282t-37 -281.5t-110.5 -224t-183.5 -147.5t-257 -53t-256.5 53t-183.5 147.5t-111 224.5t-37 281zM199 690q0 -135 29.5 -249.5t91 -197.5t153.5 -129t217 -46t217 46 t153.5 129t91.5 197.5t30 249.5t-30 249t-91.5 197t-153.5 130t-217 47t-217 -47t-153.5 -130t-91 -197t-29.5 -249zM395 1554q4 70 51 119t113 49q45 0 76.5 -15.5t59 -35t54.5 -34.5t62 -15q55 0 78.5 28.5t27.5 71.5h68q-4 -70 -51 -119t-113 -49q-45 0 -78 15.5 t-60.5 35t-54 34.5t-59.5 15q-55 0 -79 -28.5t-28 -71.5h-67z" />
<glyph unicode="&#xd6;" horiz-adv-x="1380" d="M102 690q0 152 37 282t111 224t183.5 147.5t256.5 53.5t257 -53.5t183.5 -147.5t110.5 -224t37 -282t-37 -281.5t-110.5 -224t-183.5 -147.5t-257 -53t-256.5 53t-183.5 147.5t-111 224.5t-37 281zM199 690q0 -135 29.5 -249.5t91 -197.5t153.5 -129t217 -46t217 46 t153.5 129t91.5 197.5t30 249.5t-30 249t-91.5 197t-153.5 130t-217 47t-217 -47t-153.5 -130t-91 -197t-29.5 -249zM419 1679q0 29 20.5 50.5t55.5 21.5t55.5 -21.5t20.5 -50.5t-20.5 -50.5t-55.5 -21.5t-55.5 21.5t-20.5 50.5zM809 1679q0 29 20 50.5t55 21.5t55.5 -21.5 t20.5 -50.5t-20.5 -50.5t-55.5 -21.5t-55 21.5t-20 50.5z" />
<glyph unicode="&#xd7;" horiz-adv-x="1118" d="M176 901l64 62l319 -320l320 320l63 -62l-321 -321l319 -318l-61 -63l-320 319l-319 -319l-62 63l320 318z" />
<glyph unicode="&#xd8;" horiz-adv-x="1380" d="M102 690q0 152 37 282t111 224t183.5 147.5t256.5 53.5q98 0 180 -24.5t148 -72.5l96 162h78l-121 -202q104 -96 155.5 -243t51.5 -327q0 -152 -37 -281.5t-110.5 -224t-183 -147.5t-257.5 -53q-98 0 -180 24.5t-148 69.5l-96 -160h-78l121 201q-104 96 -155.5 242.5 t-51.5 328.5zM199 690q0 -156 38.5 -281.5t118.5 -209.5l617 1028q-115 86 -283 86q-125 0 -217 -47t-153.5 -130t-91 -197t-29.5 -249zM408 154q114 -86 282 -86q125 0 217 46t153.5 129t91.5 197.5t30 249.5q0 154 -39 280t-119 212z" />
<glyph unicode="&#xd9;" horiz-adv-x="1335" d="M174 543v837h96v-839q0 -248 106.5 -358.5t291.5 -110.5q184 0 290.5 110.5t106.5 358.5v839h96v-837q0 -145 -35.5 -250t-100 -174.5t-155.5 -102t-202 -32.5t-202 32.5t-155.5 102t-100.5 174t-36 250.5zM502 1736l55 74l277 -246l-27 -37z" />
<glyph unicode="&#xda;" horiz-adv-x="1335" d="M174 543v837h96v-839q0 -248 106.5 -358.5t291.5 -110.5q184 0 290.5 110.5t106.5 358.5v839h96v-837q0 -145 -35.5 -250t-100 -174.5t-155.5 -102t-202 -32.5t-202 32.5t-155.5 102t-100.5 174t-36 250.5zM502 1564l276 246l55 -74l-305 -209z" />
<glyph unicode="&#xdb;" horiz-adv-x="1335" d="M174 543v837h96v-839q0 -248 106.5 -358.5t291.5 -110.5q184 0 290.5 110.5t106.5 358.5v839h96v-837q0 -145 -35.5 -250t-100 -174.5t-155.5 -102t-202 -32.5t-202 32.5t-155.5 102t-100.5 174t-36 250.5zM397 1525l240 281h61l240 -281h-68l-202 203l-203 -203h-68z " />
<glyph unicode="&#xdc;" horiz-adv-x="1335" d="M174 543v837h96v-839q0 -248 106.5 -358.5t291.5 -110.5q184 0 290.5 110.5t106.5 358.5v839h96v-837q0 -145 -35.5 -250t-100 -174.5t-155.5 -102t-202 -32.5t-202 32.5t-155.5 102t-100.5 174t-36 250.5zM397 1679q0 29 20.5 50.5t55.5 21.5t55.5 -21.5t20.5 -50.5 t-20.5 -50.5t-55.5 -21.5t-55.5 21.5t-20.5 50.5zM787 1679q0 29 20 50.5t55 21.5t55.5 -21.5t20.5 -50.5t-20.5 -50.5t-55.5 -21.5t-55 21.5t-20 50.5z" />
<glyph unicode="&#xdd;" horiz-adv-x="1120" d="M37 1380h102l420 -721h2l420 721h102l-475 -807v-573h-96v573zM394 1564l276 246l55 -74l-305 -209z" />
<glyph unicode="&#xde;" horiz-adv-x="1122" d="M180 0v1380h96v-260h324q211 0 325.5 -106.5t114.5 -290.5q0 -98 -33.5 -174t-93 -127t-143.5 -77t-184 -26h-310v-319h-96zM276 406h310q168 0 263 79.5t95 237.5q0 154 -87 232.5t-257 78.5h-324v-628z" />
<glyph unicode="&#xdf;" horiz-adv-x="1214" d="M160 0v891q0 113 26.5 207t83 159.5t144.5 102.5t213 37q98 0 174 -24.5t127 -67.5t77.5 -102.5t26.5 -129.5q0 -104 -58.5 -179t-172.5 -97q59 -12 114.5 -40t97.5 -77t66.5 -121t24.5 -172q0 -111 -31 -187.5t-86 -124.5t-129 -69.5t-160 -21.5q-84 0 -158.5 15 t-127.5 36l18 78q53 -23 123.5 -36.5t136.5 -13.5q70 0 129.5 17.5t102.5 55.5t66.5 98.5t23.5 148.5q0 176 -97.5 277.5t-285.5 101.5h-82l-25 80h133q61 0 114.5 12t91.5 40t60.5 71t22.5 102q0 63 -24.5 110.5t-67.5 78t-101.5 46t-123.5 15.5q-205 0 -290 -108.5 t-85 -317.5v-891h-92z" />
<glyph unicode="&#xe0;" horiz-adv-x="1019" d="M86 270q0 160 110.5 240t325.5 80h242v69q0 147 -68.5 207t-197.5 60q-100 0 -175 -20.5t-135 -53.5l-22 70q55 33 141 58.5t191 25.5q180 0 269 -93.5t89 -253.5v-659h-68l-24 195q-55 -100 -147.5 -155.5t-219.5 -55.5q-66 0 -123 18t-99 55t-65.5 90.5t-23.5 122.5z M176 270q0 -53 17.5 -92t48 -64.5t71.5 -38t86 -12.5q88 0 156 30t114 78t70.5 107.5t24.5 120.5v111h-242q-184 0 -265 -57.5t-81 -182.5zM344 1335l55 74l277 -246l-27 -37z" />
<glyph unicode="&#xe1;" horiz-adv-x="1019" d="M86 270q0 160 110.5 240t325.5 80h242v69q0 147 -68.5 207t-197.5 60q-100 0 -175 -20.5t-135 -53.5l-22 70q55 33 141 58.5t191 25.5q180 0 269 -93.5t89 -253.5v-659h-68l-24 195q-55 -100 -147.5 -155.5t-219.5 -55.5q-66 0 -123 18t-99 55t-65.5 90.5t-23.5 122.5z M176 270q0 -53 17.5 -92t48 -64.5t71.5 -38t86 -12.5q88 0 156 30t114 78t70.5 107.5t24.5 120.5v111h-242q-184 0 -265 -57.5t-81 -182.5zM344 1163l276 246l55 -74l-305 -209z" />
<glyph unicode="&#xe2;" horiz-adv-x="1019" d="M86 270q0 160 110.5 240t325.5 80h242v69q0 147 -68.5 207t-197.5 60q-100 0 -175 -20.5t-135 -53.5l-22 70q55 33 141 58.5t191 25.5q180 0 269 -93.5t89 -253.5v-659h-68l-24 195q-55 -100 -147.5 -155.5t-219.5 -55.5q-66 0 -123 18t-99 55t-65.5 90.5t-23.5 122.5z M176 270q0 -53 17.5 -92t48 -64.5t71.5 -38t86 -12.5q88 0 156 30t114 78t70.5 107.5t24.5 120.5v111h-242q-184 0 -265 -57.5t-81 -182.5zM239 1124l240 281h61l240 -281h-68l-202 203l-203 -203h-68z" />
<glyph unicode="&#xe3;" horiz-adv-x="1019" d="M86 270q0 160 110.5 240t325.5 80h242v69q0 147 -68.5 207t-197.5 60q-100 0 -175 -20.5t-135 -53.5l-22 70q55 33 141 58.5t191 25.5q180 0 269 -93.5t89 -253.5v-659h-68l-24 195q-55 -100 -147.5 -155.5t-219.5 -55.5q-66 0 -123 18t-99 55t-65.5 90.5t-23.5 122.5z M176 270q0 -53 17.5 -92t48 -64.5t71.5 -38t86 -12.5q88 0 156 30t114 78t70.5 107.5t24.5 120.5v111h-242q-184 0 -265 -57.5t-81 -182.5zM215 1153q4 70 51 119t113 49q45 0 76.5 -15.5t59 -35t54.5 -34.5t62 -15q55 0 78.5 28.5t27.5 71.5h68q-4 -70 -51 -119t-113 -49 q-45 0 -78 15.5t-60.5 35t-54 34.5t-59.5 15q-55 0 -79 -28.5t-28 -71.5h-67z" />
<glyph unicode="&#xe4;" horiz-adv-x="1019" d="M86 270q0 160 110.5 240t325.5 80h242v69q0 147 -68.5 207t-197.5 60q-100 0 -175 -20.5t-135 -53.5l-22 70q55 33 141 58.5t191 25.5q180 0 269 -93.5t89 -253.5v-659h-68l-24 195q-55 -100 -147.5 -155.5t-219.5 -55.5q-66 0 -123 18t-99 55t-65.5 90.5t-23.5 122.5z M176 270q0 -53 17.5 -92t48 -64.5t71.5 -38t86 -12.5q88 0 156 30t114 78t70.5 107.5t24.5 120.5v111h-242q-184 0 -265 -57.5t-81 -182.5zM239 1278q0 29 20.5 50.5t55.5 21.5t55.5 -21.5t20.5 -50.5t-20.5 -50.5t-55.5 -21.5t-55.5 21.5t-20.5 50.5zM629 1278 q0 29 20 50.5t55 21.5t55.5 -21.5t20.5 -50.5t-20.5 -50.5t-55.5 -21.5t-55 21.5t-20 50.5z" />
<glyph unicode="&#xe5;" horiz-adv-x="1019" d="M86 270q0 160 110.5 240t325.5 80h242v69q0 147 -68.5 207t-197.5 60q-100 0 -175 -20.5t-135 -53.5l-22 70q55 33 141 58.5t191 25.5q180 0 269 -93.5t89 -253.5v-659h-68l-24 195q-55 -100 -147.5 -155.5t-219.5 -55.5q-66 0 -123 18t-99 55t-65.5 90.5t-23.5 122.5z M176 270q0 -53 17.5 -92t48 -64.5t71.5 -38t86 -12.5q88 0 156 30t114 78t70.5 107.5t24.5 120.5v111h-242q-184 0 -265 -57.5t-81 -182.5zM344 1286q0 70 48 118t118 48t118 -48t48 -118t-48.5 -118t-117.5 -48q-70 0 -118 48t-48 118zM403 1286q0 -53 31 -84t76 -31 t75.5 31t30.5 84t-30.5 84t-75.5 31t-76 -31t-31 -84z" />
<glyph unicode="&#xe6;" horiz-adv-x="1638" d="M86 270q0 160 110.5 240t325.5 80h242v69q0 147 -68.5 207t-197.5 60q-100 0 -175 -20.5t-135 -53.5l-22 70q55 33 141 58.5t191 25.5q139 0 218 -56.5t107 -158.5q47 100 134 157.5t223 57.5q172 0 266 -102.5t94 -289.5q0 -39 -7 -86t-17 -77h-670q4 -86 26.5 -158 t65.5 -122t110.5 -79t159.5 -29q78 0 140.5 20.5t113.5 49.5l25 -72q-51 -31 -122 -53t-161 -22q-162 0 -258 68.5t-141 187.5q-55 -129 -164 -193.5t-244 -64.5q-66 0 -123 18t-99 55t-65.5 90.5t-23.5 122.5zM176 270q0 -53 17.5 -92t48 -64.5t71.5 -38t86 -12.5 q88 0 156 30t114 78t70.5 107.5t24.5 120.5v111h-242q-184 0 -265 -57.5t-81 -182.5zM848 522h598q4 18 6 44t2 48q0 162 -69.5 239t-204.5 77q-88 0 -149.5 -31t-101.5 -84t-59.5 -129t-21.5 -164z" />
<glyph unicode="&#xe7;" horiz-adv-x="917" d="M98 496q0 111 29 204t87 161.5t144 106.5t201 38q76 0 139.5 -14.5t120.5 -39.5l-22 -71q-47 23 -106.5 35t-131.5 12q-94 0 -163.5 -32t-114.5 -89t-66.5 -137t-21.5 -174t22.5 -174t68.5 -137.5t117.5 -89.5t169.5 -32q66 0 126.5 15.5t113.5 38.5l25 -72 q-53 -27 -122 -43t-147 -16q-117 0 -205 37.5t-146 106.5t-88 162t-30 204zM387 -317l148 231h51l-98 -231h-101z" />
<glyph unicode="&#xe8;" horiz-adv-x="1007" d="M98 496q0 111 28 204t83 161.5t138 106.5t194 38q180 0 274 -102.5t94 -289.5q0 -39 -7 -86t-17 -77h-695q8 -172 100.5 -280t278.5 -108q78 0 144.5 20.5t117.5 49.5l25 -72q-51 -31 -126 -53t-165 -22q-117 0 -205 37.5t-146 106.5t-87 162t-29 204zM193 522h622 q4 18 6 44t2 48q0 162 -68.5 239t-213.5 77q-92 0 -158 -31t-106.5 -84t-61 -129t-22.5 -164zM338 1335l55 74l277 -246l-27 -37z" />
<glyph unicode="&#xe9;" horiz-adv-x="1007" d="M98 496q0 111 28 204t83 161.5t138 106.5t194 38q180 0 274 -102.5t94 -289.5q0 -39 -7 -86t-17 -77h-695q8 -172 100.5 -280t278.5 -108q78 0 144.5 20.5t117.5 49.5l25 -72q-51 -31 -126 -53t-165 -22q-117 0 -205 37.5t-146 106.5t-87 162t-29 204zM193 522h622 q4 18 6 44t2 48q0 162 -68.5 239t-213.5 77q-92 0 -158 -31t-106.5 -84t-61 -129t-22.5 -164zM338 1163l276 246l55 -74l-305 -209z" />
<glyph unicode="&#xea;" horiz-adv-x="1007" d="M98 496q0 111 28 204t83 161.5t138 106.5t194 38q180 0 274 -102.5t94 -289.5q0 -39 -7 -86t-17 -77h-695q8 -172 100.5 -280t278.5 -108q78 0 144.5 20.5t117.5 49.5l25 -72q-51 -31 -126 -53t-165 -22q-117 0 -205 37.5t-146 106.5t-87 162t-29 204zM193 522h622 q4 18 6 44t2 48q0 162 -68.5 239t-213.5 77q-92 0 -158 -31t-106.5 -84t-61 -129t-22.5 -164zM233 1124l240 281h61l240 -281h-68l-202 203l-203 -203h-68z" />
<glyph unicode="&#xeb;" horiz-adv-x="1007" d="M98 496q0 111 28 204t83 161.5t138 106.5t194 38q180 0 274 -102.5t94 -289.5q0 -39 -7 -86t-17 -77h-695q8 -172 100.5 -280t278.5 -108q78 0 144.5 20.5t117.5 49.5l25 -72q-51 -31 -126 -53t-165 -22q-117 0 -205 37.5t-146 106.5t-87 162t-29 204zM193 522h622 q4 18 6 44t2 48q0 162 -68.5 239t-213.5 77q-92 0 -158 -31t-106.5 -84t-61 -129t-22.5 -164zM233 1278q0 29 20.5 50.5t55.5 21.5t55.5 -21.5t20.5 -50.5t-20.5 -50.5t-55.5 -21.5t-55.5 21.5t-20.5 50.5zM623 1278q0 29 20 50.5t55 21.5t55.5 -21.5t20.5 -50.5 t-20.5 -50.5t-55.5 -21.5t-55 21.5t-20 50.5z" />
<glyph unicode="&#xec;" horiz-adv-x="442" d="M55 1335l55 74l277 -246l-27 -37zM174 0v989h94v-989h-94z" />
<glyph unicode="&#xed;" horiz-adv-x="442" d="M58 1163l276 246l55 -74l-305 -209zM174 0v989h94v-989h-94z" />
<glyph unicode="&#xee;" horiz-adv-x="442" d="M-47 1124l240 281h61l240 -281h-68l-202 203l-203 -203h-68zM174 0v989h94v-989h-94z" />
<glyph unicode="&#xef;" horiz-adv-x="442" d="M-47 1278q0 29 20.5 50.5t55.5 21.5t55.5 -21.5t20.5 -50.5t-20.5 -50.5t-55.5 -21.5t-55.5 21.5t-20.5 50.5zM174 0v989h94v-989h-94zM343 1278q0 29 20 50.5t55 21.5t55.5 -21.5t20.5 -50.5t-20.5 -50.5t-55.5 -21.5t-55 21.5t-20 50.5z" />
<glyph unicode="&#xf0;" horiz-adv-x="1134" d="M98 481q0 106 30 202.5t88 167.5t145.5 113t201.5 42q117 0 190.5 -42t135.5 -112h6q-33 104 -94.5 195.5t-147.5 164.5l-202 -94l-25 53l176 82q-113 84 -246 133l25 58q76 -29 148.5 -68t138.5 -92l200 96l27 -53l-178 -84q139 -125 225 -306t86 -419 q0 -113 -30.5 -210t-91 -169.5t-147.5 -113.5t-200 -41q-109 0 -194.5 38.5t-145 106.5t-90.5 159t-31 193zM193 487q0 -92 24.5 -169.5t70.5 -134t114.5 -89.5t156.5 -33q94 0 166 39t118 101.5t69.5 140.5t23.5 154q0 90 -20.5 168.5t-65.5 137t-115.5 92.5t-171.5 34 q-94 0 -163.5 -34t-115.5 -93.5t-68.5 -139t-22.5 -174.5z" />
<glyph unicode="&#xf1;" horiz-adv-x="1138" d="M168 0v989h70l24 -194q31 39 71 76.5t89 67.5t106.5 48.5t120.5 18.5q156 0 241 -96.5t85 -274.5v-635h-94v635q0 137 -64.5 212t-175.5 75q-59 0 -114.5 -19.5t-104.5 -52.5t-90 -74t-70 -84v-692h-94zM275 1153q4 70 51 119t113 49q45 0 76.5 -15.5t59 -35t54.5 -34.5 t62 -15q55 0 78.5 28.5t27.5 71.5h68q-4 -70 -51 -119t-113 -49q-45 0 -78 15.5t-60.5 35t-54 34.5t-59.5 15q-55 0 -79 -28.5t-28 -71.5h-67z" />
<glyph unicode="&#xf2;" horiz-adv-x="1085" d="M98 496q0 111 28 204t83 161.5t138 106.5t196 38t195.5 -38t138 -106.5t83 -162t27.5 -203.5q0 -111 -27.5 -204t-83 -162t-138.5 -106.5t-195 -37.5q-113 0 -196 37.5t-138 106.5t-83 162t-28 204zM193 496q0 -94 20 -174t62 -137.5t109 -89.5t159 -32t158.5 32 t108.5 89.5t62.5 137t20.5 174.5q0 94 -20.5 174t-62.5 137t-108.5 89t-158.5 32t-159 -32t-109 -89t-62 -137t-20 -174zM377 1335l55 74l277 -246l-27 -37z" />
<glyph unicode="&#xf3;" horiz-adv-x="1085" d="M98 496q0 111 28 204t83 161.5t138 106.5t196 38t195.5 -38t138 -106.5t83 -162t27.5 -203.5q0 -111 -27.5 -204t-83 -162t-138.5 -106.5t-195 -37.5q-113 0 -196 37.5t-138 106.5t-83 162t-28 204zM193 496q0 -94 20 -174t62 -137.5t109 -89.5t159 -32t158.5 32 t108.5 89.5t62.5 137t20.5 174.5q0 94 -20.5 174t-62.5 137t-108.5 89t-158.5 32t-159 -32t-109 -89t-62 -137t-20 -174zM377 1163l276 246l55 -74l-305 -209z" />
<glyph unicode="&#xf4;" horiz-adv-x="1085" d="M98 496q0 111 28 204t83 161.5t138 106.5t196 38t195.5 -38t138 -106.5t83 -162t27.5 -203.5q0 -111 -27.5 -204t-83 -162t-138.5 -106.5t-195 -37.5q-113 0 -196 37.5t-138 106.5t-83 162t-28 204zM193 496q0 -94 20 -174t62 -137.5t109 -89.5t159 -32t158.5 32 t108.5 89.5t62.5 137t20.5 174.5q0 94 -20.5 174t-62.5 137t-108.5 89t-158.5 32t-159 -32t-109 -89t-62 -137t-20 -174zM272 1124l240 281h61l240 -281h-68l-202 203l-203 -203h-68z" />
<glyph unicode="&#xf5;" horiz-adv-x="1085" d="M98 496q0 111 28 204t83 161.5t138 106.5t196 38t195.5 -38t138 -106.5t83 -162t27.5 -203.5q0 -111 -27.5 -204t-83 -162t-138.5 -106.5t-195 -37.5q-113 0 -196 37.5t-138 106.5t-83 162t-28 204zM193 496q0 -94 20 -174t62 -137.5t109 -89.5t159 -32t158.5 32 t108.5 89.5t62.5 137t20.5 174.5q0 94 -20.5 174t-62.5 137t-108.5 89t-158.5 32t-159 -32t-109 -89t-62 -137t-20 -174zM248 1153q4 70 51 119t113 49q45 0 76.5 -15.5t59 -35t54.5 -34.5t62 -15q55 0 78.5 28.5t27.5 71.5h68q-4 -70 -51 -119t-113 -49q-45 0 -78 15.5 t-60.5 35t-54 34.5t-59.5 15q-55 0 -79 -28.5t-28 -71.5h-67z" />
<glyph unicode="&#xf6;" horiz-adv-x="1085" d="M98 496q0 111 28 204t83 161.5t138 106.5t196 38t195.5 -38t138 -106.5t83 -162t27.5 -203.5q0 -111 -27.5 -204t-83 -162t-138.5 -106.5t-195 -37.5q-113 0 -196 37.5t-138 106.5t-83 162t-28 204zM193 496q0 -94 20 -174t62 -137.5t109 -89.5t159 -32t158.5 32 t108.5 89.5t62.5 137t20.5 174.5q0 94 -20.5 174t-62.5 137t-108.5 89t-158.5 32t-159 -32t-109 -89t-62 -137t-20 -174zM272 1278q0 29 20.5 50.5t55.5 21.5t55.5 -21.5t20.5 -50.5t-20.5 -50.5t-55.5 -21.5t-55.5 21.5t-20.5 50.5zM662 1278q0 29 20 50.5t55 21.5 t55.5 -21.5t20.5 -50.5t-20.5 -50.5t-55.5 -21.5t-55 21.5t-20 50.5z" />
<glyph unicode="&#xf7;" horiz-adv-x="1118" d="M127 541v80h864v-80h-864zM455 268q0 41 25.5 72t78.5 31t79 -31t26 -72t-26 -71.5t-79 -30.5t-78.5 30.5t-25.5 71.5zM455 909q0 41 25.5 72t78.5 31t79 -31t26 -72t-26 -71.5t-79 -30.5t-78.5 30.5t-25.5 71.5z" />
<glyph unicode="&#xf8;" horiz-adv-x="1085" d="M98 496q0 111 28 204t83 161.5t138 106.5t196 38q117 0 202 -43l91 161h77l-108 -196q92 -66 137 -178.5t45 -253.5q0 -111 -27.5 -204t-83 -162t-138.5 -106.5t-195 -37.5q-133 0 -228 53l-65 -121h-78l88 160q-82 68 -122 175t-40 243zM193 496q0 -111 25.5 -198 t82.5 -144l406 737q-35 16 -76 26.5t-88 10.5q-92 0 -159 -32t-109 -89t-62 -137t-20 -174zM356 111q76 -48 187 -48q92 0 158.5 32t108.5 89.5t62.5 137t20.5 174.5q0 117 -32 209t-97 149z" />
<glyph unicode="&#xf9;" horiz-adv-x="1118" d="M164 354v635h94v-635q0 -137 58.5 -211.5t185.5 -74.5q57 0 112.5 20.5t101.5 52t82 72.5t58 84v692h94v-989h-69l-25 195q-18 -37 -53 -74t-81 -67.5t-104.5 -50t-123.5 -19.5q-160 0 -245 96t-85 274zM393 1335l55 74l277 -246l-27 -37z" />
<glyph unicode="&#xfa;" horiz-adv-x="1118" d="M164 354v635h94v-635q0 -137 58.5 -211.5t185.5 -74.5q57 0 112.5 20.5t101.5 52t82 72.5t58 84v692h94v-989h-69l-25 195q-18 -37 -53 -74t-81 -67.5t-104.5 -50t-123.5 -19.5q-160 0 -245 96t-85 274zM394 1163l276 246l55 -74l-305 -209z" />
<glyph unicode="&#xfb;" horiz-adv-x="1118" d="M164 354v635h94v-635q0 -137 58.5 -211.5t185.5 -74.5q57 0 112.5 20.5t101.5 52t82 72.5t58 84v692h94v-989h-69l-25 195q-18 -37 -53 -74t-81 -67.5t-104.5 -50t-123.5 -19.5q-160 0 -245 96t-85 274zM288 1124l240 281h61l240 -281h-68l-202 203l-203 -203h-68z" />
<glyph unicode="&#xfc;" horiz-adv-x="1118" d="M164 354v635h94v-635q0 -137 58.5 -211.5t185.5 -74.5q57 0 112.5 20.5t101.5 52t82 72.5t58 84v692h94v-989h-69l-25 195q-18 -37 -53 -74t-81 -67.5t-104.5 -50t-123.5 -19.5q-160 0 -245 96t-85 274zM288 1278q0 29 20.5 50.5t55.5 21.5t55.5 -21.5t20.5 -50.5 t-20.5 -50.5t-55.5 -21.5t-55.5 21.5t-20.5 50.5zM678 1278q0 29 20 50.5t55 21.5t55.5 -21.5t20.5 -50.5t-20.5 -50.5t-55.5 -21.5t-55 21.5t-20 50.5z" />
<glyph unicode="&#xfd;" horiz-adv-x="1136" d="M164 371v618h94v-618q0 -137 58.5 -212t185.5 -75q57 0 111.5 20.5t100.5 52t80.5 72.5t57.5 84v676h94v-944q0 -455 -389 -455q-111 0 -203 30t-145 65l24 75q53 -33 139.5 -59.5t184.5 -26.5q72 0 127 19.5t92 63.5t56.5 116t19.5 174v164q-18 -37 -52 -75t-80 -67.5 t-103.5 -49t-122.5 -19.5q-160 0 -245 96.5t-85 274.5zM402 1163l276 246l55 -74l-305 -209z" />
<glyph unicode="&#xfe;" horiz-adv-x="1124" d="M168 -391v1771h94v-585q25 37 60.5 74.5t83 67.5t104.5 49.5t125 19.5q82 0 152.5 -32t123 -95.5t82 -158.5t29.5 -222q0 -137 -32 -234.5t-87 -160t-130 -91t-161 -28.5q-123 0 -210 57t-140 154v-586h-94zM262 434q0 -68 21.5 -133t64.5 -117.5t107.5 -84t150.5 -31.5 q59 0 117.5 22.5t103.5 73.5t73 133t28 201q0 113 -23.5 192.5t-63.5 130.5t-95.5 76t-116.5 25q-111 0 -204 -59.5t-163 -170.5v-258z" />
<glyph unicode="&#xff;" horiz-adv-x="1136" d="M164 371v618h94v-618q0 -137 58.5 -212t185.5 -75q57 0 111.5 20.5t100.5 52t80.5 72.5t57.5 84v676h94v-944q0 -455 -389 -455q-111 0 -203 30t-145 65l24 75q53 -33 139.5 -59.5t184.5 -26.5q72 0 127 19.5t92 63.5t56.5 116t19.5 174v164q-18 -37 -52 -75t-80 -67.5 t-103.5 -49t-122.5 -19.5q-160 0 -245 96.5t-85 274.5zM297 1278q0 29 20.5 50.5t55.5 21.5t55.5 -21.5t20.5 -50.5t-20.5 -50.5t-55.5 -21.5t-55.5 21.5t-20.5 50.5zM687 1278q0 29 20 50.5t55 21.5t55.5 -21.5t20.5 -50.5t-20.5 -50.5t-55.5 -21.5t-55 21.5t-20 50.5z" />
<glyph unicode="&#x131;" horiz-adv-x="442" d="M174 0v989h94v-989h-94z" />
<glyph unicode="&#x141;" horiz-adv-x="1032" d="M53 575v78l127 56v671h96v-628l322 141v-78l-322 -141v-586h687v-88h-783v631z" />
<glyph unicode="&#x142;" horiz-adv-x="442" d="M53 575v78l121 54v673h94v-630l121 53v-78l-121 -53v-672h-94v629z" />
<glyph unicode="&#x152;" horiz-adv-x="2115" d="M102 690q0 152 37 282t111 224t183.5 147.5t256.5 53.5q186 0 304 -83t184 -224v290h823v-86h-727v-540h682v-86h-682v-584h739v-84h-835v291q-66 -141 -183.5 -224t-304.5 -83q-147 0 -256.5 53t-183.5 147.5t-111 224.5t-37 281zM199 690q0 -135 29.5 -249.5t91 -197.5 t153.5 -129t217 -46q123 0 213 45t151.5 127t92.5 196.5t35 253.5q0 135 -30 249t-91.5 197t-153.5 130t-217 47t-217 -47t-153.5 -130t-91 -197t-29.5 -249z" />
<glyph unicode="&#x153;" horiz-adv-x="1705" d="M98 496q0 111 27 204t81 161.5t136 106.5t195 38q131 0 216 -55.5t119 -137.5q53 90 144.5 141.5t222.5 51.5q180 0 274.5 -102.5t94.5 -289.5q0 -39 -7.5 -86t-17.5 -77h-694q8 -172 100 -280t279 -108q78 0 144.5 20.5t117.5 49.5l24 -72q-51 -31 -125.5 -53 t-164.5 -22q-139 0 -236.5 51t-153.5 143q-39 -86 -121.5 -140t-215.5 -54q-113 0 -195 37.5t-136 106.5t-81 162t-27 204zM193 496q0 -94 19 -174t60 -137.5t107 -89.5t158 -32q119 0 192.5 51.5t108.5 143.5q-41 106 -41 238q0 135 39 239q-35 90 -109 141.5t-190 51.5 q-92 0 -158 -32t-107 -89t-60 -137t-19 -174zM891 522h622q4 18 6.5 44t2.5 48q0 162 -69 239t-214 77q-92 0 -157.5 -31t-106.5 -84t-61.5 -129t-22.5 -164z" />
<glyph unicode="&#x160;" horiz-adv-x="1069" d="M139 1057q0 70 22.5 132t73 108t129 73t189.5 27q106 0 193.5 -24.5t146.5 -55.5l-27 -72q-63 31 -147 49.5t-164 18.5q-172 0 -248 -72t-76 -190q0 -68 24 -114t67 -80t102 -59.5t133 -49.5q80 -27 154.5 -55.5t132 -70.5t92.5 -103.5t35 -156.5q0 -92 -32 -162.5 t-90 -118.5t-140.5 -72.5t-182.5 -24.5q-145 0 -234 25.5t-151 60.5l29 80q70 -35 154 -58.5t202 -23.5q76 0 141.5 17t111.5 53t73 91.5t27 132.5q0 80 -29 129.5t-78 81t-112.5 52t-131.5 43.5q-70 23 -139.5 52.5t-124.5 73.5t-90 108.5t-35 154.5zM264 1802h68l203 -203 l202 203h68l-240 -281h-61z" />
<glyph unicode="&#x161;" horiz-adv-x="864" d="M106 762q0 61 25 107t69 77t103 45.5t127 14.5q88 0 162 -18.5t131 -43.5l-25 -76q-53 25 -122.5 41.5t-145.5 16.5q-111 0 -172 -39t-61 -117q0 -90 66.5 -138t164.5 -75q162 -47 246 -116.5t84 -192.5t-86 -193.5t-260 -70.5q-86 0 -168 19.5t-135 43.5l24 74 q49 -23 125 -40.5t154 -17.5q131 0 193.5 49.5t62.5 135.5q0 49 -20.5 84t-57.5 61.5t-87 45t-108 36.5q-61 18 -113.5 42t-91 57.5t-61.5 78.5t-23 109zM161 1401h68l203 -203l202 203h68l-240 -281h-61z" />
<glyph unicode="&#x178;" horiz-adv-x="1120" d="M37 1380h102l420 -721h2l420 721h102l-475 -807v-573h-96v573zM288 1679q0 29 20.5 50.5t55.5 21.5t55.5 -21.5t20.5 -50.5t-20.5 -50.5t-55.5 -21.5t-55.5 21.5t-20.5 50.5zM678 1679q0 29 20 50.5t55 21.5t55.5 -21.5t20.5 -50.5t-20.5 -50.5t-55.5 -21.5t-55 21.5 t-20 50.5z" />
<glyph unicode="&#x17d;" horiz-adv-x="1105" d="M98 0v72l781 1222h-727v86h841v-73l-778 -1221h793v-86h-910zM282 1802h68l203 -203l202 203h68l-240 -281h-61z" />
<glyph unicode="&#x17e;" horiz-adv-x="903" d="M86 0v55l594 856h-547v78h664v-55l-594 -856h610v-78h-727zM180 1401h68l203 -203l202 203h68l-240 -281h-61z" />
<glyph unicode="&#x192;" horiz-adv-x="1118" d="M-4 -115l31 68q29 -14 66.5 -21.5t72.5 -7.5q123 0 173 69.5t69 199.5l73 542h-192v78h203l26 188q20 158 97 252.5t231 94.5q53 0 97 -11.5t79 -29.5l-31 -68q-29 14 -66.5 21.5t-72.5 7.5q-123 0 -174 -70t-68 -199l-26 -186h305v-78h-316l-73 -545 q-23 -158 -98.5 -252t-229.5 -94q-53 0 -97 11.5t-79 29.5z" />
<glyph unicode="&#x2c6;" horiz-adv-x="573" d="M16 1124l240 281h61l240 -281h-68l-202 203l-203 -203h-68z" />
<glyph unicode="&#x2c7;" horiz-adv-x="573" d="M16 1401h68l203 -203l202 203h68l-240 -281h-61z" />
<glyph unicode="&#x2d8;" horiz-adv-x="573" d="M20 1391h56q16 -72 70.5 -115t140.5 -43t140 43t71 115h55q-6 -47 -27.5 -88t-56.5 -72t-81 -49.5t-101 -18.5t-101.5 18.5t-81 49.5t-56 71.5t-28.5 88.5z" />
<glyph unicode="&#x2d9;" horiz-adv-x="573" d="M205 1290q0 33 21.5 55.5t60.5 22.5t60.5 -22.5t21.5 -55.5t-21.5 -55.5t-60.5 -22.5t-60.5 22.5t-21.5 55.5z" />
<glyph unicode="&#x2da;" horiz-adv-x="573" d="M121 1286q0 70 48 118t118 48t118 -48t48 -118t-48.5 -118t-117.5 -48q-70 0 -118 48t-48 118zM180 1286q0 -53 31 -84t76 -31t75.5 31t30.5 84t-30.5 84t-75.5 31t-76 -31t-31 -84z" />
<glyph unicode="&#x2db;" horiz-adv-x="573" d="M250 4h51l131 -190h-100z" />
<glyph unicode="&#x2dc;" horiz-adv-x="573" d="M-8 1153q4 70 51 119t113 49q45 0 76.5 -15.5t59 -35t54.5 -34.5t62 -15q55 0 78.5 28.5t27.5 71.5h68q-4 -70 -51 -119t-113 -49q-45 0 -78 15.5t-60.5 35t-54 34.5t-59.5 15q-55 0 -79 -28.5t-28 -71.5h-67z" />
<glyph unicode="&#x2dd;" horiz-adv-x="573" d="M117 1137l149 256h84l-182 -256h-51zM403 1137l150 256h84l-182 -256h-52z" />
<glyph unicode="&#x3a9;" horiz-adv-x="1495" d="M147 788q0 139 42 252t120 192t188.5 122t250.5 43q137 0 248.5 -43t189.5 -122t120 -191.5t42 -252.5q0 -123 -38 -229t-93.5 -194.5t-119 -159t-114.5 -121.5h285v-84h-396v72q55 45 122 112.5t123.5 154.5t95 191.5t38.5 225.5q0 133 -34.5 236.5t-100 174 t-158.5 106.5t-210 36t-210.5 -36t-159 -106.5t-100 -174t-34.5 -236.5q0 -121 37.5 -225.5t95 -191.5t123 -154.5t121.5 -112.5v-72h-394v84h283q-51 51 -114.5 121.5t-119 159t-92.5 195t-37 228.5z" />
<glyph unicode="&#x3c0;" horiz-adv-x="1212" d="M74 948q41 16 107.5 28.5t158.5 12.5h788v-84h-258v-651q0 -90 29 -142.5t98 -52.5q35 0 65 9.5t46 19.5l22 -63q-23 -16 -62.5 -26.5t-84.5 -10.5q-61 0 -101 23.5t-63.5 62.5t-33 90t-9.5 106v635h-342v-543q0 -96 -16.5 -190t-40.5 -172h-92q29 90 42 173t13 189v543 q-84 -2 -146.5 -13t-107.5 -28z" />
<glyph unicode="&#xe00;" horiz-adv-x="399" />
<glyph unicode="&#xe01;" horiz-adv-x="1214" d="M115 840q20 59 63 117.5t105.5 104.5t140.5 73.5t166 27.5q109 0 192.5 -33.5t142 -92t89 -138.5t30.5 -174v-725h-96v725q0 160 -92 257t-266 97q-135 0 -229.5 -67.5t-141.5 -161.5l193 -152v-18q-70 -25 -107 -80t-37 -127v-473h-96v461q0 78 34 140.5t99 90.5z" />
<glyph unicode="&#xe02;" horiz-adv-x="1110" d="M150 362v162q0 59 32.5 111.5t71.5 102.5t71.5 100.5t32.5 105.5v60q0 33 -13 48t-48 15h-135v80h135q82 0 118 -39t36 -107v-57q0 -61 -32 -113.5t-71 -102.5t-70.5 -100t-31.5 -104v-164q0 -166 75.5 -229t223.5 -63q147 0 223 63.5t76 228.5v787h96v-785 q0 -199 -101.5 -288.5t-293.5 -89.5q-193 0 -294 90t-101 288z" />
<glyph unicode="&#xe03;" horiz-adv-x="1122" d="M86 1081v82l135 -84q45 76 127 76q131 0 131 -149v-60q0 -61 -34.5 -114.5t-77.5 -104.5t-78 -102.5t-35 -104.5v-160q0 -166 76 -229t223 -63t223 63.5t76 228.5v787h96v-785q0 -199 -101.5 -288.5t-293.5 -89.5q-193 0 -294 90t-101 288v158q0 59 35.5 112.5 t78.5 104.5t79 102.5t36 106.5v60q0 66 -55 65q-35 0 -57.5 -23.5t-36.5 -58.5z" />
<glyph unicode="&#xe04;" horiz-adv-x="1253" d="M170 0v729q0 90 28.5 169t86 138.5t143.5 93t199 33.5t198.5 -33.5t143 -93t86 -138.5t28.5 -169v-729h-96v729q0 158 -91 254t-269 96t-269.5 -95t-91.5 -253v-291q31 78 104.5 131.5t176.5 53.5h129v-88h-129q-109 0 -179.5 -64.5t-101.5 -171.5v-301h-96z" />
<glyph unicode="&#xe05;" horiz-adv-x="1265" d="M172 0v840q0 143 64.5 220t187.5 103l209 -145l209 145q123 -27 187.5 -103.5t64.5 -219.5v-840h-97v842q0 100 -39.5 158.5t-109.5 76.5l-215 -145l-215 145q-70 -18 -110 -76.5t-40 -158.5v-402q31 78 104.5 131.5t176.5 53.5h129v-88h-129q-109 0 -179.5 -64.5 t-101.5 -171.5v-301h-96z" />
<glyph unicode="&#xe06;" horiz-adv-x="1212" d="M82 1081v82l135 -84q45 76 127 76q131 0 131 -149v-60q0 -61 -31.5 -114.5t-70.5 -104.5t-71 -102.5t-32 -104.5v-170q27 -59 66 -111.5t90 -90t111.5 -59t128.5 -21.5q154 0 217 92t63 252v735h96v-737q0 -209 -89 -317.5t-269 -108.5q-125 0 -232.5 55t-177.5 176 l-14 -215h-86v520q0 59 33 112.5t71.5 104.5t71.5 102.5t33 106.5v60q0 66 -55 65q-35 0 -57.5 -23.5t-37.5 -58.5z" />
<glyph unicode="&#xe07;" horiz-adv-x="1110" d="M33 1147h92l338 -1063h24q80 0 154 38t130 108.5t90 172t34 226.5q0 117 -23.5 201.5t-65.5 140t-96.5 82t-115.5 26.5q-43 0 -74 -7t-57 -17l-14 78q27 12 68.5 21t80.5 9q86 0 158.5 -33.5t125 -100t81 -167t28.5 -233.5q0 -152 -39 -268.5t-107.5 -196.5t-161.5 -122 t-200 -42h-92z" />
<glyph unicode="&#xe08;" horiz-adv-x="1087" d="M57 1018q76 59 185.5 102t244.5 43q117 0 208 -39t153.5 -110.5t95.5 -172t33 -220.5q0 -135 -36 -250t-100.5 -197t-152.5 -128t-192 -46h-95l-120 510q-12 51 -64 51h-80v80h82q78 0 108.5 -29.5t43.5 -83.5l106 -448h35q70 0 135.5 35t117.5 102.5t84 167.5t32 233 q0 221 -101.5 341t-294.5 120q-133 0 -225 -39t-172 -92z" />
<glyph unicode="&#xe09;" horiz-adv-x="1189" d="M94 1024q78 53 191.5 96t265.5 43q117 0 205 -34.5t146.5 -97t88 -147.5t29.5 -186v-698h-86l-14 215q-70 -117 -174.5 -174t-229.5 -57q-160 0 -235.5 77.5t-75.5 270.5v180q0 49 -43 49h-64v80h64q74 0 106.5 -34t32.5 -95v-178q0 -72 10.5 -123t37 -83t71.5 -46 t115 -14q68 0 127 22.5t108 60t88 89t66 110.5v348q0 178 -92.5 279.5t-278.5 101.5q-133 0 -236.5 -37.5t-183.5 -91.5z" />
<glyph unicode="&#xe0a;" horiz-adv-x="1114" d="M150 362v162q0 59 32.5 111.5t71.5 102.5t71.5 100.5t32.5 105.5v60q0 33 -13 48t-48 15h-135v80h135q82 0 118 -39t36 -107v-57q0 -61 -32 -113.5t-71 -102.5t-70.5 -100t-31.5 -104v-164q0 -166 76.5 -229t224.5 -63q147 0 224 63.5t77 228.5v236q0 92 -45 145.5 t-117 53.5h-49l-14 41l231 311h107l-224 -291q98 -10 152.5 -83t54.5 -175v-236q0 -199 -102.5 -288.5t-294.5 -89.5q-193 0 -295 90t-102 288z" />
<glyph unicode="&#xe0b;" horiz-adv-x="1122" d="M86 1081v82l135 -84q45 76 127 76q131 0 131 -149v-60q0 -61 -34.5 -114.5t-77.5 -104.5t-78 -102.5t-35 -104.5v-160q0 -166 77 -229t224 -63t224 63.5t77 228.5v236q0 92 -45 145.5t-117 53.5h-49l-14 41l231 311h107l-224 -291q98 -10 152.5 -83t54.5 -175v-236 q0 -199 -102 -288.5t-295 -89.5t-295 90t-102 288v158q0 59 35.5 112.5t78.5 104.5t79 102.5t36 106.5v60q0 66 -55 65q-35 0 -57.5 -23.5t-36.5 -58.5z" />
<glyph unicode="&#xe0c;" horiz-adv-x="1865" d="M115 840q20 59 62 117.5t102.5 104.5t135 73.5t160.5 27.5q104 0 184.5 -33.5t132.5 -92t78.5 -138.5t26.5 -174v-375q27 -59 65 -111.5t86 -90t104.5 -59t121.5 -21.5q66 0 110 24.5t69.5 66.5t35.5 98t10 122v768h97v-770q0 -88 -16.5 -161t-53.5 -124t-95 -79.5 t-142 -28.5q-123 0 -226.5 60t-161.5 171l-14 -215h-86v725q0 160 -80 257t-246 97q-127 0 -218 -67.5t-138 -161.5l193 -152v-18q-70 -25 -107 -80t-37 -127v-321q0 -72 70 -72h108v-80h-116q-72 0 -115 37t-43 110v314q0 78 34 140.5t99 90.5z" />
<glyph unicode="&#xe0d;" horiz-adv-x="1865" d="M115 840q20 59 62 117.5t102.5 104.5t135 73.5t160.5 27.5q104 0 183.5 -33.5t131.5 -92t77.5 -138.5t25.5 -174v-367q0 -57 10.5 -107t37 -87t71.5 -58.5t115 -21.5q61 0 116.5 21.5t102.5 59.5t85 90t64 112v780h97v-1006q0 -233 -107.5 -337.5t-286.5 -104.5 q-123 0 -214 27.5t-148 64.5l25 76q57 -35 138 -59.5t177 -24.5q156 0 235.5 81t79.5 279v88q-57 -111 -158.5 -171t-213.5 -60q-90 0 -151.5 25.5t-99.5 71.5t-54.5 111.5t-16.5 147.5v369q0 160 -78 257t-244 97q-127 0 -218 -67.5t-138 -161.5l193 -152v-18 q-70 -25 -107 -80t-37 -127v-321q0 -72 70 -72h108v-80h-116q-72 0 -115 37t-43 110v314q0 78 34 140.5t99 90.5z" />
<glyph unicode="&#xe0e;" horiz-adv-x="1224" d="M78 0v80h74q61 0 61 65v316q0 78 36 137t95 88l-219 141q20 59 64 120t106.5 109t141.5 77.5t167 29.5q109 0 193 -33.5t141 -92t87 -138.5t30 -174v-1135h-115q-53 47 -136 86t-200 39q-94 0 -164.5 -32.5t-130.5 -90.5l-26 82q49 51 124.5 88t198.5 37q102 0 197.5 -40 t154.5 -97v1063q0 160 -90 257t-264 97q-68 0 -126 -20.5t-106 -53t-84 -74.5t-57 -85l228 -154v-18q-70 -25 -110 -77t-40 -124v-332q0 -74 -39 -107.5t-110 -33.5h-82z" />
<glyph unicode="&#xe0f;" horiz-adv-x="1224" d="M78 0v80h74q61 0 61 65v316q0 78 36 137t95 88l-219 141q20 59 64 120t106.5 109t141.5 77.5t167 29.5q109 0 193 -33.5t141 -92t87 -138.5t30 -174v-1135h-101l-272 164q-35 -86 -101.5 -131t-144.5 -45t-142.5 20.5t-100.5 45.5l28 82q39 -27 95.5 -47.5t115.5 -20.5 q86 0 138.5 59.5t74.5 153.5l313 -186v1040q0 160 -90 257t-264 97q-68 0 -126 -20.5t-106 -53t-84 -74.5t-57 -85l228 -154v-18q-70 -25 -110 -77t-40 -124v-332q0 -74 -39 -107.5t-110 -33.5h-82z" />
<glyph unicode="&#xe10;" horiz-adv-x="1087" d="M57 1018q76 59 185.5 102t244.5 43q80 0 147.5 -20.5t123.5 -55.5l125 140h110l-170 -191q76 -74 115 -180t39 -235q0 -135 -36 -250t-100.5 -197t-152.5 -128t-192 -46h-95l-120 510q-12 51 -64 51h-80v80h82q78 0 108.5 -29.5t43.5 -83.5l106 -448h35q70 0 135.5 35 t117.5 102.5t84 167.5t32 233q0 209 -101.5 335t-294.5 126q-133 0 -226 -36.5t-171 -94.5zM172 -330h139q68 0 120 38t79 91q31 -53 81 -91t122 -38h102v121h84v-201h-178q-127 0 -213 107q-74 -106 -211 -107h-125v80z" />
<glyph unicode="&#xe11;" horiz-adv-x="1228" d="M86 1081v82l135 -84q45 76 127 76q131 0 131 -145q53 59 130 106t173 47q57 0 107.5 -20.5t87.5 -64.5t58.5 -113.5t21.5 -169.5v-795h-96v793q0 160 -46.5 223t-138.5 63q-74 0 -162 -55t-164.5 -142t-128 -195.5t-51.5 -215.5v-471h-96v459q0 82 20.5 153.5t52.5 132 t68.5 108.5t71.5 83v70q0 66 -55 65q-35 0 -57.5 -23.5t-36.5 -58.5z" />
<glyph unicode="&#xe12;" horiz-adv-x="1990" d="M111 549q0 135 31.5 240.5t86 182.5t126 125t151.5 66l168 -125l168 125q113 -23 176 -93.5t63 -213.5v-506q27 -59 65 -111.5t86 -90t105.5 -59t122.5 -21.5q147 0 205.5 92t58.5 252v735h97v-737q0 -209 -84 -317.5t-258 -108.5q-121 0 -222.5 55t-171.5 176l-14 -215 h-86v858q0 100 -35 151.5t-100 67.5l-176 -121l-166 115q-59 -12 -114.5 -52t-96.5 -106.5t-65.5 -156.5t-24.5 -201q0 -115 25.5 -205t70.5 -151.5t108.5 -94t139.5 -32.5q86 0 145 28l17 -73q-68 -39 -172 -39q-88 0 -166 36.5t-136.5 107.5t-93 175.5t-34.5 241.5z" />
<glyph unicode="&#xe13;" horiz-adv-x="1865" d="M115 840q20 59 62 117.5t102.5 104.5t135 73.5t160.5 27.5q104 0 183.5 -33.5t131.5 -92t77.5 -138.5t25.5 -174v-383q0 -57 10.5 -107.5t37 -87t71.5 -58t115 -21.5q61 0 116.5 21.5t102.5 59t85 90t64 111.5v797h97v-1147h-86l-15 215q-57 -111 -158.5 -171t-213.5 -60 q-90 0 -151.5 25.5t-99.5 71.5t-54.5 111.5t-16.5 147.5v385q0 160 -78 257t-244 97q-127 0 -218 -67.5t-138 -161.5l193 -152v-18q-70 -25 -107 -80t-37 -127v-321q0 -72 70 -72h108v-80h-116q-72 0 -115 37t-43 110v314q0 78 34 140.5t99 90.5z" />
<glyph unicode="&#xe14;" horiz-adv-x="1247" d="M111 555q0 123 33.5 233.5t99 193.5t163 132t224.5 49q113 0 196.5 -36.5t139 -99t83 -147.5t27.5 -180v-700h-96v702q0 170 -86 273.5t-262 103.5q-109 0 -190 -42t-133 -114.5t-77.5 -168t-25.5 -201.5q0 -127 29.5 -218t79 -150.5t114 -88t131.5 -28.5q41 0 71 6 t58 16l17 -70q-63 -33 -154 -32q-82 0 -161 32.5t-141.5 101t-101 176.5t-38.5 257z" />
<glyph unicode="&#xe15;" horiz-adv-x="1265" d="M111 549q0 135 31.5 240.5t86 182.5t126 125t151.5 66l172 -125l172 125q113 -23 178.5 -93.5t65.5 -213.5v-856h-97v858q0 100 -36.5 151.5t-102.5 67.5l-180 -121l-170 115q-59 -12 -114.5 -52t-96.5 -106.5t-65.5 -156.5t-24.5 -201q0 -115 25.5 -205t70.5 -151.5 t108.5 -94t139.5 -32.5q45 0 79 7t66 23l17 -73q-70 -41 -172 -41q-88 0 -166 36.5t-136.5 107.5t-93 175.5t-34.5 241.5z" />
<glyph unicode="&#xe16;" horiz-adv-x="1216" d="M115 840q20 59 63 117.5t105.5 104.5t140.5 73.5t166 27.5q109 0 193.5 -33.5t143 -92t89.5 -138.5t31 -174v-725h-97v725q0 160 -93 257t-267 97q-135 0 -229.5 -67.5t-141.5 -161.5l193 -152v-18q-70 -25 -107 -80t-37 -127v-321q0 -72 70 -72h108v-80h-116 q-72 0 -115 37t-43 110v314q0 78 34 140.5t99 90.5z" />
<glyph unicode="&#xe17;" horiz-adv-x="1239" d="M174 0v1147h86l14 -215q84 102 197 166.5t250 64.5q172 0 260 -98t88 -299v-766h-96v764q0 160 -60.5 237.5t-201.5 77.5q-63 0 -127 -21.5t-122.5 -58t-108.5 -87t-83 -107.5v-805h-96z" />
<glyph unicode="&#xe18;" horiz-adv-x="1105" d="M109 893q0 123 96 196.5t303 73.5q129 0 236.5 -22.5t183.5 -57.5l-21 -73q-74 35 -175 54t-222 19q-168 0 -238.5 -49t-70.5 -141q0 -84 47 -126t145 -58l355 -56q137 -23 188 -86t51 -168v-104q0 -92 -23.5 -152.5t-74.5 -96.5t-135 -49t-203 -13q-121 0 -203 16 t-134 54t-74.5 101.5t-22.5 157.5v93h92v-93q0 -74 16.5 -122t56.5 -76.5t105.5 -40t163.5 -11.5q100 0 166.5 9.5t106.5 35t55.5 70.5t15.5 117v106q0 82 -39 121t-117 51l-350 52q-135 23 -207.5 85t-72.5 183z" />
<glyph unicode="&#xe19;" horiz-adv-x="1212" d="M170 393v754h96v-752q0 -160 56.5 -243.5t209.5 -83.5q68 0 130.5 22.5t115.5 60t95 89t69 110.5v797h96v-1147h-86l-14 215q-70 -117 -184.5 -174t-239.5 -57q-344 0 -344 409z" />
<glyph unicode="&#xe1a;" horiz-adv-x="1208" d="M170 403v744h96v-744q0 -164 82 -249.5t256 -85.5t256 86t82 249v744h96v-744q0 -205 -107.5 -312t-326.5 -107t-326.5 107.5t-107.5 311.5z" />
<glyph unicode="&#xe1b;" horiz-adv-x="1208" d="M170 403v744h96v-744q0 -164 82 -249.5t256 -85.5t256 86t82 249v1133h96v-1133q0 -205 -107.5 -312t-326.5 -107t-326.5 107.5t-107.5 311.5z" />
<glyph unicode="&#xe1c;" horiz-adv-x="1310" d="M174 0v999q0 74 43 111t115 37h104v-80h-96q-33 0 -52.5 -18.5t-19.5 -53.5v-663q0 -55 -4 -112.5t-12 -115.5h2q12 37 33.5 89.5t38.5 85.5l288 546h91l282 -546q16 -33 36.5 -85.5t33.5 -89.5h2q-8 57 -12.5 114.5t-4.5 113.5v815h95v-1147h-107l-313 612 q-23 45 -36 80t-19 64h-5q-6 -29 -19 -64t-36 -80l-321 -612h-107z" />
<glyph unicode="&#xe1d;" horiz-adv-x="1310" d="M174 0v999q0 74 43 111t115 37h104v-80h-96q-33 0 -52.5 -18.5t-19.5 -53.5v-663q0 -55 -4 -112.5t-12 -115.5h2q12 37 33.5 89.5t38.5 85.5l288 546h91l282 -546q16 -33 36.5 -85.5t33.5 -89.5h2q-8 57 -12.5 114.5t-4.5 113.5v1204h95v-1536h-107l-313 612 q-23 45 -36 80t-19 64h-5q-6 -29 -19 -64t-36 -80l-321 -612h-107z" />
<glyph unicode="&#xe1e;" horiz-adv-x="1376" d="M86 1147h96l135 -842q8 -53 11.5 -98t5.5 -105h4q10 57 21.5 101.5t25.5 87.5l260 799h86l260 -799q14 -43 25.5 -87t21.5 -102h4q2 59 5.5 104.5t11.5 98.5l135 842h96l-186 -1147h-109l-266 809q-12 39 -22.5 82t-16.5 98h-4q-6 -55 -16.5 -98t-22.5 -82l-266 -809 h-109z" />
<glyph unicode="&#xe1f;" horiz-adv-x="1376" d="M86 1147h96l135 -842q8 -53 11.5 -98t5.5 -105h4q10 57 21.5 101.5t25.5 87.5l277 799h86l272 -799q14 -43 25.5 -87t21.5 -102h4q2 59 5 104.5t11 98.5l146 1231h92l-188 -1536h-109l-285 809q-12 39 -22 82t-16 98h-5q-6 -55 -16 -98t-22 -82l-281 -809h-109z" />
<glyph unicode="&#xe20;" horiz-adv-x="1224" d="M78 0v80h74q61 0 61 65v316q0 78 36 137t95 88l-219 141q20 59 64 120t106.5 109t141.5 77.5t167 29.5q109 0 193 -33.5t141 -92t87 -138.5t30 -174v-725h-97v725q0 160 -90 257t-264 97q-68 0 -126 -20.5t-106 -53t-84 -74.5t-57 -85l228 -154v-18q-70 -25 -110 -77 t-40 -124v-332q0 -74 -39 -107.5t-110 -33.5h-82z" />
<glyph unicode="&#xe21;" horiz-adv-x="1212" d="M174 0v1147h96v-797q27 -59 66 -111.5t90 -90t111.5 -59t128.5 -21.5q154 0 217 92t63 252v735h96v-737q0 -209 -89 -317.5t-269 -108.5q-125 0 -232.5 55t-177.5 176l-14 -215h-86z" />
<glyph unicode="&#xe22;" horiz-adv-x="1165" d="M111 338q0 111 51 191.5t160 117.5q-111 29 -161 92.5t-50 157.5q0 111 68.5 186.5t197.5 75.5q51 0 95 -10t71 -21l-15 -75q-23 12 -61.5 19t-79.5 7q-92 0 -138 -51t-46 -135q0 -47 21.5 -83t56 -61.5t77.5 -39t86 -13.5h146l8 -86h-125q-57 0 -105.5 -20.5t-84 -57 t-56 -87t-20.5 -107.5q0 -72 28.5 -123t77.5 -84t113.5 -48t134.5 -15q174 0 256 86t82 249v744h96v-744q0 -205 -107.5 -312t-326.5 -107q-98 0 -180 22.5t-142.5 66.5t-94 110.5t-33.5 154.5z" />
<glyph unicode="&#xe23;" horiz-adv-x="989" d="M102 72l27 75q53 -35 146.5 -59.5t199.5 -24.5q315 0 316 232q0 61 -31 104t-79 73t-106.5 49.5t-113.5 35.5q-61 18 -123 42t-111 59.5t-79.5 88t-30.5 130.5q0 135 95 210.5t280 75.5q106 0 194 -23.5t148 -52.5l-23 -73q-59 29 -134 49t-175 20q-156 0 -224.5 -53 t-68.5 -149q0 -59 22.5 -98.5t62.5 -67t93 -46t115 -36.5q55 -16 121.5 -40t124 -62.5t96.5 -98t39 -145.5q0 -139 -98.5 -221t-303.5 -82q-117 0 -219 26.5t-160 61.5z" />
<glyph unicode="&#xe24;" horiz-adv-x="1216" d="M115 840q20 59 63 117.5t105.5 104.5t140.5 73.5t166 27.5q109 0 193.5 -33.5t143 -92t89.5 -138.5t31 -174v-1135h-97v1135q0 160 -93 257t-267 97q-135 0 -229.5 -67.5t-141.5 -161.5l193 -152v-18q-70 -25 -107 -80t-37 -127v-321q0 -72 70 -72h108v-80h-116 q-72 0 -115 37t-43 110v314q0 78 34 140.5t99 90.5z" />
<glyph unicode="&#xe25;" horiz-adv-x="1146" d="M86 313q0 365 498 365h297v72q0 162 -75 245.5t-239 83.5q-123 0 -219 -33.5t-170 -84.5l-33 73q66 47 174.5 88t245.5 41q199 0 305.5 -109.5t106.5 -301.5v-752h-96v598h-299q-190 0 -295 -63.5t-105 -219.5q0 -68 22.5 -114.5t60.5 -77.5t87 -45.5t103 -14.5 q53 0 93 9.5t75 25.5l18 -73q-35 -20 -85 -30.5t-105 -10.5q-74 0 -140.5 20.5t-117 61t-79 102t-28.5 145.5z" />
<glyph unicode="&#xe26;" horiz-adv-x="1257" d="M78 0v80h74q61 0 61 65v316q0 78 36 137t95 88l-219 141q20 59 64 120t106.5 109t141.5 77.5t167 29.5q109 0 193 -33.5t141 -92t87 -138.5t30 -174v-1135h-97v1135q0 160 -90 257t-264 97q-68 0 -126 -20.5t-106 -53t-84 -74.5t-57 -85l228 -154v-18q-70 -25 -110 -77 t-40 -124v-332q0 -74 -39 -107.5t-110 -33.5h-82z" />
<glyph unicode="&#xe27;" horiz-adv-x="1024" d="M74 1059q59 37 155.5 70.5t204.5 33.5q115 0 204 -41t150.5 -116.5t93 -184t31.5 -243.5q0 -299 -121.5 -446.5t-351.5 -147.5q-123 0 -212 26.5t-148 61.5l24 80q57 -35 141.5 -59.5t184.5 -24.5q186 0 286.5 119.5t100.5 390.5q0 244 -94 372.5t-291 128.5 q-102 0 -189 -29.5t-147 -66.5z" />
<glyph unicode="&#xe28;" horiz-adv-x="1253" d="M170 0v729q0 90 28.5 169t86 138.5t143.5 93t199 33.5q80 0 147.5 -19.5t120.5 -53.5l123 137h110l-170 -191q61 -59 93 -140t32 -171v-725h-96v725q0 78 -23.5 143.5t-68.5 112.5t-112.5 72.5t-155.5 25.5q-178 0 -269.5 -95t-91.5 -253v-291q31 78 104.5 131.5 t176.5 53.5h129v-88h-129q-109 0 -179.5 -64.5t-101.5 -171.5v-301h-96z" />
<glyph unicode="&#xe29;" horiz-adv-x="1232" d="M170 403v744h96v-744q0 -164 82 -249.5t256 -85.5t256 86t82 249v238h-285v80h285v426h96v-426h162l-20 -80h-142v-238q0 -205 -107.5 -312t-326.5 -107t-326.5 107.5t-107.5 311.5z" />
<glyph unicode="&#xe2a;" horiz-adv-x="1146" d="M86 313q0 365 498 365h297v67q0 162 -75 248t-239 86q-123 0 -219 -33.5t-170 -84.5l-33 73q66 47 174.5 88t245.5 41q72 0 134.5 -17.5t109.5 -49.5l119 131h110l-166 -185q104 -115 105 -294v-748h-96v598h-299q-190 0 -295 -63.5t-105 -219.5q0 -68 22.5 -114.5 t60.5 -77.5t87 -45.5t103 -14.5q53 0 93 9.5t75 25.5l18 -73q-35 -20 -85 -30.5t-105 -10.5q-74 0 -140.5 20.5t-117 61t-79 102t-28.5 145.5z" />
<glyph unicode="&#xe2b;" horiz-adv-x="1169" d="M174 0v1147h96v-531l633 531h137l-397 -330q117 -20 184.5 -89t102.5 -196l149 -532h-98l-145 522q-35 113 -95.5 168t-177.5 62l-293 -244v-508h-96z" />
<glyph unicode="&#xe2c;" horiz-adv-x="1310" d="M174 0v1147h94v-815q0 -55 -4 -112.5t-12 -115.5h2q12 37 32.5 89.5t37.5 85.5l282 546h90l289 -546q16 -33 37.5 -85.5t34.5 -89.5h2q-8 57 -12.5 114.5t-4.5 113.5v581q0 92 -45 142.5t-116 50.5h-50l-14 41l264 389h107l-260 -373q100 -10 155.5 -77.5t53.5 -167.5 v-918h-107l-321 612q-23 45 -36.5 80t-19.5 64h-4q-6 -29 -19.5 -64t-35.5 -80l-313 -612h-107z" />
<glyph unicode="&#xe2d;" horiz-adv-x="1167" d="M115 385v66q0 86 49 138t141 52h178v-80h-174q-45 0 -72.5 -29.5t-27.5 -82.5v-64q0 -147 83 -232t259 -85q209 0 309.5 118.5t100.5 374.5q0 258 -111 388t-309 130q-111 0 -207 -36.5t-170 -92.5l-37 72q74 53 180.5 97t241.5 44q121 0 216 -42t159.5 -120.5 t98.5 -191.5t34 -254q0 -281 -122 -426t-384 -145q-213 0 -324.5 107.5t-111.5 293.5z" />
<glyph unicode="&#xe2e;" horiz-adv-x="1167" d="M115 385v66q0 86 49 138t141 52h178v-80h-174q-45 0 -72.5 -29.5t-27.5 -82.5v-64q0 -147 83 -232t259 -85q209 0 309.5 118.5t100.5 374.5q0 258 -111 388t-309 130q-111 0 -207 -36.5t-170 -92.5l-37 72q74 53 180.5 97t241.5 44q141 0 252 -63l114 127h111l-158 -174 q92 -78 140.5 -205t48.5 -293q0 -281 -122 -426t-384 -145q-213 0 -324.5 107.5t-111.5 293.5z" />
<glyph unicode="&#xe2f;" horiz-adv-x="1056" d="M94 1057v90h92v-92q0 -164 59.5 -241t180.5 -77q76 0 143.5 33t117.5 83t80 112.5t30 124.5v57h86v-1147h-97v887q-20 -45 -56 -85t-83 -71t-105.5 -49t-125.5 -18q-88 0 -149.5 28.5t-99.5 80.5t-55.5 125t-17.5 159z" />
<glyph unicode="&#xe30;" horiz-adv-x="579" d="M94 338v61h92v-47q0 -41 18.5 -58.5t65.5 -17.5h207v-79h-219q-74 0 -119 33.5t-45 107.5zM94 946v62h92v-47q0 -41 18.5 -58.5t65.5 -17.5h207v-80h-219q-74 0 -119 33.5t-45 107.5z" />
<glyph unicode="&#xe31;" d="M-557 1460v74h92v-59q0 -41 18.5 -58.5t65.5 -17.5h510v-80h-522q-74 0 -119 33.5t-45 107.5z" />
<glyph unicode="&#xe32;" horiz-adv-x="925" d="M25 1038q59 47 154 86t202 39q190 0 282.5 -106.5t92.5 -306.5v-750h-97v758q0 172 -68.5 246.5t-203.5 74.5q-98 0 -185 -33.5t-151 -80.5z" />
<glyph unicode="&#xe33;" horiz-adv-x="925" d="M-391 1444q0 74 49 122t119 48t119 -48t49 -122t-49.5 -122t-118.5 -48q-70 0 -119 48t-49 122zM-322 1444q0 -47 31 -75t68 -28t67.5 28t30.5 75t-30.5 74.5t-67.5 27.5t-68 -27.5t-31 -74.5zM25 1038q59 47 154 86t202 39q190 0 282.5 -106.5t92.5 -306.5v-750h-97v758 q0 172 -68.5 246.5t-203.5 74.5q-98 0 -185 -33.5t-151 -80.5z" />
<glyph unicode="&#xe34;" d="M-1014 1319v80h844v-80h-844z" />
<glyph unicode="&#xe35;" d="M-1014 1319v80h752v203h92v-283h-844z" />
<glyph unicode="&#xe36;" d="M-1014 1319v80h606q-10 12 -18 31.5t-8 37.5q0 63 44 107.5t103 44.5q61 0 105.5 -44t44.5 -108q0 -61 -44 -105t-106 -44h-727zM-358 1468q0 -35 21.5 -55t49.5 -20q31 0 52.5 20.5t21.5 54.5q0 37 -21.5 57.5t-52.5 20.5q-29 0 -50 -20.5t-21 -57.5z" />
<glyph unicode="&#xe37;" d="M-1014 1319v80h568v203h88v-207h100v207h88v-283h-844z" />
<glyph unicode="&#xe38;" d="M-377 -162h72q66 0 100.5 -31.5t34.5 -105.5v-182h-92v186q0 33 -13.5 45t-39.5 12h-62v76z" />
<glyph unicode="&#xe39;" d="M-705 -162h185v-149q0 -70 31.5 -94.5t97.5 -24.5t97.5 24.5t31.5 94.5v149h92v-149q0 -195 -221 -195t-221 195v73h-93v76z" />
<glyph unicode="&#xe3a;" d="M-319 -242q0 39 27.5 67t68.5 28t68.5 -28t27.5 -67t-27.5 -66.5t-68.5 -27.5t-68.5 27.5t-27.5 66.5z" />
<glyph unicode="&#xe3f;" horiz-adv-x="1118" d="M174 0v1331h391v205h72v-207q160 -14 251 -98t91 -230q0 -59 -18.5 -111t-50 -92t-73.5 -66.5t-87 -37.5q57 -6 109 -29.5t92 -64.5t63.5 -98.5t23.5 -130.5q0 -154 -98 -255.5t-303 -115.5v-205h-72v205h-391zM270 86h295v561h-295v-561zM270 729h295v516h-295v-516z M637 88q158 10 230.5 82t72.5 201q0 143 -81 203.5t-222 70.5v-557zM637 731q111 14 177.5 80.5t66.5 189.5q0 113 -63.5 172.5t-180.5 69.5v-512z" />
<glyph unicode="&#xe40;" horiz-adv-x="450" d="M178 0v1147h94v-1147h-94z" />
<glyph unicode="&#xe41;" horiz-adv-x="851" d="M178 0v1147h94v-1147h-94zM580 0v1147h94v-1147h-94z" />
<glyph unicode="&#xe42;" horiz-adv-x="507" d="M-4 1686q66 106 178.5 166.5t253.5 60.5q109 0 179.5 -18.5t117.5 -36.5l-23 -78q-53 23 -125.5 36t-140.5 13q-104 0 -190 -36t-150 -114q117 -63 172.5 -179t55.5 -255v-1245h-95v1262q0 90 -24.5 155.5t-59 111.5t-74.5 75.5t-71 48.5z" />
<glyph unicode="&#xe43;" horiz-adv-x="507" d="M-47 1753q25 29 58.5 57.5t75.5 51t91 37t105 14.5q72 0 126 -21.5t90 -57.5t54 -83t18 -96q0 -86 -38.5 -148.5t-85 -123t-85 -126t-38.5 -153.5v-1104h-95v1130q0 82 39 151t85 131.5t85 120.5t39 124q0 72 -47 122t-149 50q-82 0 -158 -38t-137 -103z" />
<glyph unicode="&#xe44;" horiz-adv-x="507" d="M-82 1806v80h614v-78q-100 -55 -154 -150t-54 -206v-1452h-95v1411q0 123 46.5 229.5t144.5 165.5h-502z" />
<glyph unicode="&#xe45;" horiz-adv-x="925" d="M25 1038q59 47 154 86t202 39q190 0 282.5 -106.5t92.5 -306.5v-1160h-97v1168q0 172 -68.5 246.5t-203.5 74.5q-98 0 -185 -33.5t-151 -80.5z" />
<glyph unicode="&#xe46;" horiz-adv-x="1118" d="M111 907q0 51 22.5 95.5t59 78t83 55t93.5 27.5l159 -125l166 125q117 -12 183.5 -90t66.5 -223v-1260h-96v1272q0 84 -38 141.5t-99 65.5l-181 -125l-178 127q-27 -2 -52.5 -15.5t-46 -36t-33.5 -51t-13 -61.5q0 -86 49 -132t133 -46q41 0 82 12l16 -71 q-49 -18 -108 -19q-47 0 -95 13.5t-86 43t-62.5 79t-24.5 120.5z" />
<glyph unicode="&#xe47;" d="M-856 1483q0 33 12.5 65.5t36 59t60 42t85.5 15.5h424v-74h-417q-53 0 -84 -29.5t-31 -80.5q0 -41 29.5 -71t72.5 -30q47 0 73 21.5t36 56.5h72q10 -35 36.5 -48t57.5 -13h155v-78h-147q-37 0 -80 19.5t-57 70.5q-12 -51 -57.5 -73.5t-92.5 -22.5q-88 0 -136 50t-48 120z " />
<glyph unicode="&#xe48;" d="M-260 1714v250h88v-250h-88z" />
<glyph unicode="&#xe49;" d="M-537 1903v71h123q43 0 67.5 -20.5t24.5 -73.5v-63q0 -29 29 -29h268v-74h-288q-94 0 -95 86v64q0 39 -38 39h-91z" />
<glyph unicode="&#xe4a;" d="M-582 1806q0 57 35 98.5t94 57.5l88 -64l95 66q51 -4 85.5 -45t34.5 -92q0 -10 -2 -31.5t-6 -34.5q45 18 67.5 50t22.5 92q0 23 -7 47t-13 37h84q6 -12 13 -34t7 -52q0 -31 -13 -65t-38.5 -60.5t-64.5 -44t-88 -17.5h-45l-7 21q6 8 12.5 30.5t6.5 36.5q0 25 -13.5 52.5 t-31.5 33.5l-101 -61l-98 65q-10 -4 -16 -15t-11.5 -25.5t-7.5 -28t-2 -21.5q0 -23 3 -47t12 -45h-76q-10 18 -14.5 48t-4.5 48z" />
<glyph unicode="&#xe4b;" d="M-410 1858v67l154 -2l-2 143h84l-2 -143l156 2v-67l-156 2l2 -146h-84l2 146z" />
<glyph unicode="&#xe4c;" d="M-416 1528v59q0 63 42 104.5t126 41.5h195v-74h-180q-53 0 -73 -23.5t-20 -62.5v-45h-90z" />
<glyph unicode="&#xe4d;" d="M-391 1444q0 74 49 122t119 48t119 -48t49 -122t-49.5 -122t-118.5 -48q-70 0 -119 48t-49 122zM-322 1444q0 -47 31 -75t68 -28t67.5 28t30.5 75t-30.5 74.5t-67.5 27.5t-68 -27.5t-31 -74.5z" />
<glyph unicode="&#xe4e;" d="M-633 1477q0 31 12.5 59.5t39 50t68.5 31.5t99 2q-23 18 -31 37.5t-8 44.5q0 37 32 71.5t97 34.5h93l16 -63h-84q-47 0 -63.5 -19.5t-16.5 -42.5q0 -18 12.5 -43.5t36.5 -40.5l-18 -47q-20 6 -45 10.5t-51 4.5q-49 0 -76 -28t-27 -62q0 -41 29 -67t80 -26q37 0 71 9v-56 q-18 -10 -39.5 -14t-52.5 -4q-33 0 -63.5 10t-55 30.5t-40 50.5t-15.5 67z" />
<glyph unicode="&#xe4f;" horiz-adv-x="1118" d="M123 492q0 90 33.5 169.5t93 139t139.5 93.5t170 34t170 -34t139.5 -93.5t93 -139t33.5 -169.5t-33.5 -170t-93 -139.5t-139.5 -94.5t-170 -35t-170 35t-139.5 94.5t-93 139t-33.5 170.5zM178 492q0 -80 30 -149t82 -121t121.5 -81.5t147.5 -29.5q80 0 148.5 29.5 t121 81.5t82 121t29.5 149q0 78 -29.5 147.5t-82 121.5t-121 81.5t-148.5 29.5q-78 0 -147.5 -29.5t-121.5 -81.5t-82 -122t-30 -147zM324 489q0 49 18 92.5t50 75t75 50t90 18.5q49 0 92 -18.5t75 -50t50.5 -73.5t18.5 -91t-18.5 -92.5t-50.5 -74t-75 -49t-90 -18.5 q-49 0 -92 18.5t-75 50t-50 73.5t-18 89zM399 489q0 -31 12.5 -59.5t34 -50t51 -34.5t62.5 -13q66 0 111 46t45 114q0 63 -46 109t-112 46q-63 0 -110.5 -46t-47.5 -112z" />
<glyph unicode="&#xe50;" horiz-adv-x="1282" d="M111 496q0 113 41 207t112.5 161.5t168.5 104.5t210 37q111 0 207 -37t168 -104.5t112.5 -162t40.5 -206.5q0 -115 -40.5 -209t-112.5 -162t-168 -104.5t-207 -36.5q-113 0 -210 36.5t-168.5 104.5t-112.5 162t-41 209zM205 496q0 -100 33.5 -180t92 -136.5t138.5 -87.5 t172 -31t172 31t138.5 87.5t92 136t33.5 180.5q0 100 -33.5 180t-92 136t-138.5 86t-172 30t-172 -30t-138.5 -86t-92 -136t-33.5 -180z" />
<glyph unicode="&#xe51;" horiz-adv-x="1312" d="M117 502q0 111 39 203t107.5 158.5t165.5 104.5t214 38q137 0 239.5 -49.5t170 -131.5t101.5 -191.5t34 -227.5q0 -154 -47 -272t-129 -199.5t-191.5 -123.5t-232.5 -42h-43l6 77h49q90 0 178 30t159 96.5t114 172t43 256.5q0 113 -27 209.5t-83 167t-141 110.5t-202 40 q-94 0 -174 -32t-137.5 -88t-90 -135t-32.5 -173q0 -84 24.5 -147.5t68.5 -108.5t103.5 -67.5t131.5 -22.5q35 0 75.5 10t75.5 26l10 -75q-35 -18 -79 -30.5t-91 -12.5q-82 0 -156.5 28.5t-131 83t-89 134t-32.5 184.5z" />
<glyph unicode="&#xe52;" horiz-adv-x="1505" d="M168 377v770h94v-770q0 -158 79 -228.5t206 -70.5h409q129 0 210 70.5t81 228.5v301q0 127 -47 181t-121 63l-196 -156l-203 149q-72 -16 -113 -72.5t-41 -127.5q0 -98 58.5 -152.5t146.5 -81.5l-33 -71q-117 25 -189.5 101.5t-72.5 199.5t67.5 198.5t180.5 96.5 l199 -156l180 156q147 -18 212.5 -99.5t65.5 -234.5v-295q0 -84 -24.5 -152.5t-71.5 -119t-116.5 -78t-159.5 -27.5h-432q-90 0 -159 27.5t-116 78t-70.5 119t-23.5 152.5z" />
<glyph unicode="&#xe53;" horiz-adv-x="1327" d="M127 485q0 111 23.5 205t68.5 165t106.5 111t139.5 40t135 -41t80 -113q33 72 94.5 113t138.5 41q72 0 120 -27t77 -71t41 -104.5t12 -127.5v-676h-94v680q0 43 -4 86t-19.5 77t-47 55.5t-85.5 21.5q-92 0 -143 -61.5t-51 -153.5v-312h-84v312q0 90 -36 152.5t-126 62.5 q-61 0 -108.5 -34t-79 -93.5t-48 -138.5t-16.5 -167q0 -98 18.5 -177t50.5 -134t76 -85t97 -30q59 0 106 27l21 -65q-25 -18 -60.5 -26.5t-72.5 -8.5q-68 0 -128.5 33.5t-104.5 98t-70.5 157t-26.5 208.5z" />
<glyph unicode="&#xe54;" horiz-adv-x="1202" d="M111 475q0 121 38.5 216t108.5 162t166 101.5t211 34.5h264q90 0 131 33t41 94v31h90v-31q0 -109 -64.5 -157t-197.5 -48h-262q-92 0 -172 -28.5t-137.5 -84t-90 -135t-32.5 -182.5q0 -98 25.5 -177t70.5 -132t103.5 -82t125.5 -29q66 0 108 26t71 67q-41 72 -41 172 q0 111 65.5 184.5t181.5 73.5h111l-14 -74h-97q-78 0 -117.5 -55.5t-39.5 -128.5q0 -66 20.5 -114t55 -79t81 -45t99.5 -14h119l-13 -74h-114q-74 0 -139.5 23.5t-112.5 70.5q-37 -47 -95.5 -78.5t-142.5 -31.5q-86 0 -159.5 33.5t-129 98t-86 154.5t-30.5 205z" />
<glyph unicode="&#xe55;" horiz-adv-x="1202" d="M111 475q0 193 93 318t251 172q-39 43 -39 102q0 68 47 115t112 47q66 0 112 -47t46 -115q0 -41 -20 -78h186q90 0 131 33t41 94v31h90v-31q0 -109 -64.5 -157t-197.5 -48h-262q-92 0 -172 -28.5t-137.5 -84t-90 -135t-32.5 -182.5q0 -98 25.5 -177t70.5 -132t103.5 -82 t125.5 -29q66 0 108 26t71 67q-41 72 -41 172q0 111 65.5 184.5t181.5 73.5h111l-14 -74h-97q-78 0 -117.5 -55.5t-39.5 -128.5q0 -66 20.5 -114t55 -79t81 -45t99.5 -14h119l-13 -74h-114q-74 0 -139.5 23.5t-112.5 70.5q-37 -47 -95.5 -78.5t-142.5 -31.5 q-86 0 -159.5 33.5t-129 98t-86 154.5t-30.5 205zM487 1067q0 -41 26 -65.5t62 -24.5q35 0 59.5 25.5t24.5 66.5t-24.5 65.5t-59.5 24.5q-37 0 -62.5 -25.5t-25.5 -66.5z" />
<glyph unicode="&#xe56;" horiz-adv-x="1230" d="M41 1163h88l115 -348q68 92 167 141.5t234 49.5q102 0 189.5 -38t151 -104.5t99 -160t35.5 -203.5q0 -104 -28.5 -198.5t-90 -165t-157.5 -111.5t-232 -41q-115 0 -200.5 29.5t-143 78.5t-87 115.5t-29.5 140.5q0 59 18 107.5t51 81.5l72 -52q-23 -27 -37 -63.5 t-14 -75.5q0 -53 21.5 -103t66.5 -91t114.5 -66t163.5 -25q111 0 190 35t130 94.5t74.5 139.5t23.5 172q0 94 -25.5 173t-73.5 135t-120 87t-164 31q-141 0 -227 -54.5t-142 -130.5h-88z" />
<glyph unicode="&#xe57;" horiz-adv-x="1615" d="M127 485q0 111 23.5 205t64.5 165t99.5 111t129.5 40q143 0 191 -146q66 145 209 146q66 0 109.5 -27t70.5 -71t38 -104.5t11 -127.5v-590h60q102 0 163.5 52t61.5 181v828h94v-819q0 -154 -80 -241t-242 -87h-151v680q0 43 -3 86t-16.5 77t-41 55.5t-74.5 21.5 q-78 0 -124 -61.5t-46 -153.5v-91h-84v91q0 45 -4 83.5t-18.5 68.5t-42 46.5t-72.5 16.5q-55 0 -98.5 -34t-73 -93.5t-45 -138.5t-15.5 -167q0 -98 18.5 -177t50.5 -134t76 -85t97 -30q59 0 106 27l21 -65q-25 -18 -60.5 -26.5t-72.5 -8.5q-68 0 -128.5 33.5t-104.5 98 t-70.5 157t-26.5 208.5z" />
<glyph unicode="&#xe58;" horiz-adv-x="1259" d="M152 313v279q0 82 30.5 154.5t88 126t138 85t181.5 31.5h293q90 0 131 33t41 94v31h90v-31q0 -109 -64.5 -157t-197.5 -48h-281q-178 0 -267 -90t-89 -241v-263q0 -104 56 -167.5t142 -67.5l224 223l239 -219q74 25 125 92.5t51 157.5t-47 144.5t-118 80.5l36 74 q49 -10 91 -40t71 -71t45.5 -92t16.5 -102q0 -66 -25 -124.5t-64.5 -104.5t-90 -75.5t-103.5 -33.5l-227 211l-199 -211q-143 8 -230 90t-87 231z" />
<glyph unicode="&#xe59;" horiz-adv-x="1210" d="M111 502q0 111 23.5 203t69.5 158.5t112.5 104.5t152.5 38q49 0 87 -15.5t67.5 -39t50 -52.5t33.5 -57q10 74 58 119t114 45q76 0 120.5 -48.5t61.5 -109.5l53 299h76l-78 -410h-76q-14 92 -57 145.5t-96 53.5q-68 0 -103 -58.5t-35 -136.5l259 -741h-84l-261 739 q-12 33 -27.5 67t-38 61.5t-53 44t-71.5 16.5q-61 0 -110.5 -31t-83 -87t-52 -134t-18.5 -172q0 -98 19.5 -179t53 -139.5t78.5 -91.5t99 -33q59 0 106 27l21 -65q-25 -18 -61 -26.5t-72 -8.5q-68 0 -129.5 36.5t-107.5 103.5t-73.5 162t-27.5 212z" />
<glyph unicode="&#xe5b;" horiz-adv-x="2291" d="M135 588q0 94 29 173t82 137t129 91t168 33q80 0 142.5 -28.5t106.5 -76t69.5 -108.5t31.5 -129h-76q-8 55 -28.5 104.5t-54.5 85t-82 57t-111 21.5q-76 0 -134.5 -28.5t-99.5 -77.5t-62.5 -114.5t-21.5 -139.5q0 -84 31 -153.5t83 -122t123.5 -81t151.5 -28.5 q123 0 218.5 67.5t163 171t105.5 224t46 227.5h51l168 -526l129 483h53l146 -459l116 414h37q10 -78 33 -143.5t55.5 -113.5t75.5 -75t96 -27q49 0 103 21l22 -59q-37 -16 -67.5 -23.5t-67.5 -7.5q-92 0 -159.5 71.5t-118.5 186.5l-101 -381h-41l-153 459l-140 -496h-43 l-147 463q-31 -113 -84 -213t-127 -177t-166 -122t-203 -45q-98 0 -185 36t-151.5 98t-102.5 147t-38 184z" />
<glyph unicode="&#x2000;" horiz-adv-x="1033" />
<glyph unicode="&#x2001;" horiz-adv-x="2066" />
<glyph unicode="&#x2002;" horiz-adv-x="1033" />
<glyph unicode="&#x2003;" horiz-adv-x="2066" />
<glyph unicode="&#x2004;" horiz-adv-x="688" />
<glyph unicode="&#x2005;" horiz-adv-x="516" />
<glyph unicode="&#x2006;" horiz-adv-x="344" />
<glyph unicode="&#x2007;" horiz-adv-x="344" />
<glyph unicode="&#x2008;" horiz-adv-x="258" />
<glyph unicode="&#x2009;" horiz-adv-x="413" />
<glyph unicode="&#x200a;" horiz-adv-x="114" />
<glyph unicode="&#x2010;" horiz-adv-x="618" d="M70 539v75h479v-75h-479z" />
<glyph unicode="&#x2011;" horiz-adv-x="618" d="M70 539v75h479v-75h-479z" />
<glyph unicode="&#x2012;" horiz-adv-x="618" d="M70 539v75h479v-75h-479z" />
<glyph unicode="&#x2013;" horiz-adv-x="1036" d="M74 494v75h889v-75h-889z" />
<glyph unicode="&#x2014;" horiz-adv-x="1990" d="M156 494v75h1679v-75h-1679z" />
<glyph unicode="&#x2018;" horiz-adv-x="374" d="M123 1028q0 35 9 83t24.5 97t35 96.5t37.5 79.5l31 -10q-29 -57 -48 -130t-19 -134q0 -20 3 -28.5t19 -8.5q27 0 44 -17.5t17 -49.5q0 -31 -19 -50.5t-56 -19.5q-35 0 -56.5 22.5t-21.5 69.5z" />
<glyph unicode="&#x2019;" horiz-adv-x="374" d="M98 1331q0 31 19.5 50.5t56.5 19.5q35 0 56.5 -22.5t21.5 -69.5q0 -35 -9.5 -83t-24.5 -97.5t-34.5 -96.5t-38.5 -80l-30 11q29 57 48 129.5t19 134.5q0 20 -3 28.5t-19 8.5q-27 0 -44.5 17t-17.5 50z" />
<glyph unicode="&#x201a;" horiz-adv-x="374" d="M98 141q0 31 19.5 50.5t56.5 19.5q35 0 56.5 -22.5t21.5 -69.5q0 -35 -9.5 -83t-24.5 -97.5t-34.5 -96.5t-38.5 -80l-30 11q29 57 48 129.5t19 134.5q0 20 -3 28.5t-19 8.5q-27 0 -44.5 17.5t-17.5 49.5z" />
<glyph unicode="&#x201c;" horiz-adv-x="667" d="M123 1028q0 35 9 83t24.5 97t35 96.5t37.5 79.5l31 -10q-29 -57 -48 -130t-19 -134q0 -20 3 -28.5t19 -8.5q27 0 44 -17.5t17 -49.5q0 -31 -19 -50.5t-56 -19.5q-35 0 -56.5 22.5t-21.5 69.5zM416 1028q0 35 9 83t24.5 97t35 96.5t37.5 79.5l31 -10q-29 -57 -48.5 -130 t-19.5 -134q0 -20 3.5 -28.5t19.5 -8.5q27 0 44 -17.5t17 -49.5q0 -31 -19.5 -50.5t-55.5 -19.5q-35 0 -56.5 22.5t-21.5 69.5z" />
<glyph unicode="&#x201d;" horiz-adv-x="667" d="M98 1331q0 31 19.5 50.5t56.5 19.5q35 0 56.5 -22.5t21.5 -69.5q0 -35 -9.5 -83t-24.5 -97.5t-34.5 -96.5t-38.5 -80l-30 11q29 57 48 129.5t19 134.5q0 20 -3 28.5t-19 8.5q-27 0 -44.5 17t-17.5 50zM391 1331q0 31 19.5 50.5t56.5 19.5q35 0 56.5 -22.5t21.5 -69.5 q0 -35 -9.5 -83t-24.5 -97.5t-34.5 -96.5t-38.5 -80l-30 11q29 57 48 129.5t19 134.5q0 20 -3 28.5t-19 8.5q-27 0 -44.5 17t-17.5 50z" />
<glyph unicode="&#x201e;" horiz-adv-x="667" d="M98 141q0 31 19.5 50.5t56.5 19.5q35 0 56.5 -22.5t21.5 -69.5q0 -35 -9.5 -83t-24.5 -97.5t-34.5 -96.5t-38.5 -80l-30 11q29 57 48 129.5t19 134.5q0 20 -3 28.5t-19 8.5q-27 0 -44.5 17.5t-17.5 49.5zM391 141q0 31 19.5 50.5t56.5 19.5q35 0 56.5 -22.5t21.5 -69.5 q0 -35 -9.5 -83t-24.5 -97.5t-34.5 -96.5t-38.5 -80l-30 11q29 57 48 129.5t19 134.5q0 20 -3 28.5t-19 8.5q-27 0 -44.5 17.5t-17.5 49.5z" />
<glyph unicode="&#x2020;" horiz-adv-x="1081" d="M139 905v58h357v417h90v-417h356v-58h-356v-905h-90v905h-357z" />
<glyph unicode="&#x2021;" horiz-adv-x="1081" d="M139 315v58h357v532h-357v58h357v417h90v-417h356v-58h-356v-532h356v-58h-356v-417h-90v417h-357z" />
<glyph unicode="&#x2022;" horiz-adv-x="593" d="M115 721q0 74 45 128t137 54t137 -54t45 -128t-45 -128t-137 -54t-137 54t-45 128z" />
<glyph unicode="&#x2026;" horiz-adv-x="1327" d="M135 68q0 35 21.5 59.5t64.5 24.5t64.5 -25t21.5 -59q0 -35 -21.5 -59.5t-64.5 -24.5t-64.5 24.5t-21.5 59.5zM578 68q0 35 21.5 59.5t64.5 24.5t64.5 -25t21.5 -59q0 -35 -21.5 -59.5t-64.5 -24.5t-64.5 24.5t-21.5 59.5zM1020 68q0 35 21.5 59.5t64.5 24.5t64.5 -25 t21.5 -59q0 -35 -21.5 -59.5t-64.5 -24.5t-64.5 24.5t-21.5 59.5z" />
<glyph unicode="&#x202f;" horiz-adv-x="413" />
<glyph unicode="&#x2030;" horiz-adv-x="2224" d="M102 991q0 68 18.5 132.5t53.5 114.5t87 80t118 30t117 -30t86.5 -80t54 -114.5t18.5 -132.5t-18.5 -132t-54 -114.5t-87 -80t-116.5 -29.5q-66 0 -118 29.5t-87 80t-53.5 114.5t-18.5 132zM182 991q0 -55 12.5 -107.5t37 -92t61.5 -64.5t86 -25t86 25t61.5 64.5t36.5 92 t12 107.5t-12 107.5t-36.5 92.5t-61.5 64.5t-86 24.5t-86 -24.5t-61.5 -64.5t-37 -92.5t-12.5 -107.5zM344 0l750 1352h86l-750 -1352h-86zM868 340q0 68 18.5 132.5t53.5 114.5t87 79.5t118 29.5t117 -29.5t86.5 -79.5t54 -114.5t18.5 -132.5t-18.5 -132.5t-54 -114.5 t-87 -79.5t-116.5 -29.5q-66 0 -118 29.5t-87 79.5t-53.5 114.5t-18.5 132.5zM948 340q0 -55 12.5 -107.5t37 -92.5t61.5 -64.5t86 -24.5t86 24.5t61.5 64.5t36.5 92.5t12 107.5t-12 107.5t-36.5 92.5t-61.5 64.5t-86 24.5t-86 -24.5t-61.5 -64.5t-37 -92.5t-12.5 -107.5z M1569 340q0 68 18.5 132.5t53 114.5t87 79.5t117.5 29.5q66 0 117 -29.5t87 -79.5t54.5 -114.5t18.5 -132.5t-18.5 -132.5t-54.5 -114.5t-87 -79.5t-117 -29.5t-118 29.5t-86.5 79.5t-53 114.5t-18.5 132.5zM1649 340q0 -55 12 -107.5t36.5 -92.5t61.5 -64.5t86 -24.5 t86 24.5t61.5 64.5t37 92.5t12.5 107.5t-12.5 107.5t-37 92.5t-61.5 64.5t-86 24.5t-86 -24.5t-61.5 -64.5t-36.5 -92.5t-12 -107.5z" />
<glyph unicode="&#x2039;" horiz-adv-x="536" d="M82 496l272 364h88l-266 -364l266 -365h-88z" />
<glyph unicode="&#x203a;" horiz-adv-x="536" d="M94 131l266 365l-266 364h88l273 -364l-273 -365h-88z" />
<glyph unicode="&#x2044;" horiz-adv-x="835" d="M0 0l750 1352h86l-750 -1352h-86z" />
<glyph unicode="&#x205f;" horiz-adv-x="516" />
<glyph unicode="&#x20ac;" horiz-adv-x="1118" d="M88 514l23 70h149q-4 27 -4 52.5v53.5q0 23 1 47.5t3 50.5h-172l23 70h159q16 98 54 195.5t100.5 173.5t150 123t201.5 47q90 0 152.5 -32t109.5 -75l-22 -71q-90 90 -230 90q-96 0 -167.5 -38t-123 -100.5t-83 -143.5t-45.5 -169h483l-23 -70h-471q-2 -25 -3 -49t-1 -49 q0 -55 6 -106h492l-23 -70h-458q18 -96 56 -177t93 -140.5t127 -93t158 -33.5q72 0 127 23.5t102 68.5l25 -74q-47 -47 -106.5 -76.5t-157.5 -29.5q-109 0 -197 43t-153.5 116.5t-108.5 170t-62 202.5h-184z" />
<glyph unicode="&#x2113;" horiz-adv-x="778" d="M37 379q102 53 213 147v475q0 92 13 169t43 132.5t75 87t106 31.5q98 0 158 -70.5t60 -205.5q0 -197 -88.5 -355.5t-272.5 -289.5v-217q0 -106 25.5 -163t107.5 -57q35 0 61.5 7.5t49.5 17.5l22 -70q-23 -12 -59.5 -22t-81.5 -10q-96 0 -157.5 66.5t-61.5 230.5v161 q-29 -29 -76 -59.5t-104 -62.5zM344 590q74 59 125 118.5t83 125t45 141.5t13 168q0 121 -34.5 160.5t-86.5 39.5q-78 0 -111.5 -80.5t-33.5 -261.5v-411z" />
<glyph unicode="&#x2122;" horiz-adv-x="1564" d="M41 1309v71h563v-71l-239 2v-707h-84v707zM745 604v776h111l195 -444q10 -20 25.5 -57t25.5 -74h4q10 37 25.5 73.5t25.5 57.5l195 444h110v-776h-84v477v46t1 56.5t2 56.5t3 48h-6q-10 -41 -28.5 -89t-40.5 -99l-156 -352h-98l-156 352q-23 51 -41 99t-29 89h-6 q2 -20 3 -48t2 -56.5t1 -56v-46.5v-477h-84z" />
<glyph unicode="&#x2126;" horiz-adv-x="1495" d="M147 788q0 139 42 252t120 192t188.5 122t250.5 43q137 0 248.5 -43t189.5 -122t120 -191.5t42 -252.5q0 -123 -38 -229t-93.5 -194.5t-119 -159t-114.5 -121.5h285v-84h-396v72q55 45 122 112.5t123.5 154.5t95 191.5t38.5 225.5q0 133 -34.5 236.5t-100 174 t-158.5 106.5t-210 36t-210.5 -36t-159 -106.5t-100 -174t-34.5 -236.5q0 -121 37.5 -225.5t95 -191.5t123 -154.5t121.5 -112.5v-72h-394v84h283q-51 51 -114.5 121.5t-119 159t-92.5 195t-37 228.5z" />
<glyph unicode="&#x212e;" horiz-adv-x="1675" d="M74 662q0 150 60.5 276.5t163.5 217.5t242.5 142.5t297.5 51.5t297 -50.5t242.5 -140.5t164 -213t60.5 -268v-45h-1250v-375q18 -23 64.5 -61.5t111 -75.5t144.5 -64.5t164 -27.5q88 0 166.5 24.5t142 59t109.5 74.5t69 71h147q-117 -141 -284.5 -213t-347.5 -72 q-158 0 -297.5 50.5t-242.5 141.5t-163.5 218t-60.5 279zM352 690h971v373q-23 31 -69 71t-110.5 75.5t-142 59t-165.5 23.5q-84 0 -164 -27.5t-144.5 -64.5t-110.5 -76t-65 -61v-373z" />
<glyph unicode="&#x2202;" horiz-adv-x="1200" d="M102 301q0 100 37 201.5t103.5 181.5t161 130t208.5 50q70 0 125.5 -20.5t98.5 -53t72.5 -72.5t47.5 -79q16 78 26.5 156.5t10.5 148.5q0 160 -72.5 246t-213.5 86q-139 0 -250 -62l-13 70q53 27 125 45.5t158 18.5q178 0 270.5 -102.5t92.5 -301.5q0 -88 -17.5 -193.5 t-54.5 -212t-92.5 -207t-129 -177t-167.5 -123.5t-207 -47q-80 0 -140.5 24.5t-100.5 67.5t-59.5 100t-19.5 125zM199 291q0 -115 61.5 -175.5t177.5 -60.5q80 0 157 40t142.5 108.5t114.5 162t76 199.5q-20 41 -47 82t-64 73t-84 52.5t-106 20.5q-106 0 -186.5 -45.5 t-134.5 -118t-80.5 -161.5t-26.5 -177z" />
<glyph unicode="&#x2206;" horiz-adv-x="1257" d="M82 0l522 1380h51l521 -1380h-1094zM205 86h848l-424 1139z" />
<glyph unicode="&#x220f;" horiz-adv-x="1204" d="M184 -98v1478h836v-1478h-96v1394h-643v-1394h-97z" />
<glyph unicode="&#x2211;" horiz-adv-x="1089" d="M82 -43l561 692l-520 660v71h823v-84h-706l505 -647l-542 -669h784v-84h-905v61z" />
<glyph unicode="&#x2212;" horiz-adv-x="1118" d="M127 541v80h864v-80h-864z" />
<glyph unicode="&#x221a;" horiz-adv-x="1058" d="M41 752v79h233l228 -786l379 1335h96l-406 -1407h-129l-235 779h-166z" />
<glyph unicode="&#x221e;" horiz-adv-x="1531" d="M119 635q0 127 81 206t208 79q57 0 108 -18.5t96 -51.5t83 -75t71 -87q27 37 63.5 78t81.5 74.5t97.5 56.5t113.5 23t114.5 -20.5t92.5 -58.5t61.5 -89.5t22.5 -112.5t-20.5 -114.5t-57.5 -91.5t-90 -60.5t-119 -22.5q-104 0 -196 68.5t-156 167.5q-37 -47 -79 -90 t-88 -75t-96 -51.5t-105 -19.5q-61 0 -113.5 20.5t-91.5 57.5t-60.5 89t-21.5 118zM195 637q0 -104 63.5 -166.5t161.5 -62.5q47 0 91 20.5t84 52t75.5 73.5t64.5 85q-59 104 -143 163.5t-176 59.5q-106 0 -163.5 -66.5t-57.5 -158.5zM793 635q66 -104 147.5 -165.5 t175.5 -61.5q55 0 96 19t69 51t42 73t14 86q0 92 -55 158.5t-166 66.5q-98 0 -173 -60.5t-150 -166.5z" />
<glyph unicode="&#x222b;" horiz-adv-x="831" d="M102 -74l23 70q23 -10 49.5 -17.5t61.5 -7.5q82 0 107.5 56.5t25.5 162.5v910q0 164 61.5 230.5t157.5 66.5q45 0 82 -10.5t59 -22.5l-22 -70q-23 10 -49.5 17.5t-61.5 7.5q-82 0 -107.5 -56.5t-25.5 -162.5v-910q0 -82 -16.5 -138t-46 -92t-69.5 -51t-87 -15 q-45 0 -82 10t-60 22z" />
<glyph unicode="&#x2248;" horiz-adv-x="1118" d="M129 344q18 27 45 56.5t60.5 53t70.5 39t78 15.5q66 0 109 -19.5t79.5 -43t72.5 -43t87 -19.5q78 0 130 38t87 87l41 -41q-18 -29 -44.5 -57.5t-60.5 -52t-72 -39t-77 -15.5q-68 0 -111.5 19.5t-79.5 43t-72 43t-85 19.5q-78 0 -130 -38t-87 -87zM129 733q18 27 45 56.5 t60.5 53t70.5 39t78 15.5q66 0 109 -19.5t79.5 -43t72.5 -43t87 -19.5q78 0 130 38t87 87l41 -41q-18 -29 -44.5 -57.5t-60.5 -52t-72 -39t-77 -15.5q-68 0 -111.5 19.5t-79.5 43t-72 43t-85 19.5q-78 0 -130 -38t-87 -87z" />
<glyph unicode="&#x2260;" horiz-adv-x="1118" d="M152 356v80h327l127 320h-454v80h487l139 348h66l-139 -348h262v-80h-295l-127 -320h422v-80h-455l-141 -356h-64l142 356h-297z" />
<glyph unicode="&#x2264;" horiz-adv-x="1118" d="M123 0v63h831v-63h-831zM123 584v61l831 473v-94l-729 -410l729 -409v-94z" />
<glyph unicode="&#x2265;" horiz-adv-x="1118" d="M164 0v63h831v-63h-831zM164 111v94l729 409l-729 410v94l831 -473v-61z" />
<glyph unicode="&#x25ca;" horiz-adv-x="1163" d="M82 700l469 701h61l469 -701l-469 -700h-61zM176 700l406 -608l401 608l-401 609z" />
<glyph unicode="&#x25fc;" horiz-adv-x="993" d="M0 0v993h993v-993h-993z" />
<glyph unicode="&#xf700;" horiz-adv-x="1087" d="M57 1018q76 59 185.5 102t244.5 43q80 0 147.5 -20.5t123.5 -55.5l125 140h110l-170 -191q76 -74 115 -180t39 -235q0 -135 -36 -250t-100.5 -197t-152.5 -128t-192 -46h-95l-120 510q-12 51 -64 51h-80v80h82q78 0 108.5 -29.5t43.5 -83.5l106 -448h35q70 0 135.5 35 t117.5 102.5t84 167.5t32 233q0 209 -101.5 335t-294.5 126q-133 0 -226 -36.5t-171 -94.5z" />
<glyph unicode="&#xf701;" d="M-1137 1319v80h742v-80h-742z" />
<glyph unicode="&#xf702;" d="M-1137 1319v80h650v203h92v-283h-742z" />
<glyph unicode="&#xf703;" d="M-1137 1319v80h504q-10 12 -18 31.5t-8 37.5q0 63 44 107.5t103 44.5q61 0 105.5 -44t44.5 -108q0 -61 -44.5 -105t-105.5 -44h-625zM-584 1468q0 -35 21.5 -55t50.5 -20q31 0 52.5 20.5t21.5 54.5q0 37 -21.5 57.5t-52.5 20.5q-29 0 -50.5 -20.5t-21.5 -57.5z" />
<glyph unicode="&#xf704;" d="M-1137 1319v80h465v203h88v-207h101v207h88v-283h-742z" />
<glyph unicode="&#xf705;" d="M-655 1319v313h96v-313h-96z" />
<glyph unicode="&#xf706;" d="M-928 1538v78h142q49 0 76.5 -24.5t27.5 -84.5v-75q0 -14 6 -23.5t27 -9.5h305v-80h-326q-51 0 -79.5 25.5t-28.5 72.5v76q0 45 -45 45h-105z" />
<glyph unicode="&#xf707;" d="M-1024 1423q0 66 40 114t107 65l101 -72l108 74q57 -8 97.5 -53.5t40.5 -102.5q0 -41 -17 -74q51 23 80 58.5t29 101.5q0 25 -7.5 53.5t-15.5 42.5h96q6 -14 14.5 -38.5t8.5 -59.5q0 -37 -15.5 -75t-45 -68.5t-72.5 -50t-100 -19.5h-52l-6 24q6 8 13.5 33t7.5 43 q0 41 -15.5 65.5t-36.5 33.5l-114 -70l-105 74q-20 -10 -34.5 -40t-14.5 -63q0 -27 3 -54.5t14 -49.5h-89q-10 23 -15 55.5t-5 52.5z" />
<glyph unicode="&#xf708;" d="M-831 1487v78l174 -4l-2 168h92l-2 -168l178 4v-78l-178 2l2 -170h-92l2 170z" />
<glyph unicode="&#xf709;" d="M-801 1319v76q0 68 45 111.5t133 43.5h222v-80h-211q-55 0 -76 -24.5t-21 -67.5v-59h-92z" />
<glyph unicode="&#xf70a;" d="M-266 1319v313h96v-313h-96z" />
<glyph unicode="&#xf70b;" d="M-600 1538v78h141q49 0 77 -24.5t28 -84.5v-75q0 -14 6 -23.5t26 -9.5h306v-80h-326q-51 0 -80 25.5t-29 72.5v76q0 45 -45 45h-104z" />
<glyph unicode="&#xf70c;" d="M-664 1423q0 66 40 114t108 65l100 -72l109 74q57 -8 97 -53.5t40 -102.5q0 -41 -16 -74q51 23 79.5 58.5t28.5 101.5q0 25 -7 53.5t-15 42.5h96q6 -14 14 -38.5t8 -59.5q0 -37 -15 -75t-45 -68.5t-73 -50t-100 -19.5h-51l-6 24q6 8 13 33t7 43q0 41 -15.5 65.5 t-35.5 33.5l-115 -70l-104 74q-20 -10 -34.5 -40t-14.5 -63q0 -27 3 -54.5t13 -49.5h-88q-10 23 -15.5 55.5t-5.5 52.5z" />
<glyph unicode="&#xf70d;" d="M-442 1487v78l174 -4l-2 168h92l-2 -168l178 4v-78l-178 2l2 -170h-92l2 170z" />
<glyph unicode="&#xf70e;" d="M-453 1319v76q0 68 45.5 111.5t133.5 43.5h227v-80h-217q-55 0 -75.5 -24.5t-20.5 -67.5v-59h-93z" />
<glyph unicode="&#xf70f;" horiz-adv-x="1865" d="M115 840q20 59 62 117.5t102.5 104.5t135 73.5t160.5 27.5q104 0 184.5 -33.5t132.5 -92t78.5 -138.5t26.5 -174v-367q0 -150 77 -220t224 -70t224 70.5t77 219.5v789h97v-791q0 -188 -103.5 -280t-294.5 -92q-190 0 -293.5 92t-103.5 280v369q0 160 -80 257t-246 97 q-127 0 -218 -67.5t-138 -161.5l193 -152v-18q-70 -25 -107 -80t-37 -127v-321q0 -72 70 -72h108v-80h-116q-72 0 -115 37t-43 110v314q0 78 34 140.5t99 90.5z" />
<glyph unicode="&#xf710;" d="M-864 1460v74h92v-59q0 -41 18.5 -58.5t65.5 -17.5h422v-80h-434q-74 0 -119 33.5t-45 107.5z" />
<glyph unicode="&#xf711;" d="M-788 1444q0 74 49 122t118 48q70 0 119 -48t49 -122t-49 -122t-119 -48t-118.5 48t-48.5 122zM-719 1444q0 -47 31 -75t67 -28q37 0 68 28t31 75t-31 74.5t-68 27.5t-67.5 -27.5t-30.5 -74.5z" />
<glyph unicode="&#xf712;" d="M-1012 1483q0 33 12.5 65.5t36 59t60.5 42t86 15.5h424v-74h-418q-53 0 -84 -29.5t-31 -80.5q0 -41 30 -71t73 -30q47 0 72.5 21.5t35.5 56.5h72q10 -35 36.5 -48t57.5 -13h156v-78h-148q-37 0 -80 19.5t-57 70.5q-12 -51 -57 -73.5t-92 -22.5q-88 0 -136.5 50t-48.5 120 z" />
<glyph unicode="&#xf713;" d="M-483 1714v250h88v-250h-88z" />
<glyph unicode="&#xf714;" d="M-760 1903v71h123q43 0 67.5 -20.5t24.5 -73.5v-63q0 -29 29 -29h268v-74h-288q-94 0 -95 86v64q0 39 -38 39h-91z" />
<glyph unicode="&#xf715;" d="M-805 1806q0 57 35 98.5t94 57.5l88 -64l95 66q51 -4 85.5 -45t34.5 -92q0 -10 -2 -31.5t-6 -34.5q45 18 67.5 50t22.5 92q0 23 -7 47t-13 37h84q6 -12 13 -34t7 -52q0 -31 -13 -65t-38.5 -60.5t-64.5 -44t-88 -17.5h-45l-7 21q6 8 12.5 30.5t6.5 36.5q0 25 -13.5 52.5 t-31.5 33.5l-101 -61l-98 65q-10 -4 -16 -15t-11.5 -25.5t-7.5 -28t-2 -21.5q0 -23 3 -47t12 -45h-76q-10 18 -14.5 48t-4.5 48z" />
<glyph unicode="&#xf716;" d="M-633 1858v67l154 -2l-2 143h84l-2 -143l156 2v-67l-156 2l2 -146h-84l2 146z" />
<glyph unicode="&#xf717;" d="M-639 1528v59q0 63 42 104.5t126 41.5h195v-74h-180q-53 0 -73 -23.5t-20 -62.5v-45h-90z" />
<glyph unicode="&#xf718;" d="M-377 -479h72q66 0 100.5 -32t34.5 -105v-162h-92v166q0 33 -13.5 45t-39.5 12h-62v76z" />
<glyph unicode="&#xf719;" d="M-705 -479h185v-129q0 -70 31.5 -94.5t97.5 -24.5t97.5 24.5t31.5 94.5v129h92v-129q0 -195 -221 -195t-221 195v53h-93v76z" />
<glyph unicode="&#xf71a;" d="M-319 -565q0 39 27.5 66.5t68.5 27.5t68.5 -27.5t27.5 -66.5t-27.5 -66.5t-68.5 -27.5t-68.5 27.5t-27.5 66.5z" />
<glyph unicode="&#xf71b;" horiz-adv-x="1224" d="M78 0v80h74q61 0 61 65v316q0 78 36 137t95 88l-219 141q20 59 64 120t106.5 109t141.5 77.5t167 29.5q109 0 193 -33.5t141 -92t87 -138.5t30 -174v-1094h-115q-53 47 -136 86t-200 39q-94 0 -164.5 -32.5t-130.5 -90.5l-26 82q49 51 124.5 88t198.5 37q102 0 197.5 -40 t154.5 -97v1022q0 160 -90 257t-264 97q-68 0 -126 -20.5t-106 -53t-84 -74.5t-57 -85l228 -154v-18q-70 -25 -110 -77t-40 -124v-332q0 -74 -39 -107.5t-110 -33.5h-82z" />
<glyph unicode="&#xf71c;" horiz-adv-x="1224" d="M78 0v80h74q61 0 61 65v316q0 78 36 137t95 88l-219 141q20 59 64 120t106.5 109t141.5 77.5t167 29.5q109 0 193 -33.5t141 -92t87 -138.5t30 -174v-1094h-101l-272 164q-35 -86 -101.5 -131t-144.5 -45t-142.5 20.5t-100.5 45.5l28 82q39 -27 95.5 -47.5t115.5 -20.5 q86 0 138.5 59.5t74.5 153.5l313 -186v999q0 160 -90 257t-264 97q-68 0 -126 -20.5t-106 -53t-84 -74.5t-57 -85l228 -154v-18q-70 -25 -110 -77t-40 -124v-332q0 -74 -39 -107.5t-110 -33.5h-82z" />
<glyph unicode="&#xf71d;" horiz-adv-x="1310" d="M174 0v1147h94v-815q0 -55 -4 -112.5t-12 -115.5h2q12 37 32.5 89.5t37.5 85.5l282 546h90l289 -546q16 -33 37.5 -85.5t34.5 -89.5h2q-8 57 -12.5 114.5t-4.5 113.5v344q0 92 -45 145t-116 53h-50l-14 41l232 312h106l-223 -291q98 -10 151.5 -83t53.5 -175v-678h-107 l-321 612q-23 45 -36.5 80t-19.5 64h-4q-6 -29 -19.5 -64t-35.5 -80l-313 -612h-107z" />
<glyph horiz-adv-x="925" d="M-788 1444q0 74 49 122t118 48q70 0 119 -48t49 -122t-49 -122t-119 -48t-118.5 48t-48.5 122zM-719 1444q0 -47 31 -75t67 -28q37 0 68 28t31 75t-31 74.5t-68 27.5t-67.5 -27.5t-30.5 -74.5zM25 1038q59 47 154 86t202 39q190 0 282.5 -106.5t92.5 -306.5v-750h-97v758 q0 172 -68.5 246.5t-203.5 74.5q-98 0 -185 -33.5t-151 -80.5z" />
<glyph d="M-776 1477q0 31 12 59.5t39 50t69 31.5t99 2q-23 18 -31 37.5t-8 44.5q0 37 32 71.5t97 34.5h92l17 -63h-84q-47 0 -63.5 -19.5t-16.5 -42.5q0 -18 12 -43.5t37 -40.5l-19 -47q-20 6 -44.5 10.5t-51.5 4.5q-49 0 -75.5 -28t-26.5 -62q0 -41 28.5 -67t79.5 -26q37 0 72 9 v-56q-18 -10 -39.5 -14t-52.5 -4q-33 0 -63.5 10t-55 30.5t-40 50.5t-15.5 67z" />
</font>
</defs>
</svg>
